<?xml version="1.0" encoding="UTF-8"?>
<svg id="Layer_2" data-name="Layer 2" xmlns="http://www.w3.org/2000/svg" width="177.31" height="77.86" viewBox="0 0 177.31 77.86">
  <g id="Main_Layer" data-name="Main Layer">
    <g>
      <rect x="0" y="0" width="177.31" height="77.86" rx="37.58" ry="37.58" style="fill: #4c585f; stroke-width: 0px;"/>
      <rect x="19.64" y="19.08" width="82.85" height="39.7" rx="19.16" ry="19.16" style="fill: #414042; stroke-width: 0px;"/>
      <circle cx="46.88" cy="38.93" r="14.61" style="fill: #3b3b3c; stroke-width: 0px;"/>
      <circle cx="46.88" cy="38.93" r="8.27" style="fill: #333132; stroke-width: 0px;"/>
      <circle cx="46.88" cy="38.93" r="2.81" style="fill: #2d2a2b; stroke-width: 0px;"/>
      <circle cx="81.74" cy="35.12" r="1.04" style="fill: #231f20; stroke-width: 0px;"/>
      <circle cx="85.95" cy="35.12" r="1.04" style="fill: #231f20; stroke-width: 0px;"/>
      <circle cx="90.15" cy="35.12" r="1.04" style="fill: #231f20; stroke-width: 0px;"/>
      <circle cx="81.74" cy="38.81" r="1.04" style="fill: #231f20; stroke-width: 0px;"/>
      <circle cx="85.95" cy="38.81" r="1.04" style="fill: #231f20; stroke-width: 0px;"/>
      <circle cx="90.15" cy="38.81" r="1.04" style="fill: #231f20; stroke-width: 0px;"/>
      <circle cx="81.74" cy="42.51" r="1.04" style="fill: #231f20; stroke-width: 0px;"/>
      <circle cx="85.95" cy="42.51" r="1.04" style="fill: #231f20; stroke-width: 0px;"/>
      <circle cx="90.15" cy="42.51" r="1.04" style="fill: #231f20; stroke-width: 0px;"/>
      <path d="M23.2,31.65c1.08-1.79,3.02-.74,2.65.86-2.63,4.44-2.62,8.64.06,12.45.74,1.89-1.6,3.08-2.71,1.36-2.52-4.92-2.61-9.82,0-14.67Z" style="fill: #58b947; stroke-width: 0px;"/>
      <g>
        <path d="M67.68,37.59v-.33h1.83v.27c-.18.19-.36.45-.54.76-.18.32-.31.65-.41.98-.07.24-.11.5-.13.78h-.36c0-.22.05-.49.13-.81s.2-.62.36-.91c.16-.29.32-.54.5-.74h-1.39Z" style="fill: #e6e7e8; stroke-width: 0px;"/>
        <path d="M71.69,39.72v.33h-1.87c0-.08.01-.16.04-.24.05-.13.12-.25.23-.38.11-.12.26-.27.46-.43.31-.25.52-.45.62-.6.11-.15.16-.29.16-.42,0-.14-.05-.25-.15-.35-.1-.1-.23-.14-.39-.14-.17,0-.3.05-.4.15s-.15.24-.15.42l-.36-.04c.02-.27.12-.47.28-.61s.37-.21.64-.21.49.08.65.23.24.34.24.56c0,.11-.02.22-.07.33s-.12.22-.23.35c-.11.12-.29.29-.54.5-.21.18-.34.29-.4.36-.06.06-.11.13-.15.19h1.39Z" style="fill: #e6e7e8; stroke-width: 0px;"/>
        <path d="M72.06,38.65c0-.33.03-.6.1-.81.07-.2.17-.36.31-.47.14-.11.31-.17.51-.17.15,0,.29.03.4.09.11.06.21.15.28.27.07.12.13.26.18.42s.06.39.06.67c0,.33-.03.6-.1.8-.07.2-.17.36-.31.47-.14.11-.31.17-.52.17-.27,0-.49-.1-.64-.29-.19-.24-.28-.62-.28-1.15ZM72.42,38.65c0,.46.05.77.16.93.11.15.24.23.4.23s.29-.08.4-.23c.11-.15.16-.46.16-.93s-.05-.78-.16-.93c-.11-.15-.24-.23-.41-.23s-.29.07-.38.2c-.12.17-.18.49-.18.96Z" style="fill: #e6e7e8; stroke-width: 0px;"/>
        <path d="M74.36,40.84v-2.84h.32v.27c.07-.1.16-.18.25-.23.09-.05.21-.08.34-.08.18,0,.33.05.46.14s.24.22.3.38c.07.16.1.34.1.54,0,.21-.04.4-.11.57-.08.17-.19.3-.33.39-.14.09-.29.13-.45.13-.12,0-.22-.02-.31-.07-.09-.05-.17-.11-.23-.19v1h-.35ZM74.67,39.04c0,.26.05.46.16.59.11.13.24.19.39.19s.29-.07.4-.2c.11-.13.17-.33.17-.61s-.05-.46-.16-.59c-.11-.13-.24-.2-.39-.2s-.28.07-.39.21c-.11.14-.17.34-.17.6Z" style="fill: #e6e7e8; stroke-width: 0px;"/>
      </g>
    </g>
  </g>
</svg>