<?xml version="1.0" encoding="UTF-8"?>
<svg id="Layer_2" data-name="Layer 2" xmlns="http://www.w3.org/2000/svg" width="290.41" height="132.5" viewBox="0 0 290.41 132.5">
  <g id="Main_Layer" data-name="Main Layer">
    <g>
      <rect x="3.66" y="16.35" width="31.66" height="100.7" style="fill: #302e2f; stroke-width: 0px;"/>
      <path d="M23.04,131.74l-22.62-.53V1.32s22.69-.27,22.69-.27l-.54,16.44-18.14.3c-.57,0-1.02.47-1.01,1.04l.23,22.73c0,.63.5,1.15,1.13,1.19l1.81.11,16.46,17.57,9.32.27v11.12s-9.32.27-9.32.27l-16.75,17.81-2.01.1c-.5.02-.9.44-.9.94v22.5c0,.82.66,1.49,1.48,1.51l17.88.29.29,16.51Z" style="fill: #393839; stroke-width: 0px;"/>
      <polygon points="23.34 .98 32.97 .64 32.99 23.78 69.51 24.33 69.59 108.33 32.97 108.72 32.93 132.01 23.34 131.52 23.34 104.09 34.68 104.1 31.8 101.87 31.8 30.63 33.59 28.76 23.34 28.41 23.34 .98" style="fill: #363436; stroke-width: 0px;"/>
      <path d="M32.97,108.72l.51,23.24,175.59.28V.26s-176.1.02-176.1.02l.02,23.51,35.26.35c.74,0,1.34.61,1.34,1.35v81.49c0,.89-.72,1.62-1.61,1.62l-35,.12Z" style="fill: #393839; stroke-width: 0px;"/>
      <polygon points="209.07 .26 222.57 .26 224.07 1.76 224.07 130.74 222.57 132.24 209.07 132.24 209.07 .26" style="fill: #302e2f; stroke-width: 0px;"/>
      <polygon points="239.23 54.3 287.24 54.35 290.12 57.23 290.12 75.35 287.24 78.15 239.23 78.1 239.23 54.3" style="fill: #808285; stroke-width: 0px;"/>
      <path d="M224.07,37.68h12.87c.72,0,1.3.58,1.3,1.3v54.55c0,.72-.58,1.3-1.3,1.3h-12.87v-57.15h0Z" style="fill: #2d2a2b; stroke-width: 0px;"/>
      <polygon points="240.74 79.28 238.36 79.37 238.36 53.14 240.74 53.01 240.74 79.28" style="fill: #363436; stroke-width: 0px;"/>
      <path d="M178,132.5s-.02,0-.03,0l-.34-.04h-1.62s-.04,0-.06,0h-.08s-.07.03-.11.03h-.15s0,0,0,0h-2.44s-2.2,0-2.2,0h-27.38s-.06-.02-.09-.03c-.02,0-.03-.02-.05-.03l-2.16.06s0,0,0,0h-7.75s0,0,0,0l-1.79-.03-.95.03s0,0-.01,0h-4.16s-.01,0-.02,0l-.6-.04h-1.33l-.9.04s-.01,0-.02,0h-7.65s-.03,0-.04,0l-.34-.04h-1.6s0,0-.01,0c-.02,0-.04,0-.06,0h-.08s-.07.03-.11.03h-.16s0,0,0,0h-2.44s-2.2,0-2.2,0h-11.43s-.03,0-.04,0l-.34-.04h-1.75s-.02,0-.02.01h0s0,0,0,0c0,0,0,0,0,0,0,0,0,0,0,0h0s-.06.02-.09.02h-.16s0,0,0,0h-14.77s-.04,0-.06,0c-.03,0-.05-.02-.08-.03h-1.78l-.19.03s-.02,0-.03,0h0s-.01,0-.02,0h-2.73s0,0-.01,0l-1.42-.06s-.07.02-.1.02l-1.44.04s0,0-.01,0h-6.33s-.02,0-.04,0l-.33-.04h-1.51l-.24.04s-.03,0-.04,0h-30.47c-.09,0-.17-.05-.21-.11l-.05.03-.32.07s-.02,0-.04,0h0l-32.13-.84s-.02,0-.03,0l-.27-.06-.26-.17s-.05-.04-.06-.07l-.13-.21-.07-.31s0-.02,0-.04H0v-.02H0v-.38H0v-.15H0v-18.35H0v-27.54H0v-36.19H0v-27.54H0V2.27H0v-.15H0v-.33s0-.02,0-.03c0,0,0-.02,0-.03H0v-.02S0,1.7,0,1.69l.05-.27.07-.15.22-.24.3-.14.15-.02s.03,0,.04,0L32.97.02c.08,0,.12.02.17.06l.14.04s.05.02.07.03h.01c.04-.08.13-.14.23-.14h31s.02,0,.04,0l.34.04h1.6s.01,0,.02,0c.02,0,.04,0,.06,0h.08s.07-.02.11-.03h.16s0,0,0,0h2.42S71.63,0,71.63,0h27.18s.01,0,.02,0h.18s.06.02.09.03h0s0,0,0,0t0,0h0s.04.02.05.03l2.16-.06h7.77l1.78.03.96-.03h4.17s.01,0,.02,0l.6.04h1.33l.9-.04s.01,0,.01,0h7.65s.02,0,.04,0l.34.04h1.6s.01,0,.02,0c.02,0,.04,0,.06,0h.08s.03,0,.04-.01h0s0,0,0,0h0s0,0,0,0h0s0,0,0,0h0s0,0,0,0h0s.02,0,.03,0h0s0,0,0,0h0s0,0,0,0h0s.01,0,.02,0h.16s0,0,0,0h2.42S133.55,0,133.55,0h11.43s.03,0,.04,0l.34.04h1.75s.02,0,.02-.01h0s0,0,0,0c0,0,0,0,0,0h0s.06-.02.09-.02h.15s0,0,0,0h14.78s.04,0,.06,0c.03,0,.06.02.08.03h1.78l.19-.03s.02,0,.03,0h0s0,0,0,0c0,0,.02,0,.02,0h2.73s0,0,.01,0l1.42.06s.07-.02.1-.02l1.43-.04h6.34s.02,0,.04,0l.33.04h1.51l.24-.03s.03,0,.04,0h30.47s.03,0,.04,0c.01,0,.02,0,.04,0h13.5s.02,0,.02,0h0s.05,0,.07.02h0s0,0,0,0c.03.01.06.03.08.05h0s0,0,0,0h0s0,0,0,0c0,0,0,0,0,0l1.5,1.5s.01.01.02.02c.02.02.03.05.04.07h0s.01.05.02.07h0s0,.02,0,.02v18.88h0s0,16.78,0,16.78h13.28s.02,0,.02,0h0s.05,0,.07.02h0s0,0,0,0c.03.01.06.03.08.05h0s0,0,0,0h0s0,0,0,0c0,0,0,0,0,0l.75.75s0,0,0,0h0s0,0,0,0h0s0,0,0,0h0s.04.05.05.08h0s.01.05.02.07h0s0,.02,0,.02v14.54h2.13c.14,0,.25.11.25.25v.87h46.24s.06,0,.09.02h0s0,0,0,0h0s.06.03.09.06l.83.82s.02.02.03.02l2.06,2.06s.05.06.06.1h0s0,0,0,0h0s0,.03.01.05h0s0,.02,0,.03v17.99s0,.02,0,.02h0s0,.05-.02.07c0,0,0,0,0,0h0s-.03.06-.05.08h0s0,0,0,0h0s0,0,0,0h0s0,0,0,0l-2.06,2.06s-.02.02-.03.02l-.82.82s-.01.01-.02.02h0s-.04.03-.06.04c0,0,0,0,0,0-.03.01-.07.02-.1.02h-46.24v.87c0,.14-.11.25-.25.25h-2.13v14.54s0,.07-.02.1h0s-.03.05-.05.08l-.75.75s-.05.04-.08.05h0s0,0,0,0c-.03.01-.06.02-.1.02h-13.28v16.77h0v18.89s-.01.08-.03.12h0s0,0,0,0h0s-.01.02-.02.03h0s0,0,0,0c0,0,0,0,0,0h0s-.02.02-.02.03l-1.5,1.5s-.02.02-.02.02c-.02.01-.03.02-.05.03h0s0,0,0,0h0s-.06.02-.09.02h0s-.01,0-.02,0h-13.5s-.03,0-.04,0c-.01,0-.02,0-.04,0h-31ZM209.33,131.99h12.99v-18.82h-12.99v18.82ZM179.47,131.99h29.27v-18.82h-3.2l-.13.84s-.01.05-.02.07l-.5,1.05-.58.72-.62.55-.72.49-.75.4-.72.3-.67.22-.6.16-1.05.21-1.05.12-1.03.04h-.02s0,0-.01,0l-1.53-.08-1.58-.27-.82-.23-.93-.34-.99-.5-.73-.49-.36-.3-.33-.33-.5-.63-.31-.55-.22-.57-.14-.89H33.84v17.9h0v.51h0v.41h30.2l.23-.03h.01s.3-.05.3-.05l.73-.35h.01s0,0,0,0l.18-.07.62-.1.88-.04s0,0,.01,0l.96.06,3.32.41,4.23.18h2.71l.64-.11.65-.37h-.37s-.62.06-.62.06l-.49.08-.3.09s-.02,0-.03,0h0s0,0,0,0h0s-.02,0-.02,0c0,0-.01,0-.02,0-.02,0-.03,0-.04,0,0,0,0,0,0,0l-1.91-.31-1.62-.41-1.45-.54-.94-.47-.88-.52-1.81-1.16-1.06-.61-1.24-.59-1.47-.54-1.65-.45-1.76-.33-1.98-.24-3.96-.18-2.14.02-1.44-.04-.58-.08s-.06-.02-.07-.03c-.02,0-.04-.02-.06-.03-.03-.02-.08-.07-.1-.11-.02-.04-.03-.1-.03-.15,0-.13.08-.25.21-.27,0,0,0,0,.01,0l.17-.06.7-.15.5-.08,1.77-.24,2.18-.24,1.78-.15s0,0,.01,0l2.98-.12h2.89s2.83.12,2.83.12c.14,0,.25.13.24.27,0,.14-.13.25-.27.24l-2.82-.13h-2.86s-2.96.13-2.96.13l-1.77.15-2.17.24-1.35.18h.69s1.66-.01,1.66-.01h.01l2.09.06,1.92.13,2.01.24,1.8.34,1.69.46,1.51.56,1.28.61,1.09.63,1.83,1.17.86.51.91.45,1.4.52,1.57.39,1.82.29.29-.08.54-.09.65-.06.71-.02h8.26s-.08-.11-.08-.19c0-.14.13-.25.26-.25l4.04.09,4.06.04s.03,0,.04,0c.01,0,.02,0,.04,0l1.08.29c.14,0,.25.11.25.25,0,0,0,.01,0,.02,0,.02,0,.03,0,.05,0,.03-.01.06-.03.08h1.29c.12-.07.28-.03.35.09.03.05.04.1.03.15,0,.01,0,.03,0,.04,0,.04-.01.07-.03.1-.02.03-.04.06-.07.08,0,0-.01,0-.02.01l-.26.16h3.28l-1.73-.13s-.06,0-.09-.02c-.03-.01-.05-.03-.07-.05,0,0,0,0,0,0,0,0,0,0,0,0h0s0,0,0,0c-.03-.03-.05-.06-.06-.1h0s-.01-.06-.01-.09c0-.03,0-.06.02-.08h0s0,0,0,0h0s.03-.06.06-.09h0s0,0,0,0h0s.06-.05.1-.06c0,0,0,0,0,0,0,0,0,0,0,0h0s.06,0,.08-.01h.49s0,0,0,0h3.05s.02,0,.02,0c0,0,0,0,0,0l4.32.36,5.48.24.48-.15.67-.41s.04-.02.06-.03c0,0,0,0,0,0h0s.06-.01.08-.01h2.25c.12-.07.28-.03.35.09.03.05.04.1.03.15,0,.01,0,.03,0,.04,0,.04-.01.07-.03.1-.02.03-.04.06-.08.09,0,0-.01,0-.02.01l-.26.16h2.25l-.65-.13s-.04-.01-.06-.02h0s-.07-.04-.09-.07h0s0,0,0,0c-.02-.03-.04-.06-.05-.1,0-.03,0-.06,0-.09h0s.01-.06.02-.08h0s0,0,0,0c.02-.03.04-.06.07-.09,0,0,0,0,0,0h0s.06-.04.1-.05h0s0,0,0,0c.02,0,.04-.01.07,0h15.98s.05,0,.07,0c.04.01.07.03.1.06h0s0,0,0,0c.02.02.05.05.06.08,0,0,0,0,0,0,.01.03.02.06.02.09,0,.03,0,.06,0,.09,0,.01,0,.03-.02.04l3.06-.36s.02,0,.03,0h2.49s0,0,0,0h.32s.05,0,.07,0c0,0,0,0,0,0,.04.01.07.03.1.05t0,0s.04.04.05.06c.01-.02.03-.04.04-.06,0,0,0,0,0,0,0,0,0,0,0,0h0s.06-.05.1-.06h0s0,0,0,0h0s.05-.01.07,0h.3s0,0,0,0h2.93s.02,0,.02,0c0,0,.01,0,.02,0l.76.1c-.05-.05-.08-.12-.08-.2,0-.01,0-.03,0-.04.01-.14.15-.24.28-.23h.03s0,0,.01,0c0,0,0,0,0,0h0s-.01-.06-.01-.09h0c0-.09.03-.18.11-.24.08-.06.19-.05.27,0l6.02-.08,1.89-.05,1.77-.11,1.64-.18,1.42-.24,1.36-.33.93-.3.85-.33.8-.36.75-.38,4.03-2.34.93-.48,1.38-.61,1.44-.48,1.68-.39,1.79-.23s.02,0,.03,0l2.82-.13h2.88s3,.14,3,.14c0,0,0,0,.01,0l1.79.15,3.16.36.82.12,1.31.29c.11,0,.21.08.24.19h0s0,.07,0,.11c0,.03,0,.07-.02.1-.02.04-.05.09-.08.12-.02.01-.06.04-.08.05-.01,0-.12.04-.14.05l-.41.06-.81.04h-1.25s-1.65-.01-1.65-.01l-3.98.18-1.89.23-1.39.24-1.61.4-1.43.48-.8.33-.77.37-.73.4-3.39,2.09-1.25.58-1.34.45-1.26.29,3.54.29,5.48.24.48-.15.67-.41s.04-.02.06-.03c0,0,0,0,0,0h0s.06-.01.08-.01h2.25c.12-.07.28-.03.35.09.03.05.04.1.03.15,0,.01,0,.02,0,.03h0s-.01.08-.03.12c-.02.03-.04.06-.07.08,0,0-.01,0-.02.01l-.26.16ZM161.02,131.99h3.26l-1.73-.13s-.06,0-.09-.02c-.03-.01-.05-.03-.08-.05,0,0,0,0,0,0,0,0,0,0,0,0h0s-.05-.06-.06-.1h0s-.01-.06-.01-.09c0-.03,0-.05.02-.08h0s0,0,0,0t0,0h0s0-.02.01-.02h-.96s.01.06.01.09c0,.01,0,.02,0,.03,0,0,0,0,0,0h0s-.01.08-.03.11c-.02.03-.04.05-.06.08,0,0,0,0,0,0,0,0-.01,0-.02.01l-.25.17ZM140.36,131.99l2.17-.03-.78-.09s-.05,0-.07-.02h0s-.07-.04-.1-.07h0s0,0,0,0c0,0-.02-.02-.02-.03,0,.01-.02.02-.02.04-.02.03-.06.05-.09.07h0s0,0,0,0c-.02.01-.05.02-.07.02l-1,.13ZM81.9,131.99h.83s.03,0,.04,0h.09s0-.02-.01-.02c0,0,0,0,0,0-.01-.03-.02-.06-.02-.09h0s0-.06,0-.08h0s0,0,0,0h0s.03-.07.06-.1c.02-.02.05-.04.08-.06h0s0,0,0,0h0s.05-.02.07-.02l.9-.11h-1.69s.01.06.01.09c0,.01,0,.02,0,.04,0,.04-.01.08-.03.11-.02.03-.04.05-.07.07,0,0-.02.01-.03.02l-.26.16ZM177.64,131.95h.33l.5-.09h-1.18l-.14.09h.48s0,0,0,0ZM115.72,131.95h.33l.5-.09h-1.18l-.14.09h.48s0,0,0,0ZM97.24,131.95h.33l.5-.09h-1.37s0,.02,0,.02c0,.02,0,.04-.02.06h.55s0,0,0,0ZM79.79,131.95h.61l.51-.09h-.96l-.15.09ZM65.86,131.95h.33l.57-.1-.81.05-.25.05h.14s0,0,0,0ZM158.77,131.91h1.14l.14-.05h-1.21l-.07.05ZM122.61,131.86l.24.02s0-.01,0-.02h-.24ZM156.49,131.85h1.37l.32-.15.28-.2-.5.02-.69.07-.49.1-.29.17ZM222.83,113.05v18.58l.99-1.02v-18.26l-.99.7ZM150.48,131.62h5.4l.42-.3s.03-.02.04-.03c0,0,.02,0,.03-.01l.27-.11.57-.12.73-.07.82-.03h7.77s2.24-.56,2.24-.56l1.78-.77,1.59-.96,1.77-1.11,1.14-.61,1.22-.53,1.48-.5,1.65-.41,3.34-.48,4.02-.19s.01,0,.02,0l1.68.02h.72s-1.37-.19-1.37-.19l-3.16-.33-.81-.06-2.98-.12h-2.86s-2.8.12-2.8.12l-1.76.22-1.63.38-1.39.47-1.35.59-.91.47-4.03,2.34-.77.39-.83.37-.88.34-.96.31-1.4.34-1.46.25-1.66.18-1.78.11s0,0,0,0h0l-7.18.13,1.23.2,2.06.27ZM23.37,131.19l9.35.23v-18.27l-9.13-.17v17.77c0,.14-.11.25-.25.25s-.25-.11-.25-.25l-.03-17.82-.05-.02v1.77h0v16.05h0s.03.23.03.23l.07.11.11.07.15.03ZM33.23,113.13v18.19l.07-.11.03-.23v-17.88l-.11.03ZM1.09,130.58l20.79.5v-15.69l-17.31-.3s-.02,0-.04,0l-.28-.04-.32-.12-.25-.16-.21-.21s-.03-.03-.04-.05l-.2-.36s-.02-.05-.03-.08l-.07-.4s0-.01,0-.02c0-.01,0-.02,0-.03v-1.01l-2.04-.04v18.01ZM22.39,115.36v15.63l.09-.14.02-.08v-15.44l-.11.03ZM197.33,117.29v.54l.75-.03,1.01-.11,1.01-.2.57-.15.64-.21.68-.28.71-.37.67-.46.57-.5.52-.64.46-.97.15-.98-.15-1.07-.46-1.06-.73-.96-.22-.19.28.36.43.99s.02.04.02.07l.14.97s0,.05,0,.07l-.14.97s0,.04-.02.06l-.4.94-.68.92-.91.79-1.11.65-1.26.48-1.36.29-1.17.08ZM189.08,112.91l.15,1.02.19.48.28.49.45.56.3.3.62.49.38.25.94.48.88.32.78.21,1.53.26,1.23.07v-.54l-1.14-.08-1.36-.29-1.26-.47-1.11-.64-.91-.78-.69-.9-.43-.99s-.02-.04-.02-.06l-.14-.97s0-.05,0-.07l.14-.97s0-.04.02-.07l.4-.93.31-.41-.25.22-.73.97-.42,1.01-.15,1.07ZM190.41,112.97l.39.9.62.81.84.72,1.03.59,1.18.44,1.29.27,1.32.09,1.36-.1,1.29-.28,1.18-.45,1.03-.6.84-.73.61-.82.36-.85.13-.9-.13-.9-.39-.9-.62-.81-.84-.71-1.03-.59-1.18-.44-1.29-.27-1.32-.09-1.36.1-1.29.28-1.18.45-1.03.6-.84.73-.61.82-.36.85-.13.9.13.9ZM4.82,114.58l17.15.3h0s0,0,0,0c0,0,0,0,0,0h0s0,0,0,0c0,0,0,0,0,0h0s0,0,0,0c0,0,0,0,0,0h0s0,0,0,0t0,0s0,0,0,0c0,0,0,0,0,0,0,0,0,0,0,0t0,0s0,0,0,0h0s0,0,0,0c0,0,0,0,0,0,0,0,0,0,0,0,0,0,0,0,0,0h0s0,0,0,0c0,0,0,0,0,0,0,0,0,0,0,0h0s0,0,0,0h0s0,0,0,0c0,0,0,0,0,0h0s0,0,0,0c0,0,0,0,0,0,0,0,0,0,0,0,0,0,0,0,0,0h0s0,0,0,0h0s0,0,0,0h0s0,0,0,0h0s0,0,0,0c0,0,0,0,0,0h0s0,0,0,0h0s0,0,0,0h0s0,0,0,0c0,0,0,0,0,0h0s0,0,0,0h0s0,0,0,0h0s0,0,0,0h0s0,0,0,0c0,0,0,0,0,0h0s0,0,0,0h0s-.04,0-.04,0c0,0,0-.06,0-.06,0,0,0-.02,0-.03,0,0,0-.02,0-.03h0s0-.35,0-.35l-17.06-.3v.54ZM3.86,114.23l.15.15.31.15v-.54s-.17-.09-.17-.09l-.2-.19-.26.12.02.11.16.29ZM22.42,113.88l.08.03v-1.05h-.05s-.02,0-.03,0v1.02ZM12.46,113.67l9.45.17v-1.86l-9.45-.1v1.8ZM11.87,113.66h.08s-.02-1.82-.02-1.82l-.06-.02v1.84ZM11.28,113.65h.08s0-2.4,0-2.4h0v-3.25h0s-.03-3.99-.03-3.99l-.05-.07v9.71ZM6.93,113.57l3.84.07v-9.82l-3.67-.06v.23s0,.05-.01.08c0,0,0,0,0,0h0s0,.01,0,.02c0,0,0,0,0,0,0,.02-.02.03-.02.05l-.08.13s-.06.07-.1.09l-.25.13-.44.11-.51.04h0s0,0,0,0h-.81s0,8.1,0,8.1h.82s.02.01.04.01l.23.03.28.09s.05.02.07.04l.38.28s.05.04.07.07l.21.33ZM3.64,112.58v.73l.1-.09v-.41s0,0,0,0v-.25l-.11.03ZM4.26,112.68l.08.02v-8.14l-.08-.03v7.4h0v.75ZM209.33,112.66h12.99v-27.62h-12.99v27.62ZM205.54,112.66h3.2v-27.62H69.84v21.83h0v.42s0,.01,0,.02c0,0,0,.02,0,.02l-.03.2s0,.04-.02.06l-.08.2-.17.23-.22.2-.26.16-.29.12-.31.07-.32.03s-.02,0-.03,0l-33,.41-1.28.9v2.56h0v.19h154.76l.13-.92s0-.04.02-.06l.47-1.09.79-1.06,1.06-.92,1.29-.75,1.46-.56,1.58-.34,1.64-.12s.02,0,.02,0c0,0,.01,0,.02,0l1.6.11,1.58.34,1.46.55,1.29.74,1.07.91.8,1.05.5,1.15s.02.04.02.07l.13.92ZM23.59,112.48l9.13.17v-3.92h0c0-.06.02-.12.06-.16h0s0,0,0,0h0s0,0,0,0h0s0,0,0,0h0s0,0,0,0h0s0,0,0,0h0s0,0,0,0h0s0,0,0,0h0s0,0,0,0h0s0,0,0,0h0s0,0,0,0h0s0,0,0,0h0s0,0,0,0c0,0,0,0,0,0,0,0,0,0,0,0h0s0,0,0,0h0s0,0,0,0h0s0,0,0,0c0,0,0,0,0,0h0s0,0,0,0c0,0,0,0,0,0h0s0,0,0,0h0s0,0,0,0h0s0,0,0,0h0s0,0,0,0h0s0,0,0,0h0s0,0,0,0h0s0,0,0,0h0s0,0,0,0h0s0,0,0,0c0,0,0,0,0,0,0,0,0,0,0,0,0,0,0,0,0,0,0,0,0,0,0,0,0,0,0,0,0,0h0s0,0,0,0h0s0,0,0,0h0s0,0,0,0c0,0,0,0,0,0h0s0,0,0,0h0s0,0,0,0h0s.09-.07.14-.04h.36s0-3.63,0-3.63l-9.74-.12v7.76ZM33.23,108.98v3.62l.11-.13v-2.67h0v-.42h0v-.39h-.11ZM222.83,84.91v27.51l.99-.7v-27.51l-.99.7ZM23.01,112.31l.07.09-.03-7.73-.05-.02v7.66ZM1.09,112.06l2.04.04v-21.04s0-.02,0-.03c0,0,0-.01,0-.02l.06-.38s.01-.06.03-.08l.2-.37s.03-.05.05-.07l.27-.25s.04-.03.06-.04l.32-.15s.05-.02.07-.02l.32-.05s0,0,.01,0h0s.02,0,.03,0h0l1.29-.02,4.09-4.38-8.85-.17v27.03ZM3.66,91.28v20.76l.08-.07v-.05s0-8.12,0-8.12h0v-12.54l-.09.03ZM12.46,111.36l9.45.1v-2.45l-3.52-.06h-.07s-5.86-.1-5.86-.1v2.51ZM11.87,111.24l.08.06v-2.5l-.05-.02s-.02,0-.03-.01v2.47ZM18.33,108.45l3.58.06v-34.91l-8.05,8.62s0,0,0,0l-6.76,7.25v13.49l3.93.09s.02,0,.02,0h0s.02,0,.03,0l.4.08s.06.02.08.03l.35.22s.05.04.07.07l.31.42s.04.06.04.1l.11.51s0,.02,0,.03c0,.01,0,.02,0,.04v3.75l5.88.15ZM33.84,104.84v3.63h.64s.02,0,.03,0l33.85-.44.23-.05.21-.08.17-.11.13-.12.13-.23.02-.22h0v-22.17h-33.48v18.69s0,.02,0,.04c0,0,0,.02,0,.03l-.04.18s-.02.06-.04.09l-.13.18s-.03.04-.05.06l-.22.17s-.04.03-.06.04l-.61.24s-.04.01-.06.02l-.69.08s-.02,0-.03,0ZM11.87,107.98l.08.23v-3.43h-.08v3.19ZM34.09,104.04v.27s.38-.04.38-.04l.62-.28-.11.04-.21.04h-.48s-.21-.03-.21-.03ZM11.87,104.28h.02l-.02-.09v.09ZM23.01,104.05l.09.1h0s-.02-.06-.02-.09c0,0,0-.01,0-.02h0s0-.06,0-.09l-.08.1h0ZM6.22,103.95l-.14.1s-.04.03-.07.03h0s.3-.06.3-.06l-.08-.08ZM4.85,103.64h.56s0-13.37,0-13.37h-.56v13.37ZM4.26,103.62h.08s0-13.19,0-13.19l-.05.08-.03.15v12.96ZM33.93,103.5l.41.07h.25s-1.99-1.4-1.99-1.4l-.17.28,1.5,1.05ZM5.92,90.26v13.27h0s.08-.17.08-.17v-.48h0v-12.63h-.08ZM23.6,103.36l9.42.12-1.13-.79s-.02-.01-.03-.02c0,0,0,0-.01-.01l-.23-.23s-.05-.06-.06-.1l-.11-.35s0-.03-.01-.05h0s0-.02,0-.04v-10.32l-7.83.05v11.76ZM23.01,91.79v11.62l.09-.02v-11.72l-.08.07v.05ZM32.71,101.62l2.14,1.5v-18.33l-2.14-1.51v18.34ZM6.52,102.95h.07v-12.94s-.04.04-.05.04c0,0-.02.01-.03.02v12.87ZM32.02,102.1l.02.02.05-.07-.08.03v.03ZM31.94,93.74v7.82l.08-.07v-.05s0-7.33,0-7.33l-.05-.36s-.02,0-.04,0ZM224.32,94.57h13.03v-28.06h-13.03v17.21h0v10.85ZM237.86,66.5v27.7l.24-.27v-27.43h-.24ZM23.01,76.55v14.61l.09-.02v-14.55l-.09-.03ZM23.6,76.63v14.47l8.07-.05s.03,0,.04,0v-14.25s0-.05,0-.07l-.1-.04-8.03-.07ZM22.42,73.06v17.89s.02,0,.03,0h.05v-15.18h0v-2.8l-.08.09ZM1.09,84.52l9.31.18,2.29-2.81-11.6-.23v2.86ZM209.33,84.53h12.99v-2.86h-12.99v2.86ZM69.84,84.53h138.9v-2.86H69.84v2.86ZM35.78,84.53h33.48v-2.86h-33.48v2.86ZM222.83,81.67v2.62l.99-.7v-1.92h-.99ZM32.71,82.65l2.14,1.51v-2.5h-2.14v.98ZM13.25,82.01l-.78.95.84-.9-.06-.06ZM13.58,81.63l.07.07,8.31-8.9s.01-.01.02-.02l.5-.54-.07-.07-8.83,9.46ZM1.1,81.15l12.02.23,9.1-9.75s.01-.02.02-.02c0,0,.01-.01.02-.01l.33-.25s.06-.04.09-.04l.52-.13s.02,0,.03,0c.01,0,.04,0,.04,0l8.15-.14v-9.56l-8.15-.14s-.04,0-.05,0l-.41-.08s-.06-.02-.09-.04l-.44-.3s-.02-.02-.04-.03c0,0-.01-.01-.02-.02l-9.1-9.75-12.02.23v29.8ZM35.78,81.16h33.48v-29.82h-33.48v29.82ZM32.71,81.16h2.14v-29.82h-2.14v29.82ZM69.84,51.34v29.82h138.9v-29.82H69.84ZM222.83,81.16h.99v-29.82h-.99v29.82ZM209.33,81.16h12.99v-29.82h-12.99v29.82ZM238.61,79.02h1.87v-12.52h-1.87v12.52ZM240.99,75.83v1.25h46.13s1.81-2.04,1.81-2.04l-.37.23-1.21.55s-.05.02-.07.02c-.01,0-.03,0-.04,0h-46.24ZM289.32,74.31s.03,0,.04,0l.1.02c.06.01.12.04.16.09.03.03.07.11.08.15,0,.03.01.1,0,.13l-.06.19-.12.21-.43.51-.98,1.09,1.15-1.01s.05-.03.06-.03c.02-.01.05-.02.07-.02l.5-.53v-8.61l-2.41.02v.3l1.05.51.57.14.2.09s.04.02.06.04l.12.1s.04.04.05.06l.1.16s.02.04.03.06l.04.26-.05.31-.12.24s-.03.04-.05.06l-.28.28-.65.44-1.06.93v.98l.94.02.57-.11h.2s.05,0,.08,0l.12.04s.08.04.11.07l.1.1s.04.06.06.09l.03.07s.01.04.01.06v.09s-.05.3-.05.3l-.12.24-.45.52-.5.47-1.09,1.25v.46l.83-.37.77-.45.16-.05s.05,0,.07,0ZM31.94,76.11l.09.03v-4.08l-.09.03v4.02ZM23.6,76l7.83.07v-3.93l-7.83.14v3.72ZM23.01,75.75l.09.17v-3.57l-.04.04h-.01s-.03.04-.03.04v3.33ZM240.99,75.33h45.99v-.48h-45.99v.48ZM240.99,74.34h46.13l1.1-1.22.63-.6.26-.32.09-.26-.04-.02h-.12l-.57.11-1.24-.02h-46.24v2.33ZM22.8,71.83l.07.06.15-.07v-.07s-.22.08-.22.08ZM23.52,71.68v.09s7.9-.14,7.9-.14v-.09s-7.9.14-7.9.14ZM240.99,71.5h45.99v-.83h-45.99v.83ZM31.92,71.03h.1l-.02-9.55h-.08v9.55ZM240.99,70.16h46.15l1.1-.97.64-.43.21-.22.1-.29v-.07s-.14-.16-.14-.16l-.12-.06-.57-.14-1.18-.58h-46.19v2.92ZM240.99,66.73l45.99-.02v-.94h-45.99v.96ZM287.49,66h2.41v-8.64l-.5-.5s-.06-.01-.08-.03c0,0-.05-.03-.06-.04l-.51-.44-.63-.56,1.41,1.61.16.32s.02.1.02.11c0,.03,0,.06,0,.1-.01.05-.05.14-.09.17-.04.04-.13.09-.18.09h-.1s-.08,0-.12-.01l-.43-.2-.5-.3-.79-.35v.49l1.12,1.24.78.77.14.19.16.39v.14s0,.14,0,.14c0,.02-.01.05-.02.07l-.03.07s-.04.06-.06.09l-.1.09s-.09.06-.14.06l-.28.03s-.05,0-.08,0l-.61-.12-.87.03v.98l1.1.97.59.39.18.16.15.18.13.25.06.31-.05.3s-.02.04-.03.06l-.1.16s-.05.06-.08.08l-.28.17s-.04.02-.07.03l-.61.16-.98.52v.3ZM238.61,66h1.87v-12.52h-1.87v12.52ZM237.86,66h.24v-27.46l-.24-.24v27.7ZM224.32,66h13.03v-28.06h-13.03v10.84h0v17.22ZM240.99,65.26h46.18l1.12-.55.63-.17.2-.12.07-.2-.03-.14-.08-.15-.21-.21-.59-.39-1.14-1h-46.15v2.92ZM240.99,61.83h45.99v-.83h-45.99v.83ZM23.52,60.82l7.9.14v-.09s-7.9-.14-7.9-.14v.09ZM22.95,60.75h.07s0-.07,0-.07l-.15-.07-.06.05.14.09ZM288.4,60.46l.63.12.16-.05-.03-.1-.18-.29-.14-.15-.6-.57-1.13-1.25h-46.13v2.33h46.24l1.17-.03ZM31.94,60.41l.09.03v-4.08l-.09.03v4.02ZM23.6,60.22l7.83.14v-3.93l-7.83.07v3.72ZM13.58,50.87l8.83,9.46.07-.07-8.83-9.46-.07.07ZM23.03,60.1l.06.06v-3.57l-.09.15.02,3.37ZM22.42,59.44l.08.09v-2.79h0v-15.18h-.05s-.02,0-.03,0v17.89ZM13.86,50.27h0l8.05,8.62V23.99l-5.32.11-4.13.11v3.75s0,.02,0,.03c0,0,0,.02,0,.02l-.07.41s-.01.05-.03.08l-.2.36s-.04.05-.06.08l-.4.33s-.06.04-.1.05l-.51.13s-.02,0-.03,0c-.01,0-.03.01-.04,0l-3.92.09v13.49l6.76,7.25ZM240.99,57.65h45.99v-.48h-45.99v.48ZM287.35,56.69l1.17.53.43.26-.09-.11-.61-.66-1.12-1.29h-46.13v1.24h46.24s.04,0,.06,0c.02,0,.04.01.06.02ZM23.01,41.34v14.61l.09-.03-.03-14.56-.06-.02ZM23.6,41.4v14.47l8.14-.08s-.02-.06-.02-.1v-14.25s-.03,0-.04,0l-8.07-.05ZM1.09,47.98v2.86s11.6-.23,11.6-.23l-2.29-2.81-9.31.18ZM222.83,50.83h.99v-1.92l-.99-.7v2.62ZM209.33,50.83h12.99v-2.86h-12.99v2.86ZM69.84,50.83h138.9v-2.86H69.84v2.86ZM35.78,50.83h33.48v-2.86h-33.48v2.86ZM32.71,50.83h2.14v-2.5l-2.14,1.52v.98ZM12.47,49.53l.78.95.06-.06-.84-.9ZM32.71,30.88v18.34l2.14-1.51v-18.33l-2.14,1.5ZM222.83,47.59l.99.7v-27.51s-.99-.7-.99-.7v27.51ZM1.09,20.44v27.03l8.85-.17-4.09-4.38-1.29-.02h0s-.02,0-.03,0l-.25-.03-.31-.1-.29-.18s-.05-.04-.06-.06l-.33-.43s-.04-.06-.05-.1l-.1-.48s0-.02,0-.04c0,0,0-.02,0-.03v-21.03l-2.04.04ZM209.33,47.46h12.99v-27.62h-12.99v27.62ZM69.84,47.46h138.9v-27.62h-3.2l-.13.92s0,.04-.02.07l-.47,1.09-.79,1.06-1.06.92-1.29.75-1.46.56-1.58.34-1.64.12s0,0,0,0h0s-.03,0-.04,0l-1.6-.11-1.58-.34-1.46-.55-1.29-.74-1.06-.91-.8-1.05-.5-1.15s-.02-.04-.02-.06l-.13-.92H33.84v.18h0v2.56l1.28.9,33,.41h0s.01,0,.02,0l.29.02.31.07.29.11.26.15.22.19.17.22.11.25s.01.04.02.06l.03.2s0,.02,0,.02c0,0,0,.01,0,.02v.42h0v21.84ZM35.78,47.46h33.48v-22.16h0s-.02-.22-.02-.22l-.07-.15-.1-.12-.14-.11-.17-.1-.21-.08-.23-.05-.23-.02-33.58-.42s-.02,0-.03,0h-.64s0,3.62,0,3.62c0,0,0,0,.01,0h0s0,0,0,0h0l.55.05.57.16.4.22s.04.03.06.05l.21.23s.05.07.06.1l.06.23s0,.03,0,.04c0,.01,0,.02,0,.04v18.69ZM6.58,42.48s0,0,0,0v-12.94l-.08.05v12.82s.05.04.05.04c0,0,.01.01.02.02ZM5.92,42.24h.08s0-12.62,0-12.62h0s-.02-.57-.02-.57l-.06-.08v13.27ZM4.85,42.22h.56s0-13.36,0-13.36h-.56v13.36ZM4.29,41.99l.05.08v-13.2h-.08s.03,13.11.03,13.11ZM3.73,41.83h0s0-.01,0-.01h0ZM3.66,41.22l.09.03v-12.54h0s-.05-8.23-.05-8.23l-.04-.03v20.76ZM23.6,40.9l7.83.05v-10.31s0-.02,0-.04c0-.01,0-.02,0-.04l.07-.28s.03-.08.06-.11l.28-.31s.01-.02.02-.02c0,0,.02-.02.03-.02l1.13-.79-9.42.12v11.75ZM23.01,40.74l.08.09-.03-11.73-.06-.02v11.65ZM31.94,30.94v7.82s.02,0,.04,0h.02l.03-.36-.05-7.43-.04-.02ZM32.01,30.43l.07.03-.04-.06-.03.03ZM32.43,30.06l.02.03,1.56-1.09h-.08s-1.5,1.06-1.5,1.06ZM7.1,28.53v.23l3.67-.06v-9.82l-3.84.07-.21.33s-.04.05-.07.07l-.38.28s-.04.03-.07.04l-.23.08-.28.04s-.03,0-.04,0h-.82v8.12h.81s0-.01.01-.01l.48.03.41.1.3.15s.07.05.1.09l.08.13s.02.03.02.05c0,0,0,0,0,0h0s0,0,0,.01c0,0,0,0,0,0h0s.01.06.01.09ZM23.01,28.48l.07.09s0-.09,0-.1h0s0-.07,0-.1l-.07.1h0ZM11.28,18.85v9.71l.08-.22h0v-3.83h0v-3.24h0v-2.41h-.08ZM6,28.41h0s.05.02.07.04l.14.1.09-.08-.3-.06ZM34.98,28.47l.14.06-.02-.03-.31-.18-.47-.12-.23-.02v.28s.29-.04.29-.04l.49.02s.04,0,.06,0c.02,0,.03,0,.04.02ZM11.87,28.33h0s.03-.11.03-.11h-.03v.1h0ZM4.26,20.57v7.4l.08-.03v-8.14l-.08.02v.75h0ZM23.01,20.22v7.63l.08-.02v-7.72l-.07.06v.05ZM23.59,20.03v7.76l9.74-.12v-3.63h-.34s-.01,0-.01,0h-.01c-.14,0-.25-.11-.25-.25h0v-3.92l-9.13.17ZM11.87,27.71h.08v-3.43l-.08.24v3.18ZM197.07,25.16h0s1.36-.09,1.36-.09l1.29-.28,1.18-.45,1.03-.6.84-.73.61-.82.36-.85.13-.9-.13-.9-.39-.9-.62-.81-.84-.72-1.03-.59-1.18-.44-1.29-.27-1.32-.09-1.36.1-1.29.28-1.18.45-1.03.6-.84.73-.61.82-.36.85-.13.9.13.9.39.9.62.81.84.72,1.03.59,1.18.44,1.29.27,1.32.09ZM11.87,21.28v2.44s.04-.01.06-.02h.02v-2.51l-.08.08ZM12.46,21.14v2.51l5.89-.1s0,0,.01,0l3.55-.06v-2.45l-9.45.1ZM33.24,19.91v3.61h.09v-.38h0v-.42h0s-.05-2.78-.05-2.78l-.04-.02ZM189.23,20.65l.46,1.06.73.96.22.19-.28-.36-.43-.99s-.02-.04-.02-.06l-.14-.97s0-.05,0-.07l.14-.97s0-.04.02-.06l.4-.93.68-.92.91-.79,1.11-.65,1.26-.48,1.36-.29,1.17-.08v-.54l-.75.03-1.01.11-1.01.2-.57.15-.64.21-.68.28-.71.37-.67.46-.57.5-.52.64-.46.97-.15.98.15,1.07ZM197.33,15.21l1.14.08,1.36.29,1.25.47,1.11.64.91.78.69.9.43.99s.02.04.02.06l.14.97s0,.05,0,.07l-.14.97s0,.04-.02.06l-.4.94-.31.41.25-.22.72-.97.43-1.01.15-1.07-.15-1.02-.19-.48-.28-.49-.45-.55-.3-.3-.62-.48-.38-.25-.94-.48-.88-.32-.78-.21-1.53-.26-1.23-.07v.54ZM11.87,18.84v1.84l.08-.02v-1.82h-.08ZM12.46,18.83v1.8l9.45-.1v-1.86l-9.45.17ZM222.83,19.45l.99.7V1.86l-.99-.99v18.58ZM3.64,19.92l.11.03v-.25h0s-.05-.48-.05-.48l-.05-.03v.73ZM1.09,1.92v18.01l2.04-.04v-1.01s0-.03,0-.05c0,0,0-.02,0-.03h0s0,0,0,0h0s0,0,0,0h0s0-.01,0-.01l.27-.76s.04-.08.08-.11l.37-.31s.04-.03.07-.04l.25-.1.33-.05s.02,0,.03,0h0s0,0,.02,0l17.32-.3V1.42L1.09,1.92ZM22.42,18.62v1.02s.02,0,.03,0h.05v-1.04l-.08.03ZM23.01,17.81v1.77l.16-.04h.14s.02-.02.03-.02l9.39-.17V1.08l-9.13.22v15.52c0,.14-.11.25-.25.25s-.25-.11-.25-.25V1.46l-.05.08-.03.22h0v16.05h0ZM33.23,19.37l.11.03V1.45l-.03-.16-.07-.11v18.19ZM209.33,19.33h12.99V.51h-12.99v18.82ZM205.54,19.33h3.2V.51h-30.2l-.24.03s0,0,0,0l-.3.04-.73.35h-.02s-.18.08-.18.08l-.62.1-.87.04s0,0-.01,0l-.96-.06-3.33-.41-4.23-.18h-2.71l-.19.03s0,0-.01,0l-.44.08-.65.37h.37s.62-.06.62-.06l.49-.08.31-.09s0,0,0,0c0,0,0,0,0,0,.02,0,.04,0,.06,0h0s0,0,.01,0c.02,0,.03,0,.05,0l1.91.31,1.62.41,1.45.54.94.47.88.52,1.81,1.16,1.06.61,1.24.59,1.47.54,1.65.45,1.76.33,1.98.24,3.96.18,2.14-.02,1.44.04.58.08s.06.02.07.02c.02,0,.04.02.06.03.03.02.08.07.1.11.02.04.03.1.03.15,0,.13-.08.25-.21.27,0,0-.01,0-.02,0l-.47.14-.9.16-1.77.24-2.18.24-1.78.15s0,0,0,0h0l-2.98.12h-2.89s-2.83-.12-2.83-.12c0,0-.02,0-.03,0l-1.78-.23-1.69-.39-1.44-.49-1.39-.61-1.16-.61-3.79-2.21-.75-.38-.8-.36-.85-.33-.93-.29-1.36-.33-1.42-.24-1.63-.18-1.75-.1-4.04-.09-4.06-.04s-.03,0-.05,0c-.01,0-.02,0-.04,0l-1.07-.29c-.14,0-.25-.11-.25-.25,0,0,0-.01,0-.02,0-.02,0-.03,0-.05,0-.03.01-.06.03-.08l-1.31.02c-.13.06-.28,0-.33-.13-.02-.04-.02-.08-.02-.12,0-.01,0-.02,0-.04,0-.04.01-.08.03-.11.02-.03.04-.06.07-.08,0,0,.02-.01.02-.02l.26-.16h-3.29l1.74.13s.06,0,.08.02c.03.01.06.03.08.06h0s.05.07.06.12h0s0,.04,0,.07h0s0,.06-.01.08h0s0,0,0,0c-.02.04-.04.08-.08.11-.02.02-.05.03-.08.04-.03,0-.07.01-.08.01h-.49s0,0,0,0h-3.05s-.02,0-.02,0c0,0,0,0,0,0l-4.32-.36-5.48-.24-.48.15-.67.41s-.03.02-.05.02c0,0,0,0,0,0-.03.01-.06,0-.09.01l-2.27.02c-.13.06-.28,0-.33-.13-.02-.04-.02-.08-.02-.12,0-.01,0-.03,0-.04,0-.04.01-.07.03-.1.02-.03.04-.06.07-.08,0,0,.01,0,.02-.01l.26-.16h-2.25l.65.13s.04.01.06.02h0s.07.04.09.08t0,0h0s.03.05.04.09h0s.01.07,0,.1c0,.03-.01.05-.02.07t0,0h0s-.04.06-.07.09c-.03.02-.06.04-.1.05-.02,0-.04,0-.07,0h-.2s0,0-.01,0h-15.77s-.05,0-.08-.01h0s0,0,0,0c-.03,0-.06-.02-.09-.04h0s0,0,0,0t0,0s-.05-.06-.07-.09c0,0,0,0,0,0h0s-.02-.05-.02-.08c0-.03,0-.06,0-.09,0-.01,0-.03.02-.04l-3.06.36s-.01,0-.02,0h0s-.01,0-.02,0h-2.82s-.05,0-.07,0c0,0,0,0,0,0h0s-.07-.03-.09-.05h0s0,0,0,0t0,0s-.04-.04-.05-.06c0,.02-.02.03-.04.05h0s0,0,0,0h0s0,0,0,0c0,0,0,0,0,0-.03.03-.06.05-.1.06t0,0h0s-.05.02-.08.01h-3.23s-.02,0-.02,0c0,0-.01,0-.02,0l-.76-.1c.05.05.08.12.08.2,0,.02,0,.03,0,.05-.01.14-.14.24-.28.23h-.03s0,0-.01,0c0,0,0,.02,0,.03h0s0,.04,0,.05c0,0,0,.01,0,.02,0,.09-.03.18-.11.23-.08.05-.19.05-.27,0l-6.02.08-1.89.05-1.77.1-1.64.18-1.42.24-1.36.33-.93.3-.85.33-.8.36-.75.38-4.02,2.34-.93.48-1.38.6-1.44.49-1.68.39-1.79.23s-.02,0-.03,0l-2.82.13h-2.88s-2.99-.13-2.99-.13c0,0,0,0-.01,0l-1.79-.15-3.16-.36-.82-.12-1.32-.29c-.11,0-.21-.08-.24-.2h0s0-.07,0-.1c0-.03,0-.06.01-.09.02-.04.05-.1.09-.13.02-.01.05-.04.07-.05.01,0,.05-.02.07-.03,0,0,.06-.02.07-.02l.41-.06.81-.04h1.25s1.65,0,1.65,0l3.98-.18,1.86-.23,1.41-.25,1.61-.4,1.43-.48.8-.33.77-.37.73-.4,3.39-2.09,1.25-.58,1.34-.45,1.26-.29-3.54-.29-5.48-.24-.48.15-.67.41s-.04.02-.06.03h0s0,0,0,0c-.03,0-.05.01-.08.01l-2.28.02c-.13.06-.28,0-.33-.13-.02-.04-.02-.08-.02-.12,0-.01,0-.03,0-.04,0-.03.01-.07.03-.1.02-.03.04-.06.07-.08,0,0,.01,0,.02-.01l.26-.16h-29.27v.41h0v.5h0v17.92h154.76l.13-.84s.01-.05.02-.07l.51-1.05.58-.72.62-.55.72-.49.75-.4.72-.3.67-.22.6-.16,1.05-.21,1.05-.12,1.03-.04s.01,0,.02,0h0s0,0,0,0l1.53.08,1.58.27.82.23.93.34.99.5.73.49.36.3.33.33.5.62.31.55.22.56.14.9ZM3.73,18.68l.22.1.15-.15s.03-.03.05-.04l.18-.09v-.55s-.17.07-.17.07l-.29.24-.15.41ZM4.82,17.92v.54s7.36-.13,7.36-.13c0,0,.01,0,.02,0l9.69-.17v-.35s0,0,0,0h0s0-.06,0-.06h0s.01-.04.02-.05h0s0,0,0,0h0s0,0,0,0h0s0,0,0,0c0,0,0,0,0,0h0s0,0,0,0h0s0,0,0,0h0s0,0,0,0h0s0,0,0,0c0,0,0,0,0,0,0,0,0,0,0,0t0,0h0s0,0,0,0h0s0,0,0,0c0,0,0,0,0,0h0s0,0,0,0c0,0,0,0,0,0,0,0,0,0,0,0,0,0,0,0,0,0,0,0,0,0,0,0h0s0,0,0,0c0,0,0,0,0,0h0s0,0,0,0h0s0,0,0,0h0s0,0,0,0c0,0,0,0,0,0h0s0,0,0,0c0,0,0,0,0,0h0s0,0,0,0h0s0,0,0,0h0s0,0,0,0c0,0,0,0,0,0h0s0,0,0,0h0s0,0,0,0h0s0,0,0,0h0s0,0,0,0c0,0,0,0,0,0,0,0,0,0,0,0,0,0,0,0,0,0h0s0,0,0,0c0,0,0,0,0,0h0s0,0,0,0h0s0,0,0,0c0,0,0,0,0,0,0,0,0,0,0,0h0s0,0,0,0c0,0,0,0,0,0,0,0,0,0,0,0h0s0,0,0,0c0,0,0,0,0,0t0,0h-.07s.03-.02.03-.02l-17.09.3ZM22.39,17.14l.11.03V1.71s-.03-.07-.04-.11l-.07-.09v15.63ZM175.1,8.23l2.81.13h2.86s2.96-.13,2.96-.13l1.77-.15,2.17-.24,1.35-.18h-.7s-1.66.01-1.66.01c0,0,0,0,0,0h0l-2.09-.05-1.92-.13-2.01-.24-1.8-.34-1.69-.46-1.51-.56-1.28-.61-1.09-.63-1.82-1.17-.86-.51-.91-.45-1.4-.52-1.57-.39-1.81-.29-.29.08-.54.09-.65.06-.71.02h-7.17l.52.03,1.66.18,1.46.25,1.4.34.96.31.88.34.83.37.77.39,1.78,1.03,2.02,1.19,1.14.59,1.35.59,1.39.47,1.64.38,1.75.22ZM58.77,8.23l2.98.12h2.86s2.8-.12,2.8-.12l1.76-.22,1.63-.38,1.39-.47,1.35-.59.91-.47,4.03-2.34.77-.39.83-.37.88-.34.96-.31,1.4-.34,1.46-.25,1.66-.18,1.78-.11s0,0,.01,0l4.02-.09,3.17-.03-1.24-.21-2.06-.27h-5.4l-.42.3s-.03.02-.04.03h0s0,0,0,0c0,0-.02,0-.03.01l-.27.11-.56.12-.73.07-.82.03h-7.77s-2.24.56-2.24.56l-1.78.77-3.36,2.08-1.14.61-1.22.53-1.47.5-1.65.41-3.34.48-4.02.19s-.01,0-.02,0l-2.14-.02h-.26s2.45.31,2.45.31l2.89.26ZM158.62,1.01h1.69s-.01-.06-.01-.09c0-.01,0-.02,0-.03h0s.01-.08.03-.11c.02-.03.04-.06.07-.08h0s0,0,0,0c0,0,.01,0,.02-.01l.26-.16h-.83s-.03,0-.05,0h-.09s0,.02.01.03c0,0,0,0,0,0,.01.03.02.05.02.08h0s0,.06,0,.08t0,0h0s-.03.07-.06.1c-.02.03-.05.05-.08.06h0s0,0,0,0c-.02.01-.05.02-.08.02l-.9.11ZM80.25,1.01h.96s-.01-.06-.01-.09c0-.01,0-.03,0-.04,0-.04.01-.07.03-.1.02-.03.04-.06.07-.08,0,0,0,0,0,0,0,0,.01,0,.02-.01l.25-.17h-3.27l1.74.13s.06,0,.09.02c.03.01.05.03.08.05,0,0,0,0,0,0,0,0,0,0,0,0h0s.05.06.06.1h0s.01.06.01.09c0,.03,0,.06-.02.08h0s0,.02,0,.02ZM84.73.65l-.32.15-.28.2.5-.02.69-.07.49-.1.29-.17h-1.37ZM101,.72s.02.02.03.04c0-.02.02-.03.03-.05h0s.05-.04.08-.06h0s.05-.02.08-.02l1.01-.13-2.18.03.79.1s.06.01.08.02c.03.02.06.04.08.06h0s0,0,0,0ZM176.48.55s-.03.01-.05.02l-.31.08.5-.04.25-.05h-.14s0,0,0,0h-.24ZM161.79.64h.85l.15-.09h-.48c-.05.04-.12.06-.19.05l-.21-.02-.13.06ZM144.69.64h1.18s0-.02,0-.02c0-.02,0-.04.02-.06h-.55s0,0,0,0h-.22c-.05.03-.12.05-.18.03l-.08-.02-.16.07ZM126.22.64h.99l.14-.09h-.48s0,0,0,0h-.22c-.05.03-.12.05-.19.03l-.08-.02-.16.07ZM119.73.64h.68l-.14-.03-.54.02h0ZM82.54.64h1.21l.07-.05h-1.14l-.14.05ZM64.3.64h.99l.14-.09h-.48s0,0,0,0h-.22c-.05.03-.12.05-.19.03l-.08-.02-.16.07ZM116.22,131.31h0l-.85-.09-.11-.04s-.08-.05-.1-.08l-.06-.08c-.04-.05-.05-.11-.05-.17h0c0-.06.01-.13.05-.18,0,0,.01-.02.02-.03l.59-.8.5-.85h-2.65s-.04,0-.06,0c0,0,0,0,0,0h0s-.06-.02-.08-.03c0,0,0,0,0,0,0,0,0,0,0,0-.03-.02-.06-.05-.08-.08-.02-.03-.03-.06-.04-.1,0-.02,0-.05,0-.07,0-.04.02-.08.04-.11.02-.03.05-.05.08-.07.01,0,.03-.02.04-.02l.1-.04s0,0,.01,0l1.35-.52s.03-.01.05-.02c.02,0,.03,0,.05,0h1.76l.3-.7s.01-.03.02-.04c0,0,0,0,0,0,.02-.03.05-.06.08-.08.03-.02.07-.04.11-.04.01,0,.03,0,.04,0h1.9s.04,0,.06,0c.03,0,.05.02.07.03.04.02.06.05.08.08.02.03.03.06.04.09,0,.03,0,.07,0,.1,0,.02,0,.03-.02.05l-.21.51h9.37s0,0,.02,0l.66.09.25.12s.07.06.09.1c.06.05.09.13.09.21,0,0,0,0,0,0,0,.04,0,.07-.02.11l-.04.1s-.05.08-.09.11l-.13.09s-.04.03-.07.04l-.42.14s-.02,0-.04.01l-4.92,1.07-6.39,1.08s-.01,0-.02,0l-1,.11h-.35s0,0,0,0ZM115.67,130.73l.19.02h.35s1.01-.06,1.01-.06c0,0,0-.01-.01-.02h0s0,0,0,0c0,0,0-.01,0-.02h0s0,0,0,0c0-.02-.01-.04-.02-.06,0,0,0,0,0,0h0s0-.03,0-.05c0-.06,0-.11.04-.16l.64-.93.48-.85s.01-.02.02-.03c.02-.03.05-.05.08-.07.03-.02.07-.03.11-.03,0,0,.02,0,.03,0h7.86c.14,0,.25.11.25.25v.03s0,.05,0,.07h0s-.02.06-.04.08h0s0,0,0,0c-.03.04-.06.06-.1.08-.02,0-.03.01-.05.02l-.27.06,2.73-.59-.35-.02h-9.74s-.04,0-.07,0c-.03,0-.05-.02-.07-.03-.03-.02-.06-.05-.08-.08-.02-.03-.03-.07-.04-.11,0-.02,0-.04,0-.06,0-.04,0-.08.02-.12l.2-.47h-1.34l-.31.71s-.01.02-.02.03c0,0,0,0,0,0h0s-.05.06-.08.08c-.03.02-.06.03-.1.04-.01,0-.03,0-.04,0l-1.91.02h1.62c.14,0,.25.11.25.25v.04s0,.04,0,.06h0s-.02.05-.03.07l-.74,1.26-.44.6ZM118.72,129l-.71,1.19,4.46-.82,1.65-.37h-5.4ZM99.34,131.31h0l-.85-.09-.11-.04s-.08-.05-.11-.08l-.06-.08c-.04-.05-.05-.11-.05-.17h0c0-.06.01-.12.05-.17,0,0,.01-.02.02-.03l.59-.8.5-.85h-2.65s-.04,0-.06,0c0,0,0,0,0,0h0s-.06-.02-.08-.03c0,0,0,0,0,0,0,0,0,0,0,0-.03-.02-.06-.05-.08-.08-.02-.03-.03-.06-.04-.1,0-.02,0-.05,0-.07,0-.04.02-.08.04-.11.02-.03.05-.05.08-.07.01,0,.03-.02.04-.02l1.45-.56s.03-.01.05-.02c.02,0,.03,0,.05,0h1.76l.3-.7s.01-.03.02-.04c.02-.03.04-.06.07-.07.03-.02.07-.04.11-.04.01,0,.03,0,.04,0h1.88s0,0,.01,0h0s.04,0,.06,0c.03,0,.06.02.08.03h0s0,0,0,0c.03.02.05.04.07.07.02.03.04.07.05.12,0,.02,0,.05,0,.07h0s-.01.05-.02.07l-.21.51h9.37s0,0,.02,0l.66.09.25.12s.07.06.09.09c.06.05.1.13.09.21h0s0,.08-.02.12l-.04.1s-.05.08-.09.11l-.13.09s-.04.03-.07.04l-.42.14s-.02,0-.04.01l-4.92,1.07-6.39,1.08s-.01,0-.01,0h0l-1,.11h-.35s0,0,0,0ZM98.8,130.73l.19.02h.35s1.01-.06,1.01-.06c0,0,0,0,0,0h0s0,0,0,0c0-.01-.01-.02-.02-.04,0,0,0,0,0,0h0s-.01-.04-.02-.06c0,0,0,0,0,0h0s0-.03,0-.05c0-.06,0-.11.04-.16l.64-.93.48-.85s.01-.02.02-.03h0s.05-.05.08-.07c.03-.02.07-.03.1-.03,0,0,.02,0,.03,0h7.86c.14,0,.25.11.25.25v.03s0,.05,0,.07c0,.03-.02.06-.04.09,0,0,0,0,0,0h0s-.06.06-.1.08h0s0,0,0,0c-.02,0-.03.01-.05.02l-.29.07,2.76-.6-.35-.02h-9.74s-.05,0-.07,0h0s0,0,0,0c-.02,0-.04-.01-.06-.03-.04-.02-.07-.05-.09-.09-.02-.03-.03-.06-.04-.1,0-.02,0-.04,0-.06,0-.04,0-.08.02-.12l.2-.47h-1.34l-.3.71s-.01.03-.02.04c-.02.03-.05.06-.08.07-.03.02-.06.03-.09.04-.02,0-.04,0-.05,0l-1.91.02h1.62c.14,0,.25.11.25.25v.04s0,.04,0,.07h0s0,0,0,0c0,0,0,0,0,0h0s-.02.05-.03.07l-.74,1.26-.45.6ZM101.84,129l-.71,1.19,4.46-.82,1.65-.37h-5.4ZM144.08,131.29h-2.26s-.02,0-.03,0c-.01,0-.02,0-.03,0l-2.23-.49-2.78-.73-2.96.59-3.88.64s-.03,0-.05,0h-2.4s-.05,0-.08-.01c0,0,0,0,0,0h0s-.06-.02-.08-.04h0s0,0,0,0c-.03-.03-.06-.06-.08-.1,0,0,0,0,0,0h0s-.02-.05-.02-.07c0-.03,0-.06,0-.09h0s.03-.08.06-.11c.02-.02.04-.04.06-.05h0s0,0,0,0c.03-.01.05-.02.08-.03l3.63-.59,3.62-.73-1.78-.58-3.38-1.3s-.03-.01-.05-.02c-.03-.02-.06-.04-.08-.07h0s-.04-.07-.04-.1c0-.02,0-.04,0-.06,0-.04,0-.08.02-.11.05-.13.2-.2.33-.14l.06.02h2.09s.04,0,.06,0c.02,0,.03,0,.05.02l2.21.88,2.78.97,2.98-.75,3.81-1.1s.02,0,.03,0c.02,0,.03,0,.05,0h2.27l.11-.03c.14-.04.28.04.31.18,0,.03.01.06,0,.09,0,.02,0,.05,0,.07,0,.04-.02.08-.05.11-.02.03-.05.05-.08.07h0s-.04.02-.05.02l-3.6,1.04-3.74.92,1.73.47,3.42.76s.04.01.06.02c.03.02.06.04.08.07.02.03.04.06.05.09,0,.03,0,.06,0,.09,0,.03-.01.06-.02.08-.02.03-.04.06-.07.09-.03.02-.06.04-.09.05,0,0,0,0,0,0h0s-.04,0-.06,0ZM136.81,129.51l2.68.7-1.58-.44s-.03-.01-.05-.02t0,0h0s-.05-.03-.07-.05c-.02-.02-.04-.04-.05-.07,0-.02-.02-.04-.02-.06h0s0-.03,0-.05c0,0,0-.02,0-.02,0-.12.07-.24.19-.27l3.68-.88,2.68-.76h-.44l-3.79,1.1-3.06.77s-.04.02-.07,0c-.03,0-.06,0-.08-.02l-2.86-1-2.18-.87h-.75l1.28.5,3.41,1.14c.11.04.18.14.17.25v.03h0s0,.04,0,.06c0,.03-.02.05-.03.07h0s0,0,0,0c0,0,0,0,0,0l.82-.16s.05,0,.07,0h0s.03,0,.05,0ZM137.13,128.42s-.03,0-.04,0c-.02,0-.04,0-.06-.02,0,0,0,0,0,0,0,0,0,0,0,0h0l-1.6-.63-2.01-.87-.68-.21-.79-.08s-.06-.01-.08-.02c0,0,0,0,0,0,0,0,0,0,0,0h0s-.05-.03-.07-.05c0,0,0,0,0,0-.03-.03-.05-.06-.06-.1,0-.03-.02-.06-.01-.09,0,0,0-.01,0-.02,0-.02,0-.03,0-.05.01-.1.08-.18.16-.21l1.01-1.13,1.4-1.31.9-.68.96-.59,2.45-1.01s.02,0,.03,0c.01,0,.02,0,.03,0l.82-.16,1.4-.09,4.41.03s.01,0,.02,0l.8.05,1.89.19.85.12,1.45.28.26.09s.03.01.05.02c.08,0,.16.06.2.14h0s.02.06.03.1c0,.01,0,.03,0,.05,0,.02,0,.05,0,.07,0,.05-.03.1-.06.14-.02.02-.06.06-.09.08-.02,0-.08.04-.09.04l-.14.04-.54.07-.82.04s0,0,0,0l-.35.02-2.46.26-2.1.41-1.98.64-.86.4-.72.41-1.47,1.2-.97,1.18-.86,1.16s-.02.03-.04.04c-.02.02-.04.03-.06.04-.02.01-.05.02-.07.02-.01,0-.03,0-.04,0ZM133.61,126.39l1.58.69,1.85.74.05-.06.72-.99.63-.8.88-.89,1.03-.77,1.67-.86.99-.36,1.08-.31,2.13-.42,2.47-.26s.01,0,.02,0l.57-.03-1.34-.2-1.86-.19-.78-.04-4.39-.03-1.36.09-.77.15-2.4.99-.91.56-.86.65-1.36,1.27-.73.82.32.04.74.22s0,0,0,0c0,0,.02,0,.03.01ZM104.85,127.57s0,0-.02,0c-.04,0-.07-.01-.1-.03h0s0,0,0,0c-.03-.01-.05-.03-.07-.06,0,0-.01-.01-.02-.02l-.73-1.03-1.35-1.29-1.3-.81-1.54-.65-.87-.27-.95-.23-1.87-.33-2.47-.22h0l-.8-.04-.69-.11s-.08-.03-.09-.04c-.03-.01-.05-.03-.07-.05-.03-.03-.07-.09-.08-.13,0-.03-.01-.07-.01-.1,0,0,0-.01,0-.02,0-.11.07-.21.18-.24l.05-.03.28-.11.86-.19,1.75-.25,1.28-.13,1.11-.07s.01,0,.01,0h0l4.39-.03,1.39.09.85.16s.02,0,.03,0c0,0,.01,0,.02,0l1.01.36,1.06.53.71.43.71.48.72.54.78.63.73.64.85.84.26.33s.07.06.09.11l.34.92v.11s.01.05,0,.08c-.01.05-.04.11-.07.14-.02.02-.04.03-.06.04-.03.02-.06.03-.09.03-.01,0,0,.01-.04,0h-6.18ZM104.98,127.02h5.73l-.03-.07-.29-.59-.43-.47-.56-.54-.71-.63-.76-.62-.7-.52-.69-.47-.68-.41-1.01-.51-.97-.35-.8-.15-1.34-.08-4.37.03-1.1.07-1.26.13-1.65.24.6.03s0,0,.01,0l2.14.21,1.9.33,1.88.52,1.58.66s.02,0,.03.01c0,0,.01,0,.01,0l1.34.83s.02.01.02.02c0,0,.02.01.03.02l1.38,1.32s.02.02.03.03c0,0,0,.01.01.02l.66.93ZM192.04,78.67h-.19s-.02,0-.03,0c-.01,0-.02,0-.03,0l-1.25-.29-1.16-.38s-.03-.01-.05-.02c-.03-.02-.06-.05-.08-.08h0s0,0,0,0c-.02-.03-.03-.06-.04-.1,0-.02,0-.03,0-.05l.02-1.89-.57-.31s0,0-.01,0l-.71-.44-1.54.92s-.07.03-.08.04c-.02.01-.05.02-.07.02-.04,0-.12,0-.15,0-.02,0-.08-.03-.1-.04-.01,0-.06-.04-.07-.05l-.05-.04s0,0-.01-.01l-.62-.56-1.16-1.27s-.01-.02-.02-.04h0s-.02-.07-.02-.11h0s0-.07.02-.1c0,0,0-.02.01-.03l.96-1.61-.76-1.31h-.27s-1.59.03-1.59.03c-.02,0-.04,0-.06,0-.04,0-.07-.02-.11-.04-.03-.02-.06-.05-.08-.08-.01-.02-.02-.04-.03-.06l-.37-1.1-.32-1.48s0-.03,0-.05c0-.04,0-.08.02-.12.02-.03.04-.07.07-.09.01,0,.02-.02.04-.03l.46-.26h0s1.18-.65,1.18-.65c0,0,0,0,.02,0,0-.01,0-.03,0-.04h0s0-.02,0-.02l-.02-.85.04-.58-.34-.18s0,0,0,0l-1.26-.7s-.06-.03-.07-.04c0,0-.01-.02-.02-.02-.08-.06-.13-.16-.11-.26l.23-1.13.45-1.42s.01-.04.02-.06c.02-.03.04-.05.06-.07h0s0,0,0,0c.03-.03.07-.04.11-.05.02,0,.03,0,.05,0h.9s.99,0,.99,0l.75-1.31-.93-1.56s-.02-.03-.02-.05c-.01-.03-.03-.09-.03-.12,0-.03,0-.1.02-.13,0-.02.03-.07.04-.08,0,0,.03-.05.04-.05l.68-.75s0,0,.01-.01l1.08-1.01s0,0,.01-.01c0,0,0,0,.01,0,.02-.02.08-.05.1-.05.03,0,.09-.04.13-.02.03,0,.11.01.14.02,0,0,.02,0,.03.01.02,0,.04.01.05.02l.51.31s0,0,0,0l1.02.61.53-.34.77-.4-.02-1.9s0-.04,0-.06c0,0,0,0,0,0h0s.02-.06.03-.08c.02-.04.05-.07.09-.09.01,0,.02-.01.04-.02l.39-.15s0,0,.01,0l.52-.17.69-.18s0,0,.01,0l.7-.16s.02,0,.03,0c.02,0,.03,0,.04,0h.27s.04,0,.05,0c.04,0,.07.02.1.04h0s.06.05.07.08c0,0,0,0,0,0h0s.01.03.02.04l.51.93s0,0,0,0l.37.67.92-.04s.01,0,.02,0h0s0,0,.01,0l.54.04.87-1.61s.01-.02.02-.03c.02-.03.05-.06.08-.08h0s0,0,0,0c.03-.02.06-.03.09-.04.02,0,.04,0,.05,0h.27s.02,0,.03,0h0s.01,0,.02,0l.46.09s0,0,.01,0l1.16.31s0,0,0,0h0s0,0,0,0h0s0,0,0,0l.7.24s.03.01.05.02c.03.02.06.05.08.08.02.03.03.06.04.09,0,.02,0,.04,0,.06l-.04,1.89.57.3.73.46,1.52-.92s0,0,0,0c.02,0,.09-.05.1-.05.03-.01.1-.03.14-.02.02,0,.07,0,.1.02.02,0,.06.03.08.04,0,0,.04.03.06.05,0,0,0,0,0,0h0s0,0,0,0c0,0,0,0,0,0l.79.7s0,0,0,0h0s0,0,0,0c0,0,0,0,0,0,0,0,0,0,.01.01l1.01,1.11s.02.03.03.04c.02.03.03.07.03.1,0,.04,0,.08-.02.12,0,.01-.01.03-.02.04l-.97,1.63.3.48.44.82,1.89-.03s.03,0,.04,0c.04,0,.07.02.1.04h0s0,0,0,0c.03.02.06.04.08.08,0,0,0,0,0,0h0s.01.02.02.04l.17.46.34,1.11.14.7s.06.09.06.14c0,.02,0,.04,0,.07v.19c0,.12-.08.22-.2.25,0,0,0,0,0,0l-1.03.57s0,0,0,0l-.56.31v1.49l.42.23s0,0,0,0l1.21.65s.03.01.04.02c.03.02.06.05.08.08.02.03.03.06.04.1,0,.01,0,.03,0,.04v.22s0,.05,0,.07h0s-.02.05-.03.07l-.03.08-.03.21-.47,1.69-.12.31s-.01.03-.02.05c-.02.03-.04.06-.07.07-.03.02-.07.04-.11.04-.02,0-.03,0-.05,0h-1.91s-.29.55-.29.55l-.45.72.97,1.62s.01.02.02.03c.02.03.02.07.02.1s0,.07-.02.1c0,0,0,.02-.02.03l-.23.3-.7.76-.9.81s-.07.05-.1.06c-.02,0-.07.03-.1.03-.02,0-.08.01-.1,0-.02,0-.08-.01-.11-.02-.01,0-.07-.03-.07-.04l-1.55-.92-.53.34-.77.41v.76s.02,1.15.02,1.15c0,.02,0,.03,0,.05,0,.04-.02.08-.04.11-.02.03-.05.06-.09.08-.01,0-.03.01-.05.02l-1.2.39-1.18.27s-.02,0-.03,0c-.01,0-.03,0-.04,0h-.19s-.03,0-.04,0h0s-.06-.01-.08-.03h0s0,0,0,0c-.03-.02-.06-.05-.09-.08,0,0-.01-.02-.02-.03l-.91-1.64h-.17s-1.32.01-1.32.01l-.87,1.57s-.02.05-.03.07h0s0,0,0,0c-.02.03-.04.06-.07.08h0s0,0,0,0c-.03.02-.06.04-.1.04-.02,0-.03,0-.05,0ZM195.94,78.16l.23-.05.93-.21,1-.32-.02-.97v-.91s0-.02,0-.03c0-.04.02-.07.03-.1.02-.03.05-.06.08-.09,0,0,.02,0,.02-.01l.88-.47.64-.41s.02-.02.04-.02c0,0,0,0,0,0h0s.06-.02.09-.02h0s.08,0,.12.02h0s0,0,0,0c0,0,.02,0,.03.01l1.62.97.81-.74.77-.85-.97-1.61s0-.02-.01-.02c-.02-.04-.03-.08-.03-.12,0-.03,0-.06.02-.09,0-.01.01-.03.02-.04l.52-.83.35-.67s.01-.02.02-.03c.02-.03.05-.06.08-.07.03-.02.06-.03.1-.03.01,0,.03,0,.04,0h1.89s.18-.53.18-.53l.38-1.52s.03-.08.04-.1l-.14-.07s0,0,0,0h0s0,0,0,0c0,0,0,0,0,0l-.95-.53s0,0,0,0l-.54-.3s-.02,0-.03-.02c-.03-.02-.05-.05-.07-.08-.02-.03-.03-.07-.04-.12,0,0,0-.01,0-.02v-1.78s0-.01,0-.02c0-.04.02-.08.04-.12.02-.03.04-.05.07-.07,0,0,.02-.01.03-.02l.68-.39s0,0,0,0l.96-.53s-.03-.1-.03-.13l-.14-.7-.41-1.33-.96.02h-.87s0,0,0,0h0s0,0,0,0h0s-.02,0-.02,0h-.02s-.06-.01-.08-.03c-.02,0-.06-.03-.07-.04-.02-.01-.05-.04-.06-.06,0-.01-.04-.06-.05-.07,0,0,0,0,0,0,0,0,0,0,0-.01l-.45-.85-.37-.59s-.01-.02-.02-.03c-.02-.03-.02-.07-.02-.11,0-.03,0-.07.02-.1,0-.01.01-.03.02-.04l.96-1.61-.27-.31-.6-.63-.72-.64-1.6.96s-.03.02-.04.02c-.03.01-.06.02-.08.02h0s0,0,0,0c-.04,0-.07,0-.11-.02t0,0h0s-.02-.01-.03-.02l-.84-.53-.69-.36s-.02,0-.03-.02c-.03-.02-.06-.05-.08-.09-.02-.03-.03-.06-.03-.1,0-.01,0-.03,0-.04l.04-1.87-.51-.18-1.67-.4-.04.09-.83,1.5s-.03.04-.05.06c-.02.02-.09.07-.12.08-.03,0-.11.03-.14.03h-.06s-.01,0-.02,0c0,0-.01,0-.02,0l-.55-.04-.93.04s-.01,0-.02,0h-.06s-.05,0-.07-.01c-.03,0-.1-.04-.12-.05-.02-.01-.08-.06-.09-.08,0-.01-.05-.07-.06-.08l-.39-.71s0,0,0,0l-.46-.84h-.09l-1.35.33-.73.24.02,1.88s0,.02,0,.03c0,0,0,0,0,0h0s-.02.07-.03.1h0s-.04.06-.07.08c-.01,0-.02.01-.03.02l-.88.46-.63.41c-.07.04-.14.05-.21.03h-.03s-.01-.01-.02-.02c-.02,0-.04-.02-.06-.03l-1.11-.66s0,0,0,0l-.46-.28-.3.26-.69.67-.6.66.95,1.59s.01.02.02.03c.01.03.02.07.02.1,0,.04,0,.07-.02.11,0,0,0,.02-.01.03l-.9,1.56s0,.01-.01.02c-.02.03-.05.06-.09.08,0,0,0,0,0,0-.03.02-.06.02-.09.03t0,0h0s-.02,0-.03,0h-1.13s-.71,0-.71,0l-.39,1.22-.19.94.04.02,1.63.93s.05.06.07.09c.01.03.04.11.04.14,0,0,0,.02,0,.03,0,.02,0,.05,0,.07l-.04.58.03.87s.02.15.01.18c0,.04-.03.11-.06.14-.01.02-.04.05-.06.06-.01.01-.05.04-.06.05,0,0-.08.04-.08.04l-1.52.84.27,1.27.3.89h.4s1.04-.02,1.04-.02h.41s.02,0,.03,0c0,0,0,0,0,0h0s.07.01.1.03h0s0,0,0,0c.04.02.07.05.09.08t0,0h0s0,0,0,.01l.9,1.56s0,.01,0,.02h0s.02.07.03.11c0,.04,0,.08-.02.11,0,0,0,.02-.01.03l-.95,1.6.42.47.58.59.59.53,1.51-.91s.05-.03.06-.03c.02,0,.14-.04.16-.04.03,0,.09,0,.12.01.01,0,.08.03.09.03,0,0,.05.03.06.04,0,0,0,0,0,0l1.41.82s.02.01.04.02c.03.02.05.04.07.07.02.03.03.07.04.11,0,.01,0,.02,0,.03l-.02,1.87.3.11,1.14.32.72.16.91-1.63s.01-.02.02-.03c.02-.03.05-.06.08-.08h0s0,0,0,0c.03-.01.06-.02.09-.03h0s0,0,0,0c.01,0,.03,0,.04,0h1.71s.05-.01.06,0c.03,0,.06,0,.08.02.03.01.08.04.1.06.01.01.05.05.06.07l.91,1.63ZM183.44,67.17h0s0,0,0,0c0,0,0,0,0,0ZM124.2,77.28s-.04,0-.06,0l-.69-.14s-.08-.03-.11-.05l-.55-.44s-.05-.05-.07-.09l-.24-.5s-.02-.05-.02-.07l-.08-.55s0-.02,0-.03c0-.02,0-.05,0-.07h0s.03-.09.06-.12h0s.04-.04.07-.05c.03-.02.06-.02.1-.03h.81s.05,0,.07,0c0,0,0,0,0,0,0,0,0,0,0,0h0s.06.02.08.04h0s0,0,0,0h0s.06.06.08.11c0,0,0,0,0,0h0s.01.04.01.06l.04.35.13.25.16.1.21.03.49-.12.35-.35.3-.86.09-.69-.1-.73-.06-.1-.09-.07-.29-.08-.35.04-.28.17-.29.57s-.01.02-.02.03c-.02.03-.05.05-.08.07h0s0,0,0,0c-.03.02-.07.03-.1.04-.01,0-.02,0-.03,0h-.79s-.03,0-.05,0h0s-.06-.01-.08-.03c-.04-.02-.06-.05-.09-.08-.02-.03-.03-.06-.04-.09,0-.03,0-.06,0-.09,0-.02,0-.03.01-.05l.27-.73s.03-.07.06-.09l.55-.56s.05-.04.08-.05l.57-.25s.05-.02.07-.02l.61-.07s.03,0,.05,0h0s.03,0,.05,0l.69.16s.08.03.11.06l.53.47s.06.07.07.12l.32,1.07s.01.04.01.06c0,.02,0,.03,0,.05l-.11,1.09s0,.04-.02.06l-.39,1.03s-.03.06-.06.09l-.76.79s-.05.05-.09.06l-.51.21s-.05.02-.07.02l-.54.06s-.02,0-.03,0ZM123.62,76.65l.59.12.47-.05.43-.18.69-.71.36-.95.1-1.01-.28-.95-.43-.38-.59-.14-.53.06-.49.21-.48.49-.12.34h.28s.26-.5.26-.5c.02-.04.05-.07.09-.1l.39-.24s.07-.03.1-.04l.45-.06s.05,0,.07,0c.01,0,.03,0,.04,0l.39.11s.07.03.1.05l.16.14s.04.04.05.06l.11.17s.03.07.04.1l.11.81s0,.02,0,.03c0,.01,0,.03,0,.04l-.03.32s0,.01,0,.02l-.06.43s0,.02,0,.03c0,0,0,.01,0,.02l-.32.93s-.03.07-.06.1l-.44.45s-.08.06-.12.07l-.6.15s-.04.02-.07,0c-.02,0-.03,0-.05,0l-.3-.05s-.07-.02-.09-.04l-.26-.17s-.07-.06-.09-.1l-.18-.35s-.02-.05-.03-.08l-.02-.17h-.28l.03.22.2.42.45.37ZM104.07,77.28s-.04,0-.06,0l-.71-.17s-.08-.03-.11-.06l-.54-.5s-.05-.05-.06-.08l-.24-.53s-.02-.04-.02-.07l-.09-.57s0-.03,0-.04,0-.03,0-.05l.25-1.58s.02-.07.04-.1l.7-1.04s.02-.03.04-.04c0,0,0,0,0,0h0s.04-.03.06-.04l.71-.4s.06-.03.09-.03l.63-.09s.03,0,.05,0h0s.04,0,.05,0l.71.16s.08.03.11.06l.54.49s.06.07.07.12l.32,1.09s.01.05.01.07c0,.02,0,.03,0,.05l-.26,1.62s-.02.07-.04.11l-.74,1.05s-.02.03-.04.05c-.02.02-.04.03-.06.04l-.69.37s-.06.02-.09.03l-.61.08s-.03,0-.04,0ZM103.48,76.63l.61.14.52-.07.6-.32.67-.96.24-1.51-.29-.98-.44-.4-.6-.14-.54.07-.62.35-.64.95-.24,1.49.08.5.2.45.45.42ZM112.55,77.28h0s-.04,0-.06,0l-.71-.17s-.08-.03-.11-.06l-.54-.5s-.05-.05-.06-.08l-.24-.53s-.02-.04-.02-.07l-.09-.57s0-.03,0-.04h0s0-.03,0-.05l.25-1.58s.02-.07.04-.1l.7-1.04s.02-.03.04-.04c.02-.02.04-.03.06-.04l.71-.4s.06-.03.09-.03l.63-.09s.03,0,.05,0h0s.04,0,.05,0l.71.16s.08.03.11.06l.54.49s.06.07.07.12l.32,1.1s0,.04.01.06,0,.04,0,.06l-.26,1.62s-.02.07-.04.11l-.74,1.05s-.03.04-.05.06c-.01.01-.03.02-.04.03l-.69.37s-.06.02-.09.03l-.61.08s-.02,0-.04,0ZM111.95,76.63l.61.14.52-.07.6-.32.67-.96.24-1.51-.29-.98-.44-.4-.6-.14-.54.07-.62.35-.64.95-.24,1.49.08.5.2.45.45.42ZM137.83,77.22h-1.45s-.01,0-.02,0h-.01s-.62-.08-.62-.08c-.03,0-.06-.01-.09-.03l-.56-.29s-.07-.05-.1-.09l-.26-.42s-.03-.07-.04-.11l-.05-.49s0-.03,0-.04c0-.02,0-.04,0-.05l.1-.38s.02-.06.04-.08l.23-.33s.04-.05.07-.07l.19-.13s-.03-.03-.04-.05l-.2-.29s-.04-.07-.04-.11l-.08-.55s0-.04,0-.06c0-.02,0-.04.01-.07l.2-.66s.04-.08.07-.11l.51-.48s.07-.05.12-.06l1.06-.24s.02,0,.03,0h0s.02,0,.04,0h1.73s.01,0,.02,0c.03,0,.06.01.09.02.03.02.06.04.08.06,0,0,0,0,0,0,0,0,0,0,0,0,.03.03.04.07.05.11,0,.02,0,.05,0,.07,0,.01,0,.02,0,.03l-.82,4.75s-.01.05-.02.08c0,0,0,0,0,0,0,0,0,0,0,0-.01.03-.03.05-.05.07,0,0,0,0,0,0h0s-.07.05-.12.06h0s-.04,0-.05,0ZM136.38,76.71h1.23s.74-4.25.74-4.25h-1.41l-.97.22-.41.38-.17.55.07.44.14.2.25.15s.03.02.05.04c.02.02.04.04.05.07.02.04.03.08.03.11,0,.03,0,.07-.02.1-.01.03-.03.05-.05.08-.01.01-.03.03-.05.04l-.48.32-.17.25-.08.3.04.39.19.31.45.24.57.07ZM151.41,77.22h-.88s-.04,0-.05,0c-.03,0-.06-.02-.09-.04h0s-.06-.05-.08-.08c0-.01-.02-.03-.02-.04l-.52-1.28-.96,1.34s0,.01-.01.02h0s0,0,0,0c-.02.03-.05.05-.08.07h0s0,0,0,0c-.03.01-.06.02-.09.02,0,0-.02,0-.03,0h-.96s-.06,0-.09-.02c0,0,0,0,0,0,0,0,0,0,0,0h0s-.06-.03-.08-.05c-.02-.02-.04-.04-.05-.07-.02-.04-.03-.08-.03-.12,0-.02,0-.03,0-.05h0s0,0,0,0c0,0,0,0,0,0h0s.02-.07.05-.1l1.7-2.28-.98-2.22s-.01-.04-.02-.05c0-.03,0-.06,0-.09,0-.04.02-.07.04-.1.02-.03.05-.06.08-.08.02-.01.05-.03.08-.03h0s.04,0,.06,0h.88s.03,0,.04,0c.04,0,.08.02.11.04.03.02.05.04.07.07h0s0,0,0,0c0,.01.02.03.02.04l.54,1.32,1-1.37s0,0,0-.01c.02-.03.06-.06.09-.07.03-.01.06-.02.09-.02,0,0,.02,0,.02,0h.97s.04,0,.05,0c0,0,0,0,0,0,0,0,0,0,0,0h0s0,0,0,0c0,0,0,0,0,0h0s.07.03.1.05c.03.02.05.05.06.08h0s.03.08.03.12h0s0,.02,0,.03h0s0,0,0,0h0s-.02.09-.05.12l-1.74,2.31.95,2.19s.01.03.02.05c0,.03,0,.06,0,.1,0,.04-.02.07-.04.1,0,0,0,0,0,0h0s-.05.06-.09.08c-.02.01-.04.02-.07.03-.02,0-.04,0-.06,0ZM150.69,76.71h.33l-.86-1.96s0-.02-.01-.03c-.01-.04-.01-.07,0-.11,0-.03.01-.07.03-.1,0-.01.01-.02.02-.03l1.52-2.02h-.34l-1.19,1.64s-.04.05-.07.06h0s0,0,0,0c-.02.01-.03.02-.05.03-.04.02-.09.02-.13.01h0s-.06-.01-.09-.03c-.03-.02-.05-.03-.07-.06-.02-.02-.03-.04-.04-.07l-.65-1.58h-.33l.88,2s0,.02.01.04c0,.03.01.07,0,.1,0,.04-.02.07-.03.1,0,0-.01.02-.02.03l-1.48,1.99h.33l1.15-1.61s.03-.04.05-.05c0,0,0,0,0,0h0s.05-.03.08-.04h0s.07-.01.1,0h0s.07.02.1.03c0,0,0,0,0,0h0s.04.03.06.05c0,0,0,0,0,0t0,0s.04.05.05.08l.63,1.55ZM156.6,77.22s-.03,0-.04,0c-.03,0-.06-.02-.09-.04-.03-.02-.06-.05-.08-.08h0s0,0,0,0c0-.01-.01-.02-.02-.04l-1.14-2.64-.45,2.58s-.01.05-.02.07c-.01.03-.03.06-.06.08h0s0,0,0,0c-.03.02-.06.04-.1.05,0,0,0,0,0,0-.02,0-.05,0-.08,0h-.79s-.03,0-.04,0c-.02,0-.04,0-.06-.02h0s-.07-.04-.1-.07h0s-.04-.07-.05-.11h0s0-.05,0-.07c0-.01,0-.02,0-.03l.82-4.75s.01-.05.02-.07c.02-.03.04-.06.06-.08,0,0,0,0,0,0,.03-.03.07-.05.11-.06.02,0,.04,0,.06,0h.77s.02,0,.04,0c.04,0,.08.02.11.04.03.02.05.04.07.07,0,.01.02.03.02.04l1.14,2.63.44-2.57s.01-.05.02-.07c.02-.03.04-.06.06-.08,0,0,0,0,0,0h0s.07-.04.11-.05h0s.04,0,.06,0h.8s.01,0,.02,0c.03,0,.07.01.09.02.03.02.06.04.08.06,0,0,0,0,0,0h0s.04.06.05.1c0,.03,0,.06,0,.08,0,0,0,.02,0,.03l-.82,4.75s-.01.05-.02.07c0,0,0,0,0,0t0,0s-.04.06-.07.09c0,0,0,0,0,0h0s-.06.04-.09.05c0,0,0,0,0,0-.02,0-.05,0-.08,0h-.77ZM156.77,76.71h.4l.74-4.25h-.29l-.55,3.2s0,0,0,0c0,.04-.03.08-.05.1-.02.03-.05.06-.09.07,0,0,0,0,0,0-.02,0-.04.02-.06.02,0,0,0,0,0,0s0,0,0,0h0s-.07,0-.11,0h0s-.06-.02-.08-.04h0s0,0,0,0c-.03-.02-.06-.05-.07-.09,0,0,0,0,0,0h0s0-.01,0-.02l-1.42-3.26h-.4l-.74,4.25h.29l.56-3.21s0-.02,0-.03c0-.03.02-.06.04-.09.02-.03.05-.05.08-.07.03-.02.06-.03.1-.03,0,0,0,0,0,0,.03,0,.05,0,.08,0h0s0,0,0,0c.04,0,.07.03.1.05.03.02.05.05.07.08,0,0,0,0,0,0h0s0,.01,0,.02l1.42,3.27ZM161.1,77.22h-2.99s-.02,0-.03,0h0s-.05,0-.07-.02c-.04-.02-.08-.04-.1-.08h0s0,0,0,0c-.02-.02-.03-.05-.04-.07-.01-.03-.02-.07-.01-.11,0,0,0-.01,0-.02l.12-.67s.01-.05.02-.07h0s0,0,0,0c.02-.03.04-.06.06-.08.03-.02.06-.04.1-.05h0s0,0,0,0c.02,0,.05,0,.07,0h1.97l.14-.79h-1.59s-.02,0-.03,0c-.03,0-.05,0-.07-.02-.04-.02-.07-.04-.09-.07-.03-.03-.05-.07-.06-.12,0-.02,0-.04,0-.06,0-.01,0-.02,0-.04l.11-.67s0-.04.02-.06c.01-.03.04-.06.06-.09,0,0,0,0,0,0,.03-.03.07-.05.12-.06h0s0,0,0,0c.02,0,.04,0,.05,0h1.68l.16-.91h-1.9s-.02,0-.02,0c-.03,0-.06-.01-.09-.02-.03-.02-.06-.04-.09-.06,0,0,0,0,0,0h0s-.04-.06-.05-.1c0-.03,0-.05,0-.08,0,0,0-.02,0-.03l.11-.67s0-.04.02-.06c0,0,0,0,0,0,0,0,0,0,0,0,.02-.04.04-.07.08-.1,0,0,0,0,0,0h0s.05-.03.08-.04c0,0,0,0,0,0h0s.05,0,.07,0h3.01s.01,0,.02,0c.03,0,.07.01.1.02.04.02.07.04.09.07h0s0,0,0,0c0,0,0,0,0,0h0s.03.05.04.07c0,.02.01.04.01.06,0,0,0,0,0-.01,0-.04.02-.08.04-.11.02-.03.04-.06.07-.08.02-.02.05-.03.08-.04.02,0,.03,0,.06,0h.89s.02,0,.04,0c.04,0,.07.02.1.03.03.02.06.04.08.08,0,.01.01.02.02.03l.87,1.74.34-.31.24-1.36s.01-.05.02-.07t0,0s.04-.06.06-.08c0,0,0,0,0,0,.03-.02.06-.04.1-.05h0s0,0,0,0c.02,0,.04-.01.07,0h.8s.01,0,.02,0h0s.07.01.1.03c.03.01.05.03.07.06.03.03.05.07.06.11,0,.02,0,.05,0,.07,0,.01,0,.02,0,.03l-.82,4.75s-.01.05-.02.08c0,0,0,0,0,0-.01.03-.03.05-.06.07,0,0,0,0,0,0-.03.02-.06.04-.09.05,0,0,0,0,0,0h0s-.05.01-.08.01h-.79s-.02,0-.03,0c-.03,0-.06-.01-.08-.02-.03-.01-.06-.03-.08-.06-.03-.03-.05-.07-.06-.12,0-.02,0-.04,0-.07,0-.01,0-.02,0-.04l.24-1.36-1.56,1.59s-.06.05-.09.06c0,0,0,0,0,0h0s-.04.01-.07.02h0s-.01,0-.02,0h-1.03s0,0-.01,0c0,0,0,0,0,0h0s-.05,0-.08-.02c-.03-.01-.05-.03-.08-.04,0,0-.02-.01-.02-.02h0s0,0,0,0h0s-.03-.04-.04-.06c-.02-.03-.02-.07-.02-.11,0-.07.03-.13.08-.18l1.98-2.01-1.25-2.45s-.02-.04-.02-.06c0-.01,0-.03,0-.04,0,0,0,0,0,.01s0,0,0,.01l-.82,4.76s0,.04-.02.05c-.02.04-.04.08-.08.1h0s0,0,0,0c-.02.02-.05.03-.08.04h0s0,0,0,0c-.02,0-.05.01-.08.01ZM164.73,76.71h.29l.74-4.25h-.29l-.21,1.24s-.02.07-.04.1h0s0,0,0,0c0,0,0,0,0,0,0,0,0,0,0,0,0,0,0,0,0,0-.01.02-.02.03-.04.04l-.65.59s-.02.02-.04.03c-.02.01-.05.03-.07.03-.04.01-.08.01-.12,0-.03,0-.07-.02-.1-.04-.03-.02-.05-.04-.07-.07,0-.01-.01-.02-.02-.03l-.95-1.91h-.33l1.14,2.24s.01.03.02.04c.01.04.02.08,0,.13,0,.03-.02.06-.03.09-.01.02-.02.03-.04.05l-1.68,1.71h.32l2.06-2.11s0,0,.01-.01c0,0,0,0,0,0,0,0,0,0,0,0,.03-.02.06-.04.09-.05.03-.01.07-.02.11-.01h0s.06.01.09.03c0,0,0,0,0,0,0,0,0,0,0,0h0s.05.03.06.05t0,0h0s.04.06.05.09c.01.03.02.07.01.11h0s0,.02,0,.02l-.33,1.89ZM158.4,76.71h2.48l.73-4.25h-2.5l-.03.17h1.91s.01,0,.02,0c.04,0,.07.01.1.03.02.01.04.03.06.05h0s.06.08.07.12h0s0,.05,0,.07c0,.01,0,.02,0,.03l-.25,1.41s-.01.05-.02.07c0,0,0,0,0,0-.02.03-.04.06-.07.08,0,0,0,0,0,0,0,0,0,0,0,0-.02.02-.05.04-.08.04h0s0,0,0,0c-.03,0-.05.02-.08.01h-1.67l-.03.17h1.59s.01,0,.02,0c.03,0,.07.01.1.03,0,0,0,0,0,0h0s.06.04.08.06c.02.03.04.06.05.1h0s0,0,0,0c0,.03,0,.05,0,.08,0,.01,0,.02,0,.03l-.23,1.29s0,.04-.02.06h0s0,0,0,0c-.01.03-.03.06-.06.08h0s0,0,0,0h0s-.08.05-.12.06h0s-.04,0-.05,0h-1.97l-.03.17ZM130.17,77.22h-1.28s-.01,0-.02,0c-.01,0-.02,0-.03,0l-.6-.09s-.06-.01-.08-.03l-.54-.29s-.05-.04-.07-.06l-.39-.47s-.04-.05-.04-.08l-.23-.68s-.01-.05-.01-.08v-.72s0-.02,0-.03h0s.03-.26.03-.26c0,0,0-.02,0-.02,0,0,0-.02,0-.03l.31-.96s.03-.06.05-.08l.65-.78s.05-.05.08-.06l.71-.37s.05-.02.08-.03l.78-.12s.02,0,.03,0h0s0,0,.01,0h1.37s.01,0,.02,0c.03,0,.07.01.1.03.03.02.06.04.08.06h0s.04.07.05.1h0s0,0,0,0c0,.02,0,.05,0,.08,0,.01,0,.02,0,.03l-.82,4.75s-.01.05-.02.08c0,0,0,0,0,0-.02.03-.04.05-.06.07,0,0,0,0,0,0h0s-.05.04-.09.05c-.02,0-.05.01-.08.01ZM128.91,76.71h1.05s.73-4.25.73-4.25h-1.05l-.73.11-.62.33-.59.7-.29.9-.03.22v.66s.2.6.2.6l.33.4.45.25.54.08ZM115.24,77.22s-.02,0-.03,0h0s-.04,0-.06-.02c-.04-.01-.07-.04-.09-.06h0s0,0,0,0c-.03-.03-.05-.07-.06-.11t0,0h0s0-.05,0-.07h0s0-.02,0-.03l.82-4.75s.01-.05.02-.07c0,0,0,0,0,0h0s.03-.05.06-.07c0,0,0,0,0,0h0s.07-.05.11-.06c.02,0,.04,0,.06,0h.8s0,0,.01,0h0s.07.01.1.02h0s.07.04.09.07h0s0,0,0,0c.02.02.03.05.04.08.01.03.01.07.01.1,0,0,0,.01,0,.02l-.27,1.61s0,0,0,.01l-.06.27,1.12-2.06s.01-.02.02-.03c0,0,0,0,0,0h0s.05-.05.07-.07c.03-.02.07-.03.11-.04,0,0,.02,0,.03,0h.57s.04,0,.06,0c.04,0,.08.03.11.05h0s.05.05.06.09c0,0,0,0,0,0h0s.02.04.02.06l.43,2.2.09-.65s0,0,0-.01l.26-1.52s.01-.05.02-.07c.02-.03.04-.06.06-.08,0,0,0,0,0,0h0s.07-.04.11-.05c0,0,0,0,0,0,.02,0,.04,0,.06,0h.79s.01,0,.02,0c.03,0,.06.01.09.02.03.02.06.04.08.06,0,0,0,0,0,0,0,0,0,0,0,0,.03.03.04.07.05.11,0,.02,0,.05,0,.07,0,.01,0,.02,0,.03l-.82,4.75s0,.03-.01.05h0s0,0,0,0c-.02.04-.05.08-.08.11,0,0,0,0,0,0-.02.02-.05.03-.07.04h0s0,0,0,0c-.03,0-.06,0-.08.01h-1.01s-.05,0-.07,0c-.04-.01-.07-.03-.1-.05h0s0,0,0,0c-.02-.02-.04-.04-.06-.07,0,0,0,0,0,0h0s-.02-.05-.03-.08l-.56-2.93-1.61,3s-.01.02-.02.03c-.02.03-.05.06-.08.08-.03.02-.06.03-.09.03-.01,0-.03,0-.04,0h-1.05ZM119.15,76.71h.6l.74-4.25h-.29l-.23,1.31-.29,2.17s0,.04-.01.05c-.01.03-.03.06-.05.09,0,0,0,0,0,0-.03.03-.06.05-.1.07-.03.01-.05.02-.09.02-.03,0-.05,0-.08-.01,0,0,0,0,0,0-.03-.01-.06-.03-.09-.05-.03-.03-.06-.07-.07-.11h0s0,0,0,0c0-.01,0-.02,0-.04l-.69-3.5h-.22l-1.88,3.46s-.02.03-.03.05h0s0,0,0,0c-.03.03-.06.05-.09.07-.03.01-.07,0-.1.02-.03,0-.06,0-.09-.02-.03-.01-.05-.03-.08-.04-.03-.03-.06-.06-.07-.1-.01-.03-.02-.06-.02-.09h0s0-.04,0-.06l.42-1.97.22-1.31h-.29l-.73,4.25h.6l1.88-3.51s0-.01.01-.02h0s0,0,0,0c.01-.02.03-.04.05-.06.03-.03.07-.04.11-.05,0,0,.01,0,.02,0h0s0,0,0,0c0,0,0,0,0,0h0s0,0,0,0h.03s.07.01.11.03c.04.02.07.05.09.08h0s0,0,0,0c.02.02.03.05.04.08,0,0,0,0,0,0,0,0,0,0,0,.01l.66,3.43ZM173.65,77.22h-1.5s0,0,0,0c0,0,0,0,0,0,0,0-.02,0-.03,0l-.66-.09s-.07-.02-.1-.03l-.57-.35s-.07-.06-.09-.09l-.25-.46s-.03-.07-.03-.1l-.04-.52s0-.03,0-.05c0-.01,0-.03,0-.04l.12-.49s.02-.06.04-.08l.28-.42s.04-.05.07-.07l.5-.32-.51-1.4-2.37,4.4s0,.02-.01.02c-.02.03-.05.06-.08.08,0,0,0,0,0,0h0s-.06.03-.1.03c-.01,0-.02,0-.04,0h-.71s-.05,0-.07,0c-.03,0-.06-.02-.09-.04-.03-.02-.06-.06-.07-.09,0-.02-.02-.04-.02-.06l-.92-4.75s0-.02,0-.03c0-.03,0-.07,0-.1,0-.03.02-.06.04-.08.03-.03.06-.06.1-.08.02-.01.05-.02.08-.02,0,0,.02,0,.03,0h.8s.04,0,.06,0c0,0,0,0,0,0h0s.07.02.1.05h0s0,0,0,0c.03.03.06.06.08.1h0s0,0,0,0c0,.02.01.04.02.06l.15.9h1.41l.49-.97s.01-.02.02-.03c.02-.03.05-.05.07-.07.03-.02.07-.03.11-.04.01,0,.03,0,.03,0h.86s.05,0,.07,0c0,0,0,0,.01,0h0s.06-.01.08-.01h.85s.03,0,.05,0t0,0s.07.02.1.04c.03.02.06.05.08.09,0,.01.01.03.02.04l.55,1.62h.51l.28-1.58s0-.04.01-.05c.02-.04.04-.07.07-.1h0s.07-.04.11-.05c.02,0,.05,0,.06,0h.8s.01,0,.02,0h0s.07.01.1.03c.03.01.05.03.07.06.03.03.05.07.06.11,0,.02,0,.05,0,.07,0,.01,0,.02,0,.03l-.82,4.75s-.01.05-.02.08h0s0,0,0,0c-.02.03-.04.06-.06.08,0,0,0,0,0,0,0,0,0,0,0,0h0s-.05.03-.08.04c-.02,0-.05.01-.08.01ZM167.75,76.71h.36l2.29-4.25h-.29l-.49.97s0,.02-.02.03c-.02.03-.05.06-.08.08-.03.02-.06.03-.1.04-.01,0-.03,0-.04,0h-1.77s-.05,0-.07,0c0,0,0,0,0,0-.04-.01-.07-.03-.1-.05h0s0,0,0,0c-.03-.02-.05-.05-.06-.08-.01-.02-.02-.05-.02-.08l-.15-.9h-.28l.82,4.25ZM172.17,76.71h1.26s.74-4.25.74-4.25h-.29l-.28,1.58s-.01.05-.03.08c0,0,0,0,0,0,0,0,0,0,0,0-.01.02-.03.04-.04.06h0s-.08.06-.13.07c-.02,0-.04,0-.05,0h-.9s-.03,0-.05,0c-.04,0-.08-.02-.11-.05h0s0,0,0,0c-.03-.02-.05-.04-.07-.07,0,0,0,0,0,0h0s-.02-.03-.02-.05l-.55-1.61h-.33l.59,1.63s.01.04.02.06c0,.04,0,.08-.01.11-.01.03-.03.06-.05.09-.02.02-.03.03-.05.04l-.62.4-.23.34-.1.41.03.44.2.35.47.28.6.08ZM133.7,77.22h-.8s-.02,0-.02,0c-.03,0-.06,0-.08-.02-.04-.02-.07-.04-.1-.07-.02-.03-.04-.06-.05-.09,0-.03-.01-.06,0-.09,0,0,0-.02,0-.03l.66-3.78h-1.79s-.02,0-.03,0c-.03,0-.05,0-.08-.02h0s-.06-.04-.09-.06c0,0,0,0,0,0-.02-.03-.04-.06-.05-.1h0s0,0,0,0c0-.03-.01-.06,0-.1,0,0,0-.01,0-.02l.12-.67s.01-.05.02-.07h0s0,0,0,0c.02-.03.04-.06.06-.08.03-.03.07-.05.11-.06,0,0,0,0,0,0h0s.04,0,.06,0h2.89s.01,0,.02,0c.03,0,.06.01.09.02.03.02.06.04.08.06.03.03.05.07.06.11,0,.02,0,.05,0,.07,0,.01,0,.02,0,.03l-.82,4.75s0,.04-.01.05c-.02.04-.04.08-.08.11,0,0,0,0,0,0-.02.02-.05.03-.08.04h0s0,0,0,0c-.02,0-.05.01-.07.01ZM133.19,76.71h.29l.74-4.25h-2.38l-.03.17h1.79s.02,0,.02,0c.04,0,.07.01.1.03h0s.04.03.06.05h0s.06.08.07.12c0,.03,0,.05,0,.08,0,0,0,.02,0,.03l-.66,3.78ZM110.09,77.22h-3.65s-.02,0-.03,0c-.03,0-.05,0-.08-.02-.04-.02-.07-.04-.09-.07-.02-.03-.04-.06-.05-.1,0-.03-.01-.06,0-.09,0,0,0-.02,0-.02l.12-.67s.01-.05.02-.08t0,0h0s.03-.05.05-.07c.03-.03.07-.05.11-.06h0s0,0,0,0c.02,0,.04,0,.07,0h1.22l.67-3.87s.01-.05.02-.07h0s0,0,0,0c.02-.04.04-.07.07-.09,0,0,0,0,0,0h0s.06-.04.1-.05c0,0,0,0,0,0,.02,0,.04,0,.06,0h.79s.01,0,.02,0c.04,0,.07.01.1.03.03.01.05.03.07.05.03.03.05.07.06.1,0,.03.01.06,0,.09,0,0,0,.01,0,.02l-.66,3.78h1.12s.03,0,.04,0c.02,0,.04,0,.06.02h0s.08.04.1.07h0s.04.07.05.1c0,.02,0,.05,0,.07,0,.01,0,.02,0,.03l-.12.67s0,.03-.01.05h0s0,0,0,0c-.02.04-.05.08-.08.11,0,0,0,0,0,0-.02.02-.05.03-.07.04h0s0,0,0,0c-.02,0-.05.01-.08.01ZM106.73,76.71h3.14l.03-.17h-1.12s-.01,0-.02,0c-.04,0-.07-.01-.1-.03-.03-.02-.06-.04-.08-.06-.03-.03-.05-.07-.05-.11,0-.02,0-.05,0-.07,0-.01,0-.02,0-.04l.66-3.78h-.29l-.67,3.87s0,.04-.02.06h0s0,0,0,0c-.02.04-.04.07-.07.1,0,0,0,0,0,0h0s-.07.04-.1.05c0,0,0,0,0,0-.02,0-.04.01-.06,0h-1.22l-.03.17ZM177.79,77.22h-.8s-.02,0-.03,0c-.03,0-.06-.01-.08-.02-.03-.02-.06-.04-.08-.06-.03-.03-.05-.07-.06-.12,0-.02,0-.04,0-.06,0-.01,0-.03,0-.04l.24-1.36-1.56,1.59s0,0-.01.01c0,0,0,0,0,0h0s-.04.03-.06.04h0s0,0,0,0c0,0,0,0,0,0h0s-.06.02-.09.02h0s0,0,0,0c0,0,0,0-.01,0h-1.03s0,0-.01,0h0s0,0,0,0h0s-.05,0-.08-.02c-.03-.01-.06-.03-.09-.06-.03-.03-.05-.06-.06-.09,0-.02-.02-.05-.02-.08h0s0,0,0,0c0,0,0-.02,0-.03,0-.03,0-.05.02-.08h0s0,0,0,0h0s.02-.05.04-.07c0,0,0,0,.01-.01l1.98-2.02-1.25-2.45s-.02-.03-.02-.05c0-.04-.01-.07,0-.11,0-.03.01-.06.03-.08h0s0,0,0,0c.02-.04.05-.07.09-.09.02-.01.04-.02.07-.03t0,0h0s.04,0,.07,0h.89s.02,0,.03,0c.04,0,.07.02.1.04.03.02.06.04.08.08,0,0,.01.02.02.03l.87,1.74.34-.31.24-1.36s0-.04.02-.06h0s0,0,0,0c.02-.03.04-.06.06-.09h0s.06-.04.1-.05c.02,0,.04-.01.07,0h.8s.01,0,.02,0c.03,0,.07.01.1.02.03.02.06.04.09.07,0,0,0,0,0,0h0s.04.06.05.09c0,.03.01.07,0,.1,0,0,0,.01,0,.02l-.82,4.75s0,.04-.01.05c0,0,0,0,0,0h0s-.05.08-.08.11c0,0,0,0,0,0,0,0,0,0,0,0-.02.02-.05.03-.08.04h0s0,0,0,0c-.02,0-.05.01-.07.01ZM177.29,76.71h.29l.74-4.25h-.29l-.21,1.24s-.02.06-.03.09h0s0,0,0,0h0s0,0,0,0h0s0,0,0,0c0,0,0,0,0,0,0,0,0,0,0,0,0,0,0,0,0,0h0s-.03.03-.04.05l-.65.59s-.02.02-.03.02c-.03.02-.05.03-.08.04h0s-.07,0-.1,0h0s-.08-.02-.11-.05c-.02-.02-.04-.04-.06-.06h0s0,0,0,0c0-.01-.01-.02-.02-.03l-.95-1.91h-.33l1.14,2.24s.02.03.02.05c.01.04.01.07,0,.11,0,.04-.02.08-.04.11,0,.01-.02.02-.03.04l-1.68,1.71h.32l2.06-2.11s0,0,0,0c.03-.03.06-.05.1-.06,0,0,0,0,0,0,.04-.01.07-.02.11,0,.02,0,.04,0,.06.02,0,0,0,0,0,0,0,0,0,0,0,0h0s0,0,0,0h0s.06.04.09.06c.02.03.04.06.05.09.01.04.02.07,0,.11h0s0,0,0,0l-.33,1.89ZM101.29,77.22h-1.5s0,0,0,0c0,0,0,0,0,0,0,0-.02,0-.03,0l-.66-.09s-.07-.02-.1-.03l-.57-.35s-.07-.06-.09-.09l-.25-.46s-.03-.07-.03-.1l-.04-.52s0-.03,0-.05h0s0,0,0,0c0-.02,0-.03,0-.04l.12-.49s.02-.06.04-.08l.28-.42s.04-.05.07-.07l.5-.32-.63-1.74s-.02-.07-.01-.11v-.04s.01-.06.02-.08h0s.04-.07.07-.1c.03-.02.06-.04.09-.05h0s0,0,0,0h0s0,0,0,0c.02,0,.04-.01.07,0h.85s.03,0,.05,0c.04,0,.07.02.1.04h0s.06.05.07.08c0,.02.02.03.02.05l.55,1.62h.51l.28-1.58s0-.04.02-.06h0s0,0,0,0c.02-.04.04-.07.07-.1.03-.03.07-.04.11-.05.02,0,.04,0,.05,0h.8s.01,0,.02,0c.04,0,.07.01.1.03.03.01.05.03.08.06.03.03.05.07.06.11,0,.02,0,.05,0,.07,0,.01,0,.02,0,.03l-.82,4.75s-.01.05-.02.07c-.02.04-.04.07-.07.09,0,0,0,0,0,0-.02.02-.05.03-.08.04h0s0,0,0,0c-.02,0-.05.01-.07.01ZM99.81,76.71h1.27s.74-4.25.74-4.25h-.29l-.28,1.58s-.01.06-.03.08c0,0,0,0,0,0-.01.02-.03.04-.05.06,0,0,0,0,0,0,0,0,0,0,0,0-.03.03-.06.04-.1.06h0s-.05.01-.07,0h-.9s-.03,0-.05,0c-.04,0-.08-.02-.11-.05h0s0,0,0,0c-.03-.02-.05-.05-.07-.08,0-.02-.02-.03-.02-.05l-.55-1.61h-.33l.59,1.63s.01.04.02.06c0,.04,0,.07-.01.11-.01.04-.03.07-.06.1-.01.01-.03.03-.04.04l-.62.4-.23.34-.1.41.03.43.2.35.47.28.6.08ZM144.45,77.22s-.01,0-.02,0c-.03,0-.06,0-.08-.02h0s-.07-.04-.1-.08h0s-.03-.05-.04-.09c0-.03-.01-.06,0-.09,0,0,0-.02,0-.03l.48-2.79h-.27s-.02,0-.03,0c-.02,0-.04,0-.06-.02-.04-.02-.08-.04-.1-.08h0s-.01-.01-.02-.02l-2.43,3.11s0,0,0,.01c-.02.03-.05.05-.09.07-.03.01-.05.02-.08.02,0,0-.02,0-.03,0h-.82s-.02,0-.03,0c-.03,0-.06,0-.08-.02h0s-.07-.04-.1-.08h0s-.03-.05-.04-.09c0-.03-.01-.06,0-.09,0,0,0-.02,0-.03l.48-2.79h-.27s-.02,0-.03,0c-.02,0-.04,0-.06-.02-.04-.02-.08-.04-.1-.08h0s-.04-.06-.05-.1h0s0,0,0,0c0-.02,0-.05,0-.07h0s0-.02,0-.03l.11-.67s.01-.05.02-.08c0,0,0,0,0,0h0s.03-.05.05-.07h0s0,0,0,0h0s.07-.05.11-.06c.02,0,.05,0,.06,0h.36l.15-.78s.01-.04.02-.06c.02-.04.04-.07.07-.09,0,0,0,0,0,0h0s.06-.04.1-.05c.02,0,.04-.01.06,0h.76s.02,0,.03,0h0s.06,0,.08.02h0s0,0,0,0c.04.02.07.04.09.07,0,0,0,0,0,0,.02.03.04.06.05.1h0s0,.06,0,.08c0,0,0,.02,0,.03l-.13.68h1.68s0,0,.01,0c.03,0,.07,0,.1.02.03.01.06.03.08.06,0,0,.01-.01.02-.02h0s.07-.04.1-.05c.02,0,.05,0,.06,0h.36l.15-.78s0-.04.02-.06c.02-.04.04-.08.08-.1,0,0,0,0,0,0h0s.06-.04.09-.05c0,0,0,0,0,0,.02,0,.05,0,.07,0h.76s.02,0,.03,0h0s.06,0,.08.02c.04.02.07.04.09.07,0,0,0,0,0,0,.02.03.04.06.05.1,0,0,0,0,0,0h0s0,.06,0,.08c0,0,0,.02,0,.03l-.13.68h1.68s0,0,.01,0c.03,0,.07,0,.1.02.03.02.06.04.09.07h0s0,0,0,0h0s.04.05.05.09c.01.03.01.07.01.1,0,0,0,0,0,0h0s0,0,0,0l-.07.55s0,.05-.02.07c0,.02-.02.05-.04.07l-2.51,3.21s0,.01-.02.02c-.02.02-.05.04-.08.06-.03.01-.06.02-.09.02,0,0-.02,0-.03,0h-.82ZM144.75,76.71h.4l2.39-3.06.03-.2h-1.7s-.02,0-.03,0c-.03,0-.06-.01-.08-.02-.03-.02-.06-.04-.09-.07h0s-.04-.07-.05-.11c0-.03,0-.05,0-.08,0,0,0-.02,0-.03l.13-.68h-.26l-.15.78s0,.04-.02.06h0s0,0,0,0c-.02.04-.05.08-.08.1-.02.02-.05.03-.08.04,0,0,0,0,0,0-.02,0-.05.01-.08.01h-.35l-.03.17h.27s.01,0,.02,0h0s.07.01.1.03c.03.01.05.03.07.06h0s0,0,0,0h0s.05.07.06.11c0,0,0,0,0,0h0s0,.05,0,.08c0,0,0,.02,0,.03l-.48,2.79ZM141.04,76.71h.4l2.39-3.06.03-.2h-1.7s-.02,0-.03,0c-.03,0-.05,0-.08-.02-.04-.02-.07-.04-.1-.07,0,0,0,0,0,0h0s-.04-.06-.05-.1c0-.03,0-.06,0-.08h0s0-.02,0-.03l.13-.68h-.26l-.15.78s-.01.05-.02.07c-.02.03-.04.06-.06.08,0,0,0,0,0,0-.03.02-.06.04-.09.05-.02,0-.05.01-.08.01h-.35l-.03.17h.27s.02,0,.02,0h0s.07.01.1.03c.03.01.05.03.07.06h0s0,0,0,0h0s.05.07.06.11c0,0,0,0,0,0h0s0,.05,0,.08c0,0,0,.02,0,.03l-.48,2.79ZM104.11,76.6s-.01,0-.02,0h0s-.04,0-.06,0l-.41-.11s-.07-.03-.1-.05l-.17-.14s-.03-.03-.05-.06l-.12-.18s-.03-.06-.04-.1l-.13-.85s0-.02,0-.03c0-.01,0-.03,0-.04l.03-.34h0s0-.02,0-.02l.03-.22s0-.02,0-.02t0,0h0s0-.02,0-.02l.32-1s.02-.05.04-.08l.27-.36s.04-.04.07-.06l.38-.24s.06-.03.1-.04l.44-.07s.04,0,.05,0h0s.04,0,.06.01l.41.12s.07.03.1.05l.16.14s.03.03.04.05l.12.18s.03.06.04.1l.13.85s0,.04,0,.06c0,.01,0,.03,0,.04l-.31,1.44s-.03.07-.05.1l-.46.57s-.05.05-.09.07l-.33.17s-.05.02-.08.02l-.36.05s-.02,0-.04,0ZM103.82,76l.31.08.27-.03.24-.12.39-.48.29-1.34-.12-.75-.07-.11-.09-.08-.31-.09-.33.05-.3.19-.22.28-.3.94-.05.51.12.77.07.1.09.08ZM112.59,76.6s-.02,0-.02,0c-.02,0-.03,0-.05,0l-.41-.11s-.07-.03-.1-.05l-.17-.14s-.04-.03-.05-.06l-.12-.18s-.03-.06-.04-.1l-.13-.84s0-.02,0-.04,0-.02,0-.04l.03-.34s0-.01,0-.02l.03-.22s0-.02,0-.03c0,0,0,0,0,0h0s0-.01,0-.02l.32-1s.02-.06.04-.08l.27-.36s.04-.04.07-.06l.38-.24s.06-.03.1-.04l.44-.07s.04,0,.06,0c.02,0,.04,0,.06.01l.41.12s.07.03.1.05l.16.14s.03.03.04.05l.12.18s.03.06.04.1l.13.85s0,.03,0,.05c0,.02,0,.04,0,.05l-.31,1.44s-.03.07-.05.1l-.46.57s-.05.05-.09.07l-.33.17s-.05.02-.08.02l-.36.05s-.02,0-.04,0ZM112.3,76l.31.08.27-.03.24-.12.39-.48.29-1.34-.12-.75-.07-.11-.09-.08-.3-.09-.34.05-.3.19-.22.28-.3.94-.06.51.12.77.07.1.09.08ZM137.14,76.54h-.84s-.01,0-.02,0c0,0-.02,0-.02,0l-.22-.03s-.05,0-.07-.02l-.21-.09s-.07-.04-.09-.07l-.13-.15s-.04-.06-.05-.1l-.05-.19s-.01-.05,0-.08v-.19s0-.02,0-.03c0-.02,0-.03.01-.05l.08-.27s.02-.06.04-.08l.18-.22s.05-.05.08-.07l.32-.17s.06-.02.09-.03l.36-.05s.03,0,.04,0h.74s.01,0,.02,0c.04,0,.07.01.1.03h0s.06.04.08.06c0,0,0,0,0,0h0s.04.06.05.1h0s0,0,0,0c0,.03,0,.06,0,.09h0s0,0,0,0c0,0,0,.01,0,.02l-.23,1.36s0,.04-.02.06h0s0,0,0,0c-.02.04-.04.07-.08.1,0,0,0,0,0,0h0s-.06.04-.09.05h0s0,0,0,0c-.02,0-.04,0-.06,0ZM136.32,76.03h.61s.15-.85.15-.85h-.42s-.3.04-.3.04l-.23.12-.12.15-.06.19v.12s.02.1.02.1l.05.06.13.05.18.02ZM100.6,76.54h-.86s-.02,0-.03,0c0,0-.01,0-.02,0l-.26-.04s-.05-.01-.08-.03l-.23-.12s-.08-.05-.1-.09l-.17-.28s-.04-.08-.04-.12v-.33s0-.03,0-.04c0-.02,0-.03.01-.05l.09-.3s.02-.06.04-.08l.19-.26s.05-.05.08-.07l.35-.2s.06-.03.09-.03l.4-.06s.02,0,.02,0c0,0,.01,0,.02,0h.77s.02,0,.03,0c.03,0,.05,0,.07.02h0s.06.04.09.07c.03.03.04.06.05.1h0s.01.06,0,.09c0,0,0,.01,0,.02l-.28,1.6s0,.04-.02.06h0s0,0,0,0c-.02.03-.04.07-.07.09h0s0,0,0,0c-.03.02-.06.04-.1.05h0s-.04,0-.06,0ZM99.76,76.03h.63s.19-1.1.19-1.1h-.46s-.34.05-.34.05l-.26.15-.13.18-.06.22v.23s.11.17.11.17l.13.07.2.03ZM129.48,76.54h-.6s-.02,0-.02,0c0,0-.02,0-.03,0l-.33-.06s-.06-.02-.09-.03l-.29-.17s-.06-.05-.08-.08l-.24-.36s-.03-.06-.04-.09l-.08-.42s0-.02,0-.03c0,0,0-.02,0-.03v-.37s.06-.5.06-.5c0-.01,0-.02,0-.03,0-.02,0-.03.02-.04l.41-.97s.04-.08.08-.1l.54-.42s.07-.04.11-.05l.66-.13s.04,0,.06,0h.47s.02,0,.03,0c.02,0,.05,0,.07.02.04.02.07.04.1.07h0s0,0,0,0c.02.03.04.06.05.09,0,.03.01.07,0,.1v.02s-.6,3.39-.6,3.39c0,.03-.01.05-.03.08h0s0,0,0,0c-.01.02-.03.05-.05.07,0,0,0,0,0,0-.03.03-.08.05-.12.06h0s0,0,0,0c-.02,0-.03,0-.05,0ZM128.9,76.03h.37s.51-2.89.51-2.89h-.15s-.58.12-.58.12l-.44.34-.38.89-.05.44v.32l.07.35.18.27.2.12.27.05ZM172.96,76.54h-.86s-.02,0-.03,0c0,0-.01,0-.02,0l-.26-.04s-.05-.01-.08-.03l-.23-.12s-.08-.05-.1-.09l-.17-.28s-.04-.08-.04-.12v-.33s0-.04,0-.05c0-.01,0-.03,0-.04l.09-.3s.02-.06.04-.08l.19-.26s.05-.05.08-.07l.35-.2s.06-.03.09-.03l.4-.06s.03,0,.04,0h.78s.02,0,.03,0h0s.06.01.08.02t0,0h0s.06.04.08.06h0s.05.07.06.11h0s0,.05,0,.08c0,0,0,.02,0,.03l-.28,1.6s0,.04-.02.06c0,0,0,0,0,0h0s-.04.07-.07.1c0,0,0,0,0,0h0s-.07.04-.11.05c0,0,0,0,0,0-.02,0-.03,0-.05,0ZM172.12,76.03h.63s.19-1.1.19-1.1h-.46s-.33.05-.33.05l-.26.15-.13.18-.07.22v.23s.11.17.11.17l.13.07.2.03ZM168.04,76.2s-.03,0-.03,0c0,0,0,0,0,0h0s0,0,0,0h0s-.07-.02-.1-.04c-.03-.02-.05-.04-.07-.06h0s-.04-.07-.05-.11c0,0,0,0,0-.01l-.32-1.95s0-.01,0-.02c0-.04,0-.07,0-.1h0s0,0,0,0c0-.03.03-.06.05-.09h0s0,0,0,0h0s.06-.05.09-.07c.02,0,.05-.02.07-.02.01,0,.02,0,.03,0h1.32s.04,0,.06,0c.03,0,.06.02.09.04.03.02.06.05.07.08.02.03.03.06.03.09,0,.04,0,.07,0,.11h0s-.01.04-.02.05l-1,1.95s0,0,0,0c-.02.03-.04.06-.07.08-.03.02-.06.03-.09.04h0s-.04,0-.06,0ZM168.02,74.25l.15.9.46-.9h-.61ZM145.39,76.15s-.01,0-.02,0c-.03,0-.05,0-.08-.02-.03-.01-.06-.03-.09-.05-.02-.02-.04-.05-.06-.08-.01-.03-.02-.07-.02-.11,0-.01,0-.03,0-.04l.37-2.02s.01-.05.02-.07c0,0,0,0,0,0h0s.03-.05.05-.07c0,0,0,0,0,0h0s.07-.05.12-.06h0s0,0,0,0c.02,0,.03,0,.05,0h1.17s.03,0,.04,0h0s0,0,0,0h0s.09.03.13.06c.02.02.04.04.05.07h0s0,0,0,0c.01.03.02.06.03.1,0,.04,0,.08-.02.12h0s0,0,0,0h0s0,0,0,0h0s0,0,0,0h0s-.02.04-.03.05l-1.53,2.01s-.02.03-.03.04c-.02.02-.05.04-.08.06-.03.01-.06.02-.1.02ZM145.97,74.13l-.14.77.59-.77h-.45ZM141.68,76.15s-.06,0-.09-.02c-.03-.01-.06-.03-.09-.06-.02-.02-.04-.05-.06-.08-.01-.03-.02-.07-.02-.1,0-.02,0-.03,0-.05l.37-2.02s0-.04.02-.06h0s0,0,0,0c.02-.04.04-.07.07-.1,0,0,0,0,0,0,0,0,0,0,0,0,.03-.02.06-.04.1-.05.02,0,.05,0,.07,0h1.17s.03,0,.04,0h0s0,0,0,0h0s0,0,0,0h0s.09.03.12.06c.02.02.04.05.05.07h0s0,0,0,0c.01.03.02.06.03.1,0,.04,0,.08-.02.12h0s0,0,0,0h0s0,0,0,0h0s0,0,0,0h0s-.02.04-.03.05l-1.53,2.01s-.02.02-.02.03t0,0s0,0,0,0c-.03.03-.06.05-.09.06-.03.01-.06.02-.1.02ZM142.26,74.13l-.14.77.59-.77h-.45ZM195.04,74.88h-2.22s-2.07-.51-2.07-.51c-.02,0-.04-.01-.06-.02l-1.79-.99-1.61-1.49-1.19-1.76s-.02-.04-.03-.06l-.67-1.9s-.01-.04-.01-.06l-.18-2.07s0-.02,0-.03h0s0-.04,0-.05l.57-2.82s.01-.05.02-.07l.84-1.59,1.24-1.46s.02-.02.02-.03c.01,0,.02-.02.03-.03l2.29-1.59s.04-.02.06-.03l1.57-.55,1.64-.22s.03,0,.04,0c.01,0,.03,0,.04,0l2.95.47s.05.01.08.03l2.49,1.3s.05.03.07.05l1.9,1.97s.03.03.04.05l.79,1.43.52,1.63.18,1.75-.04.91-.12.86-.67,2s-.02.04-.03.06l-1.15,1.74-1.62,1.52-1.87,1.04s-.04.02-.06.02l-2.01.5ZM190.91,73.88l1.98.5h2.1s1.92-.49,1.92-.49l1.79-.99,1.53-1.44,1.09-1.67.65-1.92.11-.79.04-.84-.17-1.66-.49-1.53-.75-1.36-1.84-1.91-2.42-1.26-2.88-.46-1.55.2-1.49.53-2.25,1.56-1.19,1.4-.8,1.51-.55,2.75.17,2.01.65,1.84,1.13,1.69,1.52,1.41,1.71.94ZM137.48,74.56h-.96s-.01,0-.02,0h0s-.02,0-.03,0l-.23-.03s-.06-.01-.08-.03l-.21-.11s-.08-.06-.1-.1l-.15-.25s-.03-.08-.03-.12v-.29s0-.04,0-.06c0-.01,0-.02,0-.03l.09-.27s.03-.06.05-.08l.19-.22s.05-.05.08-.06l.32-.17s.05-.02.08-.03l.36-.05s.03,0,.04,0h.84s.02,0,.03,0c.03,0,.05,0,.08.02.04.02.07.04.09.07h0s.05.07.06.12h0s0,.04,0,.06c0,.01,0,.03,0,.04l-.26,1.41s-.01.05-.02.07c-.02.04-.04.07-.07.09h0s0,0,0,0c-.03.02-.06.04-.09.05h0s0,0,0,0c-.02,0-.04,0-.07,0ZM136.53,74.05h.73s.17-.91.17-.91h-.52s-.3.04-.3.04l-.24.13-.12.15-.06.19v.19s.08.13.08.13l.1.05.17.03ZM200.95,67.9h-.79s-.03,0-.04,0c-.04,0-.08-.02-.11-.04-.03-.02-.05-.05-.07-.08,0-.01-.02-.03-.02-.05l-.61-1.61-.64,1.61s-.01.03-.02.04c-.02.03-.04.05-.07.07-.03.02-.07.04-.11.05-.01,0-.03,0-.04,0h-.53s-.02,0-.03,0c-.05,0-.09-.02-.12-.05,0,0,0,0,0,0h0s-.04-.04-.06-.06h0s-.02-.03-.03-.05l-.65-1.6-.58,1.6s-.02.04-.03.05h0s-.04.05-.06.07c-.03.02-.07.04-.11.05-.02,0-.03,0-.04,0h-.68s-.03,0-.05,0c-.03,0-.06-.02-.09-.03-.03-.02-.06-.04-.08-.07,0,0,0,0,0,0h0s-.04-.07-.04-.1c0-.03,0-.06,0-.09,0-.02,0-.03.02-.05l1.28-3.31s.01-.03.02-.05c.02-.03.04-.06.07-.08,0,0,0,0,0,0h0s.07-.04.11-.04c.01,0,.03,0,.04,0h.51s.03,0,.05,0c.04,0,.07.02.1.04h0s0,0,0,0c.03.02.06.05.08.09,0,.01.01.02.02.04l.68,1.7.69-1.7s.01-.03.02-.04c.02-.03.04-.06.07-.08.03-.02.07-.04.11-.04.02,0,.03,0,.05,0h.52s.03,0,.05,0h0s.07.02.1.04c0,0,0,0,0,0h0s.06.05.08.08c0,.01.02.03.02.05l1.28,3.31s0,.03.01.04c0,.03,0,.07,0,.1,0,.04-.02.07-.04.1-.02.03-.05.06-.08.08-.03.02-.05.03-.08.03-.02,0-.03,0-.04,0ZM200.33,67.39h.25l-1.08-2.81h-.19l-.86,2.14s-.03.06-.06.08h0s0,0,0,0h0s-.05.04-.08.05c-.03.01-.06.02-.09.02h0s-.06,0-.1-.02c-.03-.01-.06-.03-.08-.05,0,0,0,0,0,0,0,0,0,0,0,0-.02-.02-.04-.05-.06-.09,0,0,0,0,0,0l-.85-2.14h-.17l-1.08,2.81h.14l.74-2.06s.03-.07.06-.09c0,0,0,0,0,0,0,0,0,0,0,0,.02-.02.05-.04.09-.06.07-.03.14-.02.2,0,0,0,0,0,0,0h0s.04.02.06.04h0s0,0,0,0c.03.03.05.06.07.09l.84,2.07h.2l.82-2.07s.03-.06.06-.09c0,0,0,0,0,0h0s.05-.04.09-.06c0,0,0,0,0,0h0s0,0,.01,0h0s0,0,0,0h0s0,0,0,0h0s0,0,0,0c0,0,0,0,0,0h0s.06-.01.09,0h0s0,0,0,0h0s0,0,0,0c0,0,0,0,0,0h0s0,0,0,0h0s0,0,0,0c0,0,0,0,0,0h0s0,0,0,0h0s0,0,0,0c0,0,0,0,0,0h0s.04,0,.05.02c0,0,0,0,0,0h0s.05.03.07.05c.02.02.04.05.06.09l.78,2.06ZM192.15,67.9h-.01s-.01,0-.02,0l-.43-.05s-.05,0-.07-.02l-.13-.06-.15-.1s-.04-.03-.05-.05l-.07-.09s-.01-.02-.02-.03h0s0,0,0,0c0-.01-.02-.03-.02-.04l-.07-.27-.03-.61s0-.05,0-.07h0s0,0,0,0c0-.04.03-.08.06-.12.02-.02.05-.04.07-.06h0s0,0,0,0c0,0,0,0,0,0h0s.05-.02.08-.02l.76-.12s.03-.01.03,0h0s.05,0,.07,0c0,0,0,0,0,0h0s.08.03.11.06c0,0,0,0,0,0,.03.02.05.05.06.08,0,0,0,0,0,0,.01.03.02.06.02.09,0,0,0,.01,0,.02v.37h1.58v-1.6h-1.58v.45s0,.02,0,.03c0,.03-.01.05-.02.08-.02.03-.04.06-.06.08h0s-.07.05-.11.06h0s-.06,0-.09,0c0,0-.02,0-.03,0l-.76-.16s-.04,0-.05-.02c-.04-.02-.08-.05-.1-.08-.02-.03-.04-.06-.05-.1,0-.02,0-.04,0-.06v-.4s0,0,0,0h0s0,0,0-.01l.03-.34.07-.22s.02-.05.04-.07l.08-.11s.02-.03.03-.04c0,0,.02-.02.03-.02l.09-.06.17-.08s.04-.01.06-.02l.43-.05s.02,0,.03,0h1.98s.02,0,.03,0l.35.03.22.06s.04.02.06.03l.12.07s.02.02.03.03c.01.01.02.02.03.03l.07.08s.03.04.04.06l.05.12s.02.05.02.07l.05.42s0,.02,0,.02v1.76h0s0,.03,0,.03l-.03.35-.07.22s-.02.05-.04.07l-.08.11s-.02.03-.03.04c-.01.01-.02.02-.03.03l-.09.06-.17.07s-.04.01-.06.02l-.43.05s-.02,0-.04,0h-1.98ZM192.16,67.39h1.95l.47-.08.05-.06.04-.12.02-.27v-1.73l-.09-.45-.06-.04-.14-.04-.29-.02h-1.96l-.47.08-.05.06-.04.12-.02.45.26.05v-.4c0-.14.11-.25.25-.25h2.08c.14,0,.25.11.25.25v2.1c0,.14-.11.25-.25.25h-2.08c-.14,0-.25-.11-.25-.25v-.33l-.25.04.07.52.1.06.4.05ZM190.21,67.9h-2.84s-.02,0-.03,0l-.29-.03s-.05,0-.07-.02l-.22-.09s-.06-.03-.08-.05l-.13-.13s-.04-.05-.05-.08l-.08-.17s-.02-.05-.02-.08l-.02-.21s0-.01,0-.02v-.75h0s0-.03,0-.04l.04-.25s.01-.06.03-.09l.11-.19s.04-.06.07-.08l.15-.11s.05-.03.07-.04l.2-.07.3-.03s.02,0,.03,0h0s0,0,0,0h1.83v-1.04c0-.14.11-.25.25-.25h.76c.14,0,.25.11.25.25v3.32c0,.14-.11.25-.25.25ZM187.38,67.39h2.58v-2.81h-.25v1.04c0,.14-.11.25-.25.25l-2.32.02-.18.1-.06.1-.03.19.02.87.1.15.14.06.24.03ZM189.45,67.33h-1.74s-.01,0-.02,0l-.24-.03s-.08-.03-.1-.04c-.02,0-.04-.02-.06-.04-.03-.02-.07-.06-.08-.08-.01-.02-.05-.08-.06-.1l-.04-.18s0-.02,0-.03c0,0,0-.01,0-.02v-.35s0-.02,0-.03c0,0,0-.01,0-.02l.02-.12s.01-.06.03-.08c.02-.03.07-.11.09-.13,0,0,.02-.01.02-.02.03-.03.06-.05.1-.06l.08-.03s.04-.01.07-.01h.16s.02-.01.02-.01h1.74c.14,0,.25.11.25.25v.88c0,.14-.11.25-.25.25ZM187.63,66.82h.08s1.48,0,1.48,0v-.37l-1.58.03v.34s.01,0,.01,0ZM140.84,11.42l-1.39-.09-.85-.16s-.02,0-.04,0c0,0,0,0-.01,0l-1.01-.37-1.06-.53-.71-.43-.71-.48-.72-.54-.78-.63-.73-.64-.85-.84-.26-.33s-.07-.06-.09-.11l-.34-.92v-.11s-.01-.05,0-.08c0-.04.03-.09.06-.13.02-.03.06-.06.09-.07.04-.02.08-.03.12-.03,0,0,0,0,0,0h6.18s.01,0,.02,0c.04,0,.07.01.1.03h0s0,0,0,0c.03.01.05.03.07.06,0,0,.01.01.02.02l.73,1.03,1.35,1.29,1.3.81,1.54.65.87.27.95.24,1.87.33,2.47.22s0,0,0,0l.8.04.69.11s.07.03.09.04c.03.01.05.03.07.05.03.03.07.09.08.14,0,.03.01.06,0,.09,0,0,0,.01,0,.02,0,.11-.07.21-.18.24l-.05.03-.28.11-.86.19-1.75.25-1.28.13-1.11.07s-.01,0-.02,0h0l-4.39.03ZM138.71,10.67l.8.15,1.34.08,4.37-.03,1.1-.07,1.26-.13,1.65-.24-.59-.03s-.01,0-.02,0l-2.14-.21-1.9-.33-1.88-.52-1.58-.66s-.02,0-.02-.01-.01,0-.02-.01l-1.33-.83s-.02-.01-.03-.02c0,0-.01-.01-.02-.02l-1.38-1.32s-.02-.02-.03-.03c0,0,0-.01-.01-.02l-.66-.93h-5.73l.03.08.29.59.43.47.56.54.71.63.76.62.7.52.69.47.68.41,1.01.51.97.35ZM101.69,11.41l-4.41-.03s-.01,0-.02,0l-.8-.05-1.88-.19-.85-.12-1.45-.28-.26-.09s-.03-.01-.05-.02c-.09,0-.18-.07-.21-.16h0s-.02-.05-.02-.08c0-.01,0-.03,0-.05,0-.03,0-.06,0-.09.01-.04.03-.1.06-.13.02-.02.06-.06.08-.07.02-.01.08-.04.1-.05l.14-.04.54-.07.82-.04s0,0,0,0l.35-.02,2.46-.26,2.1-.41,1.98-.64.87-.4.72-.41,1.47-1.2.97-1.18.86-1.16s.03-.03.04-.05h0s.03-.02.04-.03c.03-.01.06-.02.09-.03.02,0,.05,0,.08,0,0,0,0,0,0,0,0,0,0,0,0,0h0s.04,0,.05.02l1.6.63,2.01.87.68.21.79.08s.03,0,.05,0c0,0,0,0,0,0,0,0,0,0,0,0,.04.01.08.04.11.07.02.02.04.05.05.08.01.03.02.07.02.1,0,0,0,0,0,.01,0,.02,0,.03,0,.05-.01.1-.08.18-.16.21l-1.01,1.13-1.4,1.31-.9.68-.96.59-2.46,1.01s-.01,0-.02,0c-.01,0-.03,0-.04,0l-.82.16-1.4.09ZM97.28,10.87l4.39.03,1.36-.09.77-.15,2.4-.99.91-.56.86-.65,1.36-1.27.73-.82-.32-.04-.74-.22s0,0-.01,0c0,0-.01,0-.02,0l-1.58-.69-1.85-.74-1.4,1.86-.88.89-1.03.77-1.67.85-.99.36-1.08.31-2.13.42-2.47.26h-.01s-.56.03-.56.03l1.34.2,1.86.19.78.04ZM96.33,5.45c-.11,0-.21-.07-.25-.19,0-.03-.01-.06,0-.09,0-.02,0-.05,0-.07,0-.04.02-.08.05-.11.02-.03.05-.05.08-.07h0s.04-.02.05-.02l3.6-1.04,3.74-.92-1.72-.47-3.24-.73s-.02,0-.02,0l-.16-.04s-.04,0-.05-.02c-.04-.02-.08-.05-.1-.08-.02-.02-.03-.05-.04-.08,0-.03-.01-.06,0-.1h0s0-.05.02-.07c.02-.04.04-.07.08-.1h0s0,0,0,0c.03-.02.06-.04.1-.04h0s0,0,0,0c.02,0,.04-.01.06,0h2.26s.02,0,.03,0c.01,0,.03,0,.04,0l2.23.49,2.78.73,2.96-.59,3.88-.64s.03,0,.05,0h2.41s.04,0,.06,0c.05.01.09.03.12.06,0,0,0,0,0,0,.02.02.04.04.05.07h0s0,0,0,0h0s.02.06.03.09c0,.03,0,.05,0,.08-.01.04-.03.08-.06.11-.02.03-.05.05-.09.06-.02,0-.04.02-.06.02l-.22.04s-.02,0-.02,0l-3.39.55-3.62.73,1.78.58,3.38,1.3s.03.01.04.02c.04.02.06.05.08.08h0s0,0,0,0c.02.03.03.06.04.09,0,.02,0,.05,0,.07,0,.04,0,.08-.02.11-.05.13-.2.2-.33.14l-.06-.02h-2.09s-.04,0-.07,0c-.01,0-.03,0-.04-.01l-2.21-.88-2.78-.97-2.98.75-3.81,1.1s-.02,0-.03,0c-.02,0-.03,0-.05,0h-2.27l-.11.03s-.05,0-.07,0ZM110.8,4.9h.75l-1.28-.5-3.41-1.14c-.11-.04-.18-.14-.17-.25v-.03h0s0-.05,0-.07h0s.01-.04.02-.06c0,0,0-.01,0-.02l-.82.16s-.04,0-.06,0c-.02,0-.04,0-.06-.01l-2.68-.7,1.58.44s.03.01.05.02h0s.05.03.07.06c.01.02.03.03.04.05h0s0,0,0,0c.01.02.02.04.03.07,0,.02,0,.04,0,.06,0,0,0,0,0,0,0,.12-.07.24-.19.27l-3.68.88-2.68.76h.44l3.79-1.1,3.06-.77s.05,0,.08,0h0s0,0,0,0h0s.05,0,.07.01l2.86,1,2.18.87ZM140.26,5.44h-.01s-.03,0-.05,0c-.03,0-.07-.02-.09-.04-.03-.02-.05-.04-.07-.07-.02-.03-.04-.07-.04-.11,0-.03,0-.05,0-.08,0-.02,0-.04.02-.06l.21-.51h-9.37s0,0-.02,0l-.66-.09-.25-.12s-.06-.05-.08-.09c-.06-.05-.1-.13-.09-.22,0,0,0,0,0,0h0s0-.07.02-.11c0,0,0,0,0,0l.04-.1s.05-.08.09-.11l.13-.09s.04-.03.07-.03l.42-.14s.02,0,.04-.01l4.92-1.07,6.39-1.08s.01,0,.02,0l1-.11h.36s.01,0,.02,0l.85.09.11.04s.08.05.1.08l.06.08s.05.11.05.16c0,0,0,0,0,0,0,.06-.01.12-.05.17,0,0-.01.02-.02.03l-.59.8-.5.85h2.65s.04,0,.05,0c.04,0,.07.02.1.04.03.02.06.05.07.08.01.02.02.05.03.08,0,.03,0,.07,0,.1,0,.04-.02.07-.04.1-.02.03-.04.05-.07.07h0s-.03.02-.05.03l-.09.04s0,0-.01,0l-1.34.52s-.04.01-.05.02c-.02,0-.03,0-.05,0h-1.76l-.3.7s-.01.03-.02.04c-.02.03-.04.05-.07.07-.03.02-.07.04-.11.04-.01,0-.02,0-.04,0h-1.89ZM140.64,4.93h1.34l.31-.71s.01-.03.02-.04c.02-.03.04-.05.07-.07h0s0,0,0,0c.03-.02.06-.03.1-.04.02,0,.03,0,.05,0l1.91-.02h-1.62c-.14,0-.25-.11-.25-.25v-.04s0-.05,0-.07h0s.02-.05.03-.07l.74-1.26.44-.6-.19-.02h-.35s-1.01.06-1.01.06c0,0,0,0,0,.01,0,0,0,0,0,0,0,0,0,0,0,0h0s0,.01,0,.01c.01.03.02.06.02.09,0,.01,0,.03,0,.04,0,.06,0,.11-.04.16l-.64.93-.48.85s-.01.02-.02.03h0s-.05.05-.08.07c-.03.02-.07.03-.1.03,0,0-.02,0-.03,0h-7.86c-.14,0-.25-.11-.25-.25v-.04s0-.04,0-.06h0s.03-.08.05-.11h0s0,0,0,0c.02-.03.05-.05.09-.07h0s.04-.01.05-.02l.35-.08-2.81.61.35.02h9.74s.04,0,.06,0c.03,0,.06.02.08.03.03.02.06.04.07.07.02.03.04.07.04.11,0,.02,0,.04,0,.05,0,.04,0,.08-.02.12l-.2.47ZM135.34,3.5h5.4l.71-1.19-4.46.82-1.65.37ZM123.38,5.44h-.01s-.03,0-.05,0c-.03,0-.06-.02-.09-.03-.03-.02-.05-.04-.07-.07h0s0,0,0,0c-.02-.03-.04-.07-.04-.11,0-.03,0-.05,0-.08,0-.02,0-.04.02-.05l.21-.51h-9.37s0,0-.02,0l-.66-.09-.25-.12s-.06-.05-.08-.09c-.06-.05-.1-.13-.09-.21,0,0,0,0,0,0h0s0-.06.01-.09c0,0,0-.02,0-.02l.04-.1s.05-.08.08-.11l.13-.09s.04-.03.07-.04l.42-.14s.02,0,.04-.01l4.92-1.07,6.39-1.08s.01,0,.02,0l1-.11h.36s.01,0,.02,0l.85.09.11.04s.08.04.1.08l.06.08c.04.05.06.11.05.17,0,.06-.01.13-.05.18,0,0,0,.01-.01.02l-.59.8-.5.85h2.65s.04,0,.05,0c.04,0,.07.02.1.04.03.02.06.05.07.08.01.02.02.05.03.08,0,.03,0,.07,0,.1h0s-.02.07-.04.09c-.02.03-.05.06-.08.08-.02,0-.03.02-.05.02l-.09.04s0,0-.01,0l-1.34.52s-.04.01-.06.02c-.02,0-.03,0-.05,0h-1.76l-.3.71s0,.02-.02.03c-.02.03-.05.06-.08.08h0s-.07.04-.11.04c-.01,0-.03,0-.04,0h-1.89ZM123.76,4.93h1.34l.31-.71s.01-.02.02-.03c0,0,0,0,0,0h0s.05-.06.08-.08c.03-.02.06-.03.1-.04.02,0,.03,0,.05,0l1.91-.02h-1.62c-.14,0-.25-.11-.25-.25v-.04s0-.04,0-.06c0,0,0,0,0,0h0s.02-.05.03-.07l.74-1.26.44-.6-.19-.02h-.35s-1.01.06-1.01.06c0,.02.02.03.02.05h0s0,0,0,0c0,.02.01.03.01.05,0,.02,0,.04,0,.06,0,.06,0,.11-.04.16l-.64.93-.48.85s-.01.02-.02.03c-.02.03-.05.05-.08.07-.03.02-.07.03-.11.03,0,0-.02,0-.03,0h-7.86c-.14,0-.25-.11-.25-.25v-.04s0-.04,0-.06c0-.04.03-.07.05-.1.03-.03.06-.06.1-.08h0s.03-.01.05-.02l.32-.07-2.79.61.35.02h9.74s.04,0,.06,0h0s.06.02.09.04c.03.02.05.04.07.07.02.03.04.07.04.11,0,.02,0,.04,0,.05,0,.04,0,.08-.02.12l-.2.47ZM118.47,3.5h5.4l.71-1.19-4.46.82-1.65.37Z" style="fill: #414042; stroke-width: 0px;"/>
    </g>
  </g>
</svg>