<?xml version="1.0" encoding="UTF-8"?>
<svg id="Layer_2" data-name="Layer 2" xmlns="http://www.w3.org/2000/svg" width="291.85" height="183.05" viewBox="0 0 291.85 183.05">
  <g id="Main_Layer" data-name="Main Layer">
    <g>
      <path d="M25.32,36.97v51.71l-11.25.36c-.73.02-1.3.62-1.3,1.35v2.35c0,.73.58,1.32,1.3,1.35l11.25.36v51.73h26.36V36.97h-26.36Z" style="fill: #333132; stroke-width: 0px;"/>
      <rect x=".62" y="22.75" width="27.46" height="137.61" style="fill: #302e2f; stroke-width: 0px;"/>
      <path d="M209.07.58l5.31-.14c.79-.02,1.57.18,2.25.58l7.41,4.38v172.33s-7.3,4.36-7.3,4.36c-.69.41-1.47.62-2.27.59l-5.4-.14V.58Z" style="fill: #302e2f; stroke-width: 0px;"/>
      <rect x="224.04" y="62.67" width="14" height="57.61" style="fill: #2d2a2b; stroke-width: 0px;"/>
      <rect x="238.3" y="77.09" width="2.4" height="28.93" style="fill: #363436; stroke-width: 0px;"/>
      <path d="M209.07.58L36.96,3.62v30.68s28.78.03,28.78.03c2.3,0,4.16,1.87,4.16,4.16v105.95c0,2.41-1.95,4.36-4.36,4.36l-28.58.03v30.67s172.12,3.04,172.12,3.04V.58Z" style="fill: #393839; stroke-width: 0px;"/>
      <polygon points=".62 4.24 .62 6.07 36.96 5.63 36.96 3.62 .62 4.24" style="fill: #333132; stroke-width: 0px;"/>
      <polygon points="36.91 7.02 36.96 5.63 .62 6.07 .62 24.16 25.32 23.5 25.32 7.34 36.91 7.02" style="fill: #1b9446; stroke-width: 0px;"/>
      <path d="M25.32,7.34l11.59-.32.04,27.27,28.76.03c2.31,0,4.18,1.87,4.18,4.18v105.92c0,2.41-1.95,4.37-4.37,4.37l-28.57.03v27.27s-11.64-.32-11.64-.32v-31.56c0-.31.25-.56.55-.56l10.55-.14-1.84-1.21c-.21-.14-.34-.38-.34-.63V41.48c0-.24.12-.47.32-.61l1.86-1.27-10.34-.14c-.42,0-.77-.35-.77-.78V7.34Z" style="fill: #363436; stroke-width: 0px;"/>
      <polygon points=".61 178.87 .61 177.05 36.94 177.48 36.94 179.49 .61 178.87" style="fill: #333132; stroke-width: 0px;"/>
      <polygon points="36.9 176.09 36.94 177.48 .61 177.05 .61 158.96 25.31 159.61 25.31 175.78 36.9 176.09" style="fill: #1b9446; stroke-width: 0px;"/>
      <polygon points="240.7 79.53 290.03 79.5 291.6 82.46 291.6 100.58 290.04 103.55 240.7 103.33 240.7 79.53" style="fill: #808285; stroke-width: 0px;"/>
      <path d="M.84,177.13v.88s0,.59,0,.59v.3s0,.04,0,.04M.84,4.11v.04s0,.3,0,.3v.59s0,.88,0,.88M36.03,179.57v-.05s0-.34,0-.34v-.65s0-.96,0-.96M36.03,5.49v-.96s0-.65,0-.65v-.34s0-.05,0-.05M36.04,179.57v-.05s0-.34,0-.34v-.65s0-.96,0-.96M36.04,5.49v-.96s0-.65,0-.65v-.34s0-.05,0-.05M13.12,89.89l-.1.19-.03.18M34.42,94.74l.04-.03.04-.02M34.42,88.32l.04.03.04.02M34.19,111.27h-.04s-.11,0-.11,0h-.11M33.93,71.79h.11s.11,0,.11,0h.04M24.67,145.6h.32M34.51,105.5h-.32M34.51,75.53h-.32M194.5,29.59v-.1s0-.31,0-.31v-.31s0-.31,0-.31v-.31s0-.31,0-.31M194.5,154.95v-.31s0-.31,0-.31v-.31s0-.31,0-.31v-.31s0-.09,0-.09M199.82,29.5v-.14M194.13,153.55v.14M195.32,30.24h0M198.63,152.82h0M.25,175.2v-16.18M.83,175.66h-.12s-.11-.04-.11-.04l-.11-.05-.09-.07-.1-.12-.05-.18M.25,176.51v-.69s0-.62,0-.62M.25,176.51l.05.24.11.18.18.12.25.07M36.03,177.57h.01M36.04,177.57v-.15s0-.16,0-.16v-.17s0-.17,0-.17v-.18s0-.18,0-.18v-.19s0-.19,0-.19M36.04,177.57l.22-.04.11-.06.1-.08.13-.2.04-.24M36.64,175.54l-.04.24-.13.2-.2.14-.11.04h-.12M.25,159.02H.25M.83,159.03h-.24s-.21-.01-.21-.01h-.1s-.03,0-.03,0M.84,177.13l19.68.25,15.5.19M36.03,177.57v-.15s0-.16,0-.16v-.17s0-.17,0-.17v-.18s0-.18,0-.18v-.19s0-.19,0-.19M.84,175.66v.21s0,.2,0,.2v.19s0,.19,0,.19v.18s0,.17,0,.17v.17s0,.16,0,.16M25.58,175.87h-.59M36.03,176.17l-10.45-.3M24.99,175.24l.04.24.13.21.09.08.1.06.11.04h.12M24.99,175.86v-.62M.83,159.03l24.15.64M.83,159.03v16.63M.83,175.66h.01M24.99,175.86l-13.53-.11-10.62-.09M291.6,82.43v-.02M290.03,79.46h0v.02h0M290.03,79.46h-49.4M175.41,182.03l1.33.02M176.89,182.05h-.08s-.07,0-.07,0M174.29,182l1.12.03M175.41,182.03h.83s.65.02.65.02M149.07,1.53v-.03M130.75,1.81l1.33-.02M130.61,1.82h.08s.07,0,.07,0M132.63,1.79h-.55M132.08,1.79l-.83.02h-.65M113.52,180.93l1.33.02M115,180.96h-.08s-.07,0-.07,0M112.4,180.9l1.12.03M113.52,180.93h.83s.65.02.65.02M96.54,180.59v.04M68.87,2.91l1.33-.02M68.72,2.92h.08s.07,0,.07,0M70.74,2.88h-.55M70.19,2.89l-.83.02h-.65M290.03,79.49h-49.4M240.78,80.92h-.15M144.74,181.48h.19M150.54,181.52v.04M144.74,181.44v.04M100.86,2.35h-.19M95.07,2.52v-.04M100.86,2.38v-.03M290.03,103.54h-49.4M240.78,102.15h-.15M114.98,2.21h.03s.08-.02.08-.02h.12s.14-.01.14-.01h.29s.25-.02.25-.02h.35s.3,0,.3,0h.2s.07.02.07.02M130.62,181.12h-.07s-.2.02-.2.02h-.3s-.35,0-.35,0h-.25s-.29-.02-.29-.02h-.14s-.12-.02-.12-.02h-.08s-.03-.02-.03-.02M240.78,81.09h-.15M290.03,79.55h-49.4M240.78,79.55v.64M240.63,101.73h.15M240.78,102.06v.58s0,.68,0,.68M290.03,103.31h-49.4M240.63,81.52h.15M240.78,80.49v.08s0,.08,0,.08v.08s0,.08,0,.08v.09s0,.09,0,.09v.09s0,.09,0,.09M290.03,80.49h-49.4M171.86,1.09l6.33-.11M178.19.98l-.6.08-.47.15M73.75,180.23h1.86M67.41,180.12l6.33.11M68.49,179.92l2.94.23,2.32.08M67.41,180.12l.6-.06.47-.14M68.49,179.88v.04M177.12,1.21l-2.94-.12h-2.31M171.86,1.09l-1.94.07M177.12,1.25v-.04M240.78,101.15h-.15M240.78,101.26v.11s0,.11,0,.11v.1s0,.1,0,.1v.1s0,.1,0,.1v.09s0,.09,0,.09M290.03,102.06h-49.4M147.97,1.84v-.04M124.27,180.79v.04M121.33,2.31v-.04M97.64,180.32v.04M240.78,82.81h-.15M290.03,81.18h-49.4M240.78,81.18v.92s0,.72,0,.72M240.63,83.85h.15M174.86,181.97v.04M174.86,181.98h.55M177.17,182.02l1.96.04M180.75,181.61l-.9.37-.71.08M174.86,181.97l-6.25-.29-4.23-.32M161.09,181.7v.04M147.97,1.84l7.48-.13,5.45-.1M145.21,2.07l1.46-.5.15.02M134.54,180.98v.04M132.63,1.83v-.04M132.88,181.25l1.8.06M142.06,180.96l-3.94.28-3.44.03M132.63,1.83l6.25.07,4.24.17M126.75,2.4l1.46-.5.15.02M124.9,181.1l-2.54-.19-1.75-.32M124.9,181.1l2.03.04M134.54,180.98l-5.75-.1-4.52-.08M136,180.85l-.66.06-.8.06M111.06,2.49v-.04M112.97,180.87v.04M112.97,180.89h.55M115.28,180.93l1.97.03M118.86,180.51l-.9.37-.71.08M112.97,180.87l-6.25-.29-4.24-.32M96.54,180.6l2.25.04M100.39,180.18l-.9.37-.71.08M97.64,180.32l-7.48-.13-5.45-.1M84.51,2.7v-.04M79.76,180.3l1.86.03M83.23,179.88l-.9.37-.71.08M70.74,2.93v-.04M70.74,2.93l6.25.07,4.25.17M64.86,3.5l1.46-.5.15.02M148.03,181.42v.04M150.54,181.52l-3.16-.05h-1.57s-.52-.02-.52-.02h-.35M161.09,181.7l-5.91-.1-4.64-.08M162.28,181.28l-.67.3-.52.12M148.03,181.42l-2.85-.23-1.83-.21M112.73,2.16h-1.8M103.66,2.77l6.18-.54h1.09M111.06,2.49l5.75-.1,4.52-.08M109.61,2.67l.66-.08.8-.09M120.7,2.11l1.47-.06,2.78.34M97.58,2.52v-.04M95.07,2.52l1.85-.04,1.8-.04h.47s.41-.02.41-.02l.65-.02h.4M84.51,2.7l5.91-.1,4.64-.08M83.32,3.17l.67-.33.52-.14M97.58,2.52l2.85.13,1.83.14M65.61,180.05l1.81.03M68.49,179.88l-.6.16-.47.03M73.75,180.19l-2.95-.12-2.31-.19M162.38,1.77l1.33-.48.28.02M177.12,1.25l1.07-.22M171.86,1.16l.92-.04,4.34.13M88.5,2.85v-.04M157.1,181.42v.04M240.78,98.49h-.15M240.63,99.64h.15M240.78,99.64v.9s0,.72,0,.72M290.03,101.26h-49.4M290.03,83.43h-49.4M240.78,83.43v.14s0,.14,0,.14v.14s0,.14,0,.14v.15s0,.15,0,.15v.15s0,.15,0,.15M240.78,97.52v.16s0,.16,0,.16v.16s0,.16,0,.16v.16s0,.15,0,.15v.15s0,.15,0,.15M290.03,98.77h-49.4M151.62,181.32v.04M93.99,2.75v-.04M97.7,3.1v-.04M147.9,180.85v.04M78.34,3.54v-.04M167.26,181.1v.04M159.9,180.97v.04M157.61,181.16v.04M85.7,3.41v-.04M88,3.13v-.04M81.07,179.56v.04M164.53,2v-.04M240.78,86.04h-.15M240.63,87.5h.15M290.03,84.59h-49.4M240.78,84.59v.84s0,.61,0,.61M240.78,94.22v.29s0,.12,0,.12M240.78,94.62h-.15M240.63,96.14h.15M240.78,96.14v.74s0,.64,0,.64M290.03,97.52h-49.4M290.03,87.76h-49.4M240.78,87.76v.18s0,.18,0,.18v.18s0,.18,0,.18v.18s0,.18,0,.18v.18s0,.18,0,.18M240.78,92.75v.18s0,.19,0,.19v.18s0,.18,0,.18v.18s0,.18,0,.18v.18s0,.18,0,.18M290.03,94.22h-49.4M291.6,100.64v-.07s0-.37,0-.37v-.66s0-.93,0-.93v-1.17s0-1.38,0-1.38v-1.53s0-1.63,0-1.63v-1.68s0-1.67,0-1.67v-1.6s0-1.48,0-1.48v-1.31s0-1.09,0-1.09v-.84s0-.55,0-.55v-.25M291.6,82.43l-1.56-2.95M290.03,79.49h0s0,.02,0,.02h0s0,.02,0,.02h0s0,.02,0,.02h0M290.03,79.55l.63,1.28.16.33.1.21.06.12.15.32.05.14.02.06v.04s0,.02,0,.02h-.01s-.05-.03-.05-.03l-.06-.08-.42-.62-.64-.85M290.03,80.49v.08s0,.08,0,.08v.08s0,.08,0,.08v.09s0,.09,0,.09v.09s0,.09,0,.09M290.03,81.18l.63,1.38.16.33.1.2.06.12.15.36.05.19.02.09v.08s0,.07,0,.07v.05s-.07.05-.07.05h-.06s-.42-.34-.42-.34l-.64-.33M290.03,83.43v.14s0,.14,0,.14v.14s0,.14,0,.14v.15s0,.15,0,.15v.15s0,.15,0,.15M290.03,84.59l.63,1.24.16.27.1.16.06.1.15.33.05.21.02.11v.1s0,.1,0,.1v.09s-.07.13-.07.13l-.06.07-.42.02-.64.25M290.03,87.76v.18s0,.18,0,.18v.18s0,.18,0,.18v.18s0,.18,0,.18v.18s0,.18,0,.18M290.03,92.75v.18s0,.19,0,.19v.18s0,.18,0,.18v.18s0,.18,0,.18v.18s0,.18,0,.18M290.03,94.22l.63.38.16.03h.1s.06.02.06.02l.15.12.05.13.02.09v.1s0,.11,0,.11v.11s-.07.21-.07.21l-.06.17-.42.65-.64,1.19M290.03,97.52v.16s0,.16,0,.16v.16s0,.16,0,.16v.16s0,.15,0,.15v.15s0,.15,0,.15M290.03,98.77l.63-.19.16-.11.1-.08.06-.04.15-.03.05.06.02.05v.07s0,.08,0,.08v.1s-.07.2-.07.2l-.06.18-.42.82-.64,1.38M290.03,101.26v.11s0,.11,0,.11v.1s0,.1,0,.1v.1s0,.1,0,.1v.09s0,.09,0,.09M290.03,102.06l.63-.73.16-.22.1-.15.06-.09.15-.17.05-.03h.02s0,.04,0,.04v.05s-.02.06-.02.06l-.05.15-.06.16-.42.85-.64,1.34M290.03,103.31v.04s0,.03,0,.03v.03s0,.03,0,.03v.03s0,.02,0,.02v.02s0,.02,0,.02M290.03,103.54l.63-1.15.33-.62.03-.06M240.78,90.22h-.15M240.63,91.85h.15M240.78,91.85v.45s0,.44,0,.44M290.03,92.75h-49.4M290.03,89.2l.63.88.16.17.1.09.06.06.15.24.05.19.02.11v.11s0,.11,0,.11v.11s-.07.18-.07.18l-.06.13-.42.37-.64.79M290.03,89.2h-49.4M240.78,89.2v.62s0,.4,0,.4M240.63,90.01v.38s0,.38,0,.38v.38s0,.38,0,.38v.38s0,.38,0,.38v.38s0,.38,0,.38M240.63,77.04v.19s0,.55,0,.55v.9s0,1.23,0,1.23v1.52s0,1.78,0,1.78v1.99s0,1.77,0,1.77M240.63,77.04h-2.4M240.63,96.14v1.71s0,1.99,0,1.99v1.78s0,1.52,0,1.52v1.23s0,.9,0,.9v.55s0,.18,0,.18M240.63,106.01h-2.4M142.87,2.54v-.04M102.74,179.79v.04M124.27,180.18v.04M108.42,179.89v.04M137.19,2.64v-.04M121.34,2.93v-.04M146.18,2.81v-.04M99.43,179.4v.04M127.06,179.44v.04M118.54,3.76v-.04M142.97,180.51v.04M137.91,179.5v.04M131.02,180.3v.04M114.59,3.05v-.04M102.64,3.26v-.04M107.7,4.1v-.04M.25,178.34v-.46s0-1.37,0-1.37M.25,6.55v-1.22s0-.56,0-.56v.03M.84,177.13l-.22-.05-.11-.06-.09-.08-.12-.18-.04-.13v-.13M.84,177.13l19.68.25,15.5.19M36.03,5.49l-19.72.25-15.46.19M.29,6.35v-.04s.13-.2.13-.2l.19-.14.23-.05M240.63,93.04h-2.4M240.63,93.04v.84s0,.78,0,.78v.65s0,.47,0,.47v.25s0,.04,0,.04M240.63,90.01h-2.4M240.63,86.97v.06s0,.17,0,.17v.28s0,.38,0,.38v.46s0,.52,0,.52v.57s0,.59,0,.59M240.63,86.97h-2.4M126.63,3.62v-.04M118.98,179.3v.04M138.02,3.75l.03-.05.07-.04.17-.05.14-.03.16-.02.34-.02h.35s.16.02.16.02l.14.02.18.05.06.04.02.04M107.59,178.75l-.02.04-.06.04-.18.05-.14.02h-.16s-.35.02-.35.02l-.34-.02-.16-.02-.15-.03-.17-.05-.07-.04-.03-.05M36.03,5.49h.01M36.04,177.57h-.01M36.03,3.49h0M128.12,4.16v-.04M117.48,178.7v.04M36.04,179.57h0M36.04,3.49h0M36.04,5.49h.12s.11.05.11.05l.1.06.09.08.13.2.04.24M36.64,176.94l-.04.24-.13.2-.19.14-.11.03h-.12M132.87,3.21v-.04M128.59,179.77v.04M117.01,3.49v-.04M112.74,179.48v.04M128.1,4.24v-.04M117.5,178.62v.04M144.22,3.11v-.04M101.39,179.17v.04M131.74,4.63v-.04M113.86,178.1v.04M129.79,178.21v.04M129.72,178.39v.04M115.82,5.1v-.04M115.89,4.92v-.04M142.87,2.54h1.27s.74.02.74.02M137.19,2.64l3.18-.06,2.5-.04M132.87,3.21l.52-.25.44-.09.56-.08,1.23-.09,1.57-.05M131.74,4.63l.63-.86.5-.57M131.67,4.81l.03-.1.04-.08M102.74,179.79l-1.27-.04-.74-.05M108.42,179.89l-3.18-.06-2.5-.04M112.74,179.48l-.52.23-.44.08-.56.06-1.23.05h-1.57M113.86,178.1l-.63.84-.5.55M113.93,177.92l-.03.1-.04.08M.25,159.02h.05s.16,0,.16,0h.18s.19,0,.19,0M.25,159.02V24.04M117.84,178.16v.04M135.26,4.99v-.04M110.35,177.6v.04M104.67,177.5v.04M102.4,177.88v.04M127.77,4.71v-.04M128.1,4.2l.02-.04v-.03M128.12,4.12l-.03-.07-.1-.06-.17-.05-.24-.04-.51-.03h-.67M126.38,3.88l-4.53.08-3.56.06M118.3,4.02l-.34.45-.26.38M117.7,4.85l-.02.03h0s0,0,0,0h0s-.01.04-.01.04M125.5,5.13l.8-.04.66-.09.3-.07.24-.08.17-.09.1-.1M127.77,4.67l.19-.27.15-.2M140.93,4.89v-.04M143.2,4.43v-.04M120.1,177.78v.04M125.5,5.17v-.04M119.91,5.23l3.13-.06,2.46-.04M117.66,4.98v-.04M119.91,5.27v-.04M117.66,4.94l.05.09.15.08.25.06.36.04,1.44.03M125.69,177.92l-3.13-.06-2.46-.05M120.1,177.82h-.8s-.65.07-.65.07l-.3.06-.24.07-.17.08-.1.09M117.84,178.2l-.19.26-.15.2M117.5,178.66l-.02.04v.03M117.48,178.74l.03.07.1.06.17.05.24.04.51.05.67.03M119.22,179.05l4.53.08,3.56.06M127.31,179.19l.34-.43.26-.37M127.91,178.39l.02-.03h0s0,0,0,0v-.04M127.94,178.27v.04M125.69,177.89v.04M127.94,178.3l-.05-.1-.15-.08-.25-.07-.36-.05-1.44-.08M.83,24.03v135M.83,159.03l24.15.64M.25,24.04H.25M.83,24.03h-.24s-.21.01-.21.01h-.1s-.03,0-.03,0M24.99,23.39l-24.15.64M12.42,92.8v-2.53M13.57,94.01l-.48-.12-.41-.34-.2-.37-.06-.39M13,92.8h-.01s-.03,0-.03,0h-.05s-.07,0-.07,0h-.09s-.1,0-.1,0h-.11s-.11,0-.11,0M12.42,90.26l.1-.49.32-.43.36-.21.38-.08M13,90.26h-.01s-.03,0-.03,0h-.05s-.07,0-.07,0h-.09s-.1,0-.1,0h-.11s-.11,0-.11,0M134.53,4.98v-.04M111.07,177.64v.04M24.99,94.41l-11.41-.4M13.57,93.4h0s0,.05,0,.05v.06s0,.07,0,.07v.09s0,.11,0,.11v.11s0,.12,0,.12M13.57,89.05l11.41-.4M13.57,89.66h0s0-.05,0-.05v-.06s0-.07,0-.07v-.09s0-.11,0-.11v-.11s0-.12,0-.12M139.14,179.33v.04M136.82,179.28v.04M136.82,179.28l-3.41-.9-2.65-.81M131.02,180.3l-1.35-.02h-.74M137.91,179.5l-3.85.49-3.04.31M142.97,180.51l-2.84-.53-2.22-.48M145,180.55l-1.04-.02-1-.02M147.42,177.88l-4.62.87-3.66.58M108.79,4.28v-.04M108.79,4.28l3.41.78,2.65.71M114.59,3.05l1.35-.02h.74M107.7,4.1l3.85-.63,3.04-.42M102.64,3.26l2.84.43,2.22.41M100.6,3.3l1.04-.02,1-.02M98.19,6.08l4.62-1.04,3.66-.72M106.47,4.32v-.04M104.67,177.5h-.82s-.65.07-.65.07l-.29.06-.23.07-.28.19M110.35,177.6l-3.18-.06-2.5-.04M111.07,177.64l-.4-.02h-.32M112.6,177.33l-.86.17-.67.13M101.39,179.17l-1.1.13-.86.1M102.4,177.88l-.57.77-.45.52M118.98,179.3l-1.28-.04-.97-.08-.47-.08-.34-.1-.2-.12-.07-.14M127.06,179.44l-4.53-.08-3.56-.06M124.27,180.18l-5.22-.09-4.05-.07M128.59,179.77l-.52.23-.44.08-.56.06-1.23.05h-1.57M129.72,178.39l-.63.83-.5.55M129.78,178.23l-.02.08-.04.08M117.48,178.7v-.04s.02-.03.02-.03M117.5,178.62l.19-.25.15-.21M117.84,178.16l.1-.09.17-.08.24-.07.3-.06.65-.06h.8M120.1,177.78l3.13.06,2.46.04M125.69,177.89l1.44.08.36.05.25.07.15.08.05.1M140.93,4.89l.82-.04.65-.08.29-.07.23-.08.27-.19M135.26,4.99l3.18-.06,2.5-.05M134.53,4.98h.4s.32,0,.32,0M133,5.34l.86-.2.67-.16M144.22,3.11l1.1-.17.86-.13M143.2,4.43l.57-.78.45-.53M126.63,3.62h1.28s.97.05.97.05l.47.06.34.08.2.11.07.13M118.54,3.76l4.53-.08,3.56-.06M121.34,2.93l5.22-.09,4.05-.07M117.01,3.49l.52-.25.44-.09.56-.08,1.23-.09,1.57-.05M115.89,4.92l.63-.86.5-.57M115.82,5.07l.02-.08.04-.08M128.12,4.16v.04s-.02.03-.02.03M128.1,4.24l-.19.26-.15.21M127.77,4.71l-.1.1-.17.09-.24.08-.3.07-.66.09-.8.04M125.5,5.17l-3.13.06-2.46.04M119.91,5.27l-1.43-.03-.36-.04-.26-.06-.15-.08-.05-.09M110.59,176.47v.04M135.01,6.13v-.04M110.93,6.35v-.04M134.67,177.15v.04M238.24,120.19l-.26.26M238.24,120.19v-.16s0-.47,0-.47v-.78s0-1.07,0-1.07v-1.36s0-1.63,0-1.63v-1.89s0-2.12,0-2.12v-2.33s0-2.52,0-2.52v-2.67s0-2.8,0-2.8v-2.9s0-2.96,0-2.96v-3s0-3,0-3v-2.96s0-2.9,0-2.9v-2.8s0-2.67,0-2.67v-2.52s0-2.33,0-2.33v-2.12s0-1.89,0-1.89v-1.63s0-1.36,0-1.36v-1.08s0-.78,0-.78v-.47s0-.16,0-.16M238.24,62.87l-.26-.26M237.98,120.45h-14.02M237.98,120.45v-.16s0-.47,0-.47v-.78s0-1.09,0-1.09v-1.37s0-1.65,0-1.65v-1.9s0-2.14,0-2.14v-2.35s0-2.54,0-2.54v-2.7s0-2.83,0-2.83v-2.92s0-2.99,0-2.99v-3.02s0-3.02,0-3.02v-2.99s0-2.92,0-2.92v-2.83s0-2.7,0-2.7v-2.54s0-2.35,0-2.35v-2.14s0-1.91,0-1.91v-1.65s0-1.37,0-1.37v-1.09s0-.78,0-.78v-.47s0-.16,0-.16M237.98,62.6h-14.02M187.89,177.04v.04M167.68,181.11v.04M188.49,6v-.04M166.72,1.78v-.04M78.89,179.71v.04M77.92,3.54v-.04M57.72,8.46v-.04M57.12,174.58v.04M98.05,3.34l.06.07M97.7,3.1l.35.03h.22M93.99,2.75l2.08.17,1.63.18M88.5,2.85l3.07-.05,2.41-.04M88,3.13l.28-.17.22-.11M85.7,3.41l.8-.03.7-.06.52-.09.27-.09M78.34,3.54l4.12-.07,3.24-.06M77.92,3.54h.23s.19,0,.19,0M57.72,8.46l3.7-.18,1.87-.18,1.68-.24,1.63-.32,1.46-.38,1.22-.41,1.14-.46,1.79-.87,1.63-.77,1.82-.62,2.27-.48M53.55,8.64h0s.01-.02.01-.02h.03s.04-.02.04-.02l.12-.02.41-.04.64-.03h.45s.52-.03.52-.03h.58s.65-.02.65-.02h.72M147.55,180.6l-.06-.07M147.9,180.85l-.34-.04-.22-.02M151.62,181.32l-2.08-.24-1.63-.23M157.1,181.42l-3.07-.05-2.41-.04M157.61,181.16l-.28.16-.22.1M159.9,180.97h-.8s-.7.04-.7.04l-.52.07-.27.08M167.26,181.1l-4.12-.07-3.24-.06M167.68,181.11h-.23s-.19-.01-.19-.01M187.89,177.04l-3.68.04-1.87.11-1.68.17-1.64.25-1.46.32-1.27.37-1.1.4-1.8.79-1.63.69-1.81.55-2.27.39M57.12,174.58l-1.64-.02-1.24-.03-.44-.02-.35-.02-.26-.02-.13-.02h-.05s-.03-.02-.03-.02M78.89,179.71l-2.23-.33-1.81-.42-1.57-.55-1.48-.69-1.41-.7-.76-.34-.78-.32-.81-.29-1.5-.43-1.69-.37-1.78-.28-1.99-.21-1.89-.13-2.07-.08M81.07,179.56h-.7s-.63.03-.63.03l-.51.05-.34.07M98.58,179.87l-9.73-.17-7.78-.14M166.72,1.78l2.22.24,1.81.35,1.57.48,1.48.62,1.41.63.76.31.78.28.81.25,1.5.37,1.69.29,1.78.2,1.99.13,1.89.05h2.07M164.53,2l.7-.03.63-.05.51-.07.34-.08M147.03,2.32l9.73-.17,7.78-.14M13.57,89.66l-.14.02-.12.05-.1.07-.08.09M13,90.26h0M13.57,93.4l-.11-.02-.11-.04-.1-.06-.09-.08-.07-.09-.05-.1-.03-.11v-.12M13,90.26v-.12s.04-.11.04-.11l.05-.1.07-.09.09-.08.1-.06.11-.04.11-.02M13,90.26h0s.01,0,.01,0h.03s.03,0,.03,0h.04s.05,0,.05,0h.06s.06,0,.06,0M13,90.26v2.53M13.3,92.8h-.06s-.06,0-.06,0h-.05s-.04,0-.04,0h-.03s-.03,0-.03,0h-.01s0,0,0,0M140.26,6.03v-.04M138.29,178.3v.04M150.48,8.63v-.04M149.88,174.41v.04M105.35,176.37v.04M95.12,173.36v.04M95.72,9.68v-.04M107.31,5.31v-.04M95.36,9.7v-.04M94.76,173.34v.04M150.85,8.63v-.04M150.25,174.41v.04M133.71,6.12h.73s.57,0,.57,0M150.85,8.63l1.31.04.13.02h.04s.01.02.01.02h0s0,.02,0,.02h0M150.48,8.63h.2s.16,0,.16,0M140.26,6.03l.64.5.82.49,1.07.47,1.26.39,1.42.3,1.64.23,1.6.14,1.77.08M135.01,6.13l2.94-.05,2.31-.04M149.88,174.41l-2.4.13-2.07.24-1.07.19-.97.22-1.64.55-1.16.6-.97.72-.47.44-.41.42-.42.39M150.25,174.41h-.2s-.16,0-.16,0M151.75,174.29h0s0,.02,0,.02h0s-.01.02-.01.02h-.04s-.13.04-.13.04l-1.31.04M134.67,177.15l-.7-.17-.84-.08M138.29,178.3l-2.03-.63-1.59-.53M95.72,9.68l2.4-.22,2.07-.32,1.07-.23.97-.26,1.64-.62,1.16-.65.97-.76.47-.46.41-.44.42-.41M95.36,9.7h.2s.16-.02.16-.02M93.86,9.87h0s0-.01,0-.01l.02-.02.04-.02.14-.03,1.31-.09M110.93,6.35l.7.14.84.05M107.31,5.31l2.03.56,1.59.47M111.89,176.52l-.73-.04-.57-.02M94.76,173.34l-1.31-.09-.14-.03-.04-.02h-.01s0-.02,0-.02h0s0-.01,0-.01M95.12,173.36h-.2s-.16-.02-.16-.02M105.35,176.37l-.64-.53-.82-.52-1.07-.51-1.26-.44-1.42-.36-1.64-.3-1.6-.2-1.78-.15M110.59,176.47l-2.94-.05-2.31-.04M24.67,145.6v.03M24.99,89.25l-11.41.4M13.57,89.66h0M13.3,92.8v-2.53M13.3,92.8l.02.23.06.2.09.13.11.05M24.39,93.79l-10.81-.38M24.11,93.18l-10.81-.38M13.57,89.66l-.11.05-.09.13-.06.2-.02.23M13.3,90.26l10.81-.38M13.57,89.66l10.81-.38M24.11,93.18l.02.23.06.2.09.13.11.05M24.39,89.27l-.11.05-.09.13-.06.2-.02.23M24.11,89.88h.03s.03,0,.03,0h.03s.03,0,.03,0h.04s.04,0,.04,0h.04s.04,0,.04,0M24.11,89.88v3.3M24.39,93.18h-.04s-.04,0-.04,0h-.04s-.04,0-.04,0h-.03s-.03,0-.03,0h-.03s-.03,0-.03,0M24.99,111.27v-17.46M24.39,93.79h.34s.26.02.26.02M24.99,93.81l.02-.03.07-.07.12-.12.18-.18.19-.19M24.39,93.18v.23s0,.2,0,.2v.13s0,.05,0,.05M24.99,89.25h-.34s-.26.02-.26.02M24.39,89.27v.05s0,.13,0,.13v.2s0,.23,0,.23M24.99,89.25v-17.46M24.99,89.25l.02.03.07.07.12.12.18.18.19.19M25.57,89.84v-18.05M24.39,89.88l1.18-.04M24.39,89.88v3.3M24.39,93.18l1.18.04M25.57,111.27v-18.05M33.93,94.74l.09-1.13.2-1.26.05-1.16-.22-1.44-.13-1.42M34.42,88.32v2.16s0,2.11,0,2.11v2.15M34.42,94.74h-.04s-.05,0-.05,0h-.06s-.06,0-.06,0h-.07s-.07,0-.07,0h-.07s-.07,0-.07,0M33.93,111.27v-16.53M33.93,88.32v-16.53M34.42,88.32h-.04s-.05,0-.05,0h-.06s-.06,0-.06,0h-.07s-.07,0-.07,0h-.07s-.07,0-.07,0M24.99,121.36v-2.38s0-2.84,0-2.84v-2.42s0-2.45,0-2.45M24.99,111.27h.01s.03,0,.03,0h.05s.07,0,.07,0h.09s.1,0,.1,0h.11s.11,0,.11,0M24.99,71.79v-3.12s0-3.01,0-3.01v-2.13s0-1.83,0-1.83M24.99,71.79h.01s.03,0,.03,0h.05s.07,0,.07,0h.09s.1,0,.1,0h.11s.11,0,.11,0M25.57,111.27h8.36M25.57,120.91v-.97s0-1.06,0-1.06v-1.14s0-1.21,0-1.21v-1.27s0-1.31,0-1.31v-1.34s0-1.35,0-1.35M25.57,71.79v-1.35s0-1.34,0-1.34v-1.31s0-1.27,0-1.27v-1.21s0-1.14,0-1.14v-1.06s0-.97,0-.97M33.93,71.79h-8.36M33.93,111.27v1.32s0,1.31,0,1.31v1.28s0,1.24,0,1.24v1.18s0,1.12,0,1.12v1.04s0,.95,0,.95M33.93,62.37v.95s0,1.04,0,1.04v1.12s0,1.18,0,1.18v1.24s0,1.28,0,1.28v1.31s0,1.32,0,1.32M24.67,123.96v.05s0,.35,0,.35v.66s0,.96,0,.96v1.23s0,1.46,0,1.46v1.64s0,1.78,0,1.78v1.86s0,1.89,0,1.89v1.86s0,1.77,0,1.77v1.63s0,1.43,0,1.43v1.2s0,.93,0,.93v.63s0,.31,0,.31M24.67,37.42v.16s0,.49,0,.49v.8s0,1.08,0,1.08v1.34s0,1.55,0,1.55v1.71s0,1.83,0,1.83v1.88s0,1.88,0,1.88v1.82s0,1.71,0,1.71v1.55s0,1.33,0,1.33v1.08s0,.8,0,.8v.49s0,.16,0,.16M24.67,59.1h.32M24.67,37.42h.32M34.19,102.82h0s0,.22,0,.22v.53s0,.83,0,.83v1.09M194.79,27.71l-.05-.08-.05-.08-.05-.08-.04-.08-.04-.08-.04-.08-.04-.08-.04-.08M199.17,155.34l.05.08.05.08.05.08.05.08.04.08.04.08.04.08.04.08M196.95,26.82l.05-.14.09-.12.11-.08.14-.06.28-.05.29.02.28.09.23.14.1.11.07.12h0M197,156.23l-.05.14-.09.12-.11.08-.14.06-.28.05-.29-.02-.28-.09-.23-.14-.1-.11-.07-.12h0M196.95,25.87l.05-.13.09-.11.11-.07.14-.05.26-.04.3.03M196.95,26.82l-.04.16-.04.12M196.95,26.82v-.95M196.95,25.87l-.09.3-.13.25-.2.21-.12.08-.13.04h-.14s-.14-.02-.14-.02l-.25-.13-.2-.18-.18-.25M195.52,27.34l-.09-.12-.06-.1M197,156.23l.04-.16.04-.12M197,156.23v.95M198.43,155.71l.09.12.06.1M197,157.18l-.05.13-.09.11-.11.07-.14.05-.26.04-.3-.03M197,157.18l.09-.3.13-.25.2-.21.13-.08.13-.04h.14s.14.02.14.02l.25.13.2.18.18.25M197.91,25.48l.28.09.22.13.1.1.08.12.04.14v.14M34.19,75.53v1.41s0,1.21,0,1.21v.96s0,.68,0,.68v.37s0,.07,0,.07M198.88,27.25l-.09-.09-.08-.11-.09-.27-.02-.28.03-.31M198.6,27.41v-.04M195.35,155.64v.04M195.37,27.13v-.95M194.43,26.15l.23-.13.23-.06h.14s.13.03.13.03l.12.07.09.11M194.23,27.26h0s.19-.19.19-.19M194.43,27.07l.23-.13.24-.05h.14s.12.05.12.05l.12.08.09.11M198.59,155.93v.95M199.52,156.9l-.23.13-.23.06h-.14s-.13-.03-.13-.03l-.12-.07-.09-.11M199.72,155.8h0s-.19.19-.19.19M199.52,155.98l-.23.13-.24.05h-.14s-.12-.05-.12-.05l-.12-.08-.09-.11M199.79,27.98l-.09.08-.07.05M194.16,155.08l.09-.08.08-.05M198.88,27.25l.64-1.1M199.79,27.02l-.22.17-.22.1-.24.03-.12-.02-.11-.06M196.04,157.57l-.29-.09-.22-.13-.1-.1-.08-.12-.04-.14v-.14M194.16,156.03l.22-.17.22-.1.24-.03.12.02.1.06.09.09.08.12.09.27.02.28-.03.31M34.19,105.5v1.31s0,1.48,0,1.48v1.6s0,1.65,0,1.65v1.64s0,1.57,0,1.57v1.43s0,1.24,0,1.24v1.01s0,.73,0,.73v.43s0,.11,0,.11M34.19,63.35v.02s0,.27,0,.27v.58s0,.88,0,.88v1.13s0,1.35,0,1.35v1.51s0,1.61,0,1.61v1.66s0,1.63,0,1.63v1.55M194.5,27.93l-.1.1M194.4,28.58v.04s-.03.14-.03.14l-.07.14-.11.12-.15.1-.17.08M194.04,154.47l.29.47M194.33,154.95h.1s.08,0,.08,0M194.16,156.03l-.11.07-.11.03h-.1s-.1-.06-.1-.06l-.14-.13-.1-.19M194.16,155.08v.95M194.16,155.08l-.11.07-.11.03h-.1s-.1-.04-.1-.04l-.14-.12-.05-.1M199.79,27.02l.11-.07.11-.03h.1s.1.06.1.06l.14.13.1.19M199.79,27.98v-.95M199.79,27.98l.11-.07.11-.03h.1s.1.04.1.04l.14.12.05.1M194.13,27.06l-.06-.13-.02-.14v-.13s.06-.13.06-.13l.12-.2.19-.18M194.13,27.06l.14.28.09.26.04.28v.13s-.03.11-.03.11l-.05.08-.07.06-.16.05-.18-.03-.21-.09M199.82,156l-.14-.28-.09-.26-.04-.28v-.13s.03-.11.03-.11l.05-.08.07-.06.16-.04.18.03.21.09M199.82,156l.06.13.02.14v.13s-.06.13-.06.13l-.12.2-.19.18M24.99,32.59v-6.18s0-5.55,0-5.55v-4.84s0-3.25,0-3.25v-2.73s0-2.21,0-2.21M25.58,7.18l-.22.05-.11.06-.09.08-.13.2-.04.24M24.99,175.24v-2.9s0-3.75,0-3.75v-4.56s0-4.11,0-4.11v-4.52s0-4.91,0-4.91M24.99,175.24l.04.24.13.2.19.14.11.04.12.02M25.58,175.87l5.85.17,4.6.13M25.58,150.88v3.81s0,3.58,0,3.58v3.34s0,3.08,0,3.08v2.81s0,2.53,0,2.53v2.24s0,1.95,0,1.95v1.64M36.03,6.89l-5.86.17-4.59.13M25.58,7.18v1.64s0,1.95,0,1.95v2.24s0,2.53,0,2.53v2.81s0,3.08,0,3.08v3.34s0,3.58,0,3.58v3.81M36.04,176.17l.22-.05.11-.06.1-.08.13-.2.04-.24M36.03,176.17h.01M36.04,176.17v-1.64s0-1.95,0-1.95v-2.25s0-2.55,0-2.55v-2.83s0-3.11,0-3.11v-3.37s0-3.62,0-3.62v-3.86M36.03,176.17v-1.64s0-1.95,0-1.95v-2.25s0-2.55,0-2.55v-2.83s0-3.11,0-3.11v-3.37s0-3.62,0-3.62v-3.86M200.24,153.91v.95M200.45,154.41l.05.2v.16s-.04.07-.04.07l-.05.04h-.08s-.09-.02-.09-.02M193.71,29.14v-.95M193.5,28.64l-.05-.2v-.16s.04-.07.04-.07l.05-.04h.08s.09.02.09.02M36.04,6.89h.12s.11.05.11.05l.2.14.13.2.04.24M36.04,32.05v-3.86s0-3.62,0-3.62v-3.37s0-3.11,0-3.11v-2.83s0-2.55,0-2.55v-2.25s0-1.95,0-1.95v-1.64M36.03,6.89h.01M36.03,32.05v-3.86s0-3.62,0-3.62v-3.37s0-3.11,0-3.11v-2.83s0-2.55,0-2.55v-2.25s0-1.95,0-1.95v-1.64M194.5,27.93l.15-.13.13-.09M199.63,28.1l.29.47M198.6,27.41v.14s.07.13.07.13l.09.13.13.11.16.09.18.06.2.04h.2M196.87,27.1l.9.07.83.24M195.52,27.34l.17.06.19.03h.2s.19-.01.19-.01l.18-.05.16-.07.14-.09.11-.11M194.79,27.71l.74-.37M195.35,155.64l-.05-.24-.18-.22-.28-.16-.34-.08M197.08,155.95l-.9-.07-.83-.24M198.43,155.71l-.17-.06-.19-.03h-.2s-.19.01-.19.01l-.18.05-.17.07-.14.09-.11.11M199.17,155.34l-.74.37M199.53,155.01l-.36.33M200.1,153.85l-.18.07-.15.1-.12.12-.08.14-.03.14v.04M199.79,153.66l.11.06.11.09.1.09.1.11.14.19.1.21M200.45,27.3l.05.22v.22s-.04.13-.04.13l-.05.13-.08.12-.09.1M199.82,29.36l-.14.02-.09-.02-.04-.08v-.07s.03-.09.03-.09l.05-.1.07-.12.16-.24.18-.21.21-.21M193.5,155.75l-.05-.22v-.22s.04-.13.04-.13l.05-.13.08-.12.09-.1M194.13,153.69l.14-.02.09.02.04.08v.07s-.03.09-.03.09l-.05.1-.07.12-.16.24-.18.21-.21.21M199.79,153.66l-.22-.13-.22-.14-.24-.16-.12-.08-.11-.07M199.82,29.36h.06s.02.03.02.03v.05s-.06.07-.06.07l-.12.13-.19.16M194.13,153.69h-.06s-.02-.03-.02-.03v-.05s.06-.07.06-.07l.12-.13.19-.16M198.88,153.07l-.09-.07-.08-.06-.09-.07-.02-.04h.03M198.88,153.07l.64.19M194.16,29.39l-.11-.06-.11-.09-.1-.09-.1-.11-.14-.19-.1-.21M194.16,29.39l.22.13.22.14.24.16.12.08.1.08.09.07.08.06.09.07.02.03h-.03M196.04,30.46l-.29-.06-.22-.07-.1-.04-.08-.03-.04-.02h0M197,30.55h-.05s-.09,0-.09,0h-.11s-.14-.01-.14-.01l-.26-.03-.3-.05M199.52,29.79l-.23.15-.23.12-.14.06-.13.05-.12.04-.09.03M197,30.55h.09s.13,0,.13,0l.2-.02.13-.02.13-.02.14-.03.14-.03.25-.07.2-.06.18-.05M197.91,152.59l.28.06.22.07.1.04.08.03.04.02h0M194.43,153.26l.23-.15.23-.12.14-.06.13-.05.12-.04.09-.03M196.95,152.5h-.09s-.13,0-.13,0l-.2.02-.12.02-.13.02-.14.03-.14.03-.25.07-.2.06-.18.05M196.95,152.5h.05s.09,0,.09,0h.11s.14.01.14.01l.26.03.3.05M223.96,149.81v3.66s0,3.44,0,3.44v3.22s0,2.98,0,2.98v2.72s0,2.46,0,2.46v2.19s0,1.92,0,1.92v1.63s0,1.34,0,1.34v1.05s0,.75,0,.75v.45s0,.15,0,.15M223.96,177.8l-7.45,4.35M223.96,5.25v.15s0,.45,0,.45v.75s0,1.05,0,1.05v1.35s0,1.63,0,1.63v1.92s0,2.19,0,2.19v2.46s0,2.72,0,2.72v2.98s0,3.22,0,3.22v3.45s0,3.66,0,3.66M223.96,5.25l-7.45-4.35M36.04,151.01h-.01M36.04,148.87v2.14M36.64,150.6v.08s-.05.08-.05.08l-.06.07-.07.06-.09.05-.1.04-.11.02h-.12M36.64,149.34v-.48M36.03,32.05h.01M36.04,32.05h.12s.11.03.11.03l.1.04.09.05.07.06.06.07.03.08v.08M36.04,32.05v2.14M36.64,34.19v-.48M36.64,149.22l.47-.35M36.64,149.76v-.42M37.11,34.19l-.48-.36M36.64,33.71v-.42M36.64,3.48l29.83-.53M36.64,32.04v-3.74s0-3.52,0-3.52v-3.28s0-3.04,0-3.04v-2.78s0-2.51,0-2.51v-2.24s0-1.96,0-1.96v-1.67s0-1.37,0-1.37v-1.07s0-.77,0-.77v-.46s0-.15,0-.15M180.34.94l28.63-.51M178.97,1.3l.77-.29.6-.08M177.38,1.48l.59-.02.27-.02.23-.02.32-.05.18-.06M176.46,1.45l.19.02h.21s.24.01.24.01h.28M168.88,1.14l4.25.06,3.33.24M166.14,1.19l2.74-.05M164.53,1.69l.9-.4.71-.1M162.38,1.73l1.21-.02.95-.02M163.99,1.23l-.91.16-.71.34M149.22,1.49l14.77-.26M149.07,1.49h.08s.07,0,.07,0M161.63,1.27l-7.03.13-5.53.1M159.95,1.34l.94-.04.74-.02M148.76,1.53l6.27-.11,4.93-.09M147.97,1.8l.44-.18.35-.09M161.32,1.56l-7.48.13-5.88.1M159.4,1.78l1.07-.13.84-.09M145.21,2.03l7.95-.14,6.24-.11M146.82,1.53l-.9.16-.71.34M135.4,1.73l11.42-.2M132.63,1.79l1.55-.04,1.22-.02M143.78,2.06l-6.24-.23-4.91-.04M140.23,2.12l1.99-.04,1.56-.03M130.39,1.85l5.52.08,4.33.19M129.13,2.32l.7-.34.55-.14M126.75,2.36l1.33-.02,1.05-.02M128.36,1.86l-.9.17-.71.34M120.7,1.99l7.66-.13M125.23,2.39l-2.53-.34-1.99-.06M109.26,2.67l8.95-.16,7.03-.13M111.06,2.45l-1.01.12-.79.1M121.33,2.27l-5.75.1-4.52.08M117.85,2.04l1.95.06,1.53.17M113.69,2.12l4.16-.07M105.93,2.73l4.34-.46,3.42-.15M103.11,2.78l1.58-.03,1.24-.02M110.93,2.16l-4.39.23-3.44.39M103.18,2.3l7.75-.14M97.58,2.48l1.86-.05,1.56-.05,1.36-.05.82-.03M102.67,2.79l-2.85-.21-2.24-.09M99.43,2.85l1.81-.03,1.43-.03M95.02,2.55l2.47.13,1.94.16M86.54,2.7l4.75-.08,3.73-.07M85.7,3.09l.47-.25.37-.14M83.32,3.14l1.33-.02,1.05-.02M84.51,2.66l-.67.2-.52.27M95.07,2.48l-5.91.1-4.64.08M100.67,2.35h-.38s-.59.03-.59.03l-1.46.04-3.16.07M73.51,2.83l27.16-.48M70.74,2.89l1.55-.04,1.22-.02M81.89,3.16l-6.24-.24-4.91-.04M78.34,3.22l1.99-.03,1.56-.03M68.5,2.94l5.52.09,4.33.2M67.24,3.42l.7-.34.55-.14M64.86,3.46l1.33-.02,1.05-.02M66.47,2.95l-.9.17-.71.34M135.01,6.09h-.73s-.57,0-.57,0M140.26,5.99l-2.94.05-2.31.04M150.48,8.59l-3.35-.22-1.64-.23-1.42-.3-1.27-.39-1.07-.46-.83-.49-.65-.5M150.85,8.6h-.2s-.16,0-.16,0M147.07,9.36l3.5-.31,1.07-.15.59-.13.1-.04.02-.02h0s0-.02,0-.02h0s-.01-.02-.01-.02h-.04s-.13-.04-.13-.04l-1.31-.04M140.48,9.34l.82.09,1.37.03,4.39-.11M133.71,6.08l.76.61.8.58.95.58.94.48,1.02.41,2.29.6M130.65,2.72l-5.22.09-4.1.07M130.41,2.95l.14-.13.11-.1M122.29,3.09l4.55-.08,3.57-.06M118.82,3.42l.16-.1.28-.07.39-.05.53-.04,2.09-.07M118.54,3.72l.16-.17.12-.13M126.63,3.58l-4.53.08-3.56.06M129.95,4.01l-.07-.13-.2-.11-.34-.08-.47-.06-.97-.05h-1.27M129.88,4.17l.05-.09.02-.07M129.56,4.63l.18-.26.14-.2M125.26,5.54l1.57-.08,1.23-.16.57-.14.45-.16.49-.37M119.16,5.65l3.42-.06,2.68-.05M115.82,5.06l.07.16.2.14.34.11.47.09.98.08h1.29M115.89,4.88l-.05.1-.02.08M117.01,3.45l-.63.74-.49.69M121.34,2.89l-1.56.05-1.23.09-.56.08-.44.09-.52.25M143.2,4.39l-.27.19-.23.08-.29.07-.65.08-.83.04M144.22,3.08l-.57.69-.45.63M146.18,2.78l-1.1.16-.86.13M146.19,2.81v-.02s0-.02,0-.02M146.12,2.93l.05-.07.02-.05M144.99,4.35l.63-.85.5-.57M140.69,5.26l1.57-.08,1.23-.16.55-.13.43-.16.52-.38M135.01,5.36l3.18-.06,2.5-.05M133,5.3l.89.05h1.11M134.53,4.95l-.86.2-.67.16M135.26,4.95h-.41s-.32,0-.32,0M140.93,4.85l-3.18.06-2.5.04M98.15,3.41l-.1-.12.17-.11M90.09,3.65l1.9-.07,2.12-.07,2.02-.05,2.02-.05M69.31,9l1.76-.19,1.64-.3,1.43-.37,1.38-.46.94-.37.86-.37.81-.37.75-.35.82-.37.82-.35.76-.3.81-.29.86-.26.94-.24,1.37-.27,1.43-.21,1.64-.16,1.76-.11M60.64,9.16l2.99.03,2.86-.05,2.82-.15M57.72,8.42l-1.65.02-1.24.03-.45.02-.35.02-.26.02-.1.02-.07.02h-.03s-.02.02-.02.02h0s0,.02,0,.02h.02s.15.06.15.06l.27.05.91.1,1,.08,1.18.08,1.35.08,1.21.06,1,.04M77.92,3.5l-1.55.3-1.31.36-1.23.45-1.17.54-1.09.55-1.16.55-.75.31-.79.29-.82.27-1.46.38-1.63.32-1.56.22-1.72.18-3.95.21M78.34,3.5h-.24s-.19,0-.19,0M85.7,3.37l-4.12.07-3.24.06M88,3.09l-.27.09-.52.09-.7.07-.8.03M88.5,2.81l-.28.15-.22.14M93.99,2.72l-3.07.05-2.41.04M97.7,3.06l-2.08-.22-1.64-.13M98.45,3.12l-.4-.02-.35-.03M98.22,3.17l.12-.03.11-.02M105.73,10.02l2.4-.73.95-.43.89-.48,1.39-.95,1.11-.92M99.14,10.29l4.39-.06,1.37-.09.82-.12M95.36,9.66l-1.31.09-.14.03-.04.02h-.01s0,.02,0,.02h0s0,.02,0,.02l.02.02.1.04.59.11,1.07.11,3.5.18M95.72,9.64h-.2s-.16.02-.16.02M107.31,5.28l-.32.31-.17.18-.1.11-.03.03-.18.19-.18.18-.17.16-.16.15-.58.49-.69.47-.86.45-1.65.62-2,.48-2.08.32-2.41.22M110.93,6.31l-2.02-.6-1.6-.43M112.47,6.5l-.84-.05-.7-.14M185.57,6.79l1.77-.13,2.17-.21,1.76-.2.49-.07.38-.06.28-.05.18-.05.04-.02h.02s0-.03,0-.03h0s-.02-.02-.02-.02h-.04s-.12-.03-.12-.03l-.41-.02h-.65s-.45,0-.45,0h-.52s-.59.02-.59.02l-.65.02-.72.02M176.9,6.96l2.82.04,2.87-.06,2.98-.14M156.11,2.47l1.74.05,1.62.1,1.43.15,1.37.22,1.18.26,1.07.3,1,.34.96.37.96.4,1,.41,1.07.42,1.18.42,1.38.4,1.43.31,1.64.23,1.76.12M148.01,2.51l2.03-.02,2.03-.02h2.13s1.91,0,1.91,0M146.85,2.28l1.15.23M164.53,1.97l-9.9.18-7.78.14M166.72,1.74l-.34.08-.51.07-.63.05-.7.03M188.49,5.97l-3.95-.05-1.99-.13-1.77-.2-1.69-.29-1.5-.37-1.21-.39-1.15-.45-1.82-.82-1.79-.68-2.15-.51-2.76-.32M114.85,5.73l-3.38-.89-2.68-.6M112.6,5.78l1.26-.02.99-.02M107.52,4.48l2.85.68,2.23.61M100.65,6l3.83-.89,3.04-.62M98.19,6.04l1.38-.03,1.08-.02M106.47,4.28l-4.66.93-3.62.83M100.37,3.26l3.42.51,2.67.5M102.64,3.22l-1.27.02-1,.02M107.7,4.06l-2.83-.51-2.23-.33M114.59,3.01l-3.87.55-3.02.5M117,2.97l-1.35.02-1.06.02M108.79,4.24l4.58-.77,3.63-.51M116.81,2.14h-.07s-.2-.02-.2-.02h-.3s-.35,0-.35,0h-.25s-.29.02-.29.02h-.14s-.12.01-.12.01h-.08s-.03.02-.03.02M114.98,2.17h.03s.07.01.07.01h.1s.13,0,.13,0h.29s.29,0,.29,0h.32s.17-.02.17-.02h.16s.2-.03.2-.03l.07-.02M142.87,2.5l-3.18.06-2.5.04M145.11,2.53l-.97-.03h-1.27M143.61,2.73l.84-.12.66-.09M142.62,2.73h.99M136.94,2.83l3.18-.06,2.5-.04M134.68,3.14l.27-.13.23-.05.29-.04.68-.06.8-.03M133.6,4.49l.6-.81.47-.54M131.71,4.9l1.06-.23.83-.18M131.67,4.77v.07s.04.06.04.06M131.74,4.59l-.05.1-.02.08M132.87,3.17l-.63.74-.49.68M137.19,2.6l-1.56.05-1.23.09-.56.08-.44.09-.52.25M139.84,3.68l-.02-.04-.06-.04-.18-.05-.14-.02h-.16s-.35-.02-.35-.02l-.34.02-.16.02-.14.03-.17.05-.07.04-.03.05M138.02,3.71l.03.05.06.04.17.05.14.02.16.02h.34s.34-.01.34-.01l.16-.02.15-.03.16-.05.07-.04.03-.05M160.78,1.41h0s0,0,0,0M160.78,1.41h0s0,0,0,0M160.76,1.41h0s0,0,0,0M36.64,179.57v-.15s0-.46,0-.46v-.77s0-1.07,0-1.07v-1.37s0-1.67,0-1.67v-1.96s0-2.24,0-2.24v-2.51s0-2.78,0-2.78v-3.04s0-3.28,0-3.28v-3.52s0-3.74,0-3.74M36.64,179.57l28.63.51M66.64,179.76l-.77.27-.6.06M68.22,179.64h-.59s-.27.01-.27.01l-.23.02-.32.04-.18.05M69.15,179.7l-.19-.02-.21-.02h-.24s-.28-.02-.28-.02M76.73,180.28l-4.25-.22-3.33-.37M76.73,180.28l2.74.05M81.07,179.88l-.9.37-.71.08M83.23,179.92l-1.21-.02-.95-.02M81.61,180.37l.91-.13.71-.32M81.61,180.37l14.77.26M96.54,180.63h-.08s-.07,0-.07,0M83.98,180.41l7.03.13,5.53.1M85.65,180.4h-.94s-.74,0-.74,0M96.84,180.6l-6.27-.11-4.93-.09M97.64,180.36l-.44.16-.35.08M84.29,180.12l7.48.13,5.88.1M86.2,179.97l-1.07.09-.84.06M100.39,180.22l-7.95-.14-6.24-.11M98.78,180.67l.9-.13.71-.32M98.78,180.67l11.42.2M112.97,180.91l-1.55-.02-1.22-.02M101.82,180.25l6.23.45,4.92.21M105.37,180.31l-1.99-.04-1.56-.03M115.22,180.94l-5.52-.28-4.32-.35M116.48,180.51l-.7.31-.55.12M118.86,180.55l-1.33-.02-1.05-.02M117.25,181l.9-.13.71-.32M117.25,181l7.66.14M120.37,180.58l2.53.43,1.99.13M136.35,180.86l-8.95-.16-7.03-.13M134.54,181.02l1.01-.08.79-.07M124.27,180.83l5.75.1,4.52.08M127.76,181.19l-1.95-.13-1.53-.23M127.76,181.19l4.16.07M139.68,180.92l-4.34.31-3.42.03M142.5,180.97l-1.58-.03-1.24-.02M134.67,181.31l4.38-.07,3.44-.27M134.67,181.31l7.75.14M148.03,181.46l-1.86-.02h-1.56s-1.36,0-1.36,0h-.82M142.94,180.98l2.85.31,2.24.17M146.17,181.04l-1.81-.03-1.42-.02M150.58,181.49l-2.47-.22-1.94-.23M159.06,181.64l-4.75-.08-3.73-.07M159.9,181.28l-.47.23-.37.12M162.28,181.32l-1.33-.02-1.05-.02M161.09,181.74l.67-.17.52-.25M150.54,181.56l5.91.1,4.64.08M144.93,181.49h.38s.59,0,.59,0h1.46s3.16.06,3.16.06M144.93,181.49l27.16.48M174.86,182l-1.55-.02-1.22-.02M163.71,181.35l6.23.45,4.91.21M167.26,181.41l-1.99-.04-1.56-.03M177.11,182.03l-5.52-.28-4.32-.34M178.37,181.61l-.7.31-.55.12M180.75,181.65l-1.33-.02-1.05-.02M179.14,182.09l.9-.13.71-.31M179.14,182.09l29.83.53M84.84,180.29h0s0,0,0,0M84.83,180.29h0s0,0,0,0M84.83,180.29h0M105.76,178.75l.03.05.07.04.17.05.14.03.16.02.34.02h.35s.16-.02.16-.02l.14-.02.18-.05.06-.04.02-.04M107.59,178.79l-.03-.05-.07-.04-.16-.05-.15-.03-.16-.02-.34-.02h-.34s-.16.03-.16.03l-.14.02-.17.05-.06.04-.03.05M108.66,179.72l-3.18-.06-2.5-.04M110.93,179.49l-.27.12-.23.04-.29.03-.68.03h-.8M112,178.17l-.6.79-.47.53M113.89,177.83l-1.06.2-.83.15M113.93,177.96v-.07s-.04-.06-.04-.06M113.86,178.13l.05-.1.02-.08M112.74,179.52l.63-.72.49-.67M108.42,179.93h1.56s1.23-.04,1.23-.04l.56-.06.44-.08.32-.1.2-.13M102.74,179.83l3.18.06,2.5.04M100.5,179.73l.97.07,1.27.04M102,179.58l-.84.09-.66.06M102.98,179.62l-.99-.04M128.79,181.13h.03s.08.02.08.02h.12s.14.02.14.02h.29s.25.02.25.02h.35s.3,0,.3,0h.2s.07-.02.07-.02M130.62,181.16l-.07-.02-.2-.02-.29-.02h-.36s-.29-.01-.29-.01h-.29s-.13,0-.13,0h-.1s-.07.01-.07.01h-.03M138.08,179.12l-2.86-.78-2.22-.69M144.95,177.87l-3.84.74-3.04.51M147.42,177.92l-1.38-.03-1.08-.02M139.14,179.37l4.65-.76,3.63-.69M145.24,180.59l-3.43-.63-2.67-.59M142.97,180.55l1.27.02,1,.02M137.91,179.54l2.83.61,2.23.41M131.02,180.34l3.87-.41,3.02-.39M128.61,180.29l1.35.02,1.06.02M136.82,179.32l-4.59.6-3.62.37M130.75,177.61l3.38,1.01,2.68.7M133,177.65l-1.26-.02-.99-.02M57.12,174.62l3.96.21,1.99.21,1.78.28,1.69.37,1.5.43,1.2.44,1.15.51,1.82.9,1.79.76,2.15.59,2.76.43M60.04,173.88l-1.77.07-2.18.13-1.76.14-.5.05-.39.05-.28.04-.16.04h-.03s-.02.03-.02.03h0s.01.03.01.03h.03s.04.02.04.02l.12.02.41.04.64.03h.45s.52.03.52.03h.58s.65.02.65.02h.72M68.71,174.04l-2.82-.15-2.88-.05-2.98.03M89.49,179.39l-1.75-.11-1.63-.16-1.43-.21-1.37-.27-1.18-.31-1.07-.34-1-.38-.96-.41-.96-.44-.99-.46-1.07-.47-1.17-.47-1.37-.46-1.42-.37-1.64-.3-1.76-.19M97.6,179.64l-2.03-.05-2.03-.05-2.13-.07-1.91-.07M98.75,179.91l-1.15-.28M81.07,179.6l9.9.18,7.78.14M78.89,179.75l.34-.07.51-.05.63-.03h.7M138.29,178.34l.32-.29.17-.17.1-.11.03-.03.18-.18.17-.17.17-.16.16-.14.58-.46.69-.44.86-.42,1.66-.55,2-.4,2.07-.24,2.41-.13M134.67,177.18l2.02.67,1.6.49M133.14,176.93l.84.08.7.17M139.88,173.7l-2.4.64-.95.39-.89.45-1.39.89-1.11.87M146.47,173.68l-4.39-.11-1.37.03-.82.09M150.25,174.45l1.31-.04.13-.02h.04s.01-.02.01-.02h0s0-.02,0-.02h0s-.02-.03-.02-.03l-.1-.04-.59-.13-1.07-.15-3.5-.31M149.88,174.45h.2s.16,0,.16,0M147.39,180.75l-.12.03-.11.02M147.46,180.53l.1.12-.17.11M155.51,180.57h-1.9s-2.12,0-2.12,0l-2.02-.02-2.02-.02M176.3,176.08l-1.76.12-1.64.23-1.43.31-1.38.4-.87.3-.9.35-.84.34-.75.31-.82.34-.82.32-.76.27-.84.26-.9.23-.87.19-.91.15-.93.12-.96.09-1.63.1-1.75.05M184.97,176.25l-2.99-.14-2.86-.06-2.82.04M187.89,177.08l1.65.04,1.24.02h.45s.35-.01.35-.01h.26s.1-.03.1-.03h.07s.03-.02.03-.02h.02s0-.02,0-.02h-.01s-.02-.03-.02-.03l-.15-.05-.27-.05-.9-.13-1-.12-1.18-.12-1.34-.13-1.21-.1-1-.07M167.68,181.15l1.55-.24,1.31-.3,1.23-.4,1.17-.49,1.1-.5,1.16-.5.75-.28.79-.26.83-.23,1.46-.32,1.64-.25,1.55-.16,1.72-.11,3.95-.05M167.26,181.14h.24s.18.01.18.01M159.9,181l4.12.07,3.24.06M157.61,181.2l.27-.08.52-.07.7-.04h.8M157.1,181.46l.28-.13.22-.13M151.62,181.36l3.07.05,2.41.04M147.9,180.89l2.08.29,1.64.18M147.15,180.81l.41.04.34.04M104.67,177.54l3.18.06,2.5.05M102.4,177.92l.27-.19.23-.07.29-.06.65-.06h.83M101.39,179.21l.57-.67.45-.61M99.43,179.44l1.1-.13.86-.11M99.42,179.4v.02s0,.02,0,.02M99.49,179.29l-.05.07-.02.05M100.61,177.89l-.63.84-.5.55M104.92,177.14l-1.57.02-1.23.12-.55.11-.43.14-.52.36M110.59,177.24l-3.18-.06-2.5-.05M112.6,177.37l-.89-.09-1.11-.05M111.07,177.68l.86-.17.67-.13M110.35,177.64h.41s.32.03.32.03M124.27,180.22h1.56s1.23-.05,1.23-.05l.56-.06.44-.08.32-.1.2-.13M114.95,180.05l5.22.09,4.1.07M115.2,179.84l-.14.12-.11.09M123.32,179.98l-4.55-.08-3.57-.06M126.78,179.77l-.16.09-.28.06-.39.04-.53.02h-2.09M127.06,179.48l-.16.17-.12.13M118.98,179.34l4.53.08,3.56.06M115.66,178.78l.07.14.2.12.34.1.47.08.97.08,1.28.04M115.73,178.63l-.05.09-.02.07M116.04,178.17l-.18.26-.14.19M120.35,177.42l-1.57.02-1.23.12-.57.12-.45.15-.49.35M126.45,177.53l-3.42-.06-2.68-.05M129.79,178.25l-.07-.17-.2-.15-.34-.13-.47-.1-.98-.11-1.29-.06M129.72,178.42l.05-.1.02-.08M128.59,179.81l.63-.72.49-.67M94.76,173.38h.2s.16.02.16.02M98.54,172.75l-3.5.18-1.07.11-.59.11-.09.04-.02.02h0s0,.02,0,.02l.02.02.04.02.14.03,1.31.09M105.12,173.02l-.82-.12-1.37-.09-4.39-.06M111.89,176.56l-.76-.64-.81-.62-.95-.62-.94-.51-1.02-.45-2.29-.69M110.59,176.51l.73.02.57.03M105.35,176.41l2.94.05,2.31.04M95.12,173.4l3.36.35,1.64.3,1.42.36,1.27.44,1.07.51.83.53.65.53M208.97.43l5-.18M208.97.43v.16s0,.48,0,.48v.8s0,1.11,0,1.11v1.42s0,1.73,0,1.73v2.02s0,2.32,0,2.32v2.6s0,2.88,0,2.88v3.14s0,3.4,0,3.4v3.64s0,3.87,0,3.87M208.97,153.07v3.87s0,3.64,0,3.64v3.4s0,3.14,0,3.14v2.88s0,2.6,0,2.6v2.32s0,2.03,0,2.03v1.73s0,1.42,0,1.42v1.11s0,.79,0,.79v.48s0,.16,0,.16M208.97,182.62l5,.18M213.97,182.8v-.16s0-.48,0-.48v-.8s0-1.11,0-1.11v-1.42s0-1.73,0-1.73v-2.03s0-2.32,0-2.32v-2.61s0-2.88,0-2.88v-3.15s0-3.4,0-3.4v-3.64s0-3.87,0-3.87M213.97,182.8h.33s.33-.02.33-.02l.33-.05.32-.07.32-.09.31-.12.3-.14.29-.16M216.51,152.75v3.85s0,3.62,0,3.62v3.38s0,3.13,0,3.13v2.86s0,2.59,0,2.59v2.31s0,2.01,0,2.01v1.72s0,1.41,0,1.41v1.1s0,.79,0,.79v.48s0,.16,0,.16M213.97.25h.33s.33.02.33.02l.33.05.32.07.32.09.31.11.3.14.29.16M213.97,29.86v-3.87s0-3.65,0-3.65v-3.4s0-3.15,0-3.15v-2.88s0-2.61,0-2.61v-2.32s0-2.03,0-2.03v-1.73s0-1.42,0-1.42v-1.11s0-.8,0-.8v-.48s0-.16,0-.16M216.51.9v.16s0,.48,0,.48v.79s0,1.1,0,1.1v1.41s0,1.72,0,1.72v2.01s0,2.31,0,2.31v2.59s0,2.86,0,2.86v3.12s0,3.38,0,3.38v3.62s0,3.85,0,3.85M196.04,30.46l.46.07.47.02.47-.02.46-.07.45-.11.42-.15.39-.19.35-.22M193.5,28.64l.15.32.21.3.26.28.31.25.35.22.39.19.42.15.45.11M194.43,26.15l-.31.25-.26.28-.21.3-.15.32-.09.33-.03.34.03.34.09.33M197.91,25.48l-.46-.07-.47-.02-.47.02-.46.07-.45.11-.42.15-.39.19-.35.22M199.52,26.15l-.17-.12-.18-.11-.19-.1-.2-.09-.21-.08-.21-.07-.22-.06-.23-.05M200.45,27.3l-.07-.16-.08-.16-.1-.15-.11-.15-.12-.14-.14-.14-.15-.13-.16-.12M199.52,29.79l.31-.25.26-.28.21-.3.15-.32.09-.33.03-.34-.03-.34-.09-.33M196.04,157.57l.46.07.47.02.47-.02.46-.07.45-.11.42-.15.39-.19.35-.22M193.5,155.75l.15.32.21.3.26.28.31.25.35.22.39.19.42.15.45.11M194.43,153.26l-.31.25-.26.28-.21.3-.15.32-.09.33-.03.34.03.34.09.33M197.91,152.59l-.46-.07-.47-.02-.47.02-.46.07-.45.11-.42.15-.39.19-.35.22M199.52,153.26l-.17-.11-.18-.11-.19-.1-.2-.09-.21-.08-.21-.07-.22-.06-.23-.05M200.45,154.41l-.07-.16-.08-.16-.1-.15-.11-.15-.12-.14-.14-.14-.15-.13-.16-.12M199.52,156.9l.31-.25.26-.28.21-.3.15-.32.09-.33.03-.34-.03-.34-.09-.33M34.51,120.25v.09s-.04.08-.04.08l-.05.08-.07.07-.09.06-.1.04-.11.03h-.11M34.51,62.81v-.09s-.04-.08-.04-.08l-.05-.08-.07-.07-.09-.06-.1-.04-.11-.03h-.11M34.51,141.33v.08s-.04.08-.04.08l-.05.08-.07.07-.09.06-.1.04-.11.03h-.11M34.51,141.36v.09s-.04.08-.04.08l-.05.08-.07.07-.09.06-.1.05-.11.03-.11.02M34.51,41.73v-.09s-.04-.08-.04-.08l-.05-.07-.07-.07-.09-.06-.1-.04-.11-.03h-.11M196.98,33.02l-1.46-.11-1.4-.33-1.28-.53-1.09-.71-.87-.85-.6-.96-.31-1.03v-1.06s.31-1.03.31-1.03l.6-.96.87-.85,1.09-.71,1.28-.53,1.4-.33,1.46-.11M196.98,21.98l-1.94.19-1.96.54-1.64.83-1.27,1.09-.83,1.36-.25,1.38.25,1.36.86,1.47M196.98,160.13l-1.46-.11-1.4-.33-1.28-.53-1.09-.71-.87-.85-.6-.96-.31-1.03v-1.05s.31-1.03.31-1.03l.6-.96.87-.85,1.09-.71,1.28-.53,1.4-.33,1.46-.11M190.19,152.84l-.86,1.47-.25,1.35.24,1.34.84,1.4,1.27,1.1,1.64.83,1.96.54,1.94.2M196.98,22.93v-.94M196.98,22.93l1.46.11,1.4.33,1.28.53,1.09.71.87.85.6.96.31,1.03v1.06s-.31,1.03-.31,1.03l-.6.96-.87.85-1.09.71-1.28.53-1.4.33-1.46.11M204.03,30.04l.84-1.41.28-1.49-.3-1.45-.85-1.3-1.33-1.06-1.69-.77-2.05-.47-1.95-.1M196.98,150.04l1.46.11,1.4.33,1.28.53,1.09.71.87.85.6.96.31,1.03v1.05s-.31,1.03-.31,1.03l-.6.96-.87.85-1.09.71-1.28.53-1.4.33-1.46.11M196.98,160.13v.94M196.98,161.07l1.95-.1,2.05-.47,1.69-.77,1.33-1.06.85-1.3.3-1.45-.28-1.49-.84-1.42M24.99,121.36v-.09s.04-.08.04-.08l.05-.08.07-.07.09-.06.1-.04.11-.03h.11M24.99,144.15v-22.79M24.99,61.7v-22.79M24.99,61.7v.09s.04.08.04.08l.05.08.07.07.09.06.1.04.11.03h.11M24.99,150.47v-6.32M25.58,150.88h-.12s-.11-.03-.11-.03l-.1-.04-.09-.05-.07-.06-.05-.07-.03-.08v-.08M24.99,32.59v-.08s.05-.08.05-.08l.05-.07.07-.06.09-.05.1-.04.11-.02h.12M24.99,38.91v-6.32M25.58,144.56h-.12s-.11-.03-.11-.03l-.1-.04-.09-.05-.07-.06-.05-.07-.03-.08v-.08M24.99,144.15v-.08s.04-.08.04-.08l.05-.08.07-.07.09-.06.1-.04.11-.03h.11M25.57,39.36h-.11s-.11-.04-.11-.04l-.1-.04-.09-.06-.07-.07-.05-.08-.03-.08v-.09M24.99,38.91v-.08s.05-.08.05-.08l.05-.07.07-.06.09-.05.1-.04.11-.02h.12M33.93,62.37v-21.08M33.93,41.28l.11-.35.24-.23M25.57,62.15v-22.79M25.57,62.15l8.36.22M33.93,120.69l-8.36.22M25.57,143.71v-22.79M34.28,142.35l-.26-.26-.09-.25M33.93,141.83v-.03s0-.02,0-.02M33.93,141.78v-21.08M68.12,35.3l.35.22.67.7.33.62.16.88M36.11,143.56l-10.54.15M25.57,143.71v.09s0,.11,0,.11v.12s0,.12,0,.12M36.11,144l-10.54.15M25.57,144.15v.11s0,.11,0,.11v.1s0,.09,0,.09M25.57,39.36v-.19s0-.23,0-.23v-.23s.01-.2.01-.2M36.11,39.5l-10.54-.15M34.28,142.35l.05-.04.05-.05.05-.05.05-.06.04-.06.04-.06.03-.06.03-.07M36.11,143.56l-1.83-1.21M34.62,141.9v-.04s.03-.04.03-.04v-.04s.02-.04.02-.04v-.04s.01-.04.01-.04v-.03s0-.03,0-.03M34.62,141.9l2.56,1.69M36.12,38.65v.1s0,.11,0,.11v.11s0,.12,0,.12v.12s0,.11,0,.11v.1s0,.09,0,.09M37.39,143.4v.06s-.05.05-.05.05l-.16.08M37.18,143.59l-.46.04-.61-.08M36.11,144v-.06s0-.06,0-.06v-.06s0-.06,0-.06v-.06s0-.05,0-.05v-.05s0-.04,0-.04M36.12,144.41v-.04s0-.05,0-.05v-.05s0-.05,0-.05v-.05s0-.05,0-.05v-.06s0-.06,0-.06M36.11,39.5l.49-.07h.41s.28.09.28.09l.07.07.02.04v.04M34.28,40.71l1.83-1.21M34.28,40.71l.08.07.08.08.07.09.06.1.05.1.04.1.02.1v.09M34.51,113.84v27.49M34.51,141.33v.02s0,.01,0,.01M34.51,141.36l.05.14.12.12M34.51,41.73v27.49M34.68,41.45l-.08.06-.05.07-.04.15M34.51,112.84v.6s0,.4,0,.4M34.68,114.13l-.08-.06-.05-.07-.03-.08v-.08M34.51,69.22v-.08s.05-.08.05-.08l.05-.07.08-.06M34.51,69.22v.52s0,.47,0,.47M34.68,70.22h-.08s-.05,0-.05,0h-.03s-.01,0-.01,0M34.51,70.22v23.87s0,18.75,0,18.75M34.68,112.84h-.08s-.05,0-.05,0h-.03s-.01,0-.01,0M34.68,114.13v27.48M34.68,141.61l2.7,1.78M37.39,39.66l-2.7,1.78M34.68,41.45v27.48M37.39,115.98v27.42M37.8,143.52h-.06s-.06,0-.06,0h-.06s-.05-.02-.05-.02l-.05-.02-.05-.02-.05-.02-.04-.03M37.8,39.54h-.06s-.06,0-.06,0h-.06s-.05.02-.05.02l-.05.02-.05.02-.05.02-.04.03M37.39,39.66v27.42M69.61,145.34v-29.02M25.58,144.56v6.32M36.03,151.01l-10.45-.13M36.03,151.01v-2.14M36.03,148.87l28.9-.03M64.94,148.84l1.94-.31,1.69-.97.8-1.08.25-1.14M37.8,116.1v27.42M37.8,143.52l-.06.24-.2.24-.34.2-.52.16-.55.06M36.12,144.41l-10.54.15M69.61,37.72l-.3-1.24M69.32,36.49l-.43-.64-.59-.56M68.3,35.28l-.73-.46-.84-.34M66.74,34.49l-1.8-.27M64.94,34.22l-28.9-.03M36.03,34.19v-2.14M25.58,32.18l10.45-.12M25.58,38.5v-6.32M25.58,38.5l10.54.15M36.12,38.65l.7.09.6.25.21.18.12.19.04.19M37.8,39.54v27.42M34.68,112.84v.35s0,.34,0,.34v.32s0,.28,0,.28M37.39,115.98l-2.7-1.85M34.68,70.22v42.62M34.68,112.84h2.7M34.68,68.93l2.7-1.85M34.68,68.93v.28s0,.32,0,.32v.34s0,.35,0,.35M34.68,70.22h2.7M37.39,112.84v.86s0,.83,0,.83v.77s0,.68,0,.68M37.8,116.1h-.11s-.11-.03-.11-.03l-.1-.04-.09-.05M37.39,67.08l.09-.05.1-.04.11-.02h.11M37.39,67.08v.68s0,.77,0,.77v.83s0,.86,0,.86M37.39,70.22h.09s.1,0,.1,0h.11s.11,0,.11,0M37.39,70.22v42.62M37.39,112.84h.09s.1,0,.1,0h.11s.11,0,.11,0M69.61,116.32l-31.82-.22M69.61,116.32v-1.49s0-1.72,0-1.72M37.8,112.84v.89s0,.86,0,.86v.8s0,.71,0,.71M37.8,66.96l31.82-.22M37.8,66.96v.71s0,.8,0,.8v.86s0,.89,0,.89M69.61,113.06l-31.82-.22M37.8,70.22l31.82-.22M37.8,70.22v42.63M75.39,103.78h.87M76.26,103.78l.3-1.41M76.56,102.37h-.88M75.67,102.37l-.4.04-.31.12-.14.11-.1.14-.06.17-.02.2M74.63,103.15l.05.27.06.11.08.09.11.07.13.05.33.04M82.54,101.43l-.1-.65-.16-.29-.23-.21-.28-.12-.34-.04M81.44,100.12h0s-.33.04-.33.04l-.3.11-.25.16-.22.22-.34.61-.22,1.28M79.78,102.52l.12.72.15.26.2.19.28.12.33.04M80.86,103.85h0s.32-.04.32-.04l.3-.12.46-.39.35-.6.24-1.27M91.03,100.12h0s-.33.04-.33.04l-.3.11-.25.16-.22.22-.34.61-.22,1.28M92.13,101.43l-.1-.65-.16-.29-.23-.21-.28-.12-.34-.04M89.37,102.52l.12.72.15.26.2.19.28.12.33.04M90.45,103.85h0s.32-.04.32-.04l.3-.12.46-.39.35-.6.24-1.27M109.89,103.78h.67M110.56,103.78l.75-3.58M111.31,100.19h-.82M110.49,100.19l-.41.04-.37.11-.34.2-.28.29-.2.33-.14.39-.1.8M108.63,102.36l.07.58.22.44.19.18.24.13.54.09M119.12,102.53l-.36.03-.28.11-.13.1-.09.13-.06.15-.02.18M118.89,103.8h.88M119.77,103.8l.27-1.28M120.04,102.53h-.92M118.19,103.22l.04.25.05.1.08.08.1.06.12.04.31.04M223.96,33.24l-7.45-2.94M223.96,33.24v34.6M216.51,152.75l7.45-2.94M223.96,115.21v34.6M119.36,101.68h.85M120.21,101.68l.31-1.51M120.53,100.17h-1.04M119.49,100.17l-.39.05-.31.14-.14.12-.1.16-.06.17-.02.19M118.48,100.99v.16s.05.14.05.14l.07.12.1.1.12.07.15.05.39.04M126.87,100.94l-.03-.36-.1-.26-.07-.09-.09-.07-.1-.05-.12-.02h-.05M126.31,100.09l-.18.03-.21.11-.2.2-.18.29-.34,1.03-.12,1.08M125.09,102.83l.03.34.1.25.07.09.09.07.11.04.12.02h.04M125.66,103.64l.19-.03.21-.11.19-.19.18-.28.34-1.02.11-1.07M130.56,100.09l-.19.02-.16.05-.14.08-.23.27-.12.3-.04.36M131.22,100.9l-.05-.36-.07-.15-.09-.12-.12-.1-.15-.06-.17-.02h0M129.69,101.17l.06.35.07.13.1.11.13.08.17.05h.15M130.36,101.9l.17-.02.16-.04.14-.08.12-.1.1-.13.12-.3.04-.33M37.85,148.86l-1.22.89M36.64,151.01v-1.25M36.64,151.01l153.55,1.83M196.98,150.04l-2.22.23-2.1.71-1.4.85-1.08,1.03M204.03,153.01l-1.48-1.35-2-1.01-1.78-.46-1.8-.15M204.03,153.01l4.93.06M36.64,33.29v-1.25M36.64,33.29l1.22.9M64.94,34.22l-27.08-.03M64.94,34.22l1.73.25.85.33.74.45.6.55.44.63.33,1.29M69.61,66.74v-29.02M204.03,30.04l4.93-.06M196.98,33.02l2.3-.25,2.19-.75,1.46-.9,1.12-1.08M190.19,30.21l1.43,1.28,1.91.95,1.71.44,1.74.14M36.64,32.04l153.55-1.83M213.97,29.86l-5,.12M208.97,29.98v35.8M213.97,153.19l-5-.12M208.97,117.27v35.8M214.13,29.86h-.02s-.02,0-.02,0h-.02s-.02,0-.02,0h-.02s-.02,0-.02,0h-.02s-.02,0-.02,0M213.97,65.71V29.86M214.13,65.71V29.86M216.51,30.3v35.85M216.51,30.3l-.27-.1-.28-.09-.29-.07-.3-.06-.3-.05-.31-.03-.31-.02h-.31M214.13,153.19h-.02s-.02,0-.02,0h-.02s-.02,0-.02,0h-.02s-.02,0-.02,0h-.02s-.02,0-.02,0M213.97,153.19v-35.85M214.13,153.19v-35.85M216.51,152.75l-.27.1-.28.09-.29.07-.3.06-.3.05-.31.04-.31.02h-.31M216.51,116.91v35.85M155.89,103.82l1.16-2.34M155.88,103.82h0M157.05,101.48h-1.39M155.66,101.48l.15,1.46.07.88M160.14,103.15l.05.27.06.11.08.09.11.07.13.05.33.04M160.9,103.78h.87M161.77,103.78l.3-1.41M162.06,102.37h-.89M161.18,102.37l-.4.04-.31.12-.14.11-.1.14-.06.17-.02.2M223.96,70.66v41.73M216.51,114.09l7.45-1.69M223.96,115.21l-7.45,1.69M223.96,112.39v1.69s0,1.13,0,1.13M216.51,66.15l7.45,1.69M223.96,70.66l-7.45-1.69M223.96,67.84v1.48s0,1.34,0,1.34M181.61,93.12h2.38M181.61,91.9l-.21.02-.13.05M181.27,91.96l-.06.05-.04.07-.02.09v.11M181.13,92.26v.49M181.13,92.75v.11s.03.09.03.09l.04.07.06.05M181.27,93.06l.13.05.21.02M183.99,93.12v-1.22M183.99,91.9h-2.38M189.61,80.24l-2.2.29-2.1.75-1.66.97-1.52,1.26M182.13,83.5l-.4.4-1.4,1.78-1,1.97-.56,1.91-.23,2.04M178.53,91.6v.46s.21,2.26.21,2.26l.64,2.12.96,1.83,1.31,1.68M181.66,99.95l.2.21,1.72,1.49,1.9,1.09,2.08.68,2.24.27M189.79,103.68l2.35-.16,2.19-.62,2.01-1.06,1.83-1.5M198.17,100.34h.01s1.52-1.83,1.52-1.83l1.09-2.01.66-2.21.22-2.32M201.67,91.97v-.05s-.24-2.34-.24-2.34l-.7-2.23-1.14-2.04-1.52-1.77-1.83-1.42-2.08-1.05-2.23-.63-2.32-.21M195.56,93.91l-1.23-3.09M194.33,90.82l-1.1,3.09M193.22,93.91h-.94M192.28,93.91l1.75-4.61M194.03,89.3h.71M194.75,89.3l1.25,3.19M196,92.49l1.27-3.19M197.27,89.3h.73M198,89.3l1.75,4.61M199.76,93.91h-1.09M198.66,93.91l-1.15-3.09M197.51,90.82l-1.21,3.09M196.3,93.91h-.74M187.61,90.17v.99M187.61,91.16l-1.06-.22M186.56,90.94v-.55M186.56,90.39l.06-.54.08-.19.11-.14M186.8,89.53l.15-.1.2-.07.54-.06M187.69,89.3h2.72M190.4,89.3l.54.06.2.07.15.1M191.29,89.53l.11.14.08.19.06.54M191.53,90.39v2.43M191.53,92.82l-.06.54-.08.19-.11.14M191.29,93.69l-.15.1-.2.07-.54.06M190.4,93.91h-2.72M187.69,93.91l-.66-.1-.21-.12-.08-.08-.06-.09M186.68,93.53l-.05-.15-.04-.24-.03-.75M186.56,92.39l1.06-.17M187.61,92.22v.88M187.61,93.09h2.86M190.47,93.09v-2.92M190.47,90.17h-2.86M185.03,93.91h-3.9M181.13,93.91l-.45-.06-.18-.07-.14-.1-.11-.13-.08-.15-.06-.39M180.11,93.02v-1.03M180.11,91.99l.06-.39.08-.15.11-.13.14-.1.18-.07.45-.06M181.13,91.1h2.86M183.99,91.1v-1.8M183.99,89.3h1.04M185.03,89.3v4.61M69.61,70v-.38M69.61,66.74l139.35-.96M69.61,69.61v-1.54s0-1.33,0-1.33M208.97,117.27l-139.35-.96M69.61,113.06h0M69.61,113.11v-.03s0-.02,0-.02M208.97,69.04l-139.35.96M69.61,109.05v-39.06M69.61,113.06v-4M69.61,113.06l139.35.96M168.71,99.32l-1.11,5.33M167.59,104.65h-1.06M166.53,104.65l.5-2.38M167.03,102.27l-.42.42-.82.77-1.25,1.19M164.53,104.65h-1.32M163.21,104.65l2.51-2.27M165.72,102.38l-1.5-3.06M164.22,99.32h1.19M165.41,99.32l1.13,2.42M166.54,101.74l.72-.56M167.26,101.18l.38-1.86M167.64,99.32h1.07M153.74,99.32l-1.11,5.33M152.62,104.65h-1.06M151.56,104.65l.5-2.38M152.06,102.27l-.42.42-.82.77-1.25,1.19M149.56,104.65h-1.32M148.24,104.65l2.51-2.27M150.75,102.38l-1.5-3.06M149.25,99.32h1.19M150.43,99.32l1.13,2.42M151.57,101.74l.72-.56M152.29,101.18l.38-1.86M152.67,99.32h1.07M154.37,99.32h1.08M155.46,99.32l.16,1.26M155.62,100.58h1.85M157.47,100.58l.65-1.26M158.12,99.32h1.13M159.25,99.32l-2.83,5.33M156.42,104.65h-1.36M155.06,104.65l-.68-5.33M143.26,99.32h1.01M144.28,99.32l-1.12,5.33M143.16,104.65h-1.38M141.78,104.65l-.6-2.03-.36-1.3-.17-.75M140.66,100.58h-.01M140.65,100.58l-.46,2.43M140.18,103.01l-.34,1.64M139.84,104.65h-1.01M138.83,104.65l1.11-5.33M139.95,99.32h1.31M141.26,99.32l.8,2.86.23.88.11.52M142.4,103.58h.01M142.41,103.58l.24-1.29.1-.48.17-.81M142.91,101l.35-1.68M131.87,104.65l2.19-2.6M134.07,102.05l-1.17-2.73M132.89,99.32h1.15M134.04,99.32l.78,1.89M134.82,101.21h0M134.82,101.21l1.5-1.89M136.33,99.32h1.21M137.53,99.32l-2.27,2.74M135.26,102.06l1.13,2.59M136.39,104.65h-1.14M135.24,104.65l-.74-1.79M134.5,102.86h0M134.5,102.86l-1.45,1.79M133.05,104.65h-1.18M88.27,102.51l.13-1.06.39-.92.69-.77.93-.43.76-.09M91.17,99.24h.26s.52.12.52.12l.45.22.38.34.27.45.15.48.05.54M93.25,101.39l-.14,1.04-.4.96-.7.8-.91.45-.71.09M90.39,104.73l-.32-.02-.53-.12-.45-.23-.37-.35-.27-.47-.19-1.03M132.24,101.14l-.13,1.12-.39,1.06-.34.49-.4.36-.5.23-.57.08M129.91,104.48l-.6-.08-.47-.23-.2-.2-.15-.25-.09-.27-.03-.3M128.37,103.15h1.02M129.39,103.15l.06.22.05.08.07.07.08.05.1.04.24.03M129.97,103.64l.21-.03.19-.09.18-.15.16-.2.33-.85M131.04,102.32l-.22.18-.25.13-.6.1M129.97,102.73l-.56-.1-.25-.14-.21-.19-.15-.23-.11-.28-.08-.57M128.61,101.23l.14-.77.17-.35.24-.3.3-.25.35-.18.76-.14M130.56,99.24l.75.13.3.16.24.23.17.26.12.32.1.79M77.19,99.32h1.07M78.25,99.32l-1.12,5.33M77.14,104.65h-2M75.13,104.65l-.63-.08-.49-.24-.21-.21-.15-.26-.08-.28-.03-.32M73.53,103.26l.07-.49.21-.41.34-.31.45-.19M74.61,101.86l-.16-.1-.13-.12-.09-.14-.06-.17-.04-.34.05-.39M74.18,100.59l.18-1.27M74.36,99.32h1.02M75.38,99.32l-.15,1.28M75.23,100.6l-.04.38v.15s.05.12.05.12l.08.11.12.08.16.05.2.02M75.79,101.49h.95M76.73,101.49l.45-2.17M192.95,108.86h-.27M192.68,108.86l-.08-.15M192.6,108.71l-.74-1.36M191.85,107.35l-.15-.27-.15-.27-.15-.27-.04-.06M191.37,106.49l-.02-.03-.02-.03-.02-.02h-.02s-.07-.02-.07-.02M191.23,106.4l-.62.02M190.61,106.41h-.43s-.58,0-.58,0M189.59,106.41h-.72M188.87,106.41l-.18.32M188.69,106.74l-.76,1.37-.26.49-.06.12M187.61,108.72l-.06.14M187.54,108.86h-.27M187.27,108.86l-.5-.11M186.77,108.75l-.58-.13-.11-.03M186.08,108.59l-.47-.11-1.15-.37M184.47,108.11l-.46-.17M184.01,107.94l.03-2.85M184.04,105.1l-.69-.38-.19-.1-.06-.03h-.03M183.08,104.57h0s0,0,0,0h0s-.42-.26-.42-.26l-.52-.33-.06-.03M182.08,103.95l-.09-.05-.06-.02h-.02s-.02,0-.02,0h-.03s-.05.04-.05.04h-.03M181.78,103.92l-.74.46-.81.49-.28.17-.2.12-.06.04M179.69,105.2l-.1.05-.05.02h-.04s-.02,0-.02,0h-.02s-.06-.04-.06-.04l-.08-.06M179.32,105.17l-.3-.26-.29-.26-.29-.28-1-1.02M177.44,103.34h0s-.43-.54-.43-.54M177,102.8l-.07-.11M176.93,102.69l1.42-2.41M178.36,100.28l-1.24-2.18M177.11,98.1h-.87M176.24,98.11h-.93s-.57.02-.57.02M174.74,98.13l-.41.02M174.33,98.15l-.93-3.56M173.4,94.59l.64-.37M174.03,94.22l1.12-.63.28-.15.16-.09.06-.03M175.65,93.32l.1-.05M175.75,93.27l.06-.03.03-.02.02-.02v-.03s.02-.03.02-.03l-.02-.11M175.86,93.02h0s-.01-.11-.01-.11M175.85,92.91h0s-.03-.92-.03-.92v-.43M175.82,91.56l.04-.58v-.09s.01,0,.01,0M175.88,90.89v-.02s0-.01,0-.01v-.06s-.04-.06-.04-.06l-.07-.06-.03-.02M175.74,90.66l-.52-.29M175.22,90.37l-.04-.02-1.28-.72-.35-.2-.09-.06M173.46,89.37h-.01s-.05-.05-.05-.05M173.4,89.32l.92-3.51M174.32,85.81h2.8M177.12,85.82l1.24-2.18M178.36,83.64l-.55-.92M177.81,82.72l-.36-.6-.28-.47-.08-.13-.07-.12-.05-.09h0M176.97,81.3h0s0-.03,0-.03v-.03s0-.03,0-.03v-.03s.03-.04.03-.04h0M176.99,81.13l.3-.35.34-.38.29-.31M177.92,80.09l.12-.12.11-.11.3-.29.24-.23.3-.28.04-.04M179.02,79.02l.09-.08.09-.08.16-.13.03-.02M179.38,78.71h.01s.01-.02.01-.02h0s0,0,0,0h0s.07-.03.07-.03h.04s.04,0,.04,0l.05.02h.02M179.63,78.69l.14.09.16.1.4.25M180.34,79.13l1.03.63.39.23.1.05M181.86,80.04h.02s.06.04.06.04M181.93,80.08l2.11-1.22M184.04,78.85l-.03-2.87M184.01,75.98l.54-.2M184.55,75.78l1.01-.32h.01s.11-.03.11-.03l.31-.07.21-.05M186.19,75.31l.97-.23M187.16,75.08h.39M187.54,75.08v.02s.03.05.03.05M187.58,75.15l.04.08.18.34.47.86M188.27,76.43l.1.19.11.2.13.24.1.19.07.13M188.79,77.38v.02s.06.07.06.07l.04.04.05.02h.12M189.06,77.54h.07s.12-.01.12-.01l.33-.02M189.58,77.51h.07s.1,0,.1,0M189.75,77.5h.15s.19-.02.19-.02h.28M190.36,77.48l.72.05h.06M191.14,77.54h.09s.05-.02.05-.02h.02s.02-.02.02-.02l.02-.03.03-.04.03-.05M191.41,77.38l.12-.23.17-.3.08-.15M191.78,76.7l.7-1.29M192.48,75.41l.16-.33M192.64,75.08h.39M193.03,75.08l.63.13M193.66,75.21l.97.26.62.18M195.25,75.64l.18.06.39.14.26.1.08.03.05.02M196.2,75.98l-.05,2.86M196.15,78.84l2.14,1.25M198.29,80.09l1.03-.63M199.32,79.46l.34-.21.69-.42.19-.11h.01M200.55,78.71l.09-.04h.03s.02-.02.02-.02h.02s.1.08.1.08M200.82,78.72l.2.17.88.8M201.9,79.69l.95,1.02M202.85,80.71l.42.51M203.27,81.22l-1.44,2.45M201.83,83.67l.36.56.17.29M202.36,84.52l.16.29.31.59.15.3M202.98,85.7h0s.05.08.05.08l.03.02h.03s.02.02.02.02h.03M203.13,85.83h.12s.86,0,.86,0h.2M204.31,85.82h.25s1.31-.03,1.31-.03M205.86,85.79l.06.14M205.92,85.93l.05.13.18.53.17.53h0M206.31,87.13l.08.27.21.83.08.42.04.21.02.1M206.74,88.96h0s.02.03.02.03l.05.05M206.81,89.04v.31M206.81,89.35h-.03s-.04.03-.04.03M206.74,89.38l-.14.07-.48.26-.83.47M205.29,90.18l-.94.54M204.35,90.72v2.48M204.35,93.21l.75.42M205.11,93.63l.47.26.61.35.2.11.03.02M206.41,94.37l.08.04.16.07.11.05.05.02M206.81,94.55v.31M206.81,94.87l-.07.13M206.74,94.99l-.1.55M206.64,95.54l-.24.92-.25.9M206.15,97.36l-.27.77M205.88,98.13h-2.84M203.04,98.13l-1.22,2.12M201.82,100.25l1.44,2.44M203.27,102.69l-.07.1M203.19,102.79l-.46.55-.41.46M202.33,103.8l-.94.92M201.38,104.72l-.18.16-.18.16-.17.14-.02.02M200.83,105.2l-.07.04-.04.02h-.03s-.03,0-.03,0l-.09-.04M200.57,105.22l-.43-.26-.49-.3-.45-.27M199.2,104.4l-.93-.56M198.28,103.84l-2.12,1.24M196.16,105.08v1.44M196.17,106.51l.03,1.44M196.19,107.95l-1.05.35h-.03M195.12,108.31l-.53.17-1.25.29M193.34,108.77l-.39.09M85.21,103.76l.92-4.44M86.13,99.32h1.07M87.21,99.32l-.93,4.44M86.28,103.76h1.54M87.82,103.76l-.19.89M87.63,104.65h-4.14M83.48,104.65l.19-.89M83.68,103.76h1.53M78.68,102.51l.13-1.06.39-.92.69-.77.93-.43.76-.09M81.58,99.24h.26s.52.12.52.12l.45.22.38.34.27.45.15.48.05.54M83.66,101.39l-.14,1.04-.41.96-.7.8-.91.45-.71.09M80.8,104.73l-.32-.02-.53-.12-.45-.23-.37-.35-.27-.47-.19-1.03M119.4,99.32h2.36M121.76,99.32l-1.12,5.33M120.65,104.65h-2.01M118.64,104.65l-.61-.08-.48-.23-.21-.2-.15-.25-.09-.27-.03-.3M117.08,103.32l.06-.43.19-.37.29-.29.39-.19M118.01,102.03l-.27-.17-.21-.25-.14-.3-.05-.33M117.35,100.99l.04-.39.12-.34.2-.31.28-.25.62-.28.79-.09M113.01,100.21l.3-.89M113.32,99.32h3.49M116.8,99.32l-1.12,5.33M115.69,104.65h-1.07M114.61,104.65l.93-4.44M115.54,100.21h-2.52M124.04,102.78l.3-1.8.45-.88.61-.58.41-.19.45-.09h.16M126.41,99.23l.32.02.42.13.37.26.26.39.13.41.04.49M127.95,100.93l-.32,1.8-.45.88-.61.59-.41.2-.45.09h-.17M125.55,104.5l-.31-.02-.41-.13-.36-.27-.26-.39-.13-.42-.04-.49M93.59,104.65l1.12-5.33M94.71,99.32h1.05M95.76,99.32l-.42,2M95.34,101.32l-.57,2.58M94.77,103.9h.03M94.8,103.9l2.13-4.58M96.93,99.32h.93M97.86,99.32l.15,2.94.05,1.66M98.06,103.91h.03M98.09,103.91l.49-2.68M98.59,101.23l.4-1.91M98.99,99.32h1M99.98,99.32l-1.12,5.33M98.87,104.65h-1.62M97.24,104.65l-.17-3.91M97.08,100.74h0M97.07,100.74l-.91,1.96-.61,1.26-.33.69M95.22,104.65h-1.62M110.52,99.32h2.04M112.56,99.32l-1.12,5.33M111.45,104.65h-1.7M109.75,104.65l-.88-.13-.42-.19-.35-.27-.27-.35-.19-.42-.14-.9M107.49,102.38l.2-1.19.26-.56.37-.47.46-.38.55-.27,1.19-.2M105.72,101.41l-.05-.5-.14-.38-.14-.18-.17-.13-.21-.07-.25-.03M104.77,100.12l-.39.06-.33.18-.24.26-.2.37M103.61,100.99h-1.13M102.48,100.99l.37-.76.52-.55.68-.33.84-.11M104.89,99.25l.82.13.37.19.3.27.23.33.16.39.11.84M106.87,101.4l-.18,1.2-.54,1.09-.42.45-.5.33-.56.19-.62.07M104.05,104.73l-.78-.11-.6-.33-.24-.27-.18-.33-.14-.73M102.11,102.96h1.12M103.23,102.96l.08.39.08.15.1.13.13.1.16.07.39.06M104.17,103.85l.38-.07.35-.2.26-.27.22-.36.26-.75.09-.79M146.8,103.76l.25-1.21M147.06,102.54h-2.37M144.69,102.54l.19-.89M144.88,101.65h2.37M147.25,101.65l.3-1.44M147.55,100.21h-2.69M144.85,100.21l.31-.89M145.16,99.32h3.63M148.79,99.32l-1.12,5.33M147.67,104.65h-3.53M144.14,104.65l.19-.89M144.33,103.76h2.47M162.69,99.32h1.07M163.76,99.32l-1.12,5.33M162.65,104.65h-2M160.64,104.65l-.63-.08-.49-.24-.21-.21-.15-.26-.08-.28-.03-.32M159.04,103.26l.07-.49.22-.41.34-.31.45-.19M160.12,101.86l-.16-.1-.13-.12-.09-.14-.06-.17-.04-.34.05-.39M159.68,100.59l.18-1.27M159.86,99.32h1.02M160.89,99.32l-.15,1.28M160.74,100.6l-.04.38v.15s.05.12.05.12l.08.11.12.08.16.05.2.02M161.29,101.49h.95M162.24,101.49l.45-2.17M213.97,117.34l-5-.07M208.97,114.02v1.75s0,1.51,0,1.51M208.97,65.78l5-.07M208.97,65.78v1.51s0,1.75,0,1.75M208.97,114.02l5,.07M213.97,68.97l-5,.07M208.97,69.03v44.98M216.51,116.91l-.27.1-.28.09-.29.07-.3.06-.3.05-.31.04-.31.02h-.31M216.51,114.09l.05.38.04.37.02.37v.36s0,.35,0,.35l-.02.34-.04.33-.05.31M213.97,117.34v-.34s0-.37,0-.37v-.39s0-.41,0-.41v-.42s0-.43,0-.43v-.44s0-.45,0-.45M214.13,117.34h-.02s-.02,0-.02,0h-.02s-.02,0-.02,0h-.02s-.02,0-.02,0h-.02s-.02,0-.02,0M213.97,114.09h.33s.33,0,.33,0h.33s.32,0,.32,0h.32s.31,0,.31,0h.3s.29,0,.29,0M216.51,68.97v45.12M213.97,114.09v-45.12M213.97,68.97h.33s.33,0,.33,0h.33s.32,0,.32,0h.32s.31,0,.31,0h.3s.29,0,.29,0M216.51,66.15l.05.31.04.33.02.34v.35s0,.36,0,.36l-.02.37-.04.37-.05.38M216.51,66.15l-.27-.1-.28-.09-.29-.07-.3-.06-.3-.05-.31-.03-.31-.02h-.31M214.13,65.71h-.02s-.02,0-.02,0h-.02s-.02,0-.02,0h-.02s-.02,0-.02,0h-.02s-.02,0-.02,0M213.97,68.97v-.45s0-.44,0-.44v-.43s0-.42,0-.42v-.41s0-.39,0-.39v-.37s0-.34,0-.34M.25,24.04h.05s.16,0,.16,0h.18s.19,0,.19,0M.25,24.04V7.86M.84,5.93l-.22.05-.11.06-.09.08-.1.15-.05.14-.02.14M.25,7.86v-.78s0-.54,0-.54M.25,7.86l.05-.18.1-.12.09-.07.11-.05.11-.03h.12M36.04,5.49h-.01M36.04,6.89v-.19s0-.19,0-.19v-.18s0-.18,0-.18v-.17s0-.17,0-.17v-.16s0-.16,0-.16M36.64,6.12l-.04-.24-.13-.2-.2-.14-.11-.04h-.12M36.04,6.89l.22.05.11.06.1.08.13.2M36.03,6.89h.01M36.03,6.89v-.19s0-.19,0-.19v-.18s0-.18,0-.18v-.17s0-.17,0-.17v-.16s0-.16,0-.16M36.03,5.49l-19.72.25-15.46.19M.84,5.93v.16s0,.17,0,.17v.17s0,.18,0,.18v.19s0,.19,0,.19v.2s0,.21,0,.21M.84,7.4l13.51-.11,10.63-.09M.84,7.4h-.01M.83,7.4v16.63M24.99,23.39l-24.15.64M24.99,7.2h.59M24.99,7.82v-.62M25.58,7.19l10.45-.3M25.58,7.19h-.12s-.11.05-.11.05l-.2.15-.13.2-.04.24M240.78,80.9h-.15M291.6,82.42l-1.57-2.96M148.63,1.54l-1.81.03M132.63,1.82h-.55M130.32,1.86l-1.97.04M70.74,2.91h-.55M68.44,2.96l-1.97.03M120.7,2.03l-2.03.04M179.99.98l-1.8.03M165.84,1.23l-1.85.03M291.03,101.71l.57-1.07M98.04,3.17v.27M147.56,180.76v-.27M.25,178.34v.12s.04.11.04.11l.05.1.07.09.09.07.1.06.11.04h.12M.84,4.11h-.12s-.11.05-.11.05l-.1.06-.09.08-.07.09-.05.1-.03.11v.12M.84,178.94l35.18.62M36.03,3.49L.84,4.11M238.24,96.08h2.4M36.64,4.1v-.12s-.05-.11-.05-.11l-.06-.1-.07-.09-.09-.08-.1-.06-.11-.03h-.12M36.04,179.57h.12s.11-.05.11-.05l.1-.06.09-.07.07-.09.06-.1.03-.11v-.12M24.67,145.64h.32M24.99,123.96h-.32M34.51,102.82h-.32M34.19,80.24h.32M198.61,26.62v.88M195.35,156.43v-.88M34.19,119.71h.32M34.51,63.35h-.32M194.4,28.59v-.7M199.55,154.46v.69M194.4,153.79v-.51M199.55,29.26v.5M195.35,30.21h0M195.35,30.25v-.04M198.61,152.85h0M198.61,152.8v.04" style="fill: none; stroke: #414042; stroke-linecap: round; stroke-linejoin: round; stroke-width: .51px;"/>
    </g>
  </g>
</svg>