<?xml version="1.0" encoding="UTF-8" standalone="no"?><!DOCTYPE svg PUBLIC "-//W3C//DTD SVG 1.1//EN" "http://www.w3.org/Graphics/SVG/1.1/DTD/svg11.dtd"><svg width="100%" height="100%" viewBox="0 0 733 1771" version="1.1" xmlns="http://www.w3.org/2000/svg" xmlns:xlink="http://www.w3.org/1999/xlink" xml:space="preserve" xmlns:serif="http://www.serif.com/" style="fill-rule:evenodd;clip-rule:evenodd;stroke-linecap:round;stroke-linejoin:round;stroke-miterlimit:10;"><g><rect x="320.941" y="0.833" width="90.031" height="359.119" style="fill:#818285;"/><path d="M377.501,109.809l0,205.645c0,6.583 -5.345,11.928 -11.928,11.928c-6.583,0 -11.928,-5.345 -11.928,-11.928l0,-205.645c0,-6.583 5.345,-11.928 11.928,-11.928c6.583,0 11.928,5.345 11.928,11.928Z" style="fill:#66686a;"/><rect x="193.754" y="1714.672" width="343.074" height="43.293" style="fill:#76787b;"/><path d="M627.349,1714.955l-25.05,25.448l-48.499,0.135l-17.762,-18.423l-18.423,17.89l-47.838,0l-25.313,-25.05l182.884,0Z" style="fill:#78797b;"/><rect x="0.833" y="501.38" width="730.367" height="1119.616" style="fill:#2f2a2a;"/><rect x="2.615" y="1620.997" width="726.664" height="82.789" style="fill:#86888b;"/><rect x="2.615" y="418.591" width="726.664" height="82.789" style="fill:#86888b;"/><path d="M729.279,1703.786c0,5.812 -4.719,10.531 -10.531,10.531l-705.602,0c-5.812,0 -10.531,-4.719 -10.531,-10.531l726.664,0Z" style="fill:#808285;"/><path d="M2.685,417.167c0,-5.812 4.719,-10.531 10.531,-10.531l705.602,0c5.812,0 10.531,4.719 10.531,10.531l-726.664,0Z" style="fill:#808285;"/><rect x="256.964" y="371.92" width="217.218" height="34.716" style="fill:#76787b;"/><path d="M269.066,359.952l-12.102,11.968l217.218,0l-10.713,-11.968l-194.403,0Z" style="fill:#6c6e70;"/><path d="M194.257,1758.349l0.8,2.402l0.88,2.561l1.307,1.841l3.656,2.295l4.241,1.727l322.64,0l3.815,-1.68l2.056,-1.414l1.947,-2.028l1.228,-3.04l0.373,-2.668l-342.945,0.006Z" style="fill:#78797b;"/><path d="M731.2,1621.008l0,-1120.111m-730.367,0l0,1120.111m717.483,93.41l2.416,0l1.611,-0.805l2.416,-0.805l1.611,-1.61l1.61,-1.611l0.805,-1.611l0.805,-2.416l0,-2.416m-727.146,0l0,2.416l0.805,2.416l0.805,1.611l1.611,1.611l1.61,1.61l1.611,0.805l2.416,0.805l2.416,0m715.872,-11.273l0,-82.136m-727.146,0l0,82.136m-0,-1285.189l0,82.942m727.146,0l0,-82.942m-715.872,-11.274l-2.416,0l-2.416,0.805l-1.611,0.805l-3.221,3.221l-0.805,2.416l-0.805,1.611l0,2.416m727.146,0l0,-2.416l-0.805,-1.611l-0.805,-2.416l-1.61,-1.611l-1.611,-1.61l-2.416,-0.805l-1.611,-0.805l-2.416,0m-200.509,1333.504l24.963,-24.963m-98.241,0l24.963,24.963m73.278,-24.963l0,-0.805m-98.241,0l0,0.805m157.83,24.963l24.963,-24.963m-90.994,7.247l17.715,17.716m73.278,-24.963l0,-0.805m-433.228,0l0,43.484m343.039,0l0,-33.821m-343.039,33.821l0,1.611l0.805,2.416l1.61,2.416l0.805,1.611l1.611,0.805l2.416,1.611l2.416,0.805l1.61,0m320.492,0l2.416,0l2.416,-0.805l1.611,-1.611l1.61,-0.805l1.611,-1.611l0.805,-2.416l0.805,-2.416l0,-1.611m-62.81,-1351.22l0,-34.626m-217.419,0l0,34.626m217.419,-34.626l-11.274,-12.079m-194.067,0l-12.079,12.079m63.615,-368.002l0,355.923m90.994,0l0,-355.923m0,0l0,-1.61l-0.805,0l0,-0.805l-0.805,0l0,-0.805l-1.61,0m-85.357,0l-0.805,0l-0.805,0.805l-0.805,0.805l0,1.61m410.68,1616.954l-365.586,0m0,-1120.111l0,1120.111m365.586,-1120.111l-365.586,0m0,1120.111l-364.781,0m364.781,-1120.111l-364.781,0m717.483,1213.52l-352.702,0m0,-11.273l0,11.273m0,0l-351.897,0m351.897,-11.273l0,-82.136m0,-1203.052l0,82.942m-351.897,-94.215l351.897,0m0,11.274l0,-11.274m0,0l352.702,0m-224.667,1333.504l0,-24.963m0,0l49.121,0m-49.121,24.963l24.158,0m-73.278,-24.963l49.12,0m-24.157,24.963l24.157,0m0,-24.963l0,-0.805m84.552,25.768l0,-24.963m0,0l49.121,0m-49.121,24.963l24.158,0m-59.589,-24.963l35.431,0m-24.158,24.963l24.158,0m0,-24.963l0,-0.805m-212.588,43.484l0,-43.484m0,54.757l-160.246,0m160.246,-11.273l0,11.273m160.246,0l-160.246,0m0,-1397.119l0,34.626m108.71,-34.626l-108.71,0m0,0l-108.71,0m108.71,-12.079l0,12.079m0,-12.079l97.436,0m-194.067,0l96.631,0m-12.079,-250.435l0.805,-2.416l0.805,-2.416l2.416,-4.026l4.026,-2.416l1.611,-0.805l2.416,0m-12.079,12.079l0,205.34m12.079,12.079l-2.416,0l-1.611,-0.805l-4.026,-3.221l-2.416,-3.221l-0.805,-2.416l-0.805,-2.416m12.079,12.079l0,33.016m0,-355.923l0,93.41m12.079,217.419l0,2.416l-0.805,2.416l-2.416,3.221l-4.026,3.221l-2.416,0.805l-2.416,0m12.079,-217.419l0,205.34m-12.079,-217.419l2.416,0l2.416,0.805l4.026,2.416l2.416,4.026l0.805,2.416l0,2.416m-12.079,-105.489l0,-3.221m0,0l42.679,0m-85.357,0l42.678,0m0,1702.311l363.976,0m-727.146,0l363.17,0m0,-1285.189l-363.17,0m727.146,0l-363.976,0m-171.519,1339.946l171.519,0m0,0l171.52,0m-171.52,-1753.847l-45.094,0m90.994,0l-45.9,0" style="fill:none;fill-rule:nonzero;stroke:#534e4f;stroke-width:1.67px;"/></g></svg>