<?xml version="1.0" encoding="UTF-8" standalone="no"?><!DOCTYPE svg PUBLIC "-//W3C//DTD SVG 1.1//EN" "http://www.w3.org/Graphics/SVG/1.1/DTD/svg11.dtd"><svg width="100%" height="100%" viewBox="0 0 451 858" version="1.1" xmlns="http://www.w3.org/2000/svg" xmlns:xlink="http://www.w3.org/1999/xlink" xml:space="preserve" xmlns:serif="http://www.serif.com/" style="fill-rule:evenodd;clip-rule:evenodd;stroke-linecap:round;stroke-linejoin:round;stroke-miterlimit:10;"><g><rect x="3.483" y="408.174" width="443.849" height="413.043" style="fill:#3b3838;"/><path d="M4.336,849.092l7.667,7.991l426.445,0l8.301,-8.723l-442.412,0.732Z" style="fill:#343132;"/><path d="M149.14,399.882l-0.656,7.414l162.202,0.879l0.446,-8.738l-161.991,0.446Z" style="fill:#0b0c0f;"/><path d="M7.655,271.921l-6.821,6.282l0,121.233l448.75,0l0,-15.878l-5.852,-0.42l-0.143,-23.614l-0.135,-23.194l-4.61,1.671l-2.234,-3.493l0.277,-41.778l3.493,-2.788l3.493,0.135l-1.679,-6.424l-1.814,-2.519l-3.771,-2.654l-1.957,-2.654l-5.194,-3.422l-421.805,-0.484Z" style="fill:#322e2e;"/><rect x="114.167" y="248.786" width="221.765" height="24.037" style="fill:#2f2a2a;"/><rect x="143.44" y="243.298" width="143.19" height="5.487" style="fill:#2f2a2a;"/><path d="M179.633,243.298l0.519,-236.787l4.215,-5.678l81.95,0l6.136,5.678l0.461,230.24l-2.717,0.568l-0.284,5.98l-90.28,0Z" style="fill:#818285;"/><path d="M3.333,848.333l8.75,8.75m426.25,0l9.167,-8.75m0,0l0,-26.667m-444.167,0l0,26.667m0,-440l0,413.333m444.167,0l-0,-413.333m-446.667,-130l0,121.667m448.75,0l0,-16.667m-442.917,-110.833l-5.833,5.833m335.417,-5.833l0,-23.75m-222.083,0l0,23.75m34.583,127.5l0,8.333m295,-118.333l-0.417,-2.083l-0.417,-2.5l-1.25,-2.083l-1.25,-1.667l-2.083,-1.25l-2.083,-1.25m7.5,68.75l0,-10.833m0,46.25l0,-23.75m-157.083,-110.833l0,-5.833m0,0l-0.417,0m-142.5,0l0,5.833m167.083,159.583l0,-8.333m-65.833,-157.083l0,-5.833m-43.333,4.583l0,1.25m43.333,-5.833l0,-234.167m-43.333,1.667l0,232.5m70.417,-230.417l-5.833,-5.833m3.75,242.083l0,-1.25m22.917,615.417l-161.667,0m-127.917,-8.75l444.167,0m-316.25,8.75l-107.917,0m0,0l-11.25,0m426.25,0l-21.667,0m0,0l-122.917,0m0,0l-162.5,0m-127.917,-35.417l444.167,0m-74.583,35.417l0.417,0l-79.583,0m-163.333,0l-107.083,0m400.833,0l-7.5,0m0,0l-42.5,0m52.917,0l-2.083,0m-132.5,-448.75l-289.167,0m444.167,0l-155,0m0,413.333l-289.167,0m444.167,0l-155,0m-80.417,-470l0,-37.917m0,0l0.417,-2.917l0.417,-0.833l0.833,-1.25l2.5,-1.25l1.25,-0.417l1.667,0m0,0l2.5,0.417l2.5,1.25l0.833,1.25l0.417,1.25l0.417,1.25l0,1.25m0,0l0,37.917m0,0l20.833,0m0,0l2.5,0.833l1.25,0.417l1.25,0.833l1.25,2.5l0.417,1.25l0,1.25m0,0l-0.417,2.917l-1.25,2.083l-1.25,1.25l-1.25,0.417l-2.5,0.417m-55,0l55,0m-55,0l-2.917,-0.417l-0.833,-0.417l-1.25,-1.25l-1.25,-2.083l-0.417,-1.25l0,-1.667m0,0l0.417,-2.5l1.25,-2.5l1.25,-0.833l0.833,-0.417l2.917,-0.833m0,0l20.417,0m7.083,-44.583l2.5,0.417l2.5,1.25l0.833,1.25l0.417,0.833m224.167,89.167l-448.75,0m435.833,-121.667l0,0.833m-0.417,-0.833l-435.417,0m435.417,105l0,-105m0,105l13.333,0m-184.167,-68.333l0.417,-2.917l1.667,-2.083l0.833,-1.25l1.25,-0.417l2.917,-0.417m0,13.75l-2.917,-0.417l-1.25,-0.417l-0.833,-0.833l-1.667,-2.5l0,-1.25l-0.417,-1.25m51.25,36.667l0,-30m-51.25,37.083l0.417,-2.5l1.667,-2.5l0.833,-0.833l1.25,-0.417l2.917,-0.833m0,14.167l-2.917,-0.417l-1.25,-0.417l-0.833,-1.25l-1.667,-2.083l0,-1.25l-0.417,-1.667m-147.917,-51.25l20,9.583l21.25,9.167m-44.583,-19.167l1.667,0l1.667,0.417m55,51.25l-0.417,2.917l-0.833,1.25l-0.417,1.25l-1.25,0.833l-1.25,0.417l-1.25,0.417l-1.25,0m6.667,-52.083l0,45m-7.083,-51.667l2.5,0.417l2.5,1.25l0.833,1.25l0.833,2.5l0.417,1.25m-165.833,-41.25l422.917,0m5,3.333l-5,-3.333m6.667,5.833l-1.667,-2.5m0,0l2.083,2.5m-164.167,87.5l-2.917,-0.417l-1.25,-0.417l-0.833,-1.25l-1.667,-2.083l0,-1.25l-0.417,-1.667m7.083,-37.083l-2.917,-0.417l-1.25,-0.417l-0.833,-0.833l-1.667,-2.5l0,-1.25l-0.417,-1.25m0,0l0.417,-2.917l1.667,-2.083l0.833,-1.25l1.25,-0.417l2.917,-0.417m-7.083,50.833l0.417,-2.5l1.667,-2.5l0.833,-0.833l1.25,-0.417l2.917,-0.833m0,-43.75l50.833,0m0,0l2.5,0.417l1.25,0.417l0.833,0.833l0.833,1.25l0.417,1.25l0.417,2.5m0,0l0,44.583m0,0l-0.417,2.5l-0.417,1.25l-0.833,1.25l-0.833,0.833l-2.5,0.833l-1.25,0m-50.833,0l50.833,0m-50.833,-14.167l44.167,0m0,0l0,-30m-44.167,0l44.167,0m-157.917,4.583l0,-12.5m0,0l0.417,-2.917l0.417,-1.25l1.25,-0.833l2.083,-1.25l2.5,-0.417m0,0l2.5,0.417l2.5,1.25l0.833,1.25l0.833,2.5l0,1.25m0,0l0,45m0,0l0,2.917l-0.833,1.25l-0.417,1.25l-1.25,0.833l-1.25,0.417l-1.25,0.417l-1.25,0m-50.833,0l50.833,0m-50.833,0l-2.5,-0.417l-0.833,-0.417l-0.833,-0.833l-0.833,-1.25l-0.417,-1.25l-0.417,-2.917m0,0l0,-22.5m0,0l0.417,-2.5l0.417,-1.25l0.833,-1.25l0.833,-0.833l0.833,-0.833l2.5,-0.417m0,0l18.333,0m0,0l-20.833,-8.75m0,0l-1.667,-1.25l-1.25,-1.25l-1.25,-2.083l0,-2.083m0,0l0.417,-2.917l1.25,-2.083l0.833,-0.833l1.25,-0.417l0.833,-0.417l1.25,0m0,0l1.667,0l1.667,0.417m0,0l20,9.583l21.25,9.167m-37.083,16.25l37.083,0m-37.083,0l0,9.167m0,0l37.083,0m0,0l0,-9.167m13.333,-28.75l0.417,0m-0.417,45l0.417,0m-50.833,-16.25l0,9.167m-7.5,-102.917l222.083,0m-35,159.583l0,-8.333m137.917,-110l-0.417,0l-1.667,1.667l-0.833,1.667l0,0.833m0,39.167l0.417,1.667l0.833,1.25l0.833,0.833l0.833,0.417l0.833,-0.833m0,-45.833l-0.833,-0.833m4.583,0.417l0,0.417m0,45.833l0,0.417m-2.917,16.667l0,-3.75l0.417,-0.833l0,-0.833l0.417,-0.417m0,11.667l-0.417,0l0,-0.833l-0.417,-0.833l0,-4.167m-261.25,-110.833l106.667,0m-106.667,0l-16.25,0m0,0l16.25,0m-16.25,0l-2.5,0m0,0l2.5,0m-19.583,0l17.083,0m64.583,-5.833l0,4.583m0,-4.583l14.167,0m0,4.583l0,-4.583m0,4.583l-1.667,0m0,0l-0.417,1.25m-10.833,0l0,-1.25m0,0l-1.25,0m-19.167,-4.583l0,4.583m0,-4.583l14.167,0m-0.417,4.583l0.417,-4.583m-0.417,4.583l-0.833,0m0,0l0,1.25m-10.833,0l0,-1.25m0,0l-2.083,0m38.333,-4.583l0,4.583m12.083,0l0,-4.583m0,4.583l-2.5,0m0,0l0,1.25m-9.167,0l0,-1.25m-54.583,-4.583l0,4.583m11.25,0l0,-4.583m0,4.583l0,1.25m-8.75,0l0,-1.25m0,0l-2.5,0m35,-235l-5,0m0,0l-2.5,-5.833m0,0l10.417,0m0,0l-1.25,2.5l-1.667,3.333m-5,230.417l0,-230.417m5,0l0,230.417m-5.417,4.583l5.417,0m9.583,-240.833l-6.667,0m11.25,5.833l-4.583,-5.833m4.583,236.25l0,-230.417m-33.333,0l0,230.417m5.417,-236.25l-2.5,2.5l-2.917,3.333m11.667,-5.833l-6.25,0m32.917,5.833l-5,0m5,0l0,230.417m-5,4.583l5,0m-9.583,-240.833l9.583,0m0,0l0.417,2.5l-0.417,3.333m-42.917,230.417l0,-230.417m4.583,0l-4.583,0m0,235l4.583,0m-4.583,-235l0.417,-5.833m0,0l9.583,0m38.75,0l-5.833,0m12.083,5.833l-6.25,-5.833m6.25,236.25l0,-230.417m-66.25,0l0,230.417m6.667,-236.25l-2.917,2.5l-3.75,3.333m11.667,-5.833l-5,0m63.333,236.25l0,4.583m7.5,0l0,-4.583m0,4.583l-2.083,0m0,0l0,1.25m-6.25,0l0,-1.25m0.833,-235l-3.75,0m3.75,0l0,230.417m-3.75,4.583l3.75,0m-2.5,-240.833l1.25,2.5l1.25,3.333m-10,-5.833l7.5,0m-69.583,240.833l-0.417,1.25m-0.833,-5.833l0,-230.417m3.333,0l-3.333,0m0,235l3.333,0m-3.333,0l0,-4.583m0,-230.417l3.333,-5.833m0,0l6.667,0m70.833,5.833l-6.667,-5.833m6.667,236.25l0,-230.417m-6.667,-5.833l-3.333,0m-77.083,236.25l0,4.583m2.083,1.25l0,-1.25m0,0l-2.083,0m0,-235l0,230.417m6.667,-236.25l-3.333,2.5l-3.333,3.333m9.583,-5.833l-2.917,0m82.5,5.833l-2.083,0m-2.917,-5.833l2.5,2.5l2.5,3.333m-8.75,-5.833l3.75,0m3.333,242.083l0,-1.25m1.667,-235l0,230.417m0,0l0,4.583m-2.083,0l2.083,0m-89.167,-235l-1.25,0m0,0l5,-5.833m0,0l2.917,0m-6.25,240.833l0,1.25m-1.667,-5.833l0,-230.417m-0.417,235l0.417,-4.583m-0.417,4.583l1.667,0m91.25,-235l-5.833,-5.833m5.833,236.25l0,-230.417m-2.083,230.417l2.083,0m-5.833,-236.25l-1.25,0m-86.25,236.25l0,4.583m1.667,1.25l0,-1.25m-1.667,-235l0,230.417m5.417,-236.25l-2.5,2.5l-2.917,3.333m91.25,235l0,1.25m173.75,47.083l-4.583,0m0,0l-2.917,0m-149.583,-47.083l-107.083,0m0,0l0,5.833m-16.25,-5.833l0,5.833m-2.5,-5.833l0,5.833m0,-5.833l-17.083,0m100.833,-5.833l12.083,0m-66.25,0l11.25,0m58.75,0l7.5,0m-87.083,0l6.25,0m-8.333,0l0.833,0" style="fill:none;fill-rule:nonzero;stroke:#434042;stroke-width:1.67px;"/><rect x="3.483" y="821.217" width="443.849" height="27.143" style="fill:#3b3838;"/></g></svg>