<?xml version="1.0" encoding="UTF-8" standalone="no"?><!DOCTYPE svg PUBLIC "-//W3C//DTD SVG 1.1//EN" "http://www.w3.org/Graphics/SVG/1.1/DTD/svg11.dtd"><svg width="100%" height="100%" viewBox="0 0 646 1029" version="1.1" xmlns="http://www.w3.org/2000/svg" xmlns:xlink="http://www.w3.org/1999/xlink" xml:space="preserve" xmlns:serif="http://www.serif.com/" style="fill-rule:evenodd;clip-rule:evenodd;stroke-linecap:round;stroke-linejoin:round;"><clipPath id="_clip1"><polygon points="0,1028.855 0,0 645.304,0 645.304,1028.855 0,1028.855 "/></clipPath><g clip-path="url(#_clip1)"><g id="Main_Layer"><g><path d="M130.33,939.594l182.293,0l1.269,39.659c0.071,2.573 2.186,4.583 4.759,4.583l8.284,0c2.573,0 4.653,-2.045 4.759,-4.583l1.269,-39.659l182.363,0l0,-92.927l-384.996,0l0,92.927Z" style="fill:#333132;fill-rule:nonzero;"/><path d="M80.2,929.865l485.115,0l0,96.804l-485.115,0l0,-96.804Z" style="fill:#302e2f;"/><path d="M2.045,291.823l-0.494,-18.719c-0.071,-2.785 0.635,-5.535 2.045,-7.932l15.441,-26.122l607.512,0l15.37,25.735c1.445,2.432 2.186,5.182 2.08,8.002l-0.494,19.037l-641.461,0Z" style="fill:#302e2f;fill-rule:nonzero;"/><path d="M220.93,189.696l203.092,0l0,49.354l-203.092,0l0,-49.354Z" style="fill:#2d2a2b;"/><path d="M271.764,180.318l101.987,0l0,8.461l-101.987,0l0,-8.461Z" style="fill:#363436;"/><path d="M2.045,291.823l10.717,606.737l108.156,0l0.106,-101.458c0,-8.108 6.592,-14.665 14.665,-14.665l373.504,0c8.496,0 15.37,6.874 15.37,15.37l0.106,100.753l108.121,0l10.717,-606.772l-641.461,0l-0,0.035Z" style="fill:#393839;fill-rule:nonzero;"/><path d="M14.947,1026.669l6.451,0l-1.551,-128.109l-7.086,0l2.186,128.109Z" style="fill:#333132;fill-rule:nonzero;"/><path d="M24.748,898.736l-4.9,-0.176l1.551,128.109l63.772,0l-2.327,-87.075l-56.969,0l-1.128,-40.858Z" style="fill:#1b9446;fill-rule:nonzero;"/><path d="M25.876,939.594l-1.128,-40.858l96.135,-0.141l0.106,-101.387c0,-8.143 6.592,-14.736 14.736,-14.736l373.398,0c8.496,0 15.405,6.874 15.405,15.405l0.106,100.717l96.135,0l-1.128,41.034l-111.258,0c-1.093,0 -1.974,-0.881 -1.974,-1.939l-0.494,-37.192l-4.266,6.487c-0.494,0.74 -1.34,1.199 -2.221,1.199l-353.198,0c-0.846,0 -1.657,-0.423 -2.15,-1.128l-4.477,-6.557l-0.494,36.451c0,1.481 -1.234,2.714 -2.75,2.714l-110.482,0l-0,-0.071Z" style="fill:#363436;fill-rule:nonzero;"/><path d="M630.568,1026.704l-6.416,0l1.516,-128.074l7.086,0l-2.186,128.074Z" style="fill:#333132;fill-rule:nonzero;"/><path d="M620.768,898.772l4.9,-0.141l-1.516,128.074l-63.772,0l2.291,-87.075l57.004,0l1.093,-40.858Z" style="fill:#1b9446;fill-rule:nonzero;"/><path d="M280.366,180.318l-0.106,-173.902l10.435,-5.535l63.878,0l10.47,5.499l-0.776,173.938l-83.902,0Z" style="fill:#808285;fill-rule:nonzero;"/><path d="M624.434,1025.893l6.381,0m-616.326,0l6.381,0m612.166,-124.055l-7.051,0m-606.631,-0l-7.051,0m620.732,-0.035l-7.051,0m-606.631,0l-7.051,0m304.585,80.8l0.67,0.353l0.635,0.106m15.793,-75.547l-0.106,-0.141l-0.071,-0.141m-22.456,0.282l0.106,-0.141l0.071,-0.141m80.729,1.093l0,0.917m-139.178,0l0,-0.917m260.201,33.561l0,-1.128m-141.364,-33.561l0,1.128m-105.653,-1.128l0,1.128m-161.952,-565.139l-5.817,0m447.747,0l-5.781,0m-436.466,-18.755l-0.494,0m437.805,20.059l0.494,0m75.829,683.482l-57.039,0m58.661,-2.045l0,0.423l-0.141,0.388l-0.176,0.388l-0.247,0.317l-0.423,0.353l-0.635,0.176m4.618,0l-4.618,0m4.618,0l0.846,-0.176l0.635,-0.388l0.423,-0.635l0.247,-0.881m1.586,-124.055l0,-0.035m0,0l-4.9,0m4.9,0l-0.141,-0.776l-0.212,-0.388l-0.282,-0.353l-0.705,-0.458l-0.846,-0.141m-4.971,0l0.846,0.141l0.705,0.458l0.494,0.705l0.141,0.388l0,0.423m-60.388,124.125l0,0.846l-0.035,0.74l0,0.458m63.843,-2.08l0.881,-69.378l0.67,-54.642m0,-0.035l-4.9,0m-1.833,124.055l5.182,0m-4.442,-87.216l0,2.08m1.058,-38.919l-1.058,36.839m-2.221,2.08l0.846,-0.141l0.74,-0.458l0.282,-0.317l0.212,-0.353l0.141,-0.388l0,-0.423m-0.035,2.08l-2.186,0m-57.145,85.171l2.256,-85.136m-2.256,85.136l58.626,0m0,0l0,-0.035m0.705,-85.136l-0.388,47.697l-0.317,37.439m-328.662,-1025.012l-0.071,0m-10.4,5.535l0.071,0m-0.071,0l0,174.149m361.589,229.919l0.071,-4.689m0,-0.529l0,0.529m-0.176,8.637l0.106,-3.948m0,0l0,-2.926l0.071,-2.291m-636.385,98.073l-0.106,0m1.093,64.583l-0.071,-4.689m0.106,5.182l0,-0.529m-0.106,-6.592l0,1.939m0,0l0.071,2.926l0,2.291m631.449,60.212l0.071,-4.689m0.035,-0.529l0,0.529m-0.212,8.637l0.106,-3.948m0,0l0,-2.926l0.071,-2.291m-1.269,65.077l0.141,0m-626.514,97.545l-0.071,-4.689m0.106,5.217l0,-0.529m-0.141,-6.592l0,1.939m0.035,0l0.071,2.926l0,2.291m269.966,-780.216l0,174.149m5.041,-0.529l0,0.529m354.503,338.04l0,-0.67m0.141,-19.777l0.141,0m-0.423,20.447l0.141,0m-631.484,154.69l0,0.67m0.599,19.742l-0.141,0m-0.353,-20.411l-0.106,0m356.724,-666.878l0,174.149m-4.9,-0.529l0,0.529m-352.317,442.952l0,-0.106l-0.071,-0.282l0,-0.423l-0.035,-0.494l0,-1.022l-0.071,-0.881l0,-2.996l0.071,-0.247m630.815,-48.684l0,0.247l0.071,0.705l0,3.173l-0.071,1.022l0,0.494l-0.071,0.423l0,0.282l-0.071,0.106m-352.493,-394.797l0,0.529m-5.429,-174.149l0,174.149m0,-0.529l2.256,0m75.935,0.529l0,-0.529m1.163,0l4.442,0m-0.035,-173.62l0,174.149m-76.816,-0l0,-0.529m-3.631,0l2.397,0m-2.397,-173.62l0,174.149m-279.908,242.434l-0.388,-22.315m-0,0l0.282,2.115l0.529,1.657m631.097,364.409l0,-6.557m-0.388,28.907l0.388,-22.315m-1.093,18.508l0.811,-10.364l0.282,-8.179m-0.388,22.35l-0.212,-2.115l-0.494,-1.657m-0.141,-0.035l0.141,0m-630.004,-382.952l-0.423,10.364l-0,8.143m0,0.035l0.247,6.839m0.317,-25.382l-0.141,0m352.317,-224.42l0,0.529m0.388,-0.529l2.82,0m0,-173.62l0,174.149m-353.304,326.653l-0.141,0m630.991,83.549l0.141,0m-629.334,10.364l-0.141,0m627.677,83.514l0.141,0m-343.892,-504.609l0,0.529m-5.746,-174.149l0,174.149m0,-0.529l5.781,0m3.631,0.529l0,-0.529m345.901,232.387l0.141,0m-0.106,0l0,-1.939m0.141,-6.205l0.141,-6.91m-1.586,-5.711l1.304,3.173l0.282,2.503m-0.317,15.088l-1.022,22.033l-1.128,14.912m1.199,11.598l0.141,0m-634.199,46.252l-0.458,-26.369l-0.353,-19.213m1.622,55.312l-1.763,-5.147l0.071,-0.529m632.401,43.291l0.141,0m-631.696,6.733l-0.141,0m632.648,-0.881l0.212,-6.346m-1.234,-26.017l0.987,13.89l0.106,12.127m-632.577,7.227l0.247,-22.033l0.599,-14.947m1.163,57.709l-1.763,-5.147l0.071,-0.529m631.661,12.197l-0.67,8.954l-1.128,6.169m1.798,-15.123l0.141,-7.156m-0.564,-26.827l-0.353,20.27l-0.282,15.934m0.176,-41.352l0.212,2.327l0.212,2.82m-629.193,82.774l-0.141,0m628.981,-6.733l0.141,0m-0.071,0l0,-1.939m0.141,-6.205l0.106,-6.945m-1.586,-5.676l1.304,3.173l0.282,2.503m-0.317,15.088l-1.022,22.033l-1.128,14.947m1.199,20.94l0.141,-7.932m-1.622,-5.64l1.304,3.173l0.282,2.503m-1.093,4.019l-0.458,26.369l-0.353,19.213m-625.35,0.705l-0.141,0m626.232,16.745l0.106,-6.557m-1.586,-5.676l1.304,3.173l0.282,2.503m-625.386,38.355l-0.141,0m0.141,0l0.247,-22.033l0.599,-14.982m1.163,57.744l-1.763,-5.147l0.071,-0.529m628.911,-287.522l0.141,0m0.212,-8.848l-0.176,11.14l0,5.535l-0.071,1.833l0,1.234m0.881,-56.933l-0.353,20.834l-0.282,16.357m-0.846,-41.387l1.058,2.362l0.423,1.833m-0.987,46.04l-0.811,10.047l-0.74,6.451m-630.392,107.944l-0,6.346m2.15,25.629l-1.904,-21.786l0,-3.843m0.917,-0.458l-0.353,-20.27l-0.282,-15.934m1.269,41.316l-0.282,-2.327l-0.317,-2.82m-1.375,-33.949l-0.212,-5.182l1.199,-9.8m0.458,96.487l-0.141,0m0.141,8.848l-0.141,-6.522l-0.141,-6.346l0,-1.657l-0.071,-1.445l-0.071,-2.291l0,-1.41m1.058,56.898l-0.353,-20.834l-0.282,-16.357m2.291,41.387l-1.163,-2.362l-0.494,-1.833m-0.635,-46.075l0.458,-10.047l0.494,-6.451m624.892,129.202l0.106,-6.381m-0.705,-3.772l0.564,2.115l0.106,1.657m0.423,-22.315l-0.423,10.4l-0.67,8.143m-627.889,-330.989l-1.692,-4.689l0.071,-0.987m-0.212,-46.287l-0.776,-3.772m0.458,22.315l-0.141,-3.243l0.458,-15.3m5.64,312.411l-0.141,0m629.651,-241.835l0.141,0m-292.493,-294.996l0,0.529m4.054,0l0,-0.529m0,0l5.711,0m0,-173.62l0,174.149m-62.856,-174.149l0,174.149m0,-0.529l4.089,0m45.582,0l4.407,0m0,-173.62l0,174.149m291.012,313.786l0.141,0m-629.651,203.162l-0.141,0m1.375,-13.079l-0.141,0m626.761,-176.969l0.141,0m-625.209,245.219l-0.141,0m626.091,-313.468l0.141,0m-0.599,25.946l0.141,0m0.529,8.073l0.141,0m-626.761,253.503l-0.141,0m-0.846,-8.108l-0.141,0m622.107,24.43l0.141,0m-626.091,-294.22l-0.141,0m296.406,-268.803l0,0.529m5.147,0l0,-0.529m-10.259,-173.62l0,174.149m0,-0.529l5.112,0m28.837,0l1.445,0m-0.035,0l0,0.529m5.358,0l0,-0.529m0,0l4.865,0m0,-173.62l0,174.149m-34.407,-174.149l0,174.149m0,-0.529l5.076,0m12.515,0l5.112,0m0.071,-173.62l0,174.149m22.632,-179.684l-64.195,0m0,0l-10.4,5.499m0.035,0.035l0.212,0m0,0l4.512,-2.221l1.163,-0.564l0.74,-0.353l0.423,-0.212l1.128,-0.529l0.494,-0.176l0.212,-0.071l0.212,0l0,0.035l-0.106,0.176l-0.282,0.212l-2.186,1.481l-2.996,2.256m0,-0.035l2.397,0m0.035,0l4.865,-2.221l1.163,-0.564l1.128,-0.564l1.269,-0.529l0.67,-0.176l0.317,-0.071l0.705,0l0.176,0.247l0,0.212l-1.199,1.481l-1.163,2.256m0,-0.071l4.089,0m-0,0l4.371,-2.221l0.952,-0.564l0.564,-0.353l0.353,-0.212l1.163,-0.529l0.74,-0.176l0.388,-0.071l1.022,0l0.458,0.247l0.247,0.212l0.071,1.481l0.881,2.256m-0.035,-0.071l5.076,0m12.515,0l5.112,0m0.071,0l1.34,-2.221l0.106,-0.564l0,-0.353l0.071,-0.212l0.423,-0.529l0.458,-0.176l0.317,-0.071l1.128,0l0.74,0.247l0.599,0.212l2.291,1.481l4.195,2.256m-0.035,-0.071l4.407,0m0,0l-0.67,-2.221l-0.388,-0.564l-0.282,-0.353l-0.141,-0.212l-0.106,-0.529l0.212,-0.176l0.176,-0.071l0.881,0l0.705,0.247l0.635,0.212l2.891,1.481l4.865,2.256m0,-0.071l2.82,0m0,0l-2.573,-2.221l-0.776,-0.564l-0.846,-0.564l-0.599,-0.529l-0.106,-0.176l0,-0.071l0.317,0l0.74,0.247l0.564,0.212l2.996,1.481l4.724,2.256m-0.035,-0.071l0.776,0m0.035,0l-4.054,-2.221l-2.186,-1.163l-0.212,-0.106m-40.506,177.11l0,0.529m5.746,0l0,-0.529m0,0l3.138,0m0.035,-173.62l0,174.149m-12.515,-174.149l3.102,-2.221l0.599,-0.564l0.317,-0.353l0.212,-0.212l0.846,-0.529l0.67,-0.176l0.388,-0.071l1.163,0l0.635,0.247l0.458,0.212l1.304,1.481l2.785,2.256m-12.48,-0.071l0,174.149m0,-0.529l3.596,0m-0.74,0.529l10.717,0m-56.44,0l35.006,0m-35.006,0l0,8.461m67.333,-8.461l34.759,0m0.035,0l0,8.461m-364.761,336.171l-0.141,0m624.998,141.47l0.141,0m1.234,-75.899l0.141,0m-1.163,55.876l0.141,0m-624.998,-101.422l-0.141,0m1.163,55.876l-0.141,0m-0.282,-87.568l-0.141,0m622.671,164.807l0.141,0m0,-97.404l0.141,0m-619.463,30.035l-0.141,0m623.235,-86.123l0.141,0m-3.702,17.838l0.141,0m2.679,24.289l0.141,0m-624.998,57.92l-0.141,0m0.881,42.127l-0.141,0m3.102,-17.838l-0.141,0m614.387,378.792l-6.451,0m-599.158,0l-6.275,0l0.106,0m607.512,-2.08l-0.176,0.776l-0.212,0.388l-0.282,0.317l-0.635,0.423l-0.458,0.141l-0.458,0m2.221,-2.045l0.881,-69.378l0.67,-54.642m-606.631,-0.035l0.881,69.519l0.67,54.501m1.481,1.974l-0.141,0l-0.705,-0.458l-0.494,-0.67l-0.176,-0.811m307.123,-845.328l0,8.461m0,-8.461l10.682,0m-21.363,0l0,8.461m-10.717,-8.461l10.682,0m-10.682,0l0,8.461m-293.833,393.422l-0.141,0m619.463,26.968l0.141,0m-619.005,-67.121l-0.176,-0.106l-0.141,-0.247l-0.176,-0.599l-0.106,-0.494l-0.071,-0.564l-0.071,-1.199l0,-1.234l0.071,-0.564l0.071,-0.494l0.176,-0.635l0.141,-0.212l0.141,-0.071m617.066,113.69l0.141,0.071l0.141,0.212l0.176,0.635l0.071,0.494l0,0.564l0.071,1.234l-0.071,1.199l-0.071,0.564l-0.106,0.529l-0.176,0.599l-0.141,0.247l-0.176,0.106m-610.65,245.818l-0,-0.035m606.631,0l0,0.035m-611.32,-324.644l-0.141,0m615.444,37.509l0.141,0m-610.756,287.099l-0,-0.423l0.176,-0.388l0.212,-0.353l0.282,-0.317l0.705,-0.458l0.846,-0.141m602.189,-0.035l0.846,0.141l0.705,0.458l0.494,0.67l0.106,0.388l0,0.423m-614.598,-341.318l-0.141,0m622.565,15.088l0.141,0m-621.578,40.823l-0.141,0m620.556,15.053l0.141,0m-617.912,-54.148l-0.141,0m614.88,37.368l0.141,0m-618.864,-94.196l-0.141,0m620.803,150.988l0.141,0m-615.444,-106.992l-0.141,0m611.672,63.032l0.141,0m0.247,-56.158l0.141,0m0.494,0.247l0.141,0m-611.038,49.001l-0.141,0m-0.494,-0.247l-0.141,0m-8.249,-95.112l0,-4.477l0.071,-2.609m0.282,27.109l-0.212,-11.21l-0.141,-8.813m2.362,35.253l-0.881,-1.833l-0.317,-1.551l-0.282,-1.974l-0.317,-4.336l-0.176,-5.535m6.98,19.213l-3.032,-2.221l-2.009,-1.763m5.676,4.23l-0.353,-0.106l-0.282,-0.141m617.489,102.233l-0.141,4.477l-0.176,2.609m0.67,-27.109l-0.212,11.21l-0.141,8.813m-1.093,-35.253l0.811,1.833l0.282,1.551l0.212,1.974l0.176,4.336l0,5.535m-6.346,-19.178l2.961,2.221l1.939,1.763m-5.535,-4.23l0.353,0.106l0.282,0.141m-67.262,400.508l0,-2.045m0,2.045l-475.843,0m543.317,-414.538l0.141,0m-610.615,-61.41l-0.141,0m608.641,87.815l0.141,0m-0.494,20.024l0.141,0m1.199,8.002l0.141,0m-610.615,-89.436l-0.141,0m-1.657,-1.163l-0.141,-0.071l-0.106,0m-0.035,0l-0.247,0.106l-0.212,0.353l-0.176,0.599l-0.141,0.846l-0.106,1.798l0,2.362m0.035,0.071l0.282,15.97l0.212,12.55m0,-0.035l1.586,1.199l1.34,0.917m0,0l0.106,0.071l0.141,0.035m0.74,-27.603l-0.141,-2.82l-0.317,-2.327l-0.247,-1.058l-0.282,-0.846l-0.317,-0.599l-0.353,-0.353m0.035,0l-0.952,-0.67l-0.705,-0.529m2.432,-45.194l-0.141,0m-1.481,-8.002l-0.141,0m611.249,81.434l0.141,0m-608.641,-19.037l-0.141,0m0.353,19.706l-0.212,-11.034l-0.141,-8.672m-0.529,27.638l-0.141,0m1.163,-7.932l-0.141,0m-1.022,7.932l0.317,-0.176l0.282,-0.529l0.212,-0.881l0.141,-1.269l0.106,-5.076m608.746,-20.376l-0.212,11.034l-0.176,8.672m0.035,0l0,2.82l0.247,2.291l0.212,1.058l0.247,0.846l0.282,0.599l0.317,0.353m0.035,0l0.917,0.67l0.705,0.529m0,0l0.141,0.071l0.106,0m0.035,0l0.247,-0.106l0.212,-0.353l0.176,-0.599l0.141,-0.846l0.176,-1.798l0.106,-2.362m0.035,-0.071l0.282,-15.97l0.212,-12.55m-0,0l-1.516,-1.199l-1.304,-0.917m0,0l-0.106,-0.071l-0.141,0m-0.176,-0.035l0.141,0m-1.481,7.932l0.141,0m1.304,-7.932l-0.353,0.176l-0.282,0.529l-0.247,0.881l-0.176,1.269l-0.282,5.076m-542.506,440.167l475.914,0m0,0l2.256,-85.136m-478.17,85.136l0,0.846l0.035,0.74l0,0.458m-2.291,-87.216l2.256,85.136m242.434,-40.823l-8.919,0m13.185,-4.054l-0.423,1.692l-1.199,1.445l-1.304,0.705l-1.375,0.212m0.035,-2.045l0,2.009m-8.954,0.035l-1.727,-0.353l-1.516,-1.128l-0.74,-1.269l-0.282,-1.34m4.266,2.045l0,2.009m-300.636,-430.437l-0.141,0m608.817,82.703l0.141,0m-293.551,303.457l-1.41,40.224m-2.15,0.035l2.15,0m-17.485,0l-1.41,-40.224m3.561,40.224l-2.15,0m318.263,-442.67l0.141,0m-0.317,8.179l0.141,0m-0.141,0l-3.173,12.021l-2.855,9.342m9.624,-0.917l-0.071,4.759l0,2.609m-2.75,-31.657l1.727,13.572l1.093,10.717m0.74,-42.127l-1.868,10.012l-1.692,7.826m3.702,-24.994l-0.071,3.666l-0.071,3.525m-9.272,-15.723l3.067,16.287l2.045,12.903m-617.101,106.992l-0.141,0m0.141,0l2.75,-12.021l2.503,-9.342m-9.589,0.917l-0.071,-4.759l0,-2.609m3.772,31.657l-2.221,-13.572l-1.481,-10.717m0.74,42.127l1.516,-10.012l1.445,-7.826m-2.82,25.03l-0.071,-3.666l-0.071,-3.525m9.941,15.688l-3.666,-16.287l-2.538,-12.903m0,0l-0.141,0m610.65,6.346l0,2.891l0.247,2.291l0.212,1.022l0.247,0.811l0.67,0.987m-1.022,-28.026l-0.212,11.21l-0.141,8.813m0.494,-22.562l-0.071,1.41l0,1.128m-1.022,-7.932l0.599,3.032l0.458,2.362m5.429,34.125l0.458,3.878l0.353,3.032m-5.358,-10.47l2.714,2.009l1.833,1.586m0.458,-62.045l-0.141,4.512l-0.282,3.42l-0.282,1.657l-0.353,1.199l-0.423,0.705l-0.494,0.247m2.468,-40.224l-0.282,15.97l-0.212,12.55m3.102,-18.684l-0.317,18.402l-0.247,14.277m-0.881,-47.909l0.811,1.833l0.282,1.551l0.212,1.974l0.176,4.336l0,5.535m-6.346,-19.213l2.926,2.221l1.939,1.763m-5.429,-4.195l0.282,0.071l0.282,0.141m1.093,43.149l-0.141,0l-0.106,-0.071m-0.035,0l-0.881,-0.67l-0.74,-0.529m0,0l-0.317,-0.353l-0.282,-0.599l-0.247,-0.846l-0.212,-1.058l-0.212,-2.291l0,-2.82m-0.071,0l0.212,-11.034l0.141,-8.672m0.035,0l0.282,-5.076l0.176,-1.269l0.247,-0.881l0.282,-0.529l0.353,-0.176m-611.214,-45.793l-0.141,-2.891l-0.282,-2.291l-0.247,-1.022l-0.282,-0.811l-0.67,-0.952m1.974,27.956l-0.212,-11.21l-0.176,-8.813m0.353,22.597l0,-2.538m1.269,7.932l-0.705,-3.032l-0.564,-2.362m-6.592,-34.16l-0.599,-3.878l-0.458,-3.032m5.711,10.505l-2.75,-2.009l-1.868,-1.586m1.763,62.01l0,-4.512l0.176,-3.42l0.212,-1.657l0.282,-1.199l0.388,-0.705l0.458,-0.247m-1.022,40.259l-0.282,-15.97l-0.212,-12.55m-2.432,18.649l-0.317,-18.402l-0.247,-14.277m2.538,47.944l-0.881,-1.833l-0.317,-1.551l-0.282,-1.974l-0.317,-4.336l-0.176,-5.535m7.015,19.178l-3.032,-2.221l-2.009,-1.763m5.57,4.23l-0.282,-0.071l-0.282,-0.141m-2.644,-43.149l0.141,0l0.106,0.071m0.035,0l0.917,0.67l0.74,0.529m0,-0.035l0.353,0.353l0.317,0.599l0.282,0.846l0.247,1.058l0.317,2.327l0.141,2.82m-0.035,0l0.212,11.034l0.141,8.672m0,0l-0.106,5.041l-0.141,1.269l-0.212,0.917l-0.282,0.529l-0.317,0.176m604.587,24.924l0.141,0m-600.638,-86.087l-0.141,0m0.917,84.889l-0.141,0m602.26,-83.69l0.141,0m-200.941,-365.114l0.917,0.917m-0.917,-0.917l-202.105,0m0.035,0l-0.917,0.917m203.903,0l0,49.425m0,-49.425l-203.867,0m-0.071,0l0,49.425m403.434,127.157l0.141,0m14.207,71.246l0.141,0m-617.454,-73.361l-0.141,0m-14.736,76.745l-0.141,0m627.395,309.626l0.141,0m-621.191,3.42l-0.141,0m17.485,71.211l-0.141,0m585.761,2.115l0.141,0m-603.811,-144.29l0.247,-0.212m-1.093,1.445l0.106,-1.234l0,-0.776m-1.34,15.088l0.599,-7.333l0.635,-5.746m-0.881,32.433l-0.176,-10.823l-0.141,-8.496m1.304,21.081l-0.599,-0.987l-0.388,-0.776m1.974,9.871l-0.106,-2.82l-0.212,-2.468l-0.317,-1.833l-0.317,-0.952m1.41,34.019l-0.247,-14.524l-0.212,-11.422m0.458,27.427l0,-1.481m17.344,72.691l-0.635,-13.044l-0.635,-6.592l-0.846,-5.922l-1.128,-5.746l-1.34,-5.147l-1.445,-4.301l-1.622,-4.019l-3.067,-6.31l-2.714,-5.746l-2.186,-6.416l-1.692,-8.002m17.944,85.946l-0.071,-0.035l0,-0.106l-0.071,-0.141l-0.071,-0.423l-0.141,-1.445l-0.106,-2.256l0,-1.586l-0.106,-1.833l0,-2.045l-0.071,-2.291l0,-2.538m606.843,-316.676l-0.247,0.212m1.128,-1.445l-0.141,1.199l-0.071,0.776m1.868,-15.088l-0.846,7.333l-0.811,5.746m2.009,-32.397l-0.176,10.823l-0.141,8.496m-0.599,-21.116l0.564,0.987l0.353,0.776m-1.586,-9.836l0,2.82l0.141,2.468l0.247,1.833l0.282,0.952m-0.212,-34.019l-0.247,14.524l-0.212,11.422m0.494,-27.427l0,0.811l-0.035,0.67m-14.313,-72.727l0.141,12.973l0.388,6.592l0.599,5.922l0.881,5.781l1.128,5.147l1.304,4.477l1.41,3.878l2.785,6.346l2.432,5.746l1.939,6.381l1.375,8.002m-23.055,389.756l-0.071,5.781l-0.106,4.371l-0.071,1.551l-0.071,1.234l-0.071,0.917l-0.071,0.458l0,0.176l-0.071,0.106m18.614,-91.34l-1.163,7.861l-1.481,6.381l-1.939,5.535l-2.432,5.217l-2.468,4.971l-1.199,2.679l-1.128,2.75l-1.022,2.855l-1.516,5.288l-1.304,5.958l-0.987,6.275l-0.74,7.015l-0.458,6.663l-0.282,7.297m17.591,-84.431l0,2.468l0.106,2.221l0.176,1.798l0.247,1.199m0.564,-69.413l-0.599,34.301l-0.494,27.427m-626.725,-301.941l0.846,-7.826l1.234,-6.381l1.692,-5.535l2.186,-5.217l2.221,-4.971l1.093,-2.679l0.987,-2.75l0.881,-2.855l1.304,-5.288l1.022,-5.958l0.705,-6.275l0.458,-7.015l0.176,-6.663l0,-7.297m-14.031,84.431l-0.106,-2.468l-0.176,-2.221l-0.247,-1.798l-0.282,-1.199m1.939,69.378l-0.599,-34.301l-0.494,-27.427m308.991,532.212l0.071,0.494l0.176,0.423l0.247,0.353l0.317,0.282m12.374,-1.551l-0.071,0.388l-0.141,0.388l-0.212,0.353l-0.282,0.317l-0.317,0.247l-0.353,0.176l-0.388,0.106l-0.423,0m-8.884,0.035l-0.423,0l-0.388,-0.141l-0.353,-0.176l-0.317,-0.247l-0.282,-0.317l-0.212,-0.353l-0.141,-0.388l-0.071,-0.388m2.186,2.009l0,-0.987m0,0.987l8.919,0m0.035,-1.058l0,0.987m-305.889,-448.557l-0.141,0m607.442,6.945l0.141,0m-598.276,-42.973l-0.141,0m584.563,2.115l0.141,0m6.769,156.981l0.141,0m-10.752,36.064l0.141,0m-577.16,-2.115l-0.141,0m-15.264,-40.858l-0.141,0m15.617,42.127l-0.141,0m577.019,2.115l0.141,0m-580.791,-197.733l-0.141,0m584.563,2.115l0.141,0m-593.411,58.308l0,-4.583m8.848,-55.841l0.141,-4.618l0.071,-0.458l0,-0.141l0.071,-0.035l0.071,0m-0.353,6.557l0,-1.269m-9.166,37.298l1.763,-2.256l1.727,-2.891l1.657,-3.772l1.375,-4.442l1.058,-5.006l0.811,-5.781l0.494,-5.64l0.282,-6.24m-8.813,54.536l-0.176,-10.364l-0.141,-8.143m593.552,-33.913l0.458,8.461l0.846,7.297l0.67,3.772l0.776,3.42l1.939,5.781l2.115,4.089l2.538,3.42l1.551,1.657l1.481,1.445l1.375,1.481m-13.749,-42.127l0,1.269m-0.423,-6.557l0.071,0l0.071,0.035l0,0.141l0.141,0.458l0.141,4.618m9.659,54.959l-0.599,2.468l-0.282,2.961m4.935,-18.19l-2.221,7.156l-1.868,5.605m-590.344,137.31l-0.776,-8.461l-1.128,-7.297l-0.811,-3.772l-0.917,-3.42l-2.186,-5.781l-2.291,-4.089l-2.679,-3.42l-1.622,-1.657l-1.551,-1.445l-1.445,-1.481m15.476,42.092l0,-0.705l-0.071,-0.564m0.67,6.557l-0.035,0l-0.071,-0.071l-0.071,-0.141l-0.106,-0.494l-0.317,-4.618m-11.81,-54.853l0.494,-2.468l0.176,-2.961m-4.336,18.19l1.974,-7.156l1.657,-5.605m599.933,-3.384l-0.141,2.573l-0.071,2.009m-10.999,55.805l-0.317,4.618l-0.106,0.494l-0.071,0.141l0,0.035l-0.106,0m0.67,-6.557l0,0.705l-0.071,0.564m10.682,-37.333l-1.868,2.256l-1.833,2.891l-1.798,3.772l-1.551,4.442l-1.269,5.006l-1.058,5.781l-0.705,5.64l-0.529,6.275m10.964,-54.536l-0.176,10.364l-0.141,8.143m-108.508,284.385l0.106,0m-198.756,-1.128l1.41,40.224m11.105,0.987l-8.919,0m8.919,0l0.811,-0.071l0.705,-0.212l0.458,-0.317l0.176,-0.388m1.34,-38.108l-1.34,38.108m-0.811,-37.121l-1.34,38.108m-11.069,-0.952l0.176,0.388l0.458,0.317l0.705,0.212l0.811,0.071m-0.035,-0.035l-1.34,-38.108m-0.776,37.157l-1.34,-38.108m13.749,0.952l0.811,-0.071l0.705,-0.212l0.458,-0.317l0.176,-0.388m-15.934,0l0.176,0.388l0.458,0.317l0.705,0.212l0.811,0.071m0,0l0,-0.987m0,0.987l11.633,0m0,-0.987l0,0.987m63.772,-3.102l-61.551,0m-0.071,2.115l0,-1.199l0.071,-0.917m0,0l-0.106,-0.071l-1.974,-1.974m-0.141,4.16l2.15,0m-16.005,-2.115l0,1.199l0.071,0.917m0,0l2.15,0m-2.221,-2.115l-61.551,0m61.551,0l0.106,-0.071l1.974,-1.974m0,0l-63.631,0m63.772,4.16l-0.141,-4.16m0.141,4.16l11.633,0m0,0l0.141,-4.16m63.631,0l-63.631,0m5.358,-29.471l-3.984,-0.317l-4.442,-0.705l-4.089,-0.176l-5.076,0.776l-5.006,0.458m-0.035,-1.763l22.632,0m0,0l0,1.727m58.273,0l-58.273,0m-22.632,0l-58.273,0m58.273,-1.727l0,1.727m116.475,31.516l-35.57,0m0,0l0,-2.009m-139.178,2.009l-35.57,0m35.57,0l0,-2.009m139.178,-0.035l0,-29.471m33.984,29.471l-34.019,0m-139.143,0l-34.019,0m34.019,-29.471l0,29.471m139.178,-29.471l33.279,0m-205.665,0l33.279,0m183.844,32.644l76.287,0m-381.365,0l76.358,0m0.071,0l0,-1.128m-76.428,1.128l0,-1.128m230.554,-32.433l9.413,0m-274.197,-566.161l-0.846,0.529l-1.41,0.705m452.188,-16.675l1.128,-0.705l1.128,-0.564m-455.326,9.095l-0.494,-0.176l-0.423,-0.317l-0.282,-0.388l-0.212,-0.494l-0.176,-0.987l0.071,-1.022l0.317,-0.987l0.494,-0.811l0.388,-0.353l0.423,-0.247m456.101,5.605l0.494,0.176l0.423,0.317l0.282,0.388l0.212,0.494l0.176,0.987l-0.071,1.022l-0.317,0.987l-0.494,0.811l-0.388,0.353l-0.423,0.247m-459.45,-5.605l-0.458,-0.176l-0.388,-0.317l-0.247,-0.388l-0.176,-0.494l-0.141,-0.917l0.106,-1.058m4.653,3.349l0.564,0.141l0.423,0.141m-0.987,-0.282l-3.349,0m0,0l1.058,0.317l0.881,0.458l0.74,0.705l0.282,0.423l0.141,0.458l0,0.494l-0.071,0.494l-0.458,0.881l-0.635,0.705l-0.881,0.635m4.125,-0.529l-0.423,0.317l-0.353,0.212m455.15,-5.746l-0.564,-0.141l-0.423,-0.141m0.987,0.282l3.349,0m-5.182,-5.041l0.423,-0.317l0.353,-0.212m4.407,5.57l0.458,0.176l0.388,0.317l0.247,0.388l0.176,0.494l0.141,0.917l-0.106,1.058m-1.304,-3.349l-1.058,-0.317l-0.881,-0.458l-0.74,-0.705l-0.282,-0.458l-0.141,-0.458l0,-0.494l0.071,-0.494l0.458,-0.881l0.635,-0.705l0.881,-0.635m-463.223,2.397l0.317,-0.987l0.458,-0.776l0.353,-0.353l0.423,-0.282l0.494,-0.141l0.494,0m173.902,579.698l16.569,0m-186.77,-580.579l-0.317,0.317l-0.388,0.282l-0.952,0.317l-0.987,0.071l-1.093,-0.106m4.301,0.106l-0.141,0m452.188,11.457l0.141,0m-453.175,-0.071l-3.349,0m-0.106,3.314l-0.458,-0.811l-0.212,-0.811l0,-0.494l0.106,-0.458l0.247,-0.423l0.388,-0.317m3.843,4.019l-0.67,-0.67m0,-0.035l-0.458,-0.811l-0.176,-0.846l0,-0.494l0.176,-0.423l0.282,-0.423l0.388,-0.317m454.057,-11.351l3.349,0m0.071,-3.279l0.458,0.811l0.212,0.811l0,0.494l-0.106,0.458l-0.247,0.423l-0.388,0.317m-3.807,-4.019l0.67,0.67m-0.035,0.035l0.458,0.811l0.176,0.846l0,0.494l-0.176,0.423l-0.282,0.423l-0.388,0.317m-451.025,-4.266l0.282,0.317l0.176,0.247m447.606,19.283l-0.282,-0.317l-0.176,-0.282m-450.179,-16.04l-3.878,-2.256m3.067,-0.952l0.599,0.776l0.353,0.776l0.106,0.846l-0.071,0.423l-0.212,0.388m459.45,10.012l-0.317,1.022l-0.458,0.776l-0.353,0.353l-0.423,0.282l-0.494,0.141l-0.494,0m-2.891,4.054l-0.599,-0.776l-0.353,-0.776l-0.106,-0.846l0.071,-0.423l0.212,-0.353l0.317,-0.317l0.423,-0.282l0.952,-0.317l0.987,-0.071l1.093,0.106m-181.129,567.994l50.059,0m-198.65,0l42.973,0m-167.839,-565.139l0.353,0.353m1.939,0l0.141,0l0.494,0.106l0.494,0.247l0.423,0.388l0.353,0.529l0.282,0.599m441.613,-0.599l1.657,-1.022m0.035,-0l0,-0.635m3.807,1.234l0.247,0.388l0.106,0.388l0,0.353l-0.212,0.353l-0.458,0.494l-0.67,0.353m-2.362,-2.327l3.349,0m-3.349,0l0.247,0.388l0.106,0.388l0,0.353l-0.141,0.353l-0.423,0.494l-0.353,0.176m-450.884,-21.998l-0.247,-0.388l-0.106,-0.388l0,-0.353l0.212,-0.353l0.458,-0.494l0.67,-0.353m2.397,2.327l-3.349,0m3.349,0l-0.247,-0.388l-0.106,-0.388l0,-0.353l0.141,-0.353l0.423,-0.494l0.353,-0.176m-3.807,22.104l-0.458,0.212l-0.494,0.071l-0.458,0l-0.458,-0.212l-0.705,-0.423l-0.635,-0.67m3.208,1.022l0.987,-0.494l0.917,-0.317l0.987,-0.141l0.458,0l0.388,0.106l0.282,0.176l0.212,0.247l0.176,0.564l-0.106,0.635l-0.317,0.74m450.567,-21.575l-0.987,0.494l-0.917,0.317l-0.987,0.141l-0.458,0l-0.388,-0.106l-0.282,-0.176l-0.212,-0.247l-0.141,-0.564l0.106,-0.635l0.317,-0.74m3.948,1.516l0.458,-0.212l0.494,-0.071l0.458,0l0.458,0.212l0.705,0.423l0.635,0.67m-438.264,615.303l-87.286,0m-2.291,-2.08l0.176,0.776l0.212,0.388l0.282,0.317l0.705,0.458l0.846,0.141m590.239,0l-87.251,0m87.251,0l0.846,-0.141l0.705,-0.458l0.494,-0.67l0.141,-0.388l0.071,-0.423m-0.035,0l0.599,-20.623l0.458,-16.216m-89.154,36.839l88.062,0m-595.668,-36.839l0.599,20.658l0.458,16.181m-0.035,0l88.062,0m507.676,-36.874l-0.176,-0.776l-0.212,-0.388l-0.282,-0.353l-0.705,-0.458l-0.846,-0.141m2.221,2.15l0,-0.035m0,0l-88.767,0m88.767,0.035l-88.767,0m10.294,-578.887l3.349,0m-1.586,-0.74l0.705,-0.176l0.564,0l0.247,0.141l0.141,0.176l0,0.282l-0.071,0.317m-443.199,23.02l-3.349,0m1.586,0.74l-0.705,0.176l-0.564,0l-0.247,-0.141l-0.141,-0.176l0,-0.282l0.071,-0.317m-75.089,555.832l-0,-0.423l0.176,-0.388l0.494,-0.705l0.705,-0.458l0.846,-0.141m86.475,2.115l-88.767,0m0.071,0.035l0,-0.035m88.696,0.035l-88.767,0m74.243,-558.652l-0.458,-0.529l-0.317,-0.458m1.375,-17.098l1.657,-1.022m-4.089,4.653l0.494,0l0.458,-0.247l0.458,-0.317l0.388,-0.458l0.317,-0.564l0.212,-0.635l0.141,-0.705l0,-0.705m-3.561,9.73l0.247,-3.173l0.846,-2.926m-0.247,10.858l0.212,-0.599l0.106,-0.67l0,-0.705l-0.035,-0.67l-0.176,-0.635l-0.247,-0.564l-0.317,-0.494l-0.388,-0.388m2.15,7.297l-1.304,-2.609m452.294,0.635l-0.846,0.176l-0.776,0.635l-0.564,0.987l-0.282,1.199m3.561,-9.095l-0.247,3.173l-0.846,2.926m0.247,-10.858l-0.212,0.599l-0.106,0.67l0,0.705l0.035,0.67l0.176,0.635l0.247,0.599l0.317,0.494l0.388,0.388m-2.15,-7.368l1.304,2.609m-2.468,-3.878l1.163,1.269m-5.253,-3.279l0.247,0.635l0.353,0.529l0.423,0.423l0.494,0.282l0.494,0.106l0.141,0m-2.82,-0.881l0.212,-0.388l0.317,-0.388l0.317,-0.353l0.388,-0.353l0.67,-0.494l0.74,-0.353m-448.099,0l0.776,-0.176l0.776,0l0.458,0.141l0.458,0.176l0.423,0.282l0.353,0.317m4.019,1.481l0.071,0.494l-0.071,0.317l-0.282,0.141l-0.247,0l-0.317,-0.106l-0.353,-0.176l-0.423,-0.247l-0.846,-0.564l-0.74,-0.635l-0.74,-0.74m449.509,23.796l-0.776,0.176l-0.776,0l-0.458,-0.141l-0.458,-0.176l-0.423,-0.282l-0.353,-0.317m-4.019,-1.481l-0.071,-0.494l0.071,-0.317l0.282,-0.141l0.247,0l0.317,0.106l0.353,0.176l0.423,0.247l0.846,0.564l0.74,0.635l0.74,0.74m-4.054,-21.469l-0.458,0.776l-0.494,0.776l-0.846,1.269l-0.247,0.388m-436.148,-3.314l-0,-0.212l0.106,-0.071l0.176,0l0.247,0.212l0.458,0.423l0.564,0.67m436.748,19.037l0,0.212l-0.106,0.071l-0.176,0l-0.247,-0.212l-0.458,-0.423l-0.564,-0.67m-0.635,-15.723l-0.247,0.317l-0.212,0.282l-0.247,0.317l-0.141,0.071l0,-0.106m0.846,-0.881l0.67,-2.256m-436.677,18.896l-0.212,0.388l-0.317,0.388l-0.317,0.353l-0.388,0.353l-0.67,0.494l-0.74,0.353m2.644,-2.327l0.458,-0.776l0.494,-0.776l0.846,-1.269l0.282,-0.353l0.247,-0.317l0.212,-0.282l0.247,-0.317l0.106,-0.071l0,0.106m0.881,-2.573l-0.212,1.022l-0.247,0.776l-0.141,0.353l-0.106,0.282l-0.071,0.141m1.093,-5.958l0,0.881l-0.035,0.494l-0.106,0.917l-0.176,1.058m-2.362,-12.233l0.529,0.811l0.423,0.811l0.212,0.494l0.176,0.458l0.247,0.74m1.093,5.57l0,-0.776l-0.071,-0.705l-0.141,-0.917l-0.212,-0.987l-0.247,-0.881l-0.212,-0.705l-0.176,-0.635m431.283,2.397l0.212,-0.987l0.247,-0.776l0.141,-0.353l0.106,-0.282l0.071,-0.141m1.586,14.806l-0.529,-0.811l-0.423,-0.811l-0.212,-0.494l-0.176,-0.458l-0.247,-0.74m-1.093,-5.57l0,0.776l0.071,0.705l0.071,0.423l0.071,0.458l0.212,0.987l0.247,0.881l0.212,0.705l0.176,0.635m-1.058,-5.57l0,-0.881l0.035,-0.494l0.106,-0.917l0.176,-1.058m-9.8,-91.869l98.567,0m0.106,0l15.335,26.263m-623.623,-26.263l98.637,0m-98.637,0l-15.335,26.263m529.181,636.208l0,0.035m-7.544,-0.035l7.544,0m-1.445,-2.115l0.282,0l0.282,0.176l0.247,0.212l0.212,0.247l0.176,0.317l0.141,0.353l0.071,0.388l0,0.423m-5.852,-2.115l-1.692,0m-411.789,2.15l0,-0.035m0,0l0,-0.423l0.106,-0.388l0.141,-0.353l0.176,-0.317l0.212,-0.247l0.247,-0.212l0.282,-0.106l0.282,0m-1.445,2.045l7.544,0m0,-2.115l-1.692,0m407.206,0l-1.234,-1.657m3.138,1.657l-1.481,0m-405.937,-1.657l-1.269,1.692m-0.423,-0.035l-1.481,0m-105.089,0l-1.868,-105.159m102.551,105.159l-100.682,0m-8.954,-506.584l-1.798,-100.929m3.067,105.759l-1.022,-2.714l-0.282,-2.115m1.939,10.435l-0.071,-2.08l-0.071,-0.952l-0.071,-0.811l-0.176,-1.128l-0.212,-0.635m0.494,8.848l0.071,-0.67l0,-0.74l0.035,-0.846l0,-0.987m-1.199,29.965l0.212,-14.982l0.846,-11.739m-0.881,36.381l-0.176,-9.659m1.939,15.335l-1.41,-3.173l-0.353,-2.503m1.904,13.255l-0.071,-4.266l-0.071,-3.349m-1.622,1.939l0.564,3.208l1.199,2.503m-0.846,46.358l-0.917,-52.068m0.917,52.597l0,-0.529m-0.776,-43.749l0.458,24.783l0.353,19.495m-0.564,-38.355l-0.141,-3.314l-0.071,-2.609m0.881,45.37l-0.388,-22.104l-0.317,-17.38m1.657,42.268l-0.635,-1.551l-0.317,-1.234m0.106,-44.278l0.458,26.369l0.353,20.729m-0.035,-40.329l-0.458,-3.772l-0.317,-2.961m1.657,56.757l-0.494,-28.026l-0.388,-21.998m-0.881,44.348l0.564,3.173l1.199,2.503m-1.058,34.583l-0.705,-40.259m0.917,50.024l-0.141,-5.464l-0.071,-4.301m1.163,-29.542l-0.811,21.998l-0.141,17.309m1.163,-26.792l-0.141,-7.015l-0.106,-5.499m-0.705,47.204l0.282,-19.46l0.67,-15.264m0.705,39.166l-1.199,-2.468l-0.494,-1.939m1.833,12.797l-0.071,-4.689l-0.071,-3.702m-1.622,2.714l0.599,3.173l1.199,2.503m-1.34,21.328l-0.458,-27.004m1.868,11.034l-1.199,8.919l-0.212,7.015m2.397,40.365l-0.564,-31.551l-0.458,-24.783m0.247,49.989l0.423,3.561l0.353,2.785m-1.41,-42.55l0.353,20.27l0.282,15.934m-1.445,-23.937l0.212,-6.874l0.599,-5.394m-0.529,26.933l-0.247,-14.665m2.397,42.021l-1.622,-15.3l-0.529,-12.056m2.327,37.298l-0.106,-5.57l-0.071,-4.371m-2.009,-17.626l0.811,15.476l1.375,12.127m-1.692,-0.282l-0.494,-27.321m1.128,47.063l-0.176,-6.557l-0.176,-5.499l-0.176,-4.794l-0.106,-2.891m1.727,1.798l-0.74,10.047l-0.317,7.897m1.269,-6.522l-0.106,-6.381l-0.106,-5.041m-0.846,26.968l0.458,-8.707l0.564,-6.839m-0.494,45.441l-0.282,-16.745l-0.247,-13.149m1.904,32.856l-0.881,-1.657l-0.494,-1.304m1.551,11.351l-0.071,-4.689l-0.071,-3.702m-1.551,4.195l0.705,2.362l0.952,1.833m-2.291,-41.422l0.353,20.834l0.282,16.357m-1.093,-56.933l0,1.34l0.106,2.08l0.141,5.147l0.247,11.14m1.199,76.04l-1.692,-95.747m1.904,105.512l-0.141,-5.464l-0.071,-4.301m1.163,-29.542l-0.846,21.998l-0.141,17.309m1.199,-26.792l-0.106,-7.015l-0.106,-5.499m-0.776,47.204l0.317,-19.46l0.705,-15.264m0.67,39.166l-1.199,-2.468l-0.494,-1.939m1.833,12.797l-0.071,-4.689l-0.071,-3.702m-1.657,2.714l0.599,3.173l1.199,2.503m9.272,-247.299l0,4.583m-0.353,-23.091l0.176,10.364l0.141,8.143m8.848,-54.536l-0.776,11.81l-0.811,5.781l-1.058,5.006l-1.375,4.477l-1.622,3.772l-1.727,2.926l-1.763,2.291m9.166,-37.368l0,1.269m2.679,12.056l-1.093,-12.339l-0.529,-3.772l-0.458,-2.08l-0.141,-0.353l-0.071,-0.071l-0.071,0l-0.071,0.035l0,0.141l-0.141,0.458l-0.141,4.618m2.644,36.592l0.317,-2.891l0.106,-4.83l-0.388,-15.476m-11.528,47.063l2.15,-2.679l2.045,-2.82l2.045,-3.349l1.692,-3.314l1.445,-3.596l2.115,-8.073m-23.337,34.618l0.317,18.402l0.247,14.454m0.247,-32.01l-0.458,-0.494l-0.353,-0.388m1.304,29.507l-0.282,-16.04l-0.212,-12.585m1.657,40.858l-0.353,-0.564l-0.247,-0.987l-0.176,-1.375l-0.141,-1.868l-0.247,-7.368m2.221,13.149l-0.599,-0.564l-0.458,-0.423m0.564,-27.532l0.282,15.97l0.212,12.55m1.022,-40.224l-0.458,0.247l-0.388,0.705l-0.282,1.199l-0.212,1.657l-0.176,3.42l-0,4.477m2.08,-11.457l-0.317,-0.176l-0.247,-0.071m2.186,1.375l-0.917,-0.635l-0.705,-0.494m4.83,16.287l-0.282,-5.535l-0.564,-4.336l-0.494,-2.009l-0.564,-1.586l-1.304,-1.727m3.596,36.698l-0.212,-12.056l-0.176,-9.448m-1.692,33.279l0.564,-0.247l0.494,-0.705l0.388,-1.199l0.317,-1.657l0.282,-3.455l0,-4.548m-2.679,11.563l0.353,0.176l0.282,0.071m-5.676,-4.195l2.609,2.221l2.432,1.727m-7.015,-19.213l0.176,5.499l0.317,4.336l0.282,1.974l0.317,1.551l0.881,1.833m3.314,-92.257l0.67,0.952l0.282,0.811l0.247,1.022l0.282,2.291l0.141,2.926m-6.24,-11.598l2.432,2.009l2.221,1.586m-5.711,-10.505l0.564,3.878l0.458,3.032m-0.917,-6.945l-0.141,0m0.564,0.247l-0.247,-0.176l-0.176,-0.071m5.429,4.23l-2.996,-2.221l-2.009,-1.763m8.214,19.142l-0.282,-5.535l-0.564,-4.336l-0.458,-1.939l-0.564,-1.516l-1.34,-1.833m3.561,35.182l-0.212,-11.21l-0.176,-8.813m0.176,27.109l0.176,-3.138l0,-3.913m-1.41,1.657l0.705,3.032l0.564,2.362m-1.269,-7.967l0,2.573m-0.353,-22.562l0.212,11.21l0.141,8.813m-5.429,130.788l-0.423,0.353l-0.388,-0.599m1.657,28.661l-0.247,-6.698l-0.247,-7.474l-0.353,-14.242m19.706,101.669l-0.67,-6.205l-1.058,-5.781l-1.304,-5.041l-1.622,-4.865l-1.304,-3.314l-1.304,-3.032l-1.304,-2.855l-1.234,-2.644l-1.304,-2.891l-1.234,-2.891l-1.058,-2.679l-1.022,-2.855l-0.917,-3.032l-0.846,-3.314l-0.952,-4.83l-0.74,-5.041l-0.564,-5.781l-0.388,-6.205m19.389,103.82l0.106,-10.541l-0.176,-10.082l-0.529,-9.941m-2.009,40.858l0.071,5.817l0.106,4.371l0.071,1.586l0.071,1.234l0.071,0.917l0.071,0.353l0.071,0.247l0,0.106l0.071,0.071l0.071,0l0,-0.071l0.212,-0.529l0.176,-0.952l0.353,-3.208l0.282,-3.525l0.282,-4.16l0.282,-4.759l0.212,-4.266l0.141,-3.525m-19.953,-60.917l1.058,5.464l1.269,4.618l1.586,4.336l1.904,4.125l1.939,3.843l1.939,4.089l1.093,2.644l1.022,2.785l0.952,2.891l1.34,5.147l1.128,5.746l0.776,5.499l0.635,6.063l0.74,13.925m-17.38,-72.656l-0,1.516m-0.458,-27.462l0.247,14.524l0.212,11.422m-1.445,-34.054l0.317,0.952l0.317,1.833l0.247,2.468l0.106,2.82m-1.974,-9.836l0.529,0.987l0.494,0.776m-1.34,-21.116l0.176,10.823l0.141,8.496m0.881,-32.397l-0.776,7.333l-0.458,5.781m1.445,-15.758l-0.071,1.41l-0.106,1.234m0.353,-1.833l-0.106,-0.423l-0.071,-0.388m24.324,-25.664l-2.573,-8.461l-1.516,-3.349l-1.692,-3.138l-3.349,-4.9l-3.243,-3.913m13.326,46.992l-0.212,-15.476l-0.317,-4.83l-0.423,-2.891m-1.269,36.522l0.317,4.618l0.106,0.494l0.071,0.141l0,0.035l0.141,0l0.071,-0.071l0.141,-0.353l0.388,-2.08l0.388,-3.772l0.635,-12.339m-2.327,12.056l0,0.705l0.071,0.564m-15.441,-42.127l1.093,1.128l0.635,0.599l0.388,0.353l0.106,0.106l0.67,0.635l0.635,0.635l0.564,0.599l0.529,0.564l1.727,2.045l1.657,2.432l1.586,3.032l2.186,5.817l1.692,7.051l1.128,7.333l0.776,8.496m-11.739,-53.584l-2.115,7.121l-1.516,5.64m4.301,-18.19l-0.176,2.961l-0.494,2.468m1.692,-263.127l-0.458,-6.24l-0.74,-7.65l-0.705,-6.205l-0.247,-1.727l-0.212,-1.34l-0.176,-0.987l-0.176,-0.635l-0.071,-0.141l0,-0.071l-0.106,0l-0.071,0.071l0,0.141l-0.106,0.423l-0.071,1.445l0,5.711l0.071,2.08l0.071,2.291l0.071,2.538m3.525,40.858l0.141,-9.941l-0.212,-10.118l-0.494,-10.505m-15.264,103.855l0.176,-6.134l0.353,-5.711l0.529,-5.041l0.776,-4.83l0.917,-4.16l1.058,-3.772l1.199,-3.525l1.304,-3.384l1.41,-3.384l1.445,-3.525l1.481,-3.772l1.481,-4.16l1.41,-4.865l1.093,-5.041l0.811,-5.781l0.423,-6.205m-15.723,101.846l-0.141,-14.313l0,-14.242m-0.67,32.644l0.811,-4.054m-1.904,-58.273l0.635,34.9l0.494,27.427m-1.939,-70.047l0.282,1.199l0.247,1.798l0.176,2.221l0.106,2.468m14.101,-84.431l-0.176,13.925l-0.458,7.015l-0.705,6.24l-1.022,5.958l-1.304,5.288l-1.375,4.266l-1.586,4.054l-2.891,6.416l-2.397,6.31l-1.798,7.579l-1.128,9.73m13.995,182.821l-3.138,11.915l-2.115,9.448m5.429,-13.431l-0.071,-4.442l-0.071,-3.49m-4.442,25.84l2.397,-10.047l2.15,-7.861m0.811,42.127l-3.138,-13.502l-2.186,-10.717m5.464,32.891l-0.106,-4.865l-0.071,-3.807m-6.028,-20.517l3.279,16.428l2.926,12.762m-9.8,-7.685l1.798,-12.056l1.763,-9.413m-3.702,13.467l0.071,4.477l0.071,3.525m2.82,-25.84l-1.798,9.977l-1.163,7.861m-0.74,-42.127l1.939,13.643l1.763,10.646m-3.843,-32.785l0.071,4.759l0.071,3.737m4.336,20.447l-2.714,-16.146l-1.798,-12.797m-2.891,0.67l0,0.247l-0.071,0.705l0,3.173l0.071,1.022l0,0.494l0.035,0.423l0,0.282l0.071,0.106m0,0l0,-0.106l0.035,-0.247l0,-3.984l-0.071,-0.599l0,-0.564l-0.106,-0.705l-0.071,-0.247m1.375,-91.869l0.212,11.21l0.141,8.813m-0.247,-27.92l-0.106,3.42l-0,4.477m0.811,-2.609l-0.423,-2.961l-0.317,-2.327m0.74,8.778l0,-3.49m0.353,23.514l-0.212,-11.21l-0.141,-8.813m1.445,27.991l-0.458,-0.952l-0.176,-0.811l-0.141,-1.022l-0.212,-2.397l-0.106,-2.82m5.852,11.81l-2.855,-2.115l-1.904,-1.657m6.205,10.435l-0.811,-3.737l-0.635,-2.926m0.987,6.804l0.247,0l0.212,-0.141m-1.093,-0.106l0.353,0.176l0.282,0.071m-5.64,-4.23l2.609,2.221l2.397,1.727m-7.015,-19.178l0.176,5.499l0.317,4.336l0.282,1.974l0.317,1.551l0.881,1.833m1.833,-24.536l-0.141,0.071l-0.141,0.212l-0.176,0.635l-0.071,0.494l0,0.564l-0.071,1.234l0.071,1.199l0.071,0.564l0.106,0.494l0.176,0.599l0.141,0.247l0.176,0.106m-0.035,0l0.176,-0.106l0.141,-0.212l0.176,-0.599l0.071,-0.494l0.071,-0.564l0,-1.199l-0.035,-1.199l-0.071,-0.564l-0.106,-0.529l-0.176,-0.564l-0.141,-0.247l-0.176,-0.106m-8.038,-73.855m0,0m0,0.071m628.065,437.558l-100.682,0m100.682,0l1.798,-100.929m-1.128,-4.83l0.952,2.714l0.212,2.115m-1.586,-10.4l0,2.08l0.035,0.952l0.071,0.811l0.141,1.128l0.176,0.635m-0.212,-8.884l-0.071,0.67l-0.071,0.74l0,0.846l-0.071,0.987m2.256,-29.965l-0.776,14.982l-1.304,11.739m2.08,-26.722l0.176,-9.659m-1.586,-5.64l1.304,3.173l0.282,2.503m-1.445,-13.29l-0.071,4.266l-0.071,3.349m1.727,-1.904l-0.458,-3.208l-1.128,-2.503m1.586,5.711l0.917,-52.068m0,-0.564l0,0.529m-0.776,43.749l0.458,-24.783l0.353,-19.495m-0.846,38.39l0,5.922m0.705,-45.37l-0.388,22.104l-0.317,17.38m-0.141,-42.303l0.564,1.551l0.282,1.234m-1.692,44.278l0.458,-26.369l0.353,-20.729m-1.34,40.365l0.317,3.772l0.212,2.961m0.353,-56.757l-0.494,28.026l-0.388,21.998m2.468,-44.348l-0.458,-3.173l-1.128,-2.503m1.586,5.676l0.705,-40.259m0.141,-9.765l-0.071,5.464l-0.071,4.301m-2.186,29.542l1.586,-21.963l0.74,-17.344m-2.115,26.792l-0.141,7.015l-0.106,5.499m2.468,-47.239l-0.987,19.46l-1.234,15.229m0.705,-39.131l1.093,2.468l0.423,1.939m-1.375,-12.797l-0.071,4.689l-0.071,3.702m1.727,-2.714l-0.458,-3.173l-1.128,-2.503m1.586,5.676l0.494,-27.004m-1.974,16.005l1.516,-8.919l0.458,-7.015m-0.987,-40.4l-0.564,31.551l-0.458,24.783m1.586,-49.953l-0.282,-3.561l-0.247,-2.785m-0.141,42.55l0.353,-20.27l0.282,-15.934m0.635,23.901l-0.458,6.874l-0.811,5.394m1.269,-12.268l0.247,-14.665m-1.199,-27.356l1.093,15.3l0.106,12.056m-1.022,-37.298l-0.106,5.57l-0.071,4.371m1.375,17.662l-0.247,-15.441l-0.952,-12.127m1.199,27.568l0.494,-27.321m0.035,-19.777l-0.071,6.557l0,13.185m-1.622,-1.798l1.093,-10.047l0.599,-7.897m-1.481,6.557l-0.106,6.381l-0.071,5.006m1.763,-26.933l-0.776,8.707l-0.811,6.839m2.115,-45.441l-0.282,16.745l-0.247,13.149m-0.74,-32.856l0.811,1.657l0.423,1.304m-1.093,-11.351l-0.071,4.689l-0.071,3.702m1.622,-4.195l-0.599,-2.362l-0.881,-1.833m0.846,41.387l0.353,-20.834l0.282,-16.357m-0.881,56.969l0,-8.566l0.212,-11.14m-0.212,19.706l1.692,-95.747m0.106,-9.765l-0.071,5.464l-0.071,4.301m-2.15,29.542l1.586,-21.963l0.74,-17.309m-2.115,26.757l-0.141,7.015l-0.106,5.499m2.432,-47.239l-0.987,19.46l-1.199,15.229m0.705,-39.131l1.093,2.468l0.423,1.939m-1.375,-12.797l-0.071,4.689l-0.071,3.702m1.692,-2.714l-0.458,-3.173l-1.093,-2.503m1.551,5.676l1.868,-105.159m-8.214,437.594m0,0.035m-5.429,-73.784l0.176,-0.106l0.141,-0.247l0.176,-0.599l0.106,-0.494l0.071,-0.564l0.071,-1.199l0,-1.234l-0.071,-0.564l-0.071,-0.494l-0.176,-0.635l-0.141,-0.212l-0.141,-0.071m0,-0.035l-0.176,0.106l-0.141,0.247l-0.176,0.564l-0.106,0.529l-0.071,0.564l-0.071,1.199l0,1.199l0.106,0.564l0.071,0.494l0.176,0.599l0.141,0.212l0.176,0.106m3.349,-10.153l-0.212,11.21l-0.141,8.813m-0.458,-28.026l0.423,0.952l0.141,0.811l0.106,1.022l0.106,2.397l0,2.82m-5.429,-11.774l2.785,2.115l1.868,1.657m-5.852,-10.435l0.705,3.737l0.529,2.926m-0.776,-6.804l-0.247,0l-0.212,0.141m1.058,0.106l-0.353,-0.176l-0.282,-0.071m5.535,4.195l-2.538,-2.221l-2.362,-1.727m6.346,19.178l0,-5.499l-0.141,-4.336l-0.212,-1.974l-0.282,-1.551l-0.353,-1.128l-0.458,-0.705m1.093,35.218l0.212,-11.21l0.141,-8.813m-0.705,27.92l0.247,-3.42l0.141,-4.477m-0.917,2.609l0.317,2.961l0.212,2.327m-0.388,-8.743l-0.141,3.49m5.464,-94.478l0,-0.106l0.071,-0.282l0,-0.423l0.071,-0.494l0,-1.022l0.071,-0.881l0,-2.996l-0.071,-0.247m-0.035,-0l-0.071,0.247l-0.071,0.705l-0.071,1.022l0,1.269l-0.035,1.022l0,1.833l0.035,0.247l0,0.106m-6.98,-32.75l-2.75,10.082l-2.432,7.826m0.776,-42.127l2.609,13.537l1.798,10.717m-4.23,-32.961l-0.106,4.865l-0.071,3.807m5.288,20.517l-2.679,-16.393l-2.432,-12.797m9.413,7.685l-2.221,12.092l-2.08,9.413m4.16,-13.502l0.071,-4.477l0.071,-3.525m-3.702,25.84l2.15,-9.977l1.445,-7.861m-0.776,42.127l-1.445,-13.643l-1.375,-10.646m2.644,32.785l0.071,-4.759l0.071,-3.737m-3.561,-20.447l2.115,16.181l1.304,12.762m-9.448,-7.544l3.561,-11.915l2.468,-9.448m-5.887,13.431l-0.071,4.442l-0.071,3.49m-10.541,259.567l0.74,-13.96l0.74,-7.015l0.987,-6.275l1.304,-5.958l1.516,-5.288l1.551,-4.23l1.798,-4.054l3.173,-6.416l2.679,-6.31l2.08,-7.579l1.516,-9.73m-20.693,66.522l0.247,6.24l0.458,7.685l0.494,6.205l0.176,1.763l0.176,1.375l0.141,0.987l0.141,0.564l0,0.106l0.106,0.071l0.106,-0.035l0,-0.106l0.071,-0.141l0.071,-0.423l0.141,-1.445l0.106,-2.256l0,-1.586l0.106,-1.833l0,-2.045l0.071,-2.291l0,-2.538m-2.045,-40.858l-0.529,9.941l-0.176,10.153l0.106,10.505m19.46,-103.855l-0.388,6.169l-0.564,5.746l-0.74,5.041l-0.952,4.83l-1.093,4.16l-1.199,3.772l-1.34,3.525l-1.445,3.384l-1.551,3.384l-1.622,3.49l-1.657,3.772l-1.657,4.125l-1.622,4.83l-1.304,5.006l-1.058,5.781l-0.67,6.205m19.742,-101.81l-0.353,14.313l-0.247,7.509l-0.247,6.733m1.798,-32.609l-0.987,4.054m-0.106,58.273l0.635,-34.9l0.494,-27.427m-0.599,70.012l-0.247,-1.199l-0.176,-1.798l-0.106,-2.221l0,-2.468m-4.442,-201.717l-1.022,-1.128l-0.599,-0.599l-0.388,-0.353l-1.34,-1.34l-0.564,-0.599l-0.494,-0.564l-1.622,-2.045l-1.551,-2.432l-1.481,-3.032l-1.939,-5.852l-1.41,-7.051l-0.846,-7.297l-0.458,-8.496m9.624,53.549l2.362,-7.121l1.727,-5.64m-4.971,18.155l0.282,-2.961l0.599,-2.468m-12.268,-18.331l2.256,8.461l1.375,3.349l1.586,3.138l3.138,4.9l3.067,3.913m-11.492,-46.992l-0.388,15.476l0.106,4.83l0.317,2.891m2.679,-36.522l-0.141,-4.618l-0.071,-0.458l0,-0.141l-0.071,-0.035l-0.071,0l-0.106,0.071l-0.141,0.353l-0.458,2.08l-0.529,3.772l-1.093,12.339m2.679,-12.056l0,-1.269m22.209,10.047l0.106,0.423l0.071,0.388m-0.952,-1.058l0.423,-0.353l0.388,0.599m-0.67,-28.625l0,14.172l-0.141,14.242m-15.688,-101.704l0.423,6.205l0.811,5.781l1.093,5.041l1.41,4.865l1.058,3.067l1.234,3.173l1.199,2.961l1.093,2.644l1.199,2.891l1.128,2.891l0.952,2.679l0.917,2.961l0.811,3.173l0.67,3.067l0.529,3.208l0.423,3.279l0.317,3.384l0.353,5.746l0.176,6.169m-15.194,-103.749l-0.494,10.541l-0.212,10.082l0.141,9.941m3.49,-40.858l0.141,-5.817l0.071,-4.371l0,-1.586l-0.035,-1.234l0,-0.917l-0.106,-0.353l0,-0.247l-0.071,-0.106l0,-0.071l-0.071,0l0,0.035l-0.106,0.071l-0.176,0.529l-0.176,0.952l-0.458,3.173l-0.423,3.525l-0.423,4.16l-0.458,4.724l-0.353,4.266l-0.247,3.525m17.239,60.987l-0.846,-5.464l-1.058,-4.618l-1.41,-4.336l-1.727,-4.125l-1.763,-3.878l-1.763,-4.089l-0.987,-2.644l-0.917,-2.785l-0.811,-2.926l-1.128,-5.147l-0.881,-5.781l-0.564,-5.464l-0.388,-6.063l-0.176,-13.925m14.383,72.727l0,-0.846l0.035,-0.635m-0.529,27.427l0.247,-14.524l0.212,-11.422m0.247,34.019l-0.282,-0.952l-0.247,-1.833l-0.141,-2.468l0,-2.82m1.586,9.871l-0.458,-0.987l-0.458,-0.776m0.564,21.081l0.176,-10.823l0.141,-8.496m-1.974,32.433l1.022,-7.333l0.635,-5.781m-1.939,15.758l0.141,-1.445l0.141,-1.199m-11.81,152.398l0.212,-11.21l0.176,-8.813m0.952,28.026l-0.67,-0.952l-0.247,-0.811l-0.212,-1.022l-0.212,-2.291l0,-2.926m5.887,11.563l-2.362,-2.009l-2.15,-1.586m5.323,10.505l-0.458,-3.878l-0.388,-3.032m0.705,6.945l0.141,0m-0.529,-0.247l0.247,0.176l0.176,0.071m-5.358,-4.195l2.961,2.221l1.939,1.763m-7.544,-19.178l0.071,5.535l0.423,4.336l0.388,1.939l0.494,1.516l1.269,1.833m-2.291,-35.147l-0.212,11.21l-0.176,8.813m0.846,-27.109l-0.317,3.138l-0.176,3.913m1.586,-1.657l-0.599,-3.032l-0.458,-2.362m0.917,7.932l0,-1.445l0.106,-1.128m8.989,-46.499l0,-5.499l-0.176,-4.336l-0.212,-1.974l-0.282,-1.551l-0.353,-1.128l-0.458,-0.705m0.881,48.05l0.317,-18.402l0.247,-14.454m-1.304,31.974l0.423,0.494l0.317,0.388m-0.247,-29.507l-0.282,16.04l-0.212,12.585m-0.247,-40.823l0.317,0.564l0.212,0.987l0.141,1.375l0.071,1.868l0,7.368m-1.763,-13.149l0.599,0.564l0.458,0.423m-1.551,27.497l0.282,-15.97l0.212,-12.55m-2.468,40.224l0.494,-0.247l0.423,-0.705l0.353,-1.199l0.282,-1.657l0.282,-3.42l0.141,-4.512m-2.503,11.492l0.317,0.176l0.247,0.071m-2.186,-1.34l0.917,0.635l0.67,0.494m-4.23,-16.322l0.071,5.535l0.423,4.336l0.423,2.009l0.529,1.586l1.234,1.727m-2.291,-36.698l-0.212,12.056l-0.176,9.448m2.926,-33.279l-0.599,0.247l-0.529,0.705l-0.458,1.199l-0.353,1.657l-0.388,3.455l-0.212,4.548m3.138,-11.563l-0.353,-0.176l-0.282,-0.071m5.535,4.23l-2.538,-2.221l-2.362,-1.727m-17.767,123.209l0,-0.705l0.071,-0.564m-2.291,-12.056l0.635,12.339l0.388,3.772l0.388,2.08l0.141,0.317l0.071,0.071l0.071,0l0.071,-0.071l0.071,-0.141l0.106,-0.494l0.317,-4.618m-1.304,-36.451l-0.423,2.891l-0.317,4.83l-0.212,15.476m13.431,-47.063l-2.256,2.679l-2.186,2.855l-2.186,3.349l-1.798,3.314l-1.586,3.596l-2.432,8.073m12.268,-19.283l0.071,-2.573l0.106,-2.009m-0.529,23.055l0.176,-10.364l0.141,-8.143m-10.928,54.571l1.234,-11.845l1.058,-5.781l1.269,-5.006l1.551,-4.477l1.798,-3.772l1.868,-2.926l1.868,-2.291m-620.415,-365.255l-0.635,-17.626m0.635,17.626l104.243,0m433.857,0l104.243,0m-0.071,0l0.635,-17.626m0,0l-104.348,0m104.348,0l0,-1.163l-0.071,-1.163l-0.176,-1.163l-0.247,-1.128l-0.317,-1.128l-0.423,-1.093l-0.494,-1.058l-0.564,-1.022m-103.643,-0.035l103.679,0m-641.285,8.954l0,-1.163l0.071,-1.163l0.176,-1.163l0.247,-1.128l0.317,-1.128l0.388,-1.093l0.494,-1.058l0.564,-1.022m102.128,8.919l-104.384,0m2.291,-8.954l103.643,0m0.564,72.163l0.247,-1.622l0.071,-1.657l-0.071,-1.657l-0.247,-1.622l-0.388,-1.586l-0.529,-1.481l-0.67,-1.375l-0.776,-1.234m-4.054,21.187l1.128,-0.529l1.058,-0.74l0.987,-0.917l0.881,-1.093l0.776,-1.234l0.67,-1.375l0.529,-1.481l0.388,-1.586m-15.194,5.676l0.881,1.093l0.987,0.917l1.058,0.74l1.128,0.529l1.163,0.317l1.199,0.106l1.199,-0.106l1.163,-0.317m-11.14,-15.547l-0.247,1.622l-0.071,1.657l0.071,1.657l0.247,1.622l0.388,1.586l0.529,1.481l0.67,1.375l0.776,1.234m0,-17.908l-0.423,0.599l-0.388,0.635l-0.353,0.67l-0.317,0.705l-0.282,0.74l-0.247,0.74l-0.212,0.776l-0.176,0.811m6.451,-8.954l-0.564,0.247l-0.564,0.282l-0.529,0.353l-0.529,0.388l-0.494,0.423l-0.494,0.494l-0.458,0.529l-0.423,0.564m12.832,-0l-0.881,-1.093l-0.987,-0.917l-1.058,-0.74l-1.128,-0.529l-1.163,-0.317l-1.199,-0.106l-1.199,0.106l-1.163,0.317m459.239,15.547l0.247,-1.622l0.071,-1.657l-0.071,-1.657l-0.247,-1.622l-0.388,-1.586l-0.529,-1.481l-0.67,-1.375l-0.776,-1.234m-4.054,21.187l1.128,-0.529l1.058,-0.74l0.987,-0.917l0.881,-1.093l0.776,-1.234l0.67,-1.375l0.529,-1.481l0.388,-1.586m-15.194,5.676l0.881,1.093l0.987,0.917l1.058,0.74l1.128,0.529l1.163,0.317l1.199,0.106l1.199,-0.106l1.163,-0.317m-11.14,-15.547l-0.247,1.622l-0.071,1.657l0.071,1.657l0.247,1.622l0.388,1.586l0.529,1.481l0.67,1.375l0.776,1.234m-0,-17.908l-0.388,0.599l-0.388,0.635l-0.353,0.67l-0.317,0.705l-0.282,0.74l-0.247,0.74l-0.212,0.776l-0.176,0.811m6.416,-8.954l-0.564,0.247l-0.564,0.282l-0.529,0.353l-0.529,0.388l-0.494,0.423l-0.494,0.494l-0.458,0.529l-0.423,0.564m12.832,-0l-0.881,-1.093l-0.987,-0.917l-1.058,-0.74l-1.128,-0.529l-1.163,-0.317l-1.199,-0.106l-1.199,0.106l-1.163,0.317m-120.424,584.986l0.317,0l0.282,0.141l0.282,0.176l0.247,0.247l0.212,0.317l0.141,0.353l0.106,0.388l0,0.388m-204.079,-2.009l-0.317,0l-0.282,0.141l-0.282,0.176l-0.247,0.247l-0.212,0.317l-0.141,0.353l-0.106,0.388l0,0.388m278.392,-2.009l0.282,0l0.282,0.141l0.282,0.176l0.247,0.247l0.212,0.317l0.141,0.353l0.106,0.388l0,0.388m-1.445,-2.009l0.317,0l0.282,0.141l0.282,0.176l0.247,0.247l0.212,0.317l0.176,0.353l0.106,0.388l0.071,0.388m-352.916,-2.009l-0.317,0l-0.282,0.141l-0.247,0.176l-0.247,0.247l-0.212,0.317l-0.141,0.353l-0.106,0.388l0,0.388m-29.154,-574.763l-0.388,5.147l-1.163,4.935l-1.868,4.512l-2.503,3.843l-2.996,3.067l-3.384,2.115l-3.631,1.093l-3.737,0l-3.631,-1.093l-3.384,-2.115l-2.996,-3.067l-2.503,-3.843l-1.868,-4.512l-1.163,-4.935l-0.388,-5.147m-3.314,0l0.67,6.839l1.904,6.91l2.926,5.781l3.843,4.477l4.794,2.926l4.865,0.881l4.794,-0.881l5.182,-3.032m458.04,-23.901l-0.388,5.147l-1.163,4.935l-1.868,4.512l-2.503,3.843l-2.996,3.067l-3.384,2.115l-3.631,1.093l-3.702,0l-3.631,-1.093l-3.384,-2.115l-2.996,-3.067l-2.503,-3.843l-1.868,-4.512l-1.163,-4.935l-0.388,-5.147m9.871,23.937l5.182,3.032l4.759,0.881l4.724,-0.846l4.935,-2.961l3.878,-4.477l2.926,-5.781l1.904,-6.91l0.705,-6.839m-486.983,-0.035l-3.314,0m3.314,0l0.388,-5.147l1.163,-4.935l1.868,-4.512l2.503,-3.843l2.996,-3.067l3.384,-2.115l3.631,-1.093l3.737,0l3.631,1.093l3.384,2.115l2.996,3.067l2.503,3.843l1.868,4.512l1.163,4.935l0.388,5.147m-10.541,-24.853l-4.971,-2.961l-5.253,-0.987l-5.112,1.058l-4.583,2.996l-3.737,4.689l-2.714,5.958l-1.657,7.227l-0.353,6.874m451.413,0l0.388,-5.147l1.163,-4.935l1.868,-4.512l2.503,-3.843l2.996,-3.067l3.384,-2.115l3.631,-1.093l3.702,0l3.631,1.093l3.384,2.115l2.996,3.067l2.503,3.843l1.868,4.512l1.163,4.935l0.388,5.147m-0,0l3.314,0m0,0l-0.353,-6.874l-1.657,-7.227l-2.714,-5.958l-3.737,-4.689l-4.583,-2.996l-5.112,-1.058l-5.253,0.987l-5.006,2.961m-111.575,631.167l-0.317,0l-0.282,-0.141l-0.282,-0.176l-0.247,-0.247l-0.212,-0.317l-0.141,-0.353l-0.106,-0.388l0,-0.388m81.928,2.009l-80.341,0m-210.319,0l-80.341,0m80.341,0l0.317,0l0.282,-0.141l0.282,-0.176l0.247,-0.247l0.212,-0.317l0.141,-0.353l0.106,-0.388l0,-0.388m311.353,2.009l-22.28,0m23.725,-2.08l0,0.423l-0.106,0.388l-0.141,0.353l-0.176,0.317l-0.212,0.247l-0.247,0.176l-0.282,0.106l-0.282,0m-415.561,0.071l-0.282,0l-0.282,-0.176l-0.247,-0.176l-0.212,-0.247l-0.176,-0.317l-0.141,-0.353l-0.071,-0.388l0,-0.423m23.69,2.08l-22.28,0m394.726,-2.08l0,0.423l-0.106,0.388l-0.141,0.353l-0.176,0.317l-0.212,0.247l-0.247,0.176l-0.282,0.106l-0.282,0m0,0.071l-0.282,0l-0.282,-0.141l-0.282,-0.176l-0.247,-0.247l-0.212,-0.317l-0.141,-0.353l-0.106,-0.388l0,-0.388m-367.864,-0.035l-0,0.388l-0.141,0.388l-0.141,0.353l-0.212,0.317l-0.247,0.247l-0.282,0.176l-0.282,0.106l-0.317,0m0.035,0.071l-0.282,0l-0.282,-0.176l-0.247,-0.176l-0.212,-0.247l-0.176,-0.317l-0.141,-0.353l-0.071,-0.388l0,-0.423m84.113,-29.436l-74.313,0m-0.035,0l-1.234,-0.388l-0.811,-0.846m75.617,30.705l-80.341,0m80.341,0l0.776,-29.471m205.595,0l0.776,29.471m80.377,0l-80.341,0m75.547,-30.705l-0.917,0.917l-0.881,0.317m-0.035,0l-0.176,0m0,0l-74.313,0m-301.059,-120.53l0.776,-1.234l2.468,-2.362l2.186,-1.163l3.102,-0.564m373.116,118.168l0.529,37.157m0,0l1.551,0m-0.529,-37.157l0.529,37.157m0,0l1.445,0m-370.86,0l-2.291,0l-0.705,-0.035m3.49,-37.121l-0.529,37.157m363.104,-30.705l-0.141,-0.176l-0.353,-0.353l-0.212,-0.176l-0.423,-0.282l-0.212,-0.106l-0.247,-0.106m5.852,-5.253l-4.266,6.451m-1.586,-1.199l-0.141,0l-0.141,-0.106l-0.141,0l-0.141,-0.071l-0.141,0l-0.141,-0.035l-0.212,0m1.058,0.212l5.958,-9.025m-369.943,3.737l3.032,0m366.242,-4.477l0.212,0l0.176,0.176l0.282,0.564m-0,0l0.141,1.622l-0.282,2.15m1.586,0l-1.551,0m2.996,-0.035l-1.445,0m-368.392,0.035l-0.247,-1.727l0,-1.445l0.317,-0.987l0.247,-0.247l0.141,-0.071l0.141,0m3.666,10.928l-4.266,-6.451m4.266,6.451l0.247,-0.282l0.282,-0.282l0.317,-0.247l0.353,-0.212l0.353,-0.176l0.353,-0.141l0.353,-0.071l0.317,0m255.231,0.599l96.91,0m0,0l0.106,0m0,0l0.494,-0.176l0.423,-0.423m-352.141,0.599l96.91,0m-97.897,-0.599l0.212,0.282l0.247,0.176l0.529,0.141m250.683,0l3.525,0m1.022,-0.599l-0.212,0.282l-0.247,0.176l-0.282,0.106l-0.282,0m-157.298,0.035l-0.282,0l-0.282,-0.176l-0.247,-0.176l-0.212,-0.282m1.022,0.635l3.49,0m0.035,-0.599l0,0.599m0,0l150.248,0m0,-0.599l0,0.599m4.548,-0.599l96.875,0m0,0l6.275,-9.518m-365.678,-0.035l6.275,9.518m0.035,0.035l96.875,0m165.865,-9.554l96.663,0m0.423,-1.445l0,0.635l-0.282,0.705l-0.106,0.141m-366.171,-1.481l0,0.635l0.282,0.705l0.106,0.141m0.035,-0.035l96.663,0m275.889,-113.585l-102.304,0m99.554,155.218l22.28,0m0.458,-36.839l-0.458,36.839m0.458,-36.839l-7.544,0m0,0l-0.106,-101.881m0,-0.035l-1.093,-6.839l-3.42,-5.958l-3.807,-2.82l-4.019,-0.881m-103.079,112.175l96.663,0m0,0l0.846,0.212l0.846,0.705l0.705,1.199l0.564,1.833l0.212,1.939m-0.035,0.035l0.529,37.157m-376.642,-155.218l-4.371,1.058m0.035,-0.035l-2.256,1.516l-1.974,2.08m-0.035,0l-1.622,2.573l-1.199,2.961m0.035,-0.035l-0.952,6.346m0,0l-0.106,101.881m0,0.035l-7.544,0m0.458,36.839l-0.423,-36.839m22.703,36.839l-22.28,0m22.28,0l0.529,-37.157m0,0l0.317,-2.468l0.881,-2.115l0.635,-0.74l0.67,-0.423l0.67,-0.141m-0.035,-0.035l96.663,0m161.74,10.999l4.548,0m6.522,-9.554l-6.522,9.518m-154.795,0.035l150.248,0m0,0l0,-9.518m-154.795,9.518l-6.522,-9.518m6.522,9.518l4.548,0m0,0l0,-9.518m150.248,-0.035l11.069,0m0.423,-1.445l0,0.388l-0.106,0.388l-0.141,0.353l-0.176,0.317m-172.386,-0l-0.176,-0.317l-0.141,-0.353l-0.071,-0.388l0,-0.388m0.388,1.445l11.069,0m0,0l0,-1.445m0,1.445l150.248,0m0,0l0,-1.445m12.268,-112.139l-0.776,112.175m0.776,-112.175l-11.316,0m-0.952,112.139l11.492,0m-173.233,0l-0.776,-112.175m0.776,112.175l11.492,0m151.023,-112.139l-0.776,112.175m-150.248,-0.035l-0.776,-112.175m0.776,112.175l150.283,0m-31.974,-132.515l0,-3.067m0,0l-4.971,-1.058m0,0l0,3.102m0,0.035l0.141,1.41l0.423,1.093l0.388,0.494l0.494,0.353l0.599,0.212l0.705,0.071m-0,0.035l0.952,-0.176l0.388,-0.212l0.317,-0.282l0.247,-0.388l0.176,-0.458l0.141,-1.163m-8.284,-25.206l-2.291,0.353l-1.022,0.564l-0.74,0.811l-0.423,0.987l-0.141,1.199m0,-0.035l0.141,1.163l0.388,1.058l0.564,0.881l0.776,0.776l2.15,1.199l4.512,0.776m-0.071,0l2.538,-0.423l0.917,-0.529l0.67,-0.705l0.423,-0.987l0.141,-1.163m-0,0l-0.141,-1.128l-0.423,-1.058l-1.375,-1.622l-2.115,-1.234l-4.477,-0.846m-4.618,-29.965l0.141,1.163l0.388,1.058l0.564,0.881l0.776,0.776l2.15,1.199l4.512,0.776m-3.913,-9.73l-2.291,0.353l-1.022,0.564l-0.74,0.811l-0.423,0.987l-0.141,1.199m8.461,5.817l2.538,-0.423l0.917,-0.529l0.67,-0.705l0.423,-0.987l0.141,-1.163m-0,0l-0.141,-1.128l-0.423,-1.058l-1.375,-1.622l-2.115,-1.234l-4.477,-0.846m8.284,-62.644l0,-2.362m0,0l-12.621,-2.644m-0.035,0l0,2.891m0,0l0.141,1.445l0.388,1.304l0.705,1.199l1.022,0.987l1.163,0.705l1.375,0.494l2.82,0.353m0.035,0.071l2.045,-0.247l1.551,-0.776l0.635,-0.67l0.458,-0.846l0.317,-1.904m-4.407,-32.538l0.106,1.269l0.388,0.987l0.353,0.458l0.458,0.317l0.529,0.212l0.635,0.071m2.009,-2.503l0,-3.102m0,0l-4.512,-0.952m0.035,-0l0,3.243m2.432,3.279l0.881,-0.141l0.353,-0.176l0.282,-0.282l0.212,-0.353l0.141,-0.423l0.141,-1.093m-248.709,-370.402l-10.364,26.263m10.364,-26.263l121.975,0m299.332,26.263l-10.364,-26.263m-121.975,-0l121.975,0m-169.672,368.745l0,-2.996m0,0l-5.323,-1.093m0,-0.035l0,3.666m0,0l0.176,1.375l0.494,1.093l0.423,0.494l0.564,0.353l0.599,0.212l0.67,0.071m-0.035,-0.035l0.564,0l0.494,-0.176l0.423,-0.247l0.353,-0.353l0.247,-0.423l0.176,-0.529l0.141,-1.375m-2.573,-26.475l-1.269,0.106l-0.917,0.353l-0.317,0.247l-0.247,0.317l-0.176,0.353l-0.071,0.423l0,0.176m0,0l0.106,0.635l0.388,0.74l0.705,0.705l1.022,0.635l3.631,1.199l3.807,0.423m-0,-0.035l1.199,-0.106l0.881,-0.353l0.317,-0.247l0.247,-0.317l0.141,-0.388l0.071,-0.423l0,-0.141m0,-0.035l-0.106,-0.67l-0.388,-0.74l-0.67,-0.67l-0.987,-0.635l-3.596,-1.199l-3.772,-0.388m-2.996,-12.973l0.071,0.67l0.176,0.564l0.282,0.494l0.952,0.811l1.058,0.423l1.269,0.141m-0.952,-5.429l-1.269,0.176l-0.529,0.247l-0.423,0.317l-0.353,0.423l-0.212,0.529l-0.071,0.599m3.807,3.102l1.234,-0.212l0.458,-0.247l0.388,-0.353l0.282,-0.458l0.176,-0.599l0,-0.529m0.035,0.035l-0.071,-0.599l-0.141,-0.564l-0.282,-0.494l-0.353,-0.423l-0.458,-0.353l-1.058,-0.423l-1.163,-0.141m169.073,329.121l3.138,4.301m4.442,-0.035l-4.407,0m4.407,0l6.451,-541.308m-9.871,-23.937l0.811,7.826l2.503,7.403l2.996,4.935l3.631,3.807m0.529,-48.825l-4.759,5.217l-3.561,7.051l-1.622,6.275l-0.529,6.346m10.47,-24.889l0.212,-17.38m-422.259,607.477l-4.407,0m4.407,0l3.173,-4.301m0.106,-95.465l-0.106,95.465m0.106,-95.465l0.881,-6.099l1.163,-2.996l1.586,-2.609l1.939,-2.115l2.221,-1.551l4.548,-1.163m102.304,0.071l-102.304,-0m-27.074,-473.869l-0.212,-17.38m10.717,42.233l-0.881,-8.108l-2.644,-7.72l-3.173,-5.147l-3.807,-3.948m0.599,48.86l4.512,-5.041l3.349,-6.733l1.551,-6.028l0.494,-6.134m-3.455,565.244l-6.451,-541.308m-1.234,-83.831l0.423,17.626m0,0l126.205,0m308.145,-17.626l-0.423,17.626m-126.205,0l126.205,0m-434.35,-18.19l0,0.564m126.381,-0l-126.381,0m126.381,-0.564l-126.381,0m1.551,-8.39l126.381,0m-126.381,0l-0.353,0.952l-0.317,0.987l-0.247,1.022l-0.212,1.058l-0.176,1.058l-0.106,1.093l-0.071,1.093l0,1.093m434.703,0.035l0,0.564m0,-0l-126.381,0m126.381,-0.564l-126.381,0m124.83,-8.39l0.353,0.952l0.317,0.987l0.247,1.022l0.212,1.058l0.176,1.058l0.141,1.093l0.071,1.093l0,1.093m-127.862,-8.355l126.381,0m-172.527,213.703l-8.249,-4.089m0,-0l0,4.9m0,0l5.147,-0.529l3.102,-0.247m-2.362,-15.018l0.952,-0.176l0.388,-0.212l0.317,-0.282l0.247,-0.388l0.176,-0.458l0.141,-1.163m0,0l0,-3.067m0,0l-4.971,-1.058m0,0.035l0,3.138m0,-0.035l0.141,1.41l0.423,1.093l0.388,0.494l0.494,0.353l0.599,0.212l0.705,0.071m-114.537,-224.948l147.11,0m5.993,26.263l-5.958,-26.263m9.906,-0l5.958,26.263m-15.899,-26.263l9.941,0m-172.951,26.263l5.958,-26.263m9.941,-0l-5.958,26.263m-3.984,-26.263l9.941,0m79.178,149.296l0,-8.39m-4.301,8.39l0.071,0.74l0.176,0.458m-0.035,0l0.176,0.212l0.247,0.141l0.317,0.071l0.388,0m-0.071,0.071l1.727,0m0,0l0.388,0l0.317,-0.106l0.247,-0.141l0.176,-0.212m-0.035,-0.035l0.176,-0.458l0.071,-0.74m-0.035,-8.39l-4.301,0m0,0l0,8.39m-41.105,-28.202l1.022,7.756l2.644,7.403l3.42,5.852l4.442,5.358m-0.035,0l1.41,1.41l6.275,4.935l6.945,3.525l6.733,1.974l7.192,0.811m0,0.035l1.622,0l7.967,-0.74l7.474,-2.256l6.451,-3.384l5.922,-4.618m0,-0.035l0.74,-0.705l5.253,-6.063l3.843,-6.698l2.397,-7.333l0.952,-7.897m-0.035,0.035l-0.564,-8.284l-2.186,-7.72l-3.737,-7.086l-5.288,-6.451m0,0l0,-0.035l-6.451,-5.358l-7.086,-3.843l-7.791,-2.327l-8.179,-0.776m-0,0l-0.176,0l-8.249,0.846l-7.861,2.468l-7.192,4.019l-6.24,5.358l-5.006,6.451l-3.702,7.333l-2.221,7.861l-0.74,8.179m48.226,-20.975l-10.893,4.336m0,0l10.893,3.878m0,0.035l0,3.314m0,0l-16.252,-6.169m0,0l0,-2.503m0,-0.035l11.246,-4.407m0,0l-11.246,-4.477m0,0l0,-2.573m0,0l16.252,-6.169m0,-0.035l0,3.843m0,0.035l-10.893,4.054m0,0l10.893,4.266m0,-0l0,2.609m-13.185,28.026l3.49,0m0,0l-0.776,3.737m0,-0.035l-1.939,0m0,0l-1.904,-0.212l-0.67,-0.282l-0.494,-0.388m0.035,0.035l-0.353,-0.529l-0.247,-0.705l-0.212,-1.904m-0,0l0,-9.589m0,0.035l0.212,-1.904l0.247,-0.705l0.353,-0.529m0,0l0.494,-0.388l0.67,-0.282l1.904,-0.212m-0.035,0.035l8.566,0m-0,0l1.904,0.212l0.67,0.282l0.494,0.388m0,-0.035l0.353,0.529l0.247,0.705l0.212,1.904m-0.035,0l0,9.589m0,-0.035l-0.353,2.327l-0.423,0.74l-0.282,0.282l-0.317,0.212m0.035,-0l-0.529,0.176l-0.846,0.141l-2.644,0.106m0,0l-0.599,-3.737m0,0.035l3.102,0m-0.035,0l0,-10.082m0,0l-10.294,0m0,0l0,10.082m13.185,9.095l0,13.749m0,0l-0.212,1.586l-0.247,0.635l-0.353,0.494l-0.458,0.388l-0.529,0.282l-1.375,0.212m0.035,-0l-3.631,0m0,0l-1.375,-0.212l-0.529,-0.282l-0.458,-0.388l-0.353,-0.494l-0.247,-0.635l-0.212,-1.586m0.035,0l0,-10.082m0,0l-6.346,0m0,0l0,-3.666m0,0l16.252,0m-84.29,406.888l-1.34,0m-10.153,0l-3.384,-491.249m13.502,491.249l-10.118,0m178.133,-491.284l-3.384,491.249m-11.281,0.035l-0.176,0m-155.183,-491.284l3.384,491.249m137.662,0.035l-137.698,0m151.834,0l-14.101,0m14.101,0l3.384,-491.249m-51.822,141.893l18.79,3.913m0,0.035l0,3.737m0,0l-8.39,-1.763m-0,0l1.481,1.481l2.714,2.891l4.195,4.407m0,0.035l0,4.653m0,0l-8.002,-8.848m-0,0l-10.787,5.288m0,0l0,-4.195m0,0l8.531,-3.984m0,0l-1.974,-2.538m0,0l-6.557,-1.34m-0,0l0,-3.772m0,52.774l18.79,3.913m0,0.035l0,3.737m0,0l-8.39,-1.763m-0,0l1.481,1.481l2.714,2.891l4.195,4.407m0,0.035l0,4.653m0,0l-8.002,-8.848m-0,0l-10.787,5.288m0,0l0,-4.195m0,0.035l8.531,-3.984m0,-0.035l-1.974,-2.538m0,0l-6.557,-1.34m-0,0l0,-3.772m0,-2.221l0,-3.807m0,-0.035l4.442,-0.564m0,0l0,-6.522m0,0l-4.442,-2.291m0,0l0,-3.984m0,0l18.79,9.977m0,0l0,4.794m0,-0l-18.79,2.397m-0,39.201l0,-3.561m0,-0.035l18.79,3.948m0,0l0,4.865m0,0l-7.156,2.115l-4.583,1.269l-2.644,0.599m0.035,-0.035l0,0.035m0,0l8.566,1.622m0,0.035l5.781,1.199m0,0l0,3.561m0,0l-18.79,-3.913m-0,-0.035l0,-4.618m0,0l10.082,-2.82l3.102,-0.811l1.833,-0.388m0,0l0,-0.035m0,0l-4.548,-0.846l-1.692,-0.353l-2.855,-0.599m0,0.035l-5.922,-1.234m18.79,40.153l-9.166,-7.72m-0,-0.035l-9.624,4.125m0,0.035l0,-4.054m0,0l6.663,-2.75m0,0l-6.663,-5.288m0,-0.035l0,-4.266m0,0.035l9.659,8.002m0,0l9.13,-3.984m0,0l0,4.019m0,0.035l-6.31,2.609m0,0l6.31,5.112m0,0l0,4.16m-7.544,153.702l-3.737,-0.458l-3.243,-1.375l-2.714,-2.432l-1.516,-3.279l-0.317,-2.679m0,0l0,-0.917l0.423,-1.833l0.776,-1.586l1.199,-1.34l1.586,-0.952l1.692,-0.529l1.904,-0.176m-0,0l3.666,0.494l3.384,1.41l2.82,2.468l1.586,3.208l0.317,2.503m0,0l-0.071,1.128l-0.423,1.868l-0.811,1.586l-1.234,1.304l-1.657,0.952l-3.631,0.67m-4.83,-155.042l3.948,0.458l3.737,1.375l1.727,1.199l1.269,1.41l0.811,1.763l0.282,2.009m0,0l-0.282,2.115l-0.811,1.657l-0.705,0.705l-0.881,0.529l-0.952,0.317l-1.058,0.106m0,0l0,-3.596m0,0l0.776,-0.212l0.282,-0.176l0.247,-0.247l0.176,-0.282l0.141,-0.353l0.106,-0.846m0,0.071l-0.106,-0.74l-0.317,-0.67l-0.529,-0.635l-0.705,-0.564l-2.996,-1.163m0,0l0.635,0.776l0.458,0.881l0.353,2.115m0,0l-0.353,1.974l-0.494,0.881l-0.67,0.74l-0.811,0.529l-0.987,0.388l-2.009,0.282m0.035,-0l-2.714,-0.494l-1.234,-0.599l-1.058,-0.846l-0.881,-1.058l-0.635,-1.234l-0.494,-2.679m-0,0.035l0.458,-2.644l0.564,-1.058l0.811,-0.846l0.917,-0.599l1.128,-0.423l2.785,-0.353m-6.381,194.067l0,-3.772m0,0.035l18.79,3.948m0,-0.035l0,7.051m0,0.035l-0.282,2.221l-0.846,1.727l-0.74,0.74l-0.917,0.529l-0.987,0.282l-1.128,0.106m-0,0.035l-1.727,-0.247l-1.445,-0.74l-1.093,-1.199l-0.67,-1.586m-0,-0.035l-0.353,0.564l-0.423,0.458l-0.494,0.317l-0.599,0.212l-1.199,0.141l-1.375,-0.176m-0.035,0l-4.477,-0.635m-0,0l0,-3.596m0,0l4.512,0.529m0,-0l1.34,0.141l0.529,0l0.423,-0.176l0.388,-0.282l0.282,-0.423l0.176,-0.564l0.071,-0.705m-0.071,0.035l0,-3.349m0,0.035l-7.65,-1.586m33.631,-408.122l0,0.952m0,-0l-0.529,0.282m0,0l-4.794,2.609m0,0.035l-2.855,1.586l-0.212,0.141m0.035,-0.035l-0.212,0.141l-0.071,0.071l0,0.071l-0.071,0.247m0.035,-0.035l0.071,2.186m-0.035,0l0,3.561m0,0.035l0,2.538m0,0l1.128,0.635m0.035,0l4.83,2.679l1.727,0.917l0.423,0.212m0,0l0.494,0.212m0,0.035l0,0.952m0,-0l-0.388,1.763m0,0l-0.458,2.045l-0.106,0.388m0,-0l-0.388,1.657l-1.304,4.054m0,-0.035l-0.599,1.622m0,0l-10.047,-0.106m0.035,0l-1.34,2.432l-0.353,0.67l-0.106,0.212l0,0.106m-0.071,-0.035l-0.917,1.481l-1.163,1.833l-0.106,0.212m0,0l-0.176,0.317l-0.071,0.212l0,0.247l0.141,0.176l0,0.106m-0,0l1.622,2.609l1.727,2.855l0.599,0.987l0.423,0.705l0.141,0.212m0,0l0.176,0.353l0.071,0.176l0,0.282l-0.141,0.212l-0.212,0.282m0,-0l-0.917,1.058l-0.917,1.022l-0.987,1.022l-3.596,3.525m-0.035,0l-1.904,1.516m0,0.035l-0.388,0.247m0,0l-8.496,-5.006m0,-0.035l-7.685,4.371m0,0.035l0,3.067m0.035,0l0,3.279l0.071,2.009m0,0l0.071,1.445m0,0l-12.55,3.279m0,0l-1.304,-2.256m0,0.035l-2.221,-3.948l-0.529,-0.987l-0.317,-0.564l-0.106,-0.212m0,0l-0.176,-0.353m0,0l-0.106,-0.212l-0.071,-0.106l-0.071,-0.071l-0.106,0l-0.106,-0.071l-0.388,0.071m-0.035,0l-0.388,0.035m0,0l-3.243,0.106l-1.516,0m0,0l-2.045,-0.141l-0.317,0l0,-0.035m0,-0.035l-0.317,0l-0.212,0.141l-0.212,0.247l-0.071,0.106m0,0l-1.022,1.833m0,0l-0.071,0.141l-2.538,4.512l-0.705,1.234l-0.212,0.317m0,0l0,0.035l-0.176,0.176m-0,0l-12.374,-3.243m0,0l0,-9.871m0.035,0l-7.685,-4.371m0,0l-3.243,1.939m0,0l-2.115,1.269l-1.657,0.987l-0.458,0.282l-0.423,0.247l-0.317,0.176m-0.035,-0l-0.423,0l-0.141,-0.106m-0.035,0.035l-1.234,-1.058l-1.34,-1.199l-1.093,-1.022m0,0l-0.811,-0.811l-1.022,-1.058l-0.811,-0.846l-0.987,-1.058l-0.141,-0.141m0,0.035l-0.564,-0.635l-0.458,-0.564l-0.071,-0.106m-0,0.035l0,-0.035l-0.071,-0.035l-0.106,-0.247l0,-0.282l0.071,-0.176l0,-0.071m0.035,-0.035l0.317,-0.494l1.234,-1.974m0,-0.035l2.221,-3.631l0.811,-1.375l0.176,-0.353m0,-0l0,-0.071l0.141,-0.212m-0,0.035l-4.301,-7.438m-0.035,0l-10.118,0.106m0,0l-0.705,-1.904m0,-0l-1.128,-3.561l0,-0.035l-0.106,-0.388l-0.247,-1.093l-0.176,-0.74m-0,0.035l-0.811,-3.42m0,0l0,-1.375m0,0.035l0.071,0l0.176,-0.106m0,-0.035l0.282,-0.141l1.199,-0.635l3.032,-1.657m0,0l0.67,-0.353l0.705,-0.388l0.846,-0.458l0.67,-0.353l0.458,-0.247m0,-0.035l0.071,0l0.247,-0.212l0.141,-0.141l0.071,-0.176l0,-0.423m0.035,0l0,-0.247l-0.035,-0.423l-0.071,-1.163m0,0l0,-0.599m-0.035,0l0,-0.529l-0.071,-0.67l0,-0.987m0,0.035l0.176,-2.538l0,-0.212m0.035,0l0,-0.317l-0.071,-0.176l0,-0.071l-0.071,-0.071l-0.106,-0.071l-0.141,-0.106l-0.176,-0.106m0,-0.035l-0.811,-0.423l-1.058,-0.599l-0.529,-0.282m0,0l-4.548,-2.468m0,0l-1.163,-0.564m0,0l0,-1.375m0,-0l0.458,-2.221m0,0l0.917,-3.42l0.635,-2.186m-0.035,0l0.212,-0.635l0.494,-1.375l0.353,-0.917l0.106,-0.282l0.071,-0.176m-0.035,0.035l10.082,0.176m0,-0l4.407,-7.544m0,0l-2.221,-3.631m-0,0l-0.74,-1.199l-1.481,-2.432l-0.388,-0.67l0,-0.035m-0.035,-0l-0.141,-0.317l0,-0.106l-0.071,-0.071l0,-0.071l0.282,-0.353m-0.035,-0.035l0.599,-0.705l2.82,-3.102m0,-0l3.596,-3.349m0,0l1.798,-1.481m0,-0l8.637,5.076m0,0l1.974,-1.269l1.022,-0.599m-0,0l1.022,-0.564l2.08,-1.093l1.058,-0.529m0,0l0.282,-0.176l0.071,-0.106l0,-0.106l0.071,-0.071l0,-0.106m0.035,0.035l0,-4.16m-0.035,0l0,-0.881l-0.106,-4.618m0,0.035l0.494,-0.212m0,0l0.458,-0.176l1.868,-0.635l1.868,-0.599m0.035,0.035l0.952,-0.282l2.926,-0.74l2.221,-0.423l0.353,-0.071m0,0l0.106,-0.071l0.176,-0.176m0,0l1.093,0m-0,0l0,0.106l0.106,0.141m0,0l0.247,0.494l0.917,1.692l1.657,2.926m0,0l1.904,3.314m-0,0l8.743,0m0.035,0l1.481,-2.644m0,-0.035l0.917,-1.657l1.234,-2.15l0.388,-0.705l0.071,-0.106m0,0.035l0.141,-0.282l0.247,-0.564l0.176,-0.388l0.071,-0.176m0,0l1.093,0m0.035,0l0.458,0.247m-0.035,0l1.939,0.353m0,0l3.243,0.846l3.173,0.881m0,-0l2.714,0.952m0,0l0,10.012m0,0l7.474,4.301m0,0l8.602,-5.076m0,-0.035l0.353,0.247m0,0.035l1.939,1.622l1.622,1.445m0,-0.035l3.243,3.314m0,0.035l1.128,1.269l0.494,0.599l0.071,0.071m0,-0l0.141,0.247l0.071,0.141l0,0.212l-0.141,0.317m0,0l-0.917,1.516l-1.058,1.727l-0.952,1.586m0.035,0l-1.974,3.279m0,-0.035l4.371,7.474m0,0l5.076,0m-0.035,-0.035l5.076,-0.106m0,0.035l1.234,3.702l0,0.106m0.035,-0.035l0.599,1.868l1.022,4.407m-0,0l0.317,1.375m-17.979,379.814l-15.652,-3.243m-0,0l0,-3.772m0,-0.035l15.652,3.279m0,-0l0,-5.429m0,0l3.138,0.67m0,0l0,14.595m0,0.035l-3.138,-0.67m0,-0.035l0,-5.394m-4.407,23.02l-3.737,-0.458l-3.243,-1.375l-2.714,-2.432l-1.516,-3.279l-0.317,-2.679m0,0l0,-0.917l0.423,-1.833l0.776,-1.586l1.199,-1.34l1.586,-0.952l1.692,-0.529l1.904,-0.176m-0,0l3.666,0.494l3.384,1.445l2.82,2.468l1.586,3.208l0.317,2.503m0,-0.035l-0.071,1.128l-0.423,1.868l-0.811,1.586l-1.234,1.304l-1.657,0.952l-3.631,0.67m-11.246,-143.585l0,-8.32m0,0l18.79,3.948m0,-0.035l0,7.086m0,0l-0.282,2.15l-0.811,1.692l-0.705,0.74l-0.881,0.529l-0.952,0.317l-1.058,0.106m-0,-0.035l-1.516,-0.212l-1.304,-0.67l-1.022,-1.022l-0.67,-1.375m-0.035,0l-0.599,0.952l-0.881,0.74l-1.058,0.494l-1.163,0.176m0.035,-0.035l-1.375,-0.141l-1.199,-0.423l-1.093,-0.705l-0.881,-0.987l-0.987,-2.186l-0.317,-2.785m3.102,22.527l-3.138,-1.058m0,-0.035l0,-12.303m0,0.035l18.79,3.948m0,-0.035l0,3.772m0,0.035l-15.652,-3.279m-0,0l0,8.884m9.06,-38.849l-6.346,-1.058l-3.102,-1.586l-2.045,-2.15l-0.67,-1.445l-0.317,-1.586l0,-0.564m-0.035,0.035l0.071,-1.128l0.458,-1.481l0.917,-1.304l1.375,-0.917l1.445,-0.458l1.727,-0.141m0,0l6.346,1.128l3.102,1.586l2.08,2.15l0.705,1.445l0.317,1.586l0,0.599m0.035,-0.035l-0.071,1.093l-0.458,1.445l-0.952,1.269l-1.375,0.917l-1.481,0.458l-1.727,0.141m6.592,107.345l-18.79,-3.948m-0,0l0,-3.702m0,0l7.051,1.481m0,0l9.095,2.009m0,0l0,-0.106m0,0l-16.146,-7.509m-0,-0l0,-3.279m0,0l10.364,-0.529l5.852,-0.176m-0.035,0l0,-0.106m0,0l-9.448,-1.727m0,-0.035l-6.733,-1.41m-0,0l0,-3.525m0,0.035l18.79,3.948m0,-0.035l0,5.711m0,0.035l-13.784,0.599m0,0l6.91,3.208l4.442,2.15l2.432,1.163m0,0l0,5.711m-18.79,-59.648l0,-7.192m0,0l18.79,3.948m0,-0.035l0,5.993m0,0l-0.458,3.102l-0.67,1.481l-0.952,1.234l-1.234,0.952l-1.481,0.67l-3.173,0.494m-0.035,0.035l-4.195,-0.705l-1.974,-0.917l-1.657,-1.304l-1.34,-1.622l-0.952,-1.939l-0.705,-4.195m7.403,16.921l-1.763,0.176l-1.34,0.494l-0.635,0.494l-0.458,0.599l-0.247,0.74l-0.106,0.881m0,-0.035l0.212,1.375l0.635,1.163l0.917,0.846l1.304,0.705m-0,0l0,3.984m0,0l-2.679,-1.304l-1.939,-1.833l-1.163,-2.397l-0.388,-2.961m0.035,0l0.458,-2.891l0.67,-1.304l0.952,-1.058l1.163,-0.811l1.375,-0.564l2.961,-0.388m0,0.035l4.23,0.635l3.843,1.904l1.586,1.481l1.163,1.763l0.67,1.974l0.247,2.186m0,-0l-0.388,2.75l-1.163,2.115l-0.952,0.846l-1.163,0.635l-2.573,0.494m-0,0l0,-3.948m0,0l1.375,-0.282l0.529,-0.282l0.458,-0.353l0.353,-0.458l0.247,-0.564l0.212,-1.375m-0.035,0l-0.247,-1.34l-0.705,-1.234l-0.952,-0.917l-1.269,-0.776l-2.644,-0.917l-2.785,-0.317m8.284,-144.783l-4.266,-0.881m-0.035,-0.035l0,8.355m0,0l-3.138,-0.67m0,0l0,-8.355m0,0l-5.076,-1.058m-0,0l0,9.483m0,0.035l-3.138,-1.093m0,0l0,-12.797m0,0l18.79,3.948m0,0l0,12.444m0,0l-3.138,-0.67m0,0l0,-8.707m-15.652,-56.017l0,-3.772m0,0l18.79,3.948m0,-0.035l0,7.051m0,0.035l-0.282,2.221l-0.846,1.727l-0.74,0.74l-0.917,0.529l-0.987,0.282l-1.128,0.106m-0,0.035l-1.727,-0.247l-1.445,-0.776l-1.093,-1.199l-0.67,-1.586m-0,-0l-0.353,0.564l-0.423,0.458l-0.494,0.317l-0.599,0.212l-1.199,0.141l-1.375,-0.176m-0.035,0.035l-4.477,-0.635m-0,0l0,-3.596m0,-0.035l4.512,0.529m0,-0l1.34,0.141l0.529,0l0.423,-0.176l0.388,-0.282l0.282,-0.423l0.176,-0.564l0.071,-0.705m-0.071,0.071l0,-3.349m0,-0l-7.65,-1.586m63.526,-180.777l-0.247,17.626m-11.457,0l11.492,0m-181.552,0l-0.247,-17.626m0.247,17.626l11.492,0m158.567,0l0.247,-17.626m-159.061,0l0.247,17.626m-0.035,0l158.567,0m10.223,-26.581l0.353,0.952l0.317,0.987l0.247,1.022l0.212,1.058l0.176,1.058l0.141,1.093l0.071,1.093l0,1.093m-11.457,-8.355l1.34,-0.176l1.304,-0.141l1.304,-0.071l2.503,0l1.199,0.071l1.163,0.141l1.093,0.176m1.551,8.954l-11.457,0m11.457,-0.564l0,0.564m-11.457,-0l0,-8.919m-159.061,-0.035l159.061,0m0,8.954l-159.061,0m0,0l0,-8.919m-9.941,-0.035l1.093,-0.176l1.163,-0.141l1.199,-0.071l2.503,0l1.304,0.071l1.304,0.141l1.34,0.176m-9.906,0l-0.353,0.952l-0.317,0.987l-0.247,1.022l-0.212,1.058l-0.176,1.058l-0.106,1.093l-0.071,1.093l0,1.093m-0.071,0.035l0,0.564m11.492,-0l-11.457,0m-146.934,753.424l0,-2.045m0,2.045l-57.039,0m-6.804,-2.08l0.176,0.776l0.212,0.388l0.282,0.317l0.529,0.353l0.494,0.176l0.494,0.071m4.618,0l-4.653,0m4.653,0l-0.635,-0.176l-0.423,-0.353l-0.247,-0.317l-0.176,-0.388l-0.106,-0.388l0,-0.423m-6.769,-124.125l0,0.035m4.935,-0.035l-4.935,0m2.221,-2.115l-0.846,0.141l-0.705,0.458l-0.494,0.705l-0.141,0.388l0,0.423m4.9,0l0.176,-0.776l0.212,-0.388l0.282,-0.353l0.705,-0.458m-1.375,2.009l0,-0.035m0,0.035l-4.935,0m0,0l0.881,69.519l0.67,54.501m0,0.035l5.182,0m0,0l-0.388,-47.627l-0.317,-37.474m0.705,85.1l0,0.035m0,0l58.626,0m-2.256,-85.171l2.256,85.136m-59.331,-85.136l0,-2.08m2.186,2.08l-2.186,0m-0.035,-2.08l-1.058,-36.839m1.058,36.839l0,0.423l0.176,0.388l0.529,0.705l0.705,0.458l0.846,0.141m257.593,-760.757l0,0.529m5.358,-179.684l-10.435,5.535m-274.69,498.475l0.106,6.381m0.881,50.024l0,1.939m0.141,6.205l0.141,6.945m3.561,203.092l0,1.939m0.176,6.169l0.106,6.945m-3.384,-191.176l0.141,7.156m-3.843,-216.171l0.106,6.346m0.776,43.537l0.106,6.522m354.115,-447.852l-3.772,-2.009m-343.61,682.354l0.952,0m625.104,-174.572l-0.952,0m-7.579,519.31l0.423,0l0.388,-0.141l0.353,-0.176l0.317,-0.247l0.247,-0.317l0.212,-0.353l0.141,-0.388l0,-0.423m-616.29,-0.035l0,0.423l0.176,0.388l0.212,0.353l0.282,0.317l0.317,0.247l0.353,0.176l0.388,0.106l0.423,0m614.175,-2.009l2.186,-124.02m-620.697,-0.035l2.186,124.055m324.221,-836.903l0,-8.461m-324.256,719.158l-0.423,0l-0.388,0.176l-0.353,0.212l-0.317,0.247l-0.282,0.317l-0.212,0.353l-0.106,0.388l0,0.423m620.662,0l0,-0.423l-0.176,-0.388l-0.212,-0.353l-0.247,-0.317l-0.317,-0.247l-0.353,-0.212l-0.388,-0.106l-0.423,0m-117.498,42.127l0,-1.128m-76.428,0l0,1.128m-74.525,-34.689l0,1.128m-79.601,0l0,-1.128m-189.026,-578.499l3.102,0m454.515,11.492l-3.102,0m-126.346,568.135l0,-1.128m-198.685,0l0,1.128m-122.539,-564.786l-2.468,0m446.195,-18.155l2.432,0m-4.794,18.155l-1.798,0m-437.206,-18.155l1.763,0m1.727,14.806l-0.141,0m432.165,-11.492l0.141,0" style="fill:none;fill-rule:nonzero;stroke:#414042;stroke-width:1.8px;"/></g></g></g></svg>