<?xml version="1.0" encoding="UTF-8" standalone="no"?><!DOCTYPE svg PUBLIC "-//W3C//DTD SVG 1.1//EN" "http://www.w3.org/Graphics/SVG/1.1/DTD/svg11.dtd"><svg width="100%" height="100%" viewBox="0 0 650 1008" version="1.1" xmlns="http://www.w3.org/2000/svg" xmlns:xlink="http://www.w3.org/1999/xlink" xml:space="preserve" xmlns:serif="http://www.serif.com/" style="fill-rule:evenodd;clip-rule:evenodd;stroke-linecap:round;stroke-linejoin:round;stroke-miterlimit:10;"><g><path d="M368.806,6.832l0,330.388c0,2.621 -2.128,4.749 -4.749,4.749l-77.912,0c-2.621,0 -4.749,-2.128 -4.749,-4.749l0,-330.388c0,-2.621 2.128,-4.749 4.749,-4.749l77.912,0c2.621,0 4.749,2.128 4.749,4.749Z" style="fill:#818285;"/><path d="M335.7,66.195l0,235.68c0,6.04 -4.904,10.944 -10.944,10.944c-6.04,0 -10.944,-4.904 -10.944,-10.944l0,-235.68c0,-6.04 4.904,-10.944 10.944,-10.944c6.04,0 10.944,4.904 10.944,10.944Z" style="fill:#68696b;"/><rect x="222.861" y="341.968" width="203.256" height="36.669" style="fill:#2f2a2a;"/><rect x="2.083" y="378.637" width="645.304" height="5.314" style="fill:#3b3838;"/><rect x="13.431" y="1000.026" width="623.328" height="5.314" style="fill:#3b3838;"/><path d="M2.083,383.951l10.453,616.075l624.222,0l10.629,-616.075l-645.304,0Z" style="fill:#3b3838;"/><g><path d="M7.398,378.637l-1.139,0l-0.759,0.38l-1.139,0.38l-1.518,1.518l-0.759,2.278l0,0.759m645.304,0l0,-0.759l-0.759,-2.278l-1.518,-1.518l-0.759,-0.38l-1.139,-0.38l-1.139,0m-639.989,5.314l10.629,616.075m0,0l0.38,1.139l0,1.139l2.278,2.278l0.759,0.38l1.139,0.38l0.759,0m613.418,0l0.759,0l2.278,-0.759l0.759,-0.759l0.38,-0.759l0.759,-0.759l0.38,-1.139l0,-1.139m-209.534,-621.389l0,-32.265m-204.979,0l0,32.265m5.314,-37.579l-0.759,0l-2.278,0.759l-1.518,1.518l-0.38,1.139l-0.38,0.759l0,1.139m204.979,0l0,-1.139l-0.38,-0.759l-0.38,-1.139l-1.518,-1.518l-1.139,-0.38l-0.759,-0.38l-1.139,0m-54.281,0l0,-333.66m-85.787,0l0,333.66m5.314,-338.974l-1.139,0l-1.139,0.38l-0.759,0.38l-1.518,1.518l-0.38,1.139l-0.38,0.759l0,1.139m85.787,0l0,-1.139l-0.38,-0.759l-0.38,-1.139l-1.518,-1.518l-0.759,-0.38l-1.139,-0.38l-1.139,0m-354.917,376.554l634.675,0m-10.629,626.704l-613.418,0m209.534,-664.283l194.35,0m-107.804,-274.444l0,-1.898l0.38,-1.518l0.759,-1.898l1.139,-1.139l1.139,-1.518l1.518,-1.139l1.518,-0.759l1.898,-0.759l3.416,0l1.898,0.38l1.518,0.38l1.518,0.759l1.518,1.139l1.139,1.518l1.518,3.037l0.38,1.898l0,1.518m-21.257,236.864l0,-236.864m21.257,236.864l0,1.518l-0.38,1.898l-0.759,1.518l-1.139,1.518l-2.278,2.278l-1.898,1.139l-1.518,0.38l-1.898,0.38l-1.898,0l-1.518,-0.38l-1.898,-0.759l-1.518,-0.759l-1.139,-1.139l-1.518,-1.139l-0.759,-1.518l-0.759,-1.898l-0.38,-1.898l0,-1.139m21.257,-236.864l0,236.864m-48.208,-301.395l75.159,0m285.072,381.868l-645.304,0m10.629,616.075l624.047,0m-209.534,-653.655l-204.979,0m145.383,-338.974l-85.787,0" style="fill:none;fill-rule:nonzero;stroke:#434042;stroke-width:4.17px;"/><path d="M647.387,383.951l-10.629,616.075" style="fill:none;stroke:#434042;stroke-width:4.17px;stroke-miterlimit:1.5;"/></g></g></svg>