<?xml version="1.0" encoding="UTF-8" standalone="no"?><!DOCTYPE svg PUBLIC "-//W3C//DTD SVG 1.1//EN" "http://www.w3.org/Graphics/SVG/1.1/DTD/svg11.dtd"><svg width="100%" height="100%" viewBox="0 0 711 983" version="1.1" xmlns="http://www.w3.org/2000/svg" xmlns:xlink="http://www.w3.org/1999/xlink" xml:space="preserve" xmlns:serif="http://www.serif.com/" style="fill-rule:evenodd;clip-rule:evenodd;stroke-linecap:round;stroke-linejoin:round;stroke-miterlimit:10;"><g><rect x="243.126" y="373.448" width="224.331" height="40.558" style="fill:#373535;"/><rect x="115.382" y="553.624" width="479.783" height="9.053"/><rect x="63.979" y="562.677" width="582.239" height="359.019" style="fill:#373535;"/><path d="M308.345,4.159l3.679,-3.326l87.325,0l2.375,2.734l0.069,369.881l-93.023,0l-0.426,-369.289Z" style="fill:#818285;"/><path d="M0.833,414.006l0,66.717l6.644,19.116l28.099,28.099l0.575,7.817l4.352,0.87l0.854,5.206l11.89,2.332l7.242,9.46l589.469,0l59.625,-58.711l0,-80.906l-708.75,0Z" style="fill:#2f2a2a;"/><path d="M63.979,921.696l0,11.42l6.383,0.435l0,12.015l569.801,0l0.82,-12.449l5.235,0l0,-11.42l-582.239,0Z" style="fill:#3b3838;"/><path d="M107.971,981.25l495.713,0l36.479,-35.496l-569.801,-0.188l37.609,35.685Z" style="fill:#353131;"/><g><path d="M525.417,558.75l-1.25,-0.833l-1.667,-1.25m2.5,6.25l-2.5,-1.25m0,-5.417l3.333,-1.667m-3.333,6.25l3.333,-1.667m0,0l0,-0.833m-3.333,-1.667l0,-0.417m0,5l0,-0.417m-334.583,-6.667l-1.667,0.833l-1.25,1.25m2.917,2.917l-1.667,0.833l-1.25,0.833m0,-4.167l1.25,1.25l1.667,0.833m-2.917,2.917l1.25,0.833l0.833,0.417m-2.083,-2.083l0,0.833m0,-5.417l0,0.417m2.917,1.667l0,0.833m-112.5,-22.083l0,-20.833m-35.833,14.167l0.417,0m473.333,32.5l0,-8.75m-316.25,0l0,8.75m397.917,0l0,-8.75m-479.583,0l0,8.75m-51.25,0l-0,359.167m582.083,0l0,-359.167m-582.083,359.167l0,11.667m582.083,0l0,-11.667m-309.167,-550.417l0,5.833m0,-376.667l0,370.833m44.167,0l0,-368.75m-69.167,368.75l0,1.25m-0.833,-372.083l-3.333,2.917m0,0l0,367.917m371.25,153.75l30.417,-30.417m-655,-80.833l0,35.417m655,45.417l0,-80.833m-466.667,-41.25l0,41.25m224.583,0l0,-41.25m-466.667,41.25l0,66.25m5.833,20.417l7.5,7.5m510.417,45.833l-0.833,0l-2.5,0.417l-3.75,0l-3.75,0.417l-0.417,0m12.5,3.333l-0.417,0.417l-1.667,0l-2.5,0.417l-3.75,0.417l-4.167,0m9.167,-2.917l0,0.417l-1.25,0l-2.083,0.417l-2.5,0l-2.917,0.417l-0.417,0m9.167,3.75l-1.25,0.417l-2.083,0l-2.5,0.417l-3.333,0m9.167,-6.25l-1.25,0.417l-2.083,0l-2.5,0.417l-2.917,0.417l-0.417,0m9.167,3.333l0,0.417l-1.25,0l-2.083,0.417l-2.5,0l-2.917,0.417l-0.417,0m0,-1.667l1.25,0l3.333,-0.417l2.917,0l2.083,-0.417l2.083,0l0.833,-0.417m-12.5,-3.75l4.583,0l2.917,-0.417l2.083,0l2.083,-0.417l0.833,0l0,-0.417m-328.75,0.833l-0.417,0l-4.167,0.417l-3.333,0l-2.5,0.417l-1.667,0l0,0.417m12.083,3.333l-0.417,0l-4.167,0.417l-3.333,0l-2.5,0.417l-1.667,0.417m3.75,-6.667l-0.833,0m9.167,3.75l-0.417,0l-2.917,0.417l-2.5,0l-2.083,0.417l-1.25,0l0,0.417m9.167,3.333l-0.417,0l-2.917,0.417l-0.417,0m3.75,-5.833l-0.833,0.417l-2.917,0l-2.083,0.417l-2.083,0l-1.25,0.417m9.167,3.75l-0.833,0l-2.917,0.417l-2.083,0l-2.083,0.417l-0.417,0m-3.75,-1.25l0,-0.417l1.25,0l2.083,-0.417l2.5,0l2.917,-0.417l3.333,0m-12.083,-3.75l1.25,-0.417l2.083,0l2.5,-0.417l2.917,0l3.333,-0.417m-125.417,-42.917l0,24.583m0,0l-4.583,0m0,0l0,7.083m0,0l-26.25,0m0,0l0,-7.083m0,0l-4.583,0m0,0l0,-8.75m0,-20l0,-7.5m0,-20.417l0,-1.667m2.5,0l-2.5,0m2.5,0l2.5,-6.667m0,0l0,-0.417m0,0l5,0m0,0.417l0,-0.417m0,0.417l0,-3.75m3.75,0l-3.75,0m3.75,3.75l0,-3.75m7.917,3.75l-7.917,0m7.917,-3.75l0,3.75m3.75,-3.75l-3.75,0m3.75,3.75l0,-3.75m0,3.75l0.833,0m5.833,47.083l0,0.833m2.5,1.667l0,1.25l-0.417,1.25l-0.417,0.417l-0.417,0m0.417,-5.417l0.833,0.833l0,1.667m-2.5,0.833l0,0.417l0.417,0.417m-0.833,-1.667l0,0.417l0.417,0.417m0,-1.667l-0.417,0.417l0,0.417m-29.583,-13.75l0.417,0.417m-1.667,-0.833l0.833,0.417m1.667,-6.667l0.417,0.417m-1.25,3.333l0.417,0m-0.417,-4.167l0,4.167m-0.417,-4.167l0.417,0m-1.25,3.75l0.417,0m-0.417,-3.75l0,3.75m2.5,-2.917l0,5.417m-2.083,22.083l0,0.833m-0.417,-1.667l0,0.417l0.417,0.417m2.083,-0.833l0,2.083m8.75,-51.667l0,1.667m0,20.417l0,2.5m-7.5,-24.583l7.5,0m-7.5,24.583l0,-2.5m0,-20.417l0,-1.667m7.5,24.583l-7.5,0m0,27.5l0,-2.5m0,-20l0,-2.083m7.5,24.583l-7.5,0m7.5,-24.583l0,2.083m0,20l0,2.5m-7.5,-24.583l7.5,0m8.75,-27.5l0,1.667m0,20.417l0,2.5m-7.083,-24.583l7.083,0m-7.083,24.583l0,-2.5m0,-20.417l0,-1.667m7.083,24.583l-7.083,0m8.75,-24.583l3.333,0m-3.333,24.583l0,-2.5m0,-20.417l0,-1.667m3.75,24.583l-3.75,0m-8.75,27.5l0,-2.5m0,-20l0,-2.083m7.083,24.583l-7.083,0m7.083,-24.583l0,2.083m0,20l0,2.5m-7.083,-24.583l7.083,0m1.667,24.583l0,-2.5m0,-20l0,-2.083m7.5,24.583l-7.5,0m7.5,-23.333l0,8.333m0,5l0,10m-7.5,-24.583l6.25,0m6.25,30.833l3.75,0m-7.917,-16.25l0.417,-0.417m-0.417,1.25l0,-0.833m0,1.667l0,-0.833m1.25,2.083l-0.417,0l-0.417,-0.417l0,-0.417l-0.417,-0.417m0.833,-0.833l0,1.25l0.417,0.833m0.417,-4.583l-0.833,0.833l0,1.667m2.083,0l0,-0.833l-0.417,-1.25l-0.417,-0.417l-0.417,0m-0.417,5.417l0.833,0l0.417,-0.417l0,-0.417l0.417,-0.833l0,-1.25m-2.917,2.083l0.833,0.833l0.417,0m-1.667,-2.917l0,1.25l0.417,0.833m0.417,-4.583l-0.417,0.417l0,0.833l-0.417,0.417l0,0.833m0.833,-1.25l0,-1.25m2.083,2.5l0,1.25l-0.417,0.417l-0.417,0m0,-2.917l0.417,0l0.417,0.417l0,0.833m-1.25,0l0,-1.25l0.417,0m0,2.917l-0.417,-0.417l0,-1.25m0.833,2.917l-0.833,0m2.083,-2.917l-0.417,0m-0.417,-2.5l-0.833,0m0.833,1.25l-0.417,0l-0.417,0.417l0,0.833m0,0l0,0.833l0.417,0.833l0.417,0m-0.833,-1.667l-0.417,0m-0.417,0.833l-0.833,0m0.833,-2.083l-0.417,0m0.417,-1.25l-0.417,0m0.417,1.667l-0.833,0m0.417,0.833l-0.417,0m7.917,15.417l19.167,0m-22.083,1.25l-0.417,1.25l0,1.25l-0.833,0.833l-0.417,0.833l-0.833,0.833l-0.833,0.417l-1.25,0.417l-0.833,0m5.417,-5.833l0,-1.25m-6.667,-30.833l-6.667,0m3.75,-2.917l-3.75,0m2.5,-35l0.833,-0.417m0,-0.833l-4.583,1.25m-11.667,-25.417l0,1.25l0.417,1.25l0.833,1.25l0.417,0.833l1.25,0.833l0.833,0.417l1.25,0.417m-5,-6.25l0,-7.083m8.333,0l-8.333,0m12.5,15l-7.5,-1.667m6.25,57.083l-7.083,0m7.083,-2.917l-7.083,0m-0.417,-35l12.5,-3.333m-16.25,3.333l16.25,-4.167m-13.75,42.083l-7.5,0m7.5,-2.917l-7.5,0m-1.667,27.083l0,-2.083m-0.417,1.667l0.417,0.417m-1.25,-2.083l0.833,1.25l0,0.417m-1.667,-0.833l-0.417,0l0,-0.833l-0.417,0m0.833,1.667l0,-0.833m-0.833,-0.833l0,1.25l0.417,0.417l0.417,0m1.667,-1.25l0,-0.417m0,0l0,0.417m0.833,1.667l-0.417,0m-1.667,-22.5l0,0.417m0,0l0,-0.417m0.417,0l-0.417,0m2.083,-0.833l-0.417,0m0,0l0,-5.417m0.417,0l-0.417,0m-2.917,-0.833l0,5m0.417,-1.25l0,-3.75m0.833,3.75l-0.833,0m0.833,-3.75l0,3.75m0.417,-3.75l-0.417,0m0.417,4.167l0,-4.167m0.833,4.583l-0.833,-0.417m0.833,-3.75l0,4.167m0.417,-3.75l-0.417,-0.417m-2.5,4.583l2.917,1.25m0,-5.833l-0.417,0m-0.417,3.75l-0.417,0m0.417,-4.167l-0.417,0m-0.833,3.75l-0.417,0m0.417,3.75l0,-0.417m0.417,0l-0.417,0m-0.833,-0.417l0,0.833m0.833,-0.417l-0.833,-0.417m0.417,0l-0.417,0m1.25,22.5l-0.417,0m0.417,-0.833l-0.417,0m61.667,18.333l5.417,0m-5.417,-5.417l0,5.417m0,0l-10.417,0m0,0l0,-5.833m0,0l9.167,0m0,0l0,-0.833m-9.167,0.833l1.25,-2.5m6.667,0l-6.667,0m-3.333,8.333l0,-5.833m0,0l2.083,0m0,5.833l-2.083,0m2.083,-8.333l-2.083,2.5m3.333,-2.5l-1.25,0m-15,2.5l2.917,-2.5m0,8.333l0,-8.333m-2.917,2.5l0,5.833m0,0l2.917,0m-5.417,-5.833l2.5,0m2.917,-2.5l-4.583,0m4.583,0l12.083,0m-2.083,8.333l-10,0m-13.333,0l0,-3.333m10.417,3.333l-10.417,0m0.833,374.583l582.083,0m-582.083,-359.167l582.083,0m-545.833,412.083l7.5,6.25m-7.5,-6.25l-30.417,-29.583m0,0l570.417,0m0,0l-30.417,29.583m-7.5,6.25l7.5,-6.25m-7.5,6.25l-494.583,0m538.333,-47.5l-5.833,0m0,11.667l0,-11.667m-570.417,0l0,11.667m0,-11.667l-5.833,0m0,-11.667l582.083,0m-292.5,-550.417l0.833,0m0,0l0,1.25m10.417,-1.25l0.417,0m0,0l0,1.25m-0.417,0l0,-1.25m-17.917,0l1.25,0m-1.25,1.25l0,-1.25m-10,0l0,1.25m33.333,-1.25l1.667,0m0,0l0,1.25m-23.75,-1.25l5.417,0m1.667,-370.833l1.667,2.917m0,367.917l0,-367.917m0,367.917l-2.5,0m-0.833,0l0,-370.833m0,0l1.667,0m7.917,2.917l-6.25,0m6.25,367.917l0,-367.917m-6.25,367.917l6.25,0m-7.917,-370.833l9.167,0m-1.25,2.917l1.25,-2.917m0.833,370.833l5,0m-5.833,-370.833l0.833,0m0,370.833l0,-370.833m-2.083,370.833l1.667,0m-21.25,-367.917l2.5,-2.917m0,0l2.083,0m0,370.833l0,-370.833m-4.583,370.833l0,-367.917m0,367.917l3.333,0m-3.333,-367.917l-5.833,0m0,367.917l0,-367.917m0,367.917l5.833,0m-6.667,-370.833l0.833,2.917m-0.833,-2.917l9.167,0m-8.333,370.833l-0.833,0m44.167,1.25l0,-1.25m-50.833,0l2.083,0m-2.083,1.25l0,-1.25m42.917,-370.833l2.917,2.917m0,367.917l0,-367.917m0,367.917l-4.167,0m-1.667,0l0,-370.833m0,0l2.917,0m7.917,2.917l-5,0m5,367.917l0,-367.917m-5,367.917l5,0m0,-367.917l0,-2.917m-7.917,0l7.917,0m-32.917,0l5.417,0m11.667,0l5,0m-44.583,2.917l-4.167,0m4.167,367.917l0,-367.917m-4.167,367.917l4.167,0m-4.167,0l0,-367.917m4.167,0l3.333,-2.917m3.333,370.833l0,-370.833m-6.667,370.833l4.583,0m-1.25,-370.833l3.333,0m-10,0l-0.833,2.917m0.833,-2.917l6.667,0m3.333,0l4.583,0m-14.167,370.833l0,1.25m61.667,-1.25l2.5,0m0,0l0,1.25m-2.5,-1.25l0,-370.833m-3.333,0l3.333,0m3.75,0l3.333,2.917m0,367.917l0,-367.917m0,367.917l-4.583,0m-2.5,-370.833l3.75,0m6.667,2.917l-1.25,-2.917m1.25,2.917l-3.333,0m-3.333,-2.917l5.417,0m1.25,370.833l0,-367.917m-3.333,367.917l3.333,0m-2.083,1.25l0,-1.25m-72.083,0l0,-370.833m0,0l1.667,0m-4.167,370.833l2.5,0m-2.5,1.25l0,-1.25m-5,-367.917l3.75,-2.917m-3.75,370.833l5,0m-5,0l0,-367.917m3.75,-2.917l3.75,0m-7.5,0l-2.083,2.917m2.083,0l-2.083,0m2.083,-2.917l3.75,0m-2.917,370.833l0,1.25m-2.917,-1.25l0,-367.917m0,367.917l2.083,0m82.917,0l0,1.25m2.083,0l0,-1.25m-0.833,-370.833l3.333,2.917m0,367.917l0,-367.917m0,367.917l-4.583,0m-2.5,-370.833l3.75,0m4.583,2.917l-2.917,-2.917m2.917,2.917l-1.25,0m-3.333,-2.917l1.667,0m2.917,370.833l0,-367.917m-1.25,367.917l1.25,0m-89.583,1.25l0,-1.25m-4.167,-367.917l2.917,-2.917m-2.917,370.833l2.917,0m-2.917,0l0,-367.917m2.917,-2.917l1.667,0m-4.583,2.917l-0.417,0m0,367.917l0.417,0m-103.75,142.083l0,-99.583m301.25,0l-301.25,-0m301.25,99.583l0,-99.583m-301.25,99.583l17.083,7.083l17.917,7.083l17.5,5.833l17.917,5l18.333,4.167l18.333,3.333l18.75,2.083l18.75,0.833l18.333,0l18.75,-1.25l18.333,-2.5l18.333,-3.75l18.333,-4.583l17.917,-5l17.5,-6.25l14.583,-5.833l14.583,-6.25m173.333,11.667l-0.833,0.833l-0.833,0.417l-0.833,1.25l-2.083,1.667l-5.833,5.833l-3.75,3.333l-15.417,15.417m0,0l-69.583,0m0,0l4.167,-5.833l3.75,-5.417l2.083,-4.167l0.833,-4.167l0.417,-2.917l-0.417,-2.083l-0.833,-1.667l-1.25,-1.25l-1.667,-0.833l-2.5,-0.417l-2.083,0l-2.5,0.833l-2.5,0.417l-2.5,1.25l-3.75,1.667l-3.75,2.5l-4.583,3.333l-4.167,3.333l-4.583,5l-4.167,5.417l-2.917,5m0,0l-383.75,0m0,0l-3.333,-5.833l-4.583,-5.417l-4.167,-4.167l-4.583,-4.167l-3.75,-2.917l-4.167,-2.083l-2.917,-1.667l-3.333,-1.25l-2.917,-0.833l-2.917,-0.417l-2.083,0l-1.667,0.833l-1.25,0.417l-1.25,1.25l-0.833,1.667l-0.417,2.5l0.417,3.333l1.25,3.333l2.5,5l3.333,5.417l4.167,5m0,0l-20.417,0m0,0l-47.917,-51.25m0,0l12.917,0.417l12.5,-0.833l10,-2.083l10,-2.5m0,0l6.25,-1.667l7.083,-0.833l7.917,-0.417l9.167,0.417l10,1.25l10.417,1.667l10.417,2.5l10.833,3.333l10.833,3.75l6.667,2.917l7.083,2.917m301.25,0l11.667,-5l11.25,-4.167l11.667,-3.333l8.333,-2.083l8.333,-1.667l8.333,-1.25l7.917,-0.833l7.917,-0.417l7.917,0.417l7.083,0.833l6.667,1.667m0,0l9.583,2.5l10,1.667l9.583,1.25l10,0l10.417,-0.833l10,-1.667l10,-2.5l10,-3.333m0,0l27.083,0m-505,-80.833l-96.667,0m0,83.75l0,-32.083m0,-20.833l1.667,4.167l0.417,2.083l0.417,2.5l0,2.5l-0.833,5l-0.417,2.083l-1.25,2.5m0,-20.833l0,-30.833m495,0l-97.083,0m97.083,30.833l0,-30.833m0,51.667l-1.25,-1.667l-0.417,-2.5l-0.833,-2.083l0,-7.5l0.417,-2.5l0.833,-2.083l1.25,-2.5m0,52.917l0,-32.083m-495,-20.833l-1.25,-1.667l-1.25,-1.25l-1.25,-0.833l-1.25,-0.417l-2.5,0l-1.667,0.833l-1.25,0.833l-0.833,1.25l-1.25,1.667l-0.833,2.083l-0.417,2.083l-0.417,2.5l-0.417,2.083l0,2.5l0.417,2.5l0.833,4.167l0.833,2.083l1.25,1.667l0.833,1.25l1.25,0.833l1.667,0.833l1.25,0.417l2.5,-0.833l1.25,-0.833l1.25,-1.25l1.25,-1.667m495,0l0.833,1.667l1.25,1.25l1.25,0.833l1.25,0.417l1.667,0.417l1.25,-0.417l2.5,-1.667l1.25,-1.25l0.833,-1.667l1.667,-4.167l0.417,-2.083l0,-7.083l-0.417,-2.5l-1.667,-4.167l-0.833,-1.667l-1.25,-1.25l-2.5,-1.667l-2.917,0l-1.25,0.417l-1.25,0.833l-1.25,1.25l-0.833,1.667m-540.417,16.25l0,41.667m-3.75,-52.083l1.25,0.833l1.667,3.333l0.833,4.167l0,2.083m-3.75,-47.083l0,36.667m49.167,-36.667l-49.167,0m623.75,80.833l0,-80.833m0,0l-79.583,0m-439.583,140l-32.5,0m449.167,0l-32.917,0m-488.333,-103.333l-1.667,-1.25l-0.833,0m0,0l-1.667,0m0,-35.417l4.167,0m623.75,0l27.083,0m-466.667,-41.25l224.583,0m-454.583,76.667l-0.833,0.417m0,0l0,-35.833m31.667,0l0,35.417m0,0l-30.833,0m-0.833,-35.417l31.667,0m0,35.417l8.75,0m-8.75,-35.417l10.833,0m-44.583,47.083l0,-3.75l0.417,-3.333l0.833,-2.917l0.833,-1.25m-2.083,30.417l0,-19.167m-9.167,-47.083l11.25,0m44.167,130l9.167,10m0,0l-4.583,-0m0,0l-5.417,-5.833l-4.167,-4.167m-15,-14.167l-1.667,-1.667m65.833,19.167l0,6.667m-35,0l35,0m0,0l3.75,0m0,0l6.25,0m-55.833,-111.25l-8.333,0m5,6.25l3.333,0m144.583,105l0,8.75m312.083,0l0,-8.75m16.25,8.75l0,-8.75m-344.167,0l0,8.75m354.167,-8.75l0,8.75m-364.167,-0l0,-8.75m180.417,-182.5l0,1.25m-5.417,-1.25l0,1.25m22.083,-1.25l0,1.25m-37.917,-1.25l0,1.25m0,-1.25l4.583,0m44.583,0l2.917,0m0,0l0,1.25m-63.75,-1.25l0,1.25m0,-1.25l0.833,0m72.083,0l0,1.25m1.667,-1.25l0.833,0m-333.75,89.583l-52.5,0m94.167,86.25l0,6.667" style="fill:none;fill-rule:nonzero;stroke:#434042;stroke-width:1.67px;"/><path d="M0.833,480.964l6.134,19.802l7.34,7.561l20.357,19.581" style="fill:none;stroke:#434042;stroke-width:1.67px;stroke-miterlimit:1.5;"/></g></g></svg>