<?xml version="1.0" encoding="UTF-8" standalone="no"?><!DOCTYPE svg PUBLIC "-//W3C//DTD SVG 1.1//EN" "http://www.w3.org/Graphics/SVG/1.1/DTD/svg11.dtd"><svg width="100%" height="100%" viewBox="0 0 415 663" version="1.1" xmlns="http://www.w3.org/2000/svg" xmlns:xlink="http://www.w3.org/1999/xlink" xml:space="preserve" xmlns:serif="http://www.serif.com/" style="fill-rule:evenodd;clip-rule:evenodd;stroke-linecap:round;stroke-linejoin:round;stroke-miterlimit:1.5;"><g><path d="M1.587,562.017l77.973,95.107l6.672,4.96l242.381,0l6.451,-4.96l79.103,-95.213l-412.58,0.106Z" style="fill:#343132;"/><rect x="189.054" y="0.833" width="37.973" height="82.991" style="fill:#818285;"/><rect x="131.776" y="83.824" width="151.688" height="53.466" style="fill:#2f2a2a;"/><rect x="1.587" y="138.981" width="412.58" height="80.211" style="fill:#2f2a2a;"/><rect x="59.631" y="219.192" width="296.183" height="8.059" style="fill:#0b0607;stroke:#434042;stroke-width:1.67px;"/><rect x="1.587" y="227.251" width="412.908" height="334.66" style="fill:#3b3838;"/><path d="M0.833,561.667l79.167,96.25m255,0l79.167,-96.25m0,0l0,-334.167m-413.333,207.917l0,126.25m0,-176.667l0,38.333m0,-93.75l0,42.917m0,-145l0,90m413.333,-98.333l0,-78.333m-413.333,0l0,78.333m0.833,-80.417l-0.417,0l0,0.417l-0.417,0.417l0,1.25m413.333,0l0,-0.833l-0.417,-0.417l0,-0.417l-0.417,-0.417m0,0l-1.25,-1.25m-409.167,0l-1.25,1.25m3.333,-2.083l-1.25,0l0,0.417l-0.833,0l0,0.417m409.167,0l-0.417,-0.417l-0.417,0l0,-0.417l-1.25,0m-55,90.833l0,-8.333m-295,0l0,8.333m20,430.417l1.667,1.667l1.25,0.833l1.25,0.417l0.833,0.833l1.25,0.417l2.917,0m236.667,0l2.5,0l1.25,-0.417l1.25,-0.833l1.25,-0.417l1.25,-0.833l1.667,-1.667m-50.833,-521.25l0,-50.417m-153.333,0l0,50.417m2.917,-53.333l-0.833,0l-0.417,0.417l-0.417,0l-0.833,0.833l-0.417,0.833l0,0.833m153.333,0l0,-0.833l-0.417,-0.833l-0.833,-0.833l-0.417,0l-0.833,-0.417l-0.417,0m-277.5,340l-0,12.083m0,-62.917l0,12.5m0,-67.5l0,12.083m222.5,-246.25l0,-81.25m-37.5,0l0,81.25m1.25,-82.5l-0.833,0l0,0.417l-0.417,0l0,0.833m37.5,0l0,-0.417l-0.417,-0.417l0,-0.417l-0.833,0m-224.167,560.833l413.333,-0m-160.833,82.083l0,2.083l-0.417,3.333l0,3.333l-0.833,3.75l-0.417,1.667m1.25,-58.333l0,26.667l0.417,17.5m-91.25,-44.167l90.833,0m-91.25,44.167l0,-8.75l0.417,-35.417m1.25,58.333l-1.25,-7.083l-0.417,-7.083m-153.75,-208.333l-0,-117.917m6.25,117.917l-6.25,0m6.25,-91.25l0,91.25m43.75,0l-17.5,-30.417l-14.583,-30.417l-11.667,-30.417m59.583,91.25l-15.833,0m15.833,-117.917l0,117.917m0,-117.917l-15.833,0m0,90.833l0,-90.833m-43.75,0l11.667,30l14.583,30.417l17.5,30.417m-43.75,-90.833l-6.25,0m406.25,-90l-413.333,0m6.25,37.917l0,-9.167l0.833,-8.75l0.417,-3.75l1.25,-2.5l1.25,-1.25l1.25,-0.417m-5,35.417l0,-9.583m5.417,34.583l-1.25,0l-1.667,-1.667l-0.833,-2.5l-0.833,-3.333l-0.417,-4.167l-0.417,-4.583l0,-8.75m12.083,-0.833l-0.417,9.167l-0.833,8.75l-1.25,3.333l-1.25,2.917l-1.667,1.25l-1.25,0.417m6.667,-35.833l0,10m-7.083,-34.583l0.833,0l0.833,0.417l1.667,1.25l1.25,2.5l0.833,3.333l1.25,8.333l0.417,8.75m18.75,5.417l-1.667,29.583m-1.667,-31.25l3.333,1.667m-4.583,0.417l1.25,-2.083m-5,4.583l2.083,-0.833l0.833,-0.417l0.833,-1.25m-9.583,-10.833l0.417,5l0.833,4.167l0.833,2.083l1.25,0.833l2.5,1.25m-0.417,-27.083l-0.833,0l-0.417,0.417l-1.25,0.833l-0.833,1.25l-0.833,1.667l-0.833,4.583l-0.417,5m11.25,-3.333l-0.417,-4.167l-0.417,-1.667l-0.833,-1.667l-0.833,-1.25l-1.25,-0.833l-2.083,-0.833m10,10.417l-4.167,0m-5.833,-16.25l3.333,0.833l1.667,1.25l1.667,2.083l1.25,2.5l1.25,2.917l0.833,6.667m-18.75,2.917l0.417,-7.5l1.667,-6.667l1.25,-2.5l1.667,-1.667l3.75,-0.833m-0.417,38.75l-3.75,-1.25l-1.25,-1.667l-1.25,-2.5l-1.667,-6.667l-0.417,-7.5m13.333,17.5l-2.5,1.667l-2.5,0.417m4.167,14.583l0.833,-16.667m-0.833,16.667l-11.667,0m0,6.25l0,-6.25m15,6.25l-15,0m43.75,-29.583l-2.083,29.583m-2.083,-31.25l4.167,1.667m-5.833,0.417l1.667,-2.083m-6.667,4.583l3.75,-1.25l1.25,-1.25m-12.917,-10.833l0.417,5l1.667,4.167l1.25,2.083l1.25,0.833l3.333,1.25m-0.417,-27.083l-0.833,0l-2.5,1.25l-1.25,1.25l-1.25,1.667l-1.25,4.583l-0.417,5m15,-3.333l-0.833,-4.167l-0.417,-1.667l-1.25,-1.667l-0.833,-1.25l-1.667,-0.833l-2.5,-0.833m12.917,10.417l-5.417,0m-7.5,-16.25l4.583,0.833l2.083,1.25l2.083,2.083l1.667,2.5l1.25,2.917l1.25,6.667m-25,2.917l0.833,-7.5l0.833,-3.333l1.25,-3.333l2.083,-2.5l2.083,-1.667l5,-0.833m-0.833,38.75l-4.583,-1.25l-2.083,-1.667l-1.667,-2.5l-1.25,-3.333l-0.833,-3.333l-0.833,-7.5m17.917,17.5l-3.333,1.667l-3.333,0.417m5.417,14.583l1.25,-16.667m-1.25,16.667l-15.417,0m0,6.25l0,-6.25m20,6.25l-20,0m-40.833,73.333l-1.25,0m1.25,12.5l-1.25,0m1.25,38.333l0,-38.333m0,38.333l-1.25,0m4.583,12.083l-4.583,0m4.583,-117.917l0,117.917m0,-117.917l-4.583,0m1.25,12.083l-1.25,0m1.25,42.917l0,-42.917m49.167,-140l0,-2.5l0.417,-2.083l0.833,-2.5l0.833,-2.083l2.5,-3.333l3.333,-1.667l1.667,-0.417l1.667,0l1.667,0.417l1.667,0.833l1.667,1.25l1.25,1.667l2.5,4.167l0.833,5l0,2.083l-0.833,5l-0.833,2.083l-1.25,2.083l-1.25,1.667l-3.333,2.5l-3.333,0.833l-3.333,-0.833l-1.667,-1.25l-1.25,-1.25l-1.25,-1.667l-1.667,-4.167l-0.417,-2.5l-0.417,-1.667l0,-1.667m351.667,0l0,-4.583l0.417,-2.5l0.417,-2.083l0.417,-1.667l1.25,-2.5l0.833,-0.833l0.833,-0.417l0.417,0l0.833,0.417l0.417,0.833l0.417,1.25l0.417,1.667l0.417,2.083l0,2.083l0.417,2.5l0,9.583l-0.833,4.167l-0.417,1.667l-0.833,2.5l-0.417,0.417l-0.833,0.417l-0.833,-0.417l-0.417,-0.417l-0.833,-1.25l-0.417,-1.25l-0.417,-1.667l-0.833,-2.083l0,-2.083l-0.417,-2.5l0,-3.333m11.25,29.583l-413.333,0m206.667,-82.5l202.5,0m-405,0l202.5,0m-38.333,462.917l0,40.417m-7.5,3.75l1.25,0.417l1.25,0l1.667,-0.417l0.833,-0.417l1.25,-0.833l0.417,-0.417l0.417,-0.833l0.417,-1.25m84.167,3.75l-1.25,0.417l-1.667,0l-1.25,-0.417l-0.833,-0.417l-1.25,-0.833l-1.25,-1.25l0,-1.25m0,0l0,-40.417m-185.417,-191.25l0,-90.833m0,117.917l-17.5,-30.417l-14.583,-30.417l-11.25,-30.417m-6.667,91.25l0,-117.917m34.583,-18.333l0,-6.25m15.417,0l1.25,-16.667m-6.667,2.083l-4.583,-1.25l-2.083,-1.667l-1.667,-2.5l-1.25,-3.333l-0.833,-3.333l-0.417,-7.5m0,0l0.417,-7.5l2.5,-6.667l1.667,-2.5l2.083,-1.667l3.75,-0.833m8.75,16.25l-0.833,-4.167l-0.417,-1.667l-0.833,-1.667l-1.25,-1.25l-1.25,-0.833l-2.917,-0.833m0.417,27.083l2.5,-0.833l1.667,-0.417l0.833,-1.25m0,0l1.667,-2.083m-9.167,-22.5l2.083,0m3.333,24.583l2.083,0m-1.667,6.25l2.083,0m-3.333,16.667l2.083,0m-6.25,-20.417l2.083,0m-42.083,71.667l2.917,0m40.833,64.167l2.5,0m-18.75,-149.583l2.5,0m125,381.25l1.25,14.167m-7.083,3.75l0.833,0l1.25,-0.417l1.25,0l1.25,-0.833l0.833,-0.417l1.25,-1.25l0.417,-0.833m81.25,3.75l-1.25,0l-0.833,-0.417l-1.25,0l-1.25,-0.833l-0.833,-0.417l-1.25,-1.25l-0.417,-0.833m0,0l0.417,-1.667l0.417,-3.75l0.417,-3.333l0,-5.417m-2.5,16.25l0.417,0l0,-0.417l0.417,-0.417l0,-0.417l0.417,-0.833m-72.917,2.083l71.667,0m-72.917,-2.083l0.833,1.667l0.417,0.417m50.417,-25.417l0,2.5l-0.417,2.083l-3.75,6.25l-4.167,2.5l-2.5,0.833l-2.5,0.417l-4.583,0l-2.5,-0.833l-2.083,-1.25l-1.667,-1.25l-1.667,-1.667l-1.667,-2.083l-1.667,-5l0,-4.583l0.417,-2.5l0.833,-2.083l1.25,-2.083l3.333,-3.333l2.5,-1.25l2.083,-0.833l2.5,-0.417l2.5,0l2.5,0.417l2.083,0.417l4.167,2.5l1.667,1.667l2.5,4.167l0.833,2.5l0,2.917m29.583,27.083l0,0.833l-0.417,0.417l0,0.833l-0.833,0.833l0,0.417l-0.833,0.833l-0.833,0m0,0l-0.833,0l-1.25,-0.417l-0.833,-0.417l-1.667,-1.667l-0.417,-1.25l-0.417,-0.833l0,-1.25m-77.083,5.833l-0.833,0l-1.25,-1.25l-0.417,-1.25l-0.417,-0.833l0,-0.833m2.917,4.167l0.833,0l1.25,-0.417l0.833,-0.417l1.667,-1.667l0.417,-1.25l0.417,-0.833l0,-1.25m-5.417,5.833l-77.083,0m236.667,0l-77.083,0m-225,-362.917l0,-6.25m11.667,0l0.833,-16.667m-5,2.083l-3.75,-1.25l-1.25,-1.667l-1.25,-2.5l-1.667,-6.667l0,-7.5m0,0l0.417,-7.5l0.417,-3.333l0.833,-3.333l1.667,-2.5l1.25,-1.667l2.5,-0.833m7.083,16.25l-0.417,-4.167l-0.833,-1.667l-0.417,-1.667l-0.833,-1.25l-1.25,-0.833l-2.083,-0.833m0.417,27.083l2.083,-0.833l0.833,-0.417l0.833,-1.25m0,0l0.833,-1.25m-7.5,-23.333l2.5,0m1.667,24.583l2.5,0m212.917,392.083l-82.5,0m-132.5,-385.833l2.5,0m-3.333,16.667l2.5,0m-5.833,-20.417l2.5,0m-11.667,-13.75l2.917,0m-12.5,-12.083l0.417,-2.917l1.25,-2.5l1.25,-1.25l0,-0.417m0,60l-1.25,-1.25l-1.25,-2.5l-0.417,-2.917m4.167,0.833l0.417,0l0.833,-0.417l0.833,-0.833l0.417,-0.833l0.417,-1.25l0,-1.25l0.417,-1.25l0.417,-3.75l0,-4.167l0.417,-3.75m0,0l0,-12.083m0,0l-0.417,-4.167l0,-4.167l-0.417,-3.75l-0.417,-2.917l-0.833,-2.083l-0.833,-1.25l-0.833,0l-0.417,-0.417m-6.25,17.917l0,12.5m3.333,-30.417l-0.417,0.417l-0.417,0l-0.833,1.25l-0.417,2.083l-0.417,2.5l-0.417,3.75l0,4.167l-0.417,3.75m7.5,0.833l0,-4.167l-0.417,-4.167l-0.417,-3.75l-0.417,-2.917l-0.833,-2.083l-0.833,-1.25l-0.417,0l-0.833,-0.417m4.167,30.833l0,-12.083m-3.75,29.583l0.417,0l1.25,-1.25l0.417,-0.833l0.833,-2.5l0,-1.25l0.417,-3.75l0.417,-4.167l0,-3.75m-7.5,-0.417l0.417,3.75l0,4.167l0.417,3.75l0,1.667l0.417,1.25l0.417,2.083l1.25,1.25l0.833,0m6.667,-17.5l-2.917,0m-1.25,17.5l-2.5,0m6.667,-29.583l-2.917,0m-1.25,-18.75l-2.917,0m195.417,-162.083l73.75,0m-147.5,0l73.75,0m-200.417,191.667l1.667,0m-3.75,97.5l0,-42.917m0,93.75l0,-38.333m-2.917,0l2.917,0m-2.917,38.333l2.917,0m-2.917,-93.75l2.917,0m-2.917,42.917l2.917,0m202.5,-371.667l17.5,0m-35,0l17.5,0m44.167,657.083l83.333,-0m-255,0l83.333,0m44.167,-517.083l-206.667,0m413.333,0l-206.667,0m0,-2.083l205.833,0m-411.667,0l205.833,0m0,-1.25l-204.583,0m409.167,0l-204.583,0m0,-51.25l-76.667,0m153.333,0l-76.667,0m-200.417,179.167l1.667,0m198.75,-263.333l-18.75,-0m37.5,0l-18.75,0" style="fill:none;fill-rule:nonzero;stroke:#353131;stroke-width:1.67px;stroke-miterlimit:10;"/></g></svg>