<?xml version="1.0" encoding="UTF-8"?>
<svg id="Layer_2" data-name="Layer 2" xmlns="http://www.w3.org/2000/svg" width="135.95" height="109.19" viewBox="0 0 135.95 109.19">
  <g id="Main_Layer" data-name="Main Layer">
    <g>
      <polygon points="17.86 105.71 20.17 108.81 29.74 108.81 29.74 105.71 17.86 105.71" style="fill: #333132; stroke: #2d2a2b; stroke-linejoin: round; stroke-width: .75px;"/>
      <polygon points="118.44 105.71 116.07 108.81 106.21 108.81 106.21 105.71 118.44 105.71" style="fill: #333132; stroke: #2d2a2b; stroke-linejoin: round; stroke-width: .75px;"/>
      <polygon points="35.06 1.38 35.06 8.69 35.59 9.14 50.03 9.14 50.47 8.78 50.47 1.38 49.19 0 36.38 0 35.06 1.38" style="fill: #808285; stroke-width: 0px;"/>
      <rect x="36.52" y="9.14" width="12.45" height="1.59" style="fill: #6d6e71; stroke-width: 0px;"/>
      <g>
        <polygon points="25.48 14.45 27.17 10.91 58.27 10.82 60.04 14.45 25.48 14.45" style="fill: #363436; stroke-width: 0px;"/>
        <path d="M60.29,14.6H25.24l1.83-3.85,31.3-.09,1.92,3.94ZM25.73,14.3h34.07l-1.62-3.33-30.91.09-1.54,3.24Z" style="fill: #333132; stroke-width: 0px;"/>
      </g>
      <g>
        <polygon points="19.37 22.5 22.38 13.99 100.9 13.9 113.27 23.65 19.37 22.5" style="fill: #3e3e3f; stroke-width: 0px;"/>
        <path d="M113.71,23.81h-.45s-94.11-1.16-94.11-1.16l3.12-8.81h.11l78.57-.09.04.03,12.72,10.03ZM19.59,22.35l93.23,1.14-11.97-9.44-78.35.09-2.91,8.2Z" style="fill: #3b3b3c; stroke-width: 0px;"/>
      </g>
      <g>
        <path d="M18.13,24.01l-.09,11.52H.23s0,7.09,0,7.09l17.81-.44-.18,63.54h11.87s0,3.1,0,3.1h76.47v-3.1h12.14s-.35-63.54-.35-63.54l17.72.44v-7.09h-17.72s0-11.03,0-11.03c-25.23-4.96-49.98-6.82-75.23-7.04-4.96-.05-14.76,1.28-22.06,4.43-1.14.53-2.57,1.24-2.57,2.13Z" style="fill: #414042; stroke-width: 0px;"/>
        <path d="M106.21,109.04H29.74c-.13,0-.23-.1-.23-.23v-2.87h-11.64c-.06,0-.12-.02-.16-.07s-.07-.1-.07-.16l.18-63.3-17.58.44c-.08,0-.12-.02-.17-.07s-.07-.1-.07-.16v-7.09c0-.06.02-.12.07-.16s.1-.07.16-.07h17.58s.09-11.29.09-11.29c0-1.01,1.4-1.73,2.7-2.34,7.73-3.33,17.7-4.5,22.16-4.45,28.17.25,52.09,2.49,75.28,7.05.11.02.19.12.19.23v10.8h17.49c.13,0,.23.1.23.23v7.09c0,.06-.03.12-.07.16s-.08.07-.17.07l-17.49-.44.35,63.3c0,.06-.02.12-.07.16-.04.04-.1.07-.16.07h-11.91v2.87c0,.13-.1.23-.23.23ZM29.97,108.58h76.02v-2.87c0-.13.1-.23.23-.23h11.91l-.35-63.31c0-.06.02-.12.07-.17.04-.04.1-.06.17-.07l17.49.44v-6.62h-17.49c-.13,0-.23-.1-.23-.23v-10.84c-23.09-4.53-46.94-6.76-75.01-7-4.44-.04-14.31,1.11-21.97,4.41-.79.36-2.43,1.12-2.43,1.92h0s-.09,11.52-.09,11.52c0,.13-.1.23-.23.23H.46s0,6.62,0,6.62l17.58-.44c.09,0,.12.02.17.07.04.04.07.1.07.17l-.18,63.31h11.64c.13,0,.23.1.23.23v2.87ZM18.13,24.01h0,0Z" style="fill: #3b3b3c; stroke-width: 0px;"/>
      </g>
      <path d="M21.32,105.93c-.12,0-.22-.1-.22-.22V21.62c0-.12.1-.22.22-.22s.22.1.22.22v84.09c0,.12-.1.22-.22.22Z" style="fill: #3b3b3c; stroke-width: 0px;"/>
      <path d="M115.12,105.93c-.12,0-.22-.1-.22-.22l-.31-81.7c0-.12.1-.22.22-.22h0c.12,0,.22.1.22.22l.31,81.7c0,.12-.1.22-.22.22h0Z" style="fill: #3b3b3c; stroke-width: 0px;"/>
      <line x1="118.22" y1="92.68" x2="17.9" y2="92.68" style="fill: none; stroke: #3b3b3c; stroke-linecap: round; stroke-linejoin: round; stroke-width: .71px;"/>
      <path d="M118,42.39H18.04c-.12,0-.22-.1-.22-.22s.1-.22.22-.22h99.96c.12,0,.22.1.22.22s-.1.22-.22.22Z" style="fill: #3b3b3c; stroke-width: 0px;"/>
      <line x1="42.76" y1="17.45" x2="42.78" y2="13.95" style="fill: none; stroke: #3b3b3c; stroke-linejoin: round; stroke-width: .71px;"/>
    </g>
  </g>
</svg>