<?xml version="1.0" encoding="UTF-8" standalone="no"?><!DOCTYPE svg PUBLIC "-//W3C//DTD SVG 1.1//EN" "http://www.w3.org/Graphics/SVG/1.1/DTD/svg11.dtd"><svg width="100%" height="100%" viewBox="0 0 498 1081" version="1.1" xmlns="http://www.w3.org/2000/svg" xmlns:xlink="http://www.w3.org/1999/xlink" xml:space="preserve" xmlns:serif="http://www.serif.com/" style="fill-rule:evenodd;clip-rule:evenodd;stroke-linecap:round;stroke-linejoin:round;stroke-miterlimit:10;"><g><path d="M202.225,424.249l0.553,-412.301l10.943,-10.894l70.826,0.188l10.972,11.071l-0.012,400.498l-2.717,0.992l-0.284,10.446l-90.28,0Z" style="fill:#818285;"/><rect x="0.833" y="524.085" width="496.065" height="465.747" style="fill:#3b3838;"/><path d="M175.605,1013.293l2.921,1.551l1.876,1.809l2.156,2.57l1.346,2.783l0,2.641l129.925,0.209l0,-2.365l1.03,-1.809l1.044,-2.085l1.458,-2.085l2.223,-1.947l1.253,-1.249l-145.233,-0.022Z" style="fill:#2f2a2a;"/><path d="M1.571,520.052l2.892,3.926l489.286,-0.425l3.15,-3.54l-495.328,0.039Z" style="fill:#0b0c0f;"/><path d="M7.952,441.783l-6.382,6.026l495.328,0l-6.154,-6.026l-482.792,0Z" style="fill:#343132;"/><rect x="0.833" y="447.81" width="496.065" height="72.243" style="fill:#2f2a2a;"/><rect x="136.894" y="406.715" width="224.222" height="35.069" style="fill:#2f2a2a;"/><rect x="183.903" y="1025.103" width="129.925" height="35.435" style="fill:#2f2a2a;"/><path d="M496.898,989.831c0,12.949 -10.513,23.462 -23.462,23.462l-449.141,0c-12.949,0 -23.462,-10.513 -23.462,-23.462l496.065,0Z" style="fill:#3b3838;"/><path d="M313.828,1060.538c0,3.391 -2.753,6.145 -6.145,6.145l-117.635,0c-3.391,0 -6.145,-2.753 -6.145,-6.145l129.925,0Z" style="fill:#2f2a2a;"/><rect x="219.534" y="1066.683" width="58.357" height="7.051" style="fill:#2f2a2a;"/><path d="M277.891,1073.735l0,0c0,2.809 -2.281,5.09 -5.09,5.09l-48.177,0c-2.809,0 -5.09,-2.281 -5.09,-5.09l58.357,0Z" style="fill:#2f2a2a;"/><g><path d="M295.773,406.623l0,-394.31" style="fill:none;fill-rule:nonzero;stroke:#434042;stroke-width:1.67px;"/><path d="M202.203,406.623l0,-394.31" style="fill:none;fill-rule:nonzero;stroke:#434042;stroke-width:1.67px;"/><path d="M292.058,406.623l0,-394.31" style="fill:none;fill-rule:nonzero;stroke:#434042;stroke-width:1.67px;"/><path d="M203.158,406.623l0,-394.31" style="fill:none;fill-rule:nonzero;stroke:#434042;stroke-width:1.67px;"/><path d="M208.218,406.623l0,-394.31" style="fill:none;fill-rule:nonzero;stroke:#434042;stroke-width:1.67px;"/><path d="M278.393,1073.358l0,-6.915" style="fill:none;fill-rule:nonzero;stroke:#434042;stroke-width:1.67px;"/><path d="M219.338,1066.443l0,6.915" style="fill:none;fill-rule:nonzero;stroke:#434042;stroke-width:1.67px;"/><path d="M289.473,406.623l0,-394.31" style="fill:none;fill-rule:nonzero;stroke:#434042;stroke-width:1.67px;"/><path d="M280.878,406.623l0,-394.31" style="fill:none;fill-rule:nonzero;stroke:#434042;stroke-width:1.67px;"/><path d="M211.413,406.623l0,-394.31" style="fill:none;fill-rule:nonzero;stroke:#434042;stroke-width:1.67px;"/><path d="M276.413,406.623l0,-394.31" style="fill:none;fill-rule:nonzero;stroke:#434042;stroke-width:1.67px;"/><path d="M295.518,406.623l0,-394.31" style="fill:none;fill-rule:nonzero;stroke:#434042;stroke-width:1.67px;"/><path d="M0.833,520.013l3.545,3.54" style="fill:none;fill-rule:nonzero;stroke:#434042;stroke-width:1.67px;"/><path d="M493.353,523.553l3.545,-3.54" style="fill:none;fill-rule:nonzero;stroke:#434042;stroke-width:1.67px;"/><path d="M496.898,989.673l0,-466.12" style="fill:none;fill-rule:nonzero;stroke:#434042;stroke-width:1.67px;"/><path d="M0.833,523.553l0,466.12" style="fill:none;fill-rule:nonzero;stroke:#434042;stroke-width:1.67px;"/><path d="M264.993,5.398l0.09,1.635" style="fill:none;fill-rule:nonzero;stroke:#434042;stroke-width:1.67px;"/><path d="M213.393,4.233l0.115,-0.425" style="fill:none;fill-rule:nonzero;stroke:#434042;stroke-width:1.67px;"/><path d="M496.898,520.013l0,-72.05" style="fill:none;fill-rule:nonzero;stroke:#434042;stroke-width:1.67px;"/><path d="M0.833,447.963l0,72.05" style="fill:none;fill-rule:nonzero;stroke:#434042;stroke-width:1.67px;"/><path d="M496.898,447.963l-5.905,-5.905" style="fill:none;fill-rule:nonzero;stroke:#434042;stroke-width:1.67px;"/><path d="M6.738,442.058l-5.905,5.905" style="fill:none;fill-rule:nonzero;stroke:#434042;stroke-width:1.67px;"/><path d="M244.803,406.623l0,-394.31" style="fill:none;fill-rule:nonzero;stroke:#434042;stroke-width:1.67px;"/><path d="M258.583,406.623l0,-394.31" style="fill:none;fill-rule:nonzero;stroke:#434042;stroke-width:1.67px;"/><path d="M239.073,406.623l0,-394.31" style="fill:none;fill-rule:nonzero;stroke:#434042;stroke-width:1.67px;"/><path d="M295.778,12.313l-11.48,-11.48" style="fill:none;fill-rule:nonzero;stroke:#434042;stroke-width:1.67px;"/><path d="M213.433,0.833l-3.395,3.4" style="fill:none;fill-rule:nonzero;stroke:#434042;stroke-width:1.67px;"/><path d="M202.203,12.313l1.64,-1.75" style="fill:none;fill-rule:nonzero;stroke:#434042;stroke-width:1.67px;"/><path d="M226.143,406.623l0,-394.31" style="fill:none;fill-rule:nonzero;stroke:#434042;stroke-width:1.67px;"/><path d="M221.258,406.623l0,-394.31" style="fill:none;fill-rule:nonzero;stroke:#434042;stroke-width:1.67px;"/><path d="M361.068,442.058l0,-35.435" style="fill:none;fill-rule:nonzero;stroke:#434042;stroke-width:1.67px;"/><path d="M136.663,406.623l0,35.435" style="fill:none;fill-rule:nonzero;stroke:#434042;stroke-width:1.67px;"/><path d="M264.163,406.623l0,-394.31" style="fill:none;fill-rule:nonzero;stroke:#434042;stroke-width:1.67px;"/><path d="M313.828,1060.538l0,-35.435" style="fill:none;fill-rule:nonzero;stroke:#434042;stroke-width:1.67px;"/><path d="M183.903,1025.103l0,35.435" style="fill:none;fill-rule:nonzero;stroke:#434042;stroke-width:1.67px;"/><path d="M265.083,406.623l0,-399.61" style="fill:none;fill-rule:nonzero;stroke:#434042;stroke-width:1.67px;"/><path d="M203.843,10.563c0.674,-0.707 1.347,-1.412 2.259,-2.348" style="fill:none;fill-rule:nonzero;stroke:#434042;stroke-width:1.67px;"/><path d="M206.103,8.213c1.108,-1.135 2.571,-2.612 3.376,-3.422" style="fill:none;fill-rule:nonzero;stroke:#434042;stroke-width:1.67px;"/><path d="M209.478,4.793c0.326,-0.33 0.544,-0.549 0.557,-0.561" style="fill:none;fill-rule:nonzero;stroke:#434042;stroke-width:1.67px;"/><path d="M210.033,4.233c0.002,-0.002 0.002,-0.002 0.003,-0.002" style="fill:none;fill-rule:nonzero;stroke:#434042;stroke-width:1.67px;"/><path d="M295.518,12.313c-1.448,-1.34 -2.897,-2.681 -4.39,-4.098" style="fill:none;fill-rule:nonzero;stroke:#434042;stroke-width:1.67px;"/><path d="M291.128,8.213c-1.361,-1.289 -2.76,-2.643 -3.632,-3.422" style="fill:none;fill-rule:nonzero;stroke:#434042;stroke-width:1.67px;"/><path d="M287.498,4.793c-0.364,-0.325 -0.635,-0.549 -0.65,-0.561" style="fill:none;fill-rule:nonzero;stroke:#434042;stroke-width:1.67px;"/><path d="M286.848,4.233c-0.001,-0.002 -0.001,-0.002 -0.001,-0.002" style="fill:none;fill-rule:nonzero;stroke:#434042;stroke-width:1.67px;"/><path d="M286.848,4.233c-0.208,-0.161 -0.414,-0.321 -0.581,-0.438" style="fill:none;fill-rule:nonzero;stroke:#434042;stroke-width:1.67px;"/><path d="M286.268,3.793c-0.118,-0.081 -0.217,-0.144 -0.318,-0.171" style="fill:none;fill-rule:nonzero;stroke:#434042;stroke-width:1.67px;"/><path d="M285.948,3.623c-0.068,-0.019 -0.14,-0.021 -0.168,0.004" style="fill:none;fill-rule:nonzero;stroke:#434042;stroke-width:1.67px;"/><path d="M285.778,3.628c-0.016,0.015 -0.016,0.043 -0.015,0.07" style="fill:none;fill-rule:nonzero;stroke:#434042;stroke-width:1.67px;"/><path d="M285.763,3.698c0.003,0.037 0.007,0.075 0.026,0.129" style="fill:none;fill-rule:nonzero;stroke:#434042;stroke-width:1.67px;"/><path d="M285.788,3.828c0.037,0.104 0.129,0.273 0.228,0.435" style="fill:none;fill-rule:nonzero;stroke:#434042;stroke-width:1.67px;"/><path d="M286.018,4.263c0.144,0.24 0.306,0.465 0.627,0.871" style="fill:none;fill-rule:nonzero;stroke:#434042;stroke-width:1.67px;"/><path d="M286.643,5.133c0.712,0.899 2.2,2.683 3.276,4.103" style="fill:none;fill-rule:nonzero;stroke:#434042;stroke-width:1.67px;"/><path d="M289.918,9.238c0.911,1.198 1.526,2.137 2.142,3.077" style="fill:none;fill-rule:nonzero;stroke:#434042;stroke-width:1.67px;"/><path d="M208.218,12.313c0.735,-1.336 1.47,-2.673 2.431,-4.098" style="fill:none;fill-rule:nonzero;stroke:#434042;stroke-width:1.67px;"/><path d="M210.648,8.213c0.904,-1.336 2.006,-2.75 2.44,-3.422" style="fill:none;fill-rule:nonzero;stroke:#434042;stroke-width:1.67px;"/><path d="M213.088,4.793c0.169,-0.264 0.237,-0.412 0.304,-0.561" style="fill:none;fill-rule:nonzero;stroke:#434042;stroke-width:1.67px;"/><path d="M213.508,3.808c0.003,-0.002 0.003,-0.005 0.002,-0.013" style="fill:none;fill-rule:nonzero;stroke:#434042;stroke-width:1.67px;"/><path d="M213.508,3.793c-0.002,-0.028 -0.03,-0.127 -0.084,-0.171" style="fill:none;fill-rule:nonzero;stroke:#434042;stroke-width:1.67px;"/><path d="M213.423,3.623c-0.061,-0.051 -0.157,-0.029 -0.256,0.004" style="fill:none;fill-rule:nonzero;stroke:#434042;stroke-width:1.67px;"/><path d="M213.168,3.628c-0.135,0.044 -0.274,0.108 -0.428,0.199" style="fill:none;fill-rule:nonzero;stroke:#434042;stroke-width:1.67px;"/><path d="M212.738,3.828c-0.195,0.114 -0.417,0.272 -0.633,0.435" style="fill:none;fill-rule:nonzero;stroke:#434042;stroke-width:1.67px;"/><path d="M212.103,4.263c-0.284,0.217 -0.559,0.444 -1.035,0.871" style="fill:none;fill-rule:nonzero;stroke:#434042;stroke-width:1.67px;"/><path d="M211.068,5.133c-1.006,0.904 -2.912,2.7 -4.447,4.103" style="fill:none;fill-rule:nonzero;stroke:#434042;stroke-width:1.67px;"/><path d="M206.623,9.238c-1.345,1.225 -2.404,2.151 -3.463,3.077" style="fill:none;fill-rule:nonzero;stroke:#434042;stroke-width:1.67px;"/><path d="M258.583,12.313c-1.125,-1.293 -2.25,-2.588 -3.157,-4.076" style="fill:none;fill-rule:nonzero;stroke:#434042;stroke-width:1.67px;"/><path d="M255.428,8.238c-0.811,-1.33 -1.446,-2.812 -2.043,-3.564" style="fill:none;fill-rule:nonzero;stroke:#434042;stroke-width:1.67px;"/><path d="M253.383,4.673c-0.317,-0.401 -0.625,-0.595 -0.908,-0.739" style="fill:none;fill-rule:nonzero;stroke:#434042;stroke-width:1.67px;"/><path d="M252.473,3.933c-0.213,-0.109 -0.413,-0.191 -0.634,-0.248" style="fill:none;fill-rule:nonzero;stroke:#434042;stroke-width:1.67px;"/><path d="M251.838,3.683c-0.225,-0.056 -0.472,-0.089 -0.707,-0.083" style="fill:none;fill-rule:nonzero;stroke:#434042;stroke-width:1.67px;"/><path d="M251.133,3.598c-0.225,0.008 -0.436,0.048 -0.63,0.102" style="fill:none;fill-rule:nonzero;stroke:#434042;stroke-width:1.67px;"/><path d="M250.503,3.698c-0.188,0.055 -0.36,0.12 -0.549,0.232" style="fill:none;fill-rule:nonzero;stroke:#434042;stroke-width:1.67px;"/><path d="M249.953,3.928c-0.227,0.138 -0.482,0.341 -0.671,0.552" style="fill:none;fill-rule:nonzero;stroke:#434042;stroke-width:1.67px;"/><path d="M249.283,4.478c-0.231,0.259 -0.364,0.527 -0.654,1.113" style="fill:none;fill-rule:nonzero;stroke:#434042;stroke-width:1.67px;"/><path d="M248.628,5.593c-0.629,1.27 -2,4.039 -2.827,5.386" style="fill:none;fill-rule:nonzero;stroke:#434042;stroke-width:1.67px;"/><path d="M245.803,10.978c-0.434,0.706 -0.718,1.022 -1.001,1.337" style="fill:none;fill-rule:nonzero;stroke:#434042;stroke-width:1.67px;"/><path d="M289.473,12.313c-1.58,-1.308 -3.163,-2.617 -4.784,-4.098" style="fill:none;fill-rule:nonzero;stroke:#434042;stroke-width:1.67px;"/><path d="M284.688,8.213c-1.445,-1.319 -2.921,-2.776 -3.663,-3.422" style="fill:none;fill-rule:nonzero;stroke:#434042;stroke-width:1.67px;"/><path d="M281.023,4.793c-0.318,-0.281 -0.501,-0.408 -0.742,-0.561" style="fill:none;fill-rule:nonzero;stroke:#434042;stroke-width:1.67px;"/><path d="M280.283,4.233c-0.238,-0.151 -0.53,-0.324 -0.776,-0.438" style="fill:none;fill-rule:nonzero;stroke:#434042;stroke-width:1.67px;"/><path d="M279.508,3.793c-0.195,-0.088 -0.361,-0.142 -0.528,-0.171" style="fill:none;fill-rule:nonzero;stroke:#434042;stroke-width:1.67px;"/><path d="M278.978,3.623c-0.146,-0.026 -0.295,-0.032 -0.426,0.004" style="fill:none;fill-rule:nonzero;stroke:#434042;stroke-width:1.67px;"/><path d="M278.553,3.628c-0.119,0.032 -0.222,0.099 -0.284,0.199" style="fill:none;fill-rule:nonzero;stroke:#434042;stroke-width:1.67px;"/><path d="M278.268,3.828c-0.068,0.11 -0.086,0.263 -0.104,0.415" style="fill:none;fill-rule:nonzero;stroke:#434042;stroke-width:1.67px;"/><path d="M278.163,4.243c0.001,0.005 0.001,0.01 0.001,0.02" style="fill:none;fill-rule:nonzero;stroke:#434042;stroke-width:1.67px;"/><path d="M278.163,4.263c0.006,0.071 0.054,0.406 0.211,0.871" style="fill:none;fill-rule:nonzero;stroke:#434042;stroke-width:1.67px;"/><path d="M278.373,5.133c0.35,1.038 1.237,2.719 1.748,4.103" style="fill:none;fill-rule:nonzero;stroke:#434042;stroke-width:1.67px;"/><path d="M280.123,9.238c0.429,1.165 0.592,2.121 0.756,3.077" style="fill:none;fill-rule:nonzero;stroke:#434042;stroke-width:1.67px;"/><path d="M276.413,12.313c-1.476,-1.299 -2.95,-2.599 -4.358,-4.098" style="fill:none;fill-rule:nonzero;stroke:#434042;stroke-width:1.67px;"/><path d="M272.053,8.213c-1.231,-1.311 -2.413,-2.777 -3.059,-3.422" style="fill:none;fill-rule:nonzero;stroke:#434042;stroke-width:1.67px;"/><path d="M268.993,4.793c-0.286,-0.289 -0.468,-0.414 -0.711,-0.561" style="fill:none;fill-rule:nonzero;stroke:#434042;stroke-width:1.67px;"/><path d="M268.283,4.233c-0.249,-0.152 -0.561,-0.326 -0.834,-0.438" style="fill:none;fill-rule:nonzero;stroke:#434042;stroke-width:1.67px;"/><path d="M267.448,3.793c-0.23,-0.093 -0.433,-0.143 -0.646,-0.171" style="fill:none;fill-rule:nonzero;stroke:#434042;stroke-width:1.67px;"/><path d="M266.803,3.623c-0.204,-0.027 -0.415,-0.031 -0.613,0.004" style="fill:none;fill-rule:nonzero;stroke:#434042;stroke-width:1.67px;"/><path d="M266.188,3.628c-0.187,0.033 -0.365,0.104 -0.523,0.199" style="fill:none;fill-rule:nonzero;stroke:#434042;stroke-width:1.67px;"/><path d="M265.663,3.828c-0.162,0.098 -0.306,0.223 -0.416,0.435" style="fill:none;fill-rule:nonzero;stroke:#434042;stroke-width:1.67px;"/><path d="M265.248,4.263c-0.136,0.26 -0.221,0.649 -0.248,0.871" style="fill:none;fill-rule:nonzero;stroke:#434042;stroke-width:1.67px;"/><path d="M264.998,5.133c-0.012,0.121 -0.009,0.192 -0.006,0.263" style="fill:none;fill-rule:nonzero;stroke:#434042;stroke-width:1.67px;"/><path d="M265.083,7.033c-0.019,0.707 -0.04,1.413 -0.165,2.203" style="fill:none;fill-rule:nonzero;stroke:#434042;stroke-width:1.67px;"/><path d="M264.918,9.238c-0.151,0.944 -0.453,2.011 -0.755,3.077" style="fill:none;fill-rule:nonzero;stroke:#434042;stroke-width:1.67px;"/><path d="M239.073,12.313c-0.571,-1.308 -1.143,-2.619 -1.436,-4.098" style="fill:none;fill-rule:nonzero;stroke:#434042;stroke-width:1.67px;"/><path d="M237.638,8.213c-0.262,-1.317 -0.301,-2.771 -0.466,-3.422" style="fill:none;fill-rule:nonzero;stroke:#434042;stroke-width:1.67px;"/><path d="M237.173,4.793c-0.072,-0.282 -0.166,-0.413 -0.306,-0.561" style="fill:none;fill-rule:nonzero;stroke:#434042;stroke-width:1.67px;"/><path d="M236.868,4.233c-0.146,-0.156 -0.341,-0.328 -0.535,-0.438" style="fill:none;fill-rule:nonzero;stroke:#434042;stroke-width:1.67px;"/><path d="M236.333,3.793c-0.177,-0.098 -0.354,-0.146 -0.547,-0.171" style="fill:none;fill-rule:nonzero;stroke:#434042;stroke-width:1.67px;"/><path d="M235.788,3.623c-0.208,-0.027 -0.431,-0.026 -0.652,0.004" style="fill:none;fill-rule:nonzero;stroke:#434042;stroke-width:1.67px;"/><path d="M235.138,3.628c-0.239,0.031 -0.473,0.097 -0.714,0.199" style="fill:none;fill-rule:nonzero;stroke:#434042;stroke-width:1.67px;"/><path d="M234.423,3.828c-0.264,0.111 -0.537,0.266 -0.786,0.435" style="fill:none;fill-rule:nonzero;stroke:#434042;stroke-width:1.67px;"/><path d="M233.638,4.263c-0.299,0.203 -0.563,0.426 -0.96,0.871" style="fill:none;fill-rule:nonzero;stroke:#434042;stroke-width:1.67px;"/><path d="M232.678,5.133c-0.804,0.903 -2.156,2.716 -3.384,4.103" style="fill:none;fill-rule:nonzero;stroke:#434042;stroke-width:1.67px;"/><path d="M229.293,9.238c-1.118,1.26 -2.134,2.168 -3.15,3.077" style="fill:none;fill-rule:nonzero;stroke:#434042;stroke-width:1.67px;"/><path d="M221.258,12.313c0.085,-1.31 0.167,-2.621 0.545,-4.098" style="fill:none;fill-rule:nonzero;stroke:#434042;stroke-width:1.67px;"/><path d="M221.803,8.213c0.352,-1.374 0.961,-2.893 1.081,-3.422" style="fill:none;fill-rule:nonzero;stroke:#434042;stroke-width:1.67px;"/><path d="M222.883,4.793c0.035,-0.153 0.03,-0.224 0.024,-0.294" style="fill:none;fill-rule:nonzero;stroke:#434042;stroke-width:1.67px;"/><path d="M222.908,4.498c-0.002,-0.081 -0.003,-0.163 -0.024,-0.266" style="fill:none;fill-rule:nonzero;stroke:#434042;stroke-width:1.67px;"/><path d="M222.883,4.233c-0.029,-0.142 -0.097,-0.322 -0.227,-0.438" style="fill:none;fill-rule:nonzero;stroke:#434042;stroke-width:1.67px;"/><path d="M222.658,3.793c-0.118,-0.101 -0.282,-0.154 -0.349,-0.171" style="fill:none;fill-rule:nonzero;stroke:#434042;stroke-width:1.67px;"/><path d="M222.308,3.623c-0.022,-0.007 -0.033,-0.008 -0.045,-0.01" style="fill:none;fill-rule:nonzero;stroke:#434042;stroke-width:1.67px;"/><path d="M222.263,3.613c-0.146,-0.005 -0.291,-0.01 -0.451,0.014" style="fill:none;fill-rule:nonzero;stroke:#434042;stroke-width:1.67px;"/><path d="M221.813,3.628c-0.193,0.028 -0.404,0.099 -0.624,0.199" style="fill:none;fill-rule:nonzero;stroke:#434042;stroke-width:1.67px;"/><path d="M221.188,3.828c-0.255,0.115 -0.523,0.269 -0.777,0.435" style="fill:none;fill-rule:nonzero;stroke:#434042;stroke-width:1.67px;"/><path d="M220.413,4.263c-0.319,0.208 -0.613,0.433 -1.094,0.871" style="fill:none;fill-rule:nonzero;stroke:#434042;stroke-width:1.67px;"/><path d="M219.318,5.133c-0.99,0.904 -2.775,2.71 -4.286,4.103" style="fill:none;fill-rule:nonzero;stroke:#434042;stroke-width:1.67px;"/><path d="M215.033,9.238c-1.353,1.245 -2.486,2.161 -3.619,3.077" style="fill:none;fill-rule:nonzero;stroke:#434042;stroke-width:1.67px;"/><path d="M225.243,1079.263l47.245,0" style="fill:none;fill-rule:nonzero;stroke:#434042;stroke-width:1.67px;"/><path d="M272.488,1079.263c3.261,0 5.905,-2.644 5.905,-5.905" style="fill:none;fill-rule:nonzero;stroke:#434042;stroke-width:1.67px;"/><path d="M219.338,1073.358c-0,3.261 2.644,5.905 5.905,5.905" style="fill:none;fill-rule:nonzero;stroke:#434042;stroke-width:1.67px;"/><path d="M203.158,12.313l-0.955,0" style="fill:none;fill-rule:nonzero;stroke:#434042;stroke-width:1.67px;"/><path d="M211.413,12.313l-3.195,0" style="fill:none;fill-rule:nonzero;stroke:#434042;stroke-width:1.67px;"/><path d="M264.163,12.313l-5.58,0" style="fill:none;fill-rule:nonzero;stroke:#434042;stroke-width:1.67px;"/><path d="M280.878,12.313l-4.465,0" style="fill:none;fill-rule:nonzero;stroke:#434042;stroke-width:1.67px;"/><path d="M24.458,1013.293l448.815,-0" style="fill:none;fill-rule:nonzero;stroke:#434042;stroke-width:1.67px;"/><path d="M226.143,12.313l-4.885,0" style="fill:none;fill-rule:nonzero;stroke:#434042;stroke-width:1.67px;"/><path d="M284.298,0.833l-70.865,0" style="fill:none;fill-rule:nonzero;stroke:#434042;stroke-width:1.67px;"/><path d="M473.273,1013.293c13.048,0 23.624,-10.576 23.624,-23.622" style="fill:none;fill-rule:nonzero;stroke:#434042;stroke-width:1.67px;"/><path d="M0.833,989.673c0.001,13.044 10.577,23.62 23.623,23.62" style="fill:none;fill-rule:nonzero;stroke:#434042;stroke-width:1.67px;"/><path d="M496.898,989.673l-496.065,0" style="fill:none;fill-rule:nonzero;stroke:#434042;stroke-width:1.67px;"/><path d="M0.833,447.963l496.065,0" style="fill:none;fill-rule:nonzero;stroke:#434042;stroke-width:1.67px;"/><path d="M490.993,442.058l-484.255,0" style="fill:none;fill-rule:nonzero;stroke:#434042;stroke-width:1.67px;"/><path d="M289.473,12.313l2.585,0" style="fill:none;fill-rule:nonzero;stroke:#434042;stroke-width:1.67px;"/><path d="M496.898,523.553l-496.065,0" style="fill:none;fill-rule:nonzero;stroke:#434042;stroke-width:1.67px;"/><path d="M244.803,12.313l-5.73,0" style="fill:none;fill-rule:nonzero;stroke:#434042;stroke-width:1.67px;"/><path d="M361.068,406.623l-224.405,0" style="fill:none;fill-rule:nonzero;stroke:#434042;stroke-width:1.67px;"/><path d="M313.828,1025.103c-0.002,-6.522 5.286,-11.81 11.809,-11.81" style="fill:none;fill-rule:nonzero;stroke:#434042;stroke-width:1.67px;"/><path d="M172.093,1013.293c6.524,0 11.812,5.288 11.812,11.811" style="fill:none;fill-rule:nonzero;stroke:#434042;stroke-width:1.67px;"/><path d="M183.903,1025.103l129.925,0" style="fill:none;fill-rule:nonzero;stroke:#434042;stroke-width:1.67px;"/><path d="M307.918,1066.443c3.264,-0 5.908,-2.644 5.908,-5.906" style="fill:none;fill-rule:nonzero;stroke:#434042;stroke-width:1.67px;"/><path d="M183.903,1060.538c0.002,3.261 2.646,5.905 5.907,5.905" style="fill:none;fill-rule:nonzero;stroke:#434042;stroke-width:1.67px;"/><path d="M496.898,520.013l-496.065,0" style="fill:none;fill-rule:nonzero;stroke:#434042;stroke-width:1.67px;"/><path d="M313.828,1060.538l-129.925,0" style="fill:none;fill-rule:nonzero;stroke:#434042;stroke-width:1.67px;"/><path d="M278.393,1073.358l-59.055,0" style="fill:none;fill-rule:nonzero;stroke:#434042;stroke-width:1.67px;"/><path d="M189.808,1066.443l118.11,0" style="fill:none;fill-rule:nonzero;stroke:#434042;stroke-width:1.67px;"/><path d="M295.518,12.313l0.26,0" style="fill:none;fill-rule:nonzero;stroke:#434042;stroke-width:1.67px;"/></g></g></svg>