<?xml version="1.0" encoding="UTF-8"?>
<svg id="Layer_2" data-name="Layer 2" xmlns="http://www.w3.org/2000/svg" width="74.33" height="83.63" viewBox="0 0 74.33 83.63">
  <g id="Main_Layer" data-name="Main Layer">
    <g>
      <g>
        <g>
          <path d="M16.88,8.36v10.52c0,5.39-2.99,7.69-6.97,8.56-5.61.96-9.91,5.87-9.91,11.73h0c0,5.87,4.31,10.79,9.93,11.74,3.65.79,6.95,2.73,6.95,8.39v15.99c0,4.62,3.74,8.36,8.36,8.36h23.86c4.62,0,8.36-3.74,8.36-8.36v-15.99c0-5.66,3.3-7.6,6.95-8.39,5.61-.95,9.93-5.86,9.93-11.74h0c0-5.87-4.3-10.78-9.91-11.73-3.98-.87-6.97-3.17-6.97-8.56v-10.52c0-4.62-3.74-8.36-8.36-8.36h-23.86c-4.62,0-8.36,3.74-8.36,8.36Z" style="fill: #363436; stroke-width: 0px;"/>
          <path d="M1.45,39.17c0-2.47.89-4.87,2.5-6.77,1.6-1.87,3.8-3.13,6.2-3.54.02,0,.04,0,.06-.01,5.38-1.17,8.11-4.53,8.11-9.98v-10.52c0-3.81,3.1-6.91,6.91-6.91h23.86c3.81,0,6.91,3.1,6.91,6.91v10.52c0,5.45,2.73,8.81,8.11,9.98.02,0,.04,0,.06.01,2.4.41,4.6,1.66,6.2,3.54,1.61,1.89,2.5,4.29,2.5,6.77s-.89,4.88-2.51,6.77c-1.6,1.87-3.81,3.13-6.21,3.53-.02,0-.04,0-.07.01-5.37,1.16-8.1,4.46-8.1,9.81v15.99c0,3.81-3.1,6.91-6.91,6.91h-23.86c-3.81,0-6.91-3.1-6.91-6.91v-15.99c0-5.35-2.72-8.64-8.1-9.81-.02,0-.04,0-.07-.01-2.4-.41-4.61-1.66-6.21-3.53-1.62-1.89-2.51-4.3-2.51-6.77M0,39.17h0c0,5.87,4.31,10.79,9.93,11.74,3.65.79,6.95,2.73,6.95,8.39v15.99c0,4.62,3.74,8.36,8.36,8.36h23.86c4.62,0,8.36-3.74,8.36-8.36v-15.99c0-5.66,3.3-7.6,6.95-8.39,5.61-.95,9.93-5.86,9.93-11.74h0c0-5.87-4.3-10.78-9.91-11.73-3.98-.87-6.97-3.17-6.97-8.56v-10.52c0-4.62-3.74-8.36-8.36-8.36h-23.86c-4.62,0-8.36,3.74-8.36,8.36v10.52c0,5.39-2.99,7.69-6.97,8.56-5.61.96-9.91,5.87-9.91,11.73h0Z" style="fill: #302e2f; stroke-width: 0px;"/>
        </g>
        <g>
          <circle cx="11.71" cy="39.16" r="4.87" style="fill: #fff; stroke-width: 0px;"/>
          <path d="M6.84,39.16c0-2.69,2.18-4.87,4.87-4.87s4.87,2.18,4.87,4.87-2.18,4.87-4.87,4.87-4.87-2.18-4.87-4.87M5.39,39.16c0,3.49,2.84,6.32,6.32,6.32s6.32-2.84,6.32-6.32-2.84-6.32-6.32-6.32-6.32,2.84-6.32,6.32h0Z" style="fill: #302e2f; stroke-width: 0px;"/>
        </g>
        <g>
          <circle cx="62.16" cy="39.16" r="4.87" style="fill: #fff; stroke-width: 0px;"/>
          <path d="M57.29,39.16c0-2.69,2.18-4.87,4.87-4.87s4.87,2.18,4.87,4.87-2.18,4.87-4.87,4.87-4.87-2.18-4.87-4.87M55.84,39.16c0,3.49,2.84,6.32,6.32,6.32s6.32-2.84,6.32-6.32-2.84-6.32-6.32-6.32-6.32,2.84-6.32,6.32h0Z" style="fill: #302e2f; stroke-width: 0px;"/>
        </g>
        <rect x="23.1" y="46.59" width="28.56" height="26.69" transform="translate(-22.56 97.32) rotate(-90)" style="fill: #295126; stroke-width: 0px;"/>
        <rect x="21.87" y="14.14" width="31.09" height="31.95" transform="translate(7.3 67.53) rotate(-90)" style="fill: #373637; stroke-width: 0px;"/>
        <rect x="23.17" y="18.1" width="28.42" height="26.69" transform="translate(5.93 68.83) rotate(-90)" style="fill: #3b3b3c; stroke-width: 0px;"/>
        <rect x="25.84" y="20.77" width="23.37" height="21.49" transform="translate(6 69.04) rotate(-90)" style="fill: #3e3e3f; stroke-width: 0px;"/>
      </g>
      <rect x="26.18" y="66.44" width="22.09" height="6.57" rx="1" ry="1" style="fill: #2d2a2b; stroke-width: 0px;"/>
      <path d="M29.92,62.77h2.86v7.6c0,.73-.59,1.32-1.32,1.32h-.22c-.73,0-1.32-.59-1.32-1.32v-7.6h0Z" style="fill: #bcbec0; stroke-width: 0px;"/>
      <path d="M36.09,62.77h2.86v7.6c0,.73-.59,1.32-1.32,1.32h-.22c-.73,0-1.32-.59-1.32-1.32v-7.6h0Z" style="fill: #bcbec0; stroke-width: 0px;"/>
      <path d="M42.26,62.77h2.86v7.6c0,.73-.59,1.32-1.32,1.32h-.22c-.73,0-1.32-.59-1.32-1.32v-7.6h0Z" style="fill: #bcbec0; stroke-width: 0px;"/>
    </g>
  </g>
</svg>