<?xml version="1.0" encoding="UTF-8"?>
<svg id="Layer_2" data-name="Layer 2" xmlns="http://www.w3.org/2000/svg" width="456.57" height="210.03" viewBox="0 0 456.57 210.03">
  <g id="Main_Layer" data-name="Main Layer">
    <g>
      <rect x="8.54" width="448.04" height="210.03" rx="16.43" ry="16.43" transform="translate(465.11 210.03) rotate(180)" style="fill: #333132; stroke-width: 0px;"/>
      <rect x="10.71" y="2.27" width="443.69" height="205.49" rx="14.48" ry="14.48" transform="translate(465.11 210.03) rotate(180)" style="fill: #393839; stroke-width: 0px;"/>
      <rect x="368.67" y="194.43" width="27.21" height="15.6" transform="translate(764.56 404.45) rotate(180)" style="fill: #333132; stroke-width: 0px;"/>
      <rect x="69.02" y="194.43" width="27.21" height="15.6" transform="translate(165.25 404.45) rotate(180)" style="fill: #333132; stroke-width: 0px;"/>
      <rect x="368.83" width="27.21" height="15.6" transform="translate(764.87 15.6) rotate(180)" style="fill: #333132; stroke-width: 0px;"/>
      <rect x="69.17" y=".11" width="27.21" height="15.6" transform="translate(165.56 15.83) rotate(180)" style="fill: #333132; stroke-width: 0px;"/>
      <g>
        <rect x="179.73" y="11.68" width="123.89" height="18.76" rx="4" ry="4" transform="translate(483.36 42.13) rotate(180)" style="fill: #373637; stroke-width: 0px;"/>
        <path d="M183.73,11.06h115.89c2.55,0,4.63,2.08,4.63,4.63v10.76c0,2.55-2.08,4.63-4.63,4.63h-115.89c-2.55,0-4.63-2.08-4.63-4.63v-10.76c0-2.55,2.08-4.63,4.63-4.63ZM299.62,29.82c1.86,0,3.38-1.51,3.38-3.38v-10.76c0-1.86-1.51-3.38-3.38-3.38h-115.89c-1.86,0-3.38,1.51-3.38,3.38v10.76c0,1.86,1.51,3.38,3.38,3.38h115.89Z" style="fill: #333132; stroke-width: 0px;"/>
      </g>
      <path d="M0,160.58h7.4c.66,0,1.19.53,1.19,1.19v7.55c0,.66-.53,1.19-1.19,1.19H0v-9.93h0Z" transform="translate(8.59 331.1) rotate(180)" style="fill: #a7a9ac; stroke-width: 0px;"/>
      <path d="M0,147.23h7.4c.66,0,1.19.53,1.19,1.19v7.55c0,.66-.53,1.19-1.19,1.19H0v-9.93h0Z" transform="translate(8.59 304.4) rotate(180)" style="fill: #a7a9ac; stroke-width: 0px;"/>
      <path d="M241.68,27.21c-3.39,0-6.15-2.76-6.15-6.15s2.76-6.15,6.15-6.15,6.15,2.76,6.15,6.15-2.76,6.15-6.15,6.15M241.68,28.05c3.85,0,6.98-3.12,6.98-6.98s-3.12-6.98-6.98-6.98-6.98,3.12-6.98,6.98,3.12,6.98,6.98,6.98h0Z" style="fill: #bcbec0; stroke-width: 0px;"/>
      <path d="M217.19,27.21c-3.39,0-6.15-2.76-6.15-6.15s2.76-6.15,6.15-6.15,6.15,2.76,6.15,6.15-2.76,6.15-6.15,6.15M217.19,28.05c3.85,0,6.98-3.12,6.98-6.98s-3.12-6.98-6.98-6.98-6.98,3.12-6.98,6.98,3.12,6.98,6.98,6.98h0Z" style="fill: #bcbec0; stroke-width: 0px;"/>
      <path d="M266.85,27.21c-3.39,0-6.15-2.76-6.15-6.15s2.76-6.15,6.15-6.15,6.15,2.76,6.15,6.15-2.76,6.15-6.15,6.15M266.85,28.05c3.85,0,6.98-3.12,6.98-6.98s-3.12-6.98-6.98-6.98-6.98,3.12-6.98,6.98,3.12,6.98,6.98,6.98h0Z" style="fill: #bcbec0; stroke-width: 0px;"/>
      <path d="M292.02,27.21c-3.39,0-6.15-2.76-6.15-6.15s2.76-6.15,6.15-6.15,6.15,2.76,6.15,6.15-2.76,6.15-6.15,6.15M292.02,28.05c3.85,0,6.98-3.12,6.98-6.98s-3.12-6.98-6.98-6.98-6.98,3.12-6.98,6.98,3.12,6.98,6.98,6.98h0Z" style="fill: #bcbec0; stroke-width: 0px;"/>
      <path d="M192.71,27.21c-3.39,0-6.15-2.76-6.15-6.15s2.76-6.15,6.15-6.15,6.15,2.76,6.15,6.15-2.76,6.15-6.15,6.15M192.71,28.05c3.85,0,6.98-3.12,6.98-6.98s-3.12-6.98-6.98-6.98-6.98,3.12-6.98,6.98,3.12,6.98,6.98,6.98h0Z" style="fill: #bcbec0; stroke-width: 0px;"/>
    </g>
  </g>
</svg>